<?xml version="1.0" encoding="UTF-8" standalone="no"?><!DOCTYPE svg PUBLIC "-//W3C//DTD SVG 1.1//EN" "http://www.w3.org/Graphics/SVG/1.1/DTD/svg11.dtd"><svg width="100%" height="100%" viewBox="0 0 467 712" version="1.1" xmlns="http://www.w3.org/2000/svg" xmlns:xlink="http://www.w3.org/1999/xlink" xml:space="preserve" xmlns:serif="http://www.serif.com/" style="fill-rule:evenodd;clip-rule:evenodd;stroke-linecap:round;stroke-miterlimit:10;"><path d="M64.5,583c35.6,0 64.5,28.9 64.5,64.5c0,35.6 -28.9,64.5 -64.5,64.5c-35.6,0 -64.5,-28.9 -64.5,-64.5c0,-35.6 28.9,-64.5 64.5,-64.5Z" style="fill:#ff909e;fill-rule:nonzero;"/><path d="M338,428c71.2,0 129,57.8 129,129l-129,0l0,-129Z" style="fill:#77e7b6;fill-rule:nonzero;"/><path d="M5,114.5l110.3,-110.2" style="fill:none;stroke:#ffc107;stroke-width:4px;"/><path d="M75.8,2.8l-73.5,73.5" style="fill:none;stroke:#ffc107;stroke-width:4px;"/><path d="M3.1,34.6l32.3,-32.2" style="fill:none;stroke:#ffc107;stroke-width:4px;"/><path d="M3.6,53.1l50.3,-50.2" style="fill:none;stroke:#ffc107;stroke-width:4px;"/><path d="M45.2,115.2l71,-71" style="fill:none;stroke:#ffc107;stroke-width:4px;"/><path d="M21.2,118.2l96,-96" style="fill:none;stroke:#ffc107;stroke-width:4px;"/><path d="M2.2,96.2l94,-94" style="fill:none;stroke:#ffc107;stroke-width:4px;"/><path d="M84.4,116.9l33.2,-33.3" style="fill:none;stroke:#ffc107;stroke-width:4px;"/><path d="M66.9,116.4l50.2,-50.3" style="fill:none;stroke:#ffc107;stroke-width:4px;"/></svg>