<?xml version="1.0" encoding="UTF-8" standalone="no"?>
<!DOCTYPE svg PUBLIC "-//W3C//DTD SVG 1.1//EN" "http://www.w3.org/Graphics/SVG/1.1/DTD/svg11.dtd">
<svg width="100%" height="100%" viewBox="0 0 289 285" version="1.1" xmlns="http://www.w3.org/2000/svg" xmlns:xlink="http://www.w3.org/1999/xlink" xml:space="preserve" xmlns:serif="http://www.serif.com/" style="fill-rule:evenodd;clip-rule:evenodd;stroke-linejoin:round;stroke-miterlimit:1.41421;">
    <g transform="matrix(1.11028,0,0,1.11028,-77.5559,-24.0325)">
        <path d="M328.63,242.12L71.37,242.12C71.096,242.12 70.87,241.894 70.87,241.62C70.87,241.346 71.096,241.12 71.37,241.12L328.63,241.12C328.904,241.12 329.13,241.346 329.13,241.62C329.13,241.894 328.904,242.12 328.63,242.12Z" style="fill:rgb(209,211,212);fill-rule:nonzero;"/>
        <rect x="249.66" y="154.42" width="57.43" height="98.6" style="fill:white;"/>
        <path d="M307.09,253.52L249.66,253.52C249.386,253.52 249.16,253.294 249.16,253.02L249.16,154.42C249.16,154.146 249.386,153.92 249.66,153.92L307.09,153.92C307.364,153.92 307.59,154.146 307.59,154.42L307.59,253C307.59,253.007 307.59,253.013 307.59,253.02C307.59,253.294 307.365,253.52 307.09,253.52C307.09,253.52 307.09,253.52 307.09,253.52ZM250.16,252.52L306.59,252.52L306.59,154.92L250.16,154.92L250.16,252.52Z" style="fill:rgb(35,31,32);fill-rule:nonzero;"/>
        <rect x="91.44" y="154.42" width="57.43" height="98.6" style="fill:white;"/>
        <path d="M148.87,253.52L91.44,253.52C91.166,253.52 90.94,253.294 90.94,253.02L90.94,154.42C90.94,154.146 91.166,153.92 91.44,153.92L148.87,153.92C149.144,153.92 149.37,154.146 149.37,154.42L149.37,253C149.37,253.007 149.37,253.013 149.37,253.02C149.37,253.294 149.145,253.52 148.87,253.52C148.87,253.52 148.87,253.52 148.87,253.52ZM91.94,252.52L148.37,252.52L148.37,154.92L91.94,154.92L91.94,252.52Z" style="fill:rgb(35,31,32);fill-rule:nonzero;"/>
        <path d="M260.35,125.83L271.72,148.66L240.97,148.66L260.35,125.83Z" style="fill:rgb(35,31,32);fill-rule:nonzero;"/>
        <path d="M271.72,149.16L241,149.16C240.804,149.16 240.625,149.047 240.54,148.87C240.459,148.693 240.491,148.485 240.62,148.34L260,125.51C260.105,125.379 260.274,125.314 260.44,125.34C260.607,125.359 260.754,125.46 260.83,125.61L272.19,148.44C272.276,148.588 272.276,148.772 272.19,148.92C272.094,149.084 271.91,149.178 271.72,149.16ZM242.05,148.16L270.91,148.16L260.24,126.74L242.05,148.16Z" style="fill:rgb(35,31,32);fill-rule:nonzero;"/>
        <path d="M173.02,148.66L246.23,148.66L272.79,109.74L203.68,109.74L173.02,148.66Z" style="fill:rgb(35,31,32);fill-rule:nonzero;"/>
        <path d="M246.23,149.16L173,149.16C172.727,149.159 172.502,148.933 172.502,148.66C172.502,148.548 172.54,148.438 172.61,148.35L203.27,109.43C203.363,109.31 203.508,109.239 203.66,109.24L272.77,109.24C272.954,109.246 273.122,109.349 273.21,109.51C273.309,109.669 273.309,109.871 273.21,110.03L246.65,148.94C246.557,149.081 246.398,149.164 246.23,149.16ZM174.05,148.16L246,148.16L271.88,110.24L203.92,110.24L174.05,148.16Z" style="fill:rgb(35,31,32);fill-rule:nonzero;"/>
        <path d="M205.88,113.52L184,141.87L238.33,141.87L258.89,113.52L205.88,113.52Z" style="fill:white;fill-rule:nonzero;"/>
        <path d="M238.33,142.37L184,142.37C183.809,142.37 183.634,142.261 183.55,142.09C183.455,141.926 183.455,141.724 183.55,141.56L205.44,113.21C205.533,113.09 205.678,113.019 205.83,113.02L258.83,113.02C259.016,113.017 259.188,113.122 259.27,113.29C259.369,113.449 259.369,113.651 259.27,113.81L238.71,142.16C238.623,142.285 238.482,142.363 238.33,142.37ZM185.02,141.37L238.02,141.37L257.91,114L206.13,114L185.02,141.37Z" style="fill:rgb(35,31,32);fill-rule:nonzero;"/>
        <path d="M221.44,136.71C221.227,136.708 221.038,136.571 220.97,136.37C218.34,128.62 214.68,120.12 213.35,119.92C211.76,119.92 201.56,128.35 192.5,136.59C192.407,136.675 192.286,136.722 192.16,136.722C191.884,136.722 191.658,136.496 191.658,136.22C191.658,136.079 191.716,135.945 191.82,135.85C194.96,133 210.57,118.93 213.44,118.93L213.55,118.93C216.11,119.32 220.64,132.13 221.97,136.05C221.988,136.102 221.997,136.156 221.997,136.211C221.997,136.426 221.856,136.617 221.65,136.68C221.584,136.708 221.511,136.719 221.44,136.71Z" style="fill:rgb(209,211,212);fill-rule:nonzero;"/>
        <path d="M237.76,137.75C237.536,137.749 237.338,137.597 237.28,137.38C235.52,131.13 233.01,124.46 231.83,124.11C230.65,123.76 225.17,128.71 220.71,133.47C220.615,133.57 220.483,133.627 220.345,133.627C220.069,133.627 219.843,133.401 219.843,133.125C219.843,132.997 219.892,132.873 219.98,132.78C222.26,130.35 229.86,122.48 232.12,123.16C234.38,123.84 237.62,134.9 238.24,137.16C238.253,137.205 238.26,137.253 238.26,137.3C238.26,137.522 238.113,137.718 237.9,137.78L237.76,137.75Z" style="fill:rgb(209,211,212);fill-rule:nonzero;"/>
        <path d="M253.83,129C252.6,129 251.63,128.41 251.63,127.66C251.63,126.91 252.63,126.33 253.83,126.33C255.03,126.33 256.03,126.91 256.03,127.66C256.03,128.41 255.06,129 253.83,129ZM253.83,126.58C252.77,126.58 251.83,127.07 251.83,127.66C251.83,128.25 252.72,128.75 253.83,128.75C254.94,128.75 255.78,128.25 255.78,127.66C255.78,127.07 254.89,126.61 253.83,126.61L253.83,126.58Z" style="fill:rgb(167,169,172);fill-rule:nonzero;"/>
        <path d="M262.57,117.66L258.13,117.66C258.066,117.655 258.015,117.604 258.01,117.54C258.01,117.472 258.063,117.415 258.13,117.41L262.57,117.41C262.57,117.41 262.57,117.41 262.57,117.41C262.636,117.41 262.69,117.464 262.69,117.53C262.69,117.533 262.69,117.537 262.69,117.54C262.69,117.606 262.636,117.66 262.57,117.66Z" style="fill:rgb(167,169,172);fill-rule:nonzero;"/>
        <path d="M246.23,149.16C246.123,149.161 246.019,149.13 245.93,149.07C245.712,148.905 245.663,148.593 245.82,148.37L260,128.91C260.094,128.78 260.245,128.704 260.405,128.704C260.511,128.704 260.614,128.737 260.7,128.8C260.918,128.965 260.967,129.277 260.81,129.5L246.63,149C246.527,149.11 246.38,149.168 246.23,149.16Z" style="fill:white;fill-rule:nonzero;"/>
        <path d="M221.44,120.74C220.233,120.74 219.24,119.747 219.24,118.54C219.24,117.333 220.233,116.34 221.44,116.34C222.647,116.34 223.64,117.333 223.64,118.54C223.64,119.747 222.647,120.74 221.44,120.74ZM221.44,117.34C220.782,117.34 220.24,117.882 220.24,118.54C220.24,119.198 220.782,119.74 221.44,119.74C222.098,119.74 222.64,119.198 222.64,118.54C222.64,118.537 222.64,118.533 222.64,118.53C222.64,117.877 222.103,117.34 221.45,117.34C221.447,117.34 221.443,117.34 221.44,117.34Z" style="fill:rgb(209,211,212);fill-rule:nonzero;"/>
        <rect x="83.81" y="149.51" width="225.72" height="9.57" style="fill:white;"/>
        <path d="M309.54,159.58L83.81,159.58C83.536,159.58 83.31,159.354 83.31,159.08L83.31,149.51C83.315,149.238 83.538,149.015 83.81,149.01L309.54,149.01C309.812,149.015 310.035,149.238 310.04,149.51L310.04,159.08C310.04,159.354 309.814,159.58 309.54,159.58ZM84.31,158.58L309,158.58L309,150L84.31,150L84.31,158.58Z" style="fill:rgb(35,31,32);fill-rule:nonzero;"/>
        <path d="M168.71,201.28C168.92,201.99 156.29,247.33 156.29,247.33L173.94,250.17L194.8,187.53L168.71,201.28Z" style="fill:white;fill-rule:nonzero;"/>
        <path d="M173.94,250.67L173.86,250.67L156.21,247.83C156.068,247.809 155.94,247.729 155.86,247.61C155.79,247.485 155.769,247.339 155.8,247.2C160.73,229.54 168.07,202.83 168.21,201.33C168.196,201.131 168.302,200.941 168.48,200.85L194.57,187.1C194.752,187.009 194.972,187.032 195.13,187.16C195.279,187.296 195.337,187.506 195.28,187.7L174.41,250.34C174.341,250.539 174.151,250.673 173.94,250.67ZM156.94,246.92L173.62,249.61L193.96,188.56L169.16,201.62C168.61,204.49 164.5,219.7 156.92,246.92L156.94,246.92Z" style="fill:rgb(35,31,32);fill-rule:nonzero;"/>
        <path d="M155.22,245.37L152.53,253.83L194.8,257.1C192.816,253.103 189.381,250.009 185.2,248.45C180.81,246.91 176.08,245.07 176.08,245.07L173.94,250.17L155.22,245.37Z" style="fill:rgb(35,31,32);fill-rule:nonzero;"/>
        <path d="M194.8,257.6L152.53,254.33C152.27,254.311 152.067,254.092 152.067,253.831C152.067,253.78 152.074,253.729 152.09,253.68L154.78,245.22C154.861,244.97 155.126,244.825 155.38,244.89L173.68,249.58L175.68,244.88C175.755,244.695 175.935,244.573 176.134,244.573C176.198,244.573 176.261,244.586 176.32,244.61C176.37,244.61 181.09,246.46 185.43,247.98C189.744,249.579 193.286,252.773 195.32,256.9C195.405,257.052 195.405,257.238 195.32,257.39C195.21,257.564 195,257.649 194.8,257.6ZM153.19,253.38L193.94,256.54C191.96,253.035 188.808,250.336 185.04,248.92C181.47,247.67 177.64,246.21 176.35,245.72L174.4,250.36C174.304,250.59 174.053,250.718 173.81,250.66L155.55,246L153.19,253.38Z" style="fill:rgb(35,31,32);fill-rule:nonzero;"/>
        <path d="M125.55,201.88L122.55,249.64C122.55,249.64 112.41,249.99 109.87,251.77C107.33,253.55 105.26,261.61 105.26,261.61L108.42,261.61C108.42,261.61 110.26,255.61 112.28,254.89C114.3,254.17 125.78,253.89 125.78,253.89C125.78,253.89 131.32,256.03 132.21,259.7C132.91,262.59 132.71,263.26 132.71,263.26L136.21,263.26C136.202,261.616 135.966,259.98 135.51,258.4C134.81,256.4 132.18,254.01 132.18,254.01C132.18,254.01 137.97,254.13 139.9,254.13C141.83,254.13 143.84,257.81 143.84,257.81L147.61,257.81C147.61,257.81 143.67,251.17 141.12,250.7C138.57,250.23 132.03,249.09 132.03,249.09L130.25,204.59L125.55,201.88Z" style="fill:rgb(35,31,32);fill-rule:nonzero;"/>
        <path d="M136.25,263.77L132.75,263.77C132.591,263.767 132.44,263.694 132.34,263.57C132.249,263.439 132.223,263.273 132.27,263.12C132.275,262.003 132.102,260.893 131.76,259.83C131.01,256.7 126.42,254.69 125.76,254.41C122.51,254.48 114.09,254.78 112.52,255.41C111.22,255.89 109.65,259.59 108.97,261.8C108.905,262.011 108.711,262.157 108.49,262.16L105.3,262.16C105.026,262.152 104.806,261.924 104.806,261.65C104.806,261.61 104.81,261.569 104.82,261.53C104.9,261.2 106.96,253.27 109.62,251.41C111.97,249.77 120.08,249.3 122.12,249.21L125.06,201.89C125.074,201.719 125.171,201.565 125.32,201.48C125.47,201.4 125.65,201.4 125.8,201.48L130.54,204.21C130.689,204.294 130.784,204.449 130.79,204.62L132.56,248.72C134.02,248.97 139.1,249.85 141.26,250.26C143.94,250.76 147.67,256.9 148.08,257.6C148.169,257.755 148.169,257.945 148.08,258.1C147.991,258.259 147.822,258.358 147.64,258.36L143.87,258.36C143.688,258.358 143.519,258.259 143.43,258.1C142.71,256.78 141.11,254.68 139.93,254.68C138.57,254.68 135.27,254.62 133.45,254.59C134.537,255.641 135.406,256.894 136.01,258.28C136.49,259.903 136.736,261.587 136.74,263.28C136.735,263.547 136.517,263.765 136.25,263.77ZM133.25,262.77L135.72,262.77C135.687,261.347 135.465,259.935 135.06,258.57C134.41,256.7 131.89,254.42 131.86,254.39C131.71,254.25 131.659,254.032 131.73,253.84C131.815,253.65 132.002,253.525 132.21,253.52C132.27,253.52 138.01,253.64 139.92,253.64C141.83,253.64 143.61,256.39 144.15,257.32L146.73,257.32C145.39,255.21 142.73,251.51 141.05,251.2C138.54,250.73 132.05,249.61 131.97,249.6C131.734,249.562 131.557,249.359 131.55,249.12L129.8,204.9L126,202.71L123.09,249.71C123.075,249.966 122.866,250.17 122.61,250.18C119.83,250.28 112.18,250.83 110.2,252.18C108.4,253.44 106.66,258.57 105.95,261.11L108.09,261.11C108.55,259.7 110.19,255.11 112.09,254.42C113.99,253.73 125.29,253.42 125.76,253.42L125.95,253.42C126.19,253.51 131.75,255.69 132.69,259.57C132.987,260.615 133.182,261.687 133.27,262.77L133.25,262.77Z" style="fill:rgb(35,31,32);fill-rule:nonzero;"/>
        <path d="M183.37,171.42C183.37,171.42 223.31,173.55 225.83,179.24C228.35,184.93 209.83,247.5 209.83,247.5C209.83,247.5 229.38,254.26 226.18,255.68C222.98,257.1 190.98,254.26 190.98,254.26L206.15,196.26L166.63,193.6L183.37,171.42Z" style="fill:white;fill-rule:nonzero;"/>
        <path d="M221.15,256.58C211.77,256.58 193.54,254.99 190.97,254.76C190.822,254.747 190.687,254.67 190.6,254.55C190.517,254.427 190.491,254.273 190.53,254.13L205.53,196.76L166.61,194.14C166.43,194.12 166.273,194.011 166.19,193.85C166.112,193.683 166.136,193.485 166.25,193.34L183,171.12C183.089,170.977 183.253,170.899 183.42,170.92C183.52,170.92 193.54,171.46 203.74,172.7C224.63,175.22 225.9,178.09 226.32,179.04C228.79,184.63 212.32,241.04 210.5,247.19C215.81,249.04 227.01,253.19 227.09,255.24C227.096,255.649 226.83,256.017 226.44,256.14C224.707,256.541 222.925,256.689 221.15,256.58ZM191.64,253.81C200.92,254.63 223.54,256.32 226.01,255.22C225.35,254.01 217.13,250.56 209.67,247.99C209.418,247.901 209.281,247.625 209.36,247.37C214.48,230.02 227.36,183.98 225.36,179.45C223.36,174.92 194.82,172.55 183.6,171.94L167.6,193.21L206.2,195.82C206.35,195.827 206.489,195.901 206.58,196.02C206.66,196.144 206.689,196.295 206.66,196.44L191.64,253.81Z" style="fill:rgb(35,31,32);fill-rule:nonzero;"/>
        <path d="M169.82,135.86C169.82,135.86 190.34,161.46 199.11,160.75C207.88,160.04 233,128.48 233,128.48C237.54,123.06 242.62,116.18 239.37,108.71C239.05,107.99 238.49,107.22 237.71,107.28C237.382,107.33 237.07,107.457 236.8,107.65L234,109.37C234.09,108.6 233.11,108.05 232.36,108.26C231.63,108.545 231.022,109.076 230.64,109.76C227.73,113.9 225.85,117.84 226.01,122.94L196.65,137.94L185,125.05" style="fill:white;fill-rule:nonzero;"/>
        <path d="M198.76,161.26C189.65,161.26 170.26,137.26 169.43,136.17C169.375,136.088 169.346,135.992 169.346,135.893C169.346,135.619 169.572,135.393 169.846,135.393C169.984,135.393 170.116,135.45 170.21,135.55C170.41,135.8 190.13,160.27 198.73,160.27L199.07,160.27C207.53,159.59 232.34,128.5 232.58,128.18C237.27,122.6 242,116.06 238.89,108.93C238.77,108.65 238.35,107.76 237.73,107.8C237.48,107.846 237.244,107.948 237.04,108.1L234.22,109.81C234.141,109.859 234.05,109.885 233.957,109.885C233.683,109.885 233.457,109.659 233.457,109.385C233.457,109.366 233.458,109.348 233.46,109.33C233.473,109.183 233.404,109.041 233.28,108.96C233.05,108.776 232.749,108.702 232.46,108.76C231.844,109.023 231.334,109.484 231.01,110.07C228.55,113.57 226.3,117.55 226.47,122.95C226.476,123.142 226.371,123.322 226.2,123.41L196.84,138.41C196.639,138.513 196.391,138.468 196.24,138.3L184.6,125.39C184.505,125.296 184.452,125.168 184.452,125.035C184.452,124.902 184.505,124.774 184.6,124.68C184.797,124.489 185.113,124.489 185.31,124.68L196.69,137.26L225.44,122.61C225.35,117.08 227.65,113.01 230.16,109.44C230.61,108.659 231.317,108.058 232.16,107.74C232.775,107.592 233.425,107.744 233.91,108.15C234.045,108.267 234.16,108.406 234.25,108.56L236.49,107.19C236.829,106.953 237.22,106.802 237.63,106.75C238.5,106.68 239.27,107.32 239.77,108.48C243.39,116.78 236.85,124.58 233.33,128.77C232.33,130.05 208.01,160.5 199.12,161.22L198.76,161.26Z" style="fill:rgb(35,31,32);fill-rule:nonzero;"/>
        <path d="M102.65,131.49C102.65,131.49 92.08,155.44 96,158C99.92,160.56 123.78,158 123.78,158L121.71,127" style="fill:white;fill-rule:nonzero;"/>
        <path d="M105.07,159.58C100.8,159.58 97.07,159.28 95.71,158.38C95.03,157.94 92.95,156.59 97.38,143.62C99.51,137.37 102.16,131.35 102.19,131.29C102.255,131.082 102.449,130.94 102.667,130.94C102.941,130.94 103.167,131.166 103.167,131.44C103.167,131.528 103.144,131.614 103.1,131.69C99.1,140.8 93.68,155.87 96.26,157.54C99.26,159.54 116.26,158.22 123.26,157.54L121.26,127.03C121.259,127.018 121.259,127.007 121.259,126.995C121.259,126.72 121.485,126.494 121.76,126.494C122.022,126.494 122.242,126.699 122.26,126.96L124.33,157.96C124.347,158.227 124.147,158.464 123.88,158.49C123.18,158.53 113.1,159.58 105.07,159.58Z" style="fill:rgb(35,31,32);fill-rule:nonzero;"/>
        <path d="M111.26,172.08C111.26,172.08 106.09,183.56 111.6,190.8C117.11,198.04 193.6,198.91 193.6,198.91L199.09,171.42L167.09,167.06L165.23,157.55L111.26,172.08Z" style="fill:white;fill-rule:nonzero;"/>
        <path d="M193.62,199.41C193.43,199.41 174.26,199.18 154.62,198.07C128.17,196.57 113.55,194.22 111.17,191.07C105.55,183.69 110.55,172.33 110.77,171.85C110.831,171.711 110.953,171.607 111.1,171.57L165.1,157.04C165.235,156.999 165.383,157.021 165.5,157.1C165.614,157.172 165.694,157.288 165.72,157.42L167.51,166.59L199.12,170.89C199.258,170.907 199.383,170.984 199.46,171.1C199.54,171.209 199.569,171.348 199.54,171.48L194.11,199C194.067,199.236 193.86,199.409 193.62,199.41ZM111.62,172.5C110.97,174.09 107.14,184.12 112,190.5C116.22,196.04 166.72,198.1 193.21,198.42L198.52,171.85L167.08,167.57C166.87,167.54 166.7,167.379 166.66,167.17L164.91,158.17L111.62,172.5Z" style="fill:rgb(35,31,32);fill-rule:nonzero;"/>
        <path d="M142.6,75.37C141.82,74.902 141.14,74.283 140.6,73.55C139.851,72.476 139.308,71.272 139,70C136.29,60.2 136.27,47.65 145,40.94C150.22,36.951 157.067,35.738 163.34,37.69C167.58,39.07 171.18,44.9 173.07,48.69C174.62,51.76 175.67,55.1 177.51,58C179.35,60.9 182.28,63.44 185.72,63.61C182.962,65.153 179.643,65.353 176.72,64.15C178.092,65.992 180.425,66.866 182.67,66.38C180.67,67.97 177.81,67.91 175.29,67.38C172.77,66.85 170.29,66.05 167.7,66.38C163.7,66.83 161.1,69.77 157.97,71.9C154,74.5 147.14,78 142.6,75.37Z" style="fill:white;fill-rule:nonzero;"/>
        <path d="M146.37,76.81C144.971,76.84 143.59,76.495 142.37,75.81C141.516,75.301 140.777,74.62 140.2,73.81C139.411,72.672 138.841,71.397 138.52,70.05C137.2,65.25 133.72,48.91 144.67,40.47C150.02,36.369 157.047,35.125 163.48,37.14C168.02,38.61 171.71,44.79 173.48,48.34C174.08,49.54 174.62,50.79 175.13,52C175.9,53.943 176.823,55.823 177.89,57.62C178.89,59.17 181.61,62.79 185.7,62.99C185.921,62.998 186.111,63.154 186.16,63.37C186.218,63.586 186.118,63.816 185.92,63.92C183.701,65.157 181.117,65.578 178.62,65.11C179.791,65.83 181.198,66.067 182.54,65.77C182.581,65.76 182.622,65.754 182.664,65.754C182.939,65.754 183.164,65.98 183.164,66.254C183.164,66.409 183.092,66.555 182.97,66.65C181.18,68.06 178.56,68.44 175.18,67.79C174.58,67.68 173.98,67.54 173.38,67.4C171.553,66.872 169.649,66.655 167.75,66.76C164.92,67.08 162.82,68.76 160.59,70.45C159.83,71.04 159.05,71.64 158.24,72.2C155.91,73.82 150.91,76.81 146.37,76.81ZM157.32,37.22C152.962,37.217 148.722,38.652 145.26,41.3C134.81,49.37 138.18,65.17 139.47,69.83C139.762,71.055 140.281,72.215 141,73.25C141.502,73.935 142.138,74.51 142.87,74.94C147.69,77.74 155.44,72.94 157.7,71.41C158.48,70.88 159.25,70.28 159.99,69.7C162.23,67.96 164.55,66.16 167.66,65.81C169.683,65.683 171.713,65.907 173.66,66.47C174.25,66.6 174.84,66.74 175.43,66.85C177.094,67.238 178.826,67.238 180.49,66.85C178.841,66.586 177.359,65.688 176.36,64.35C176.227,64.173 176.227,63.927 176.36,63.75C176.494,63.571 176.736,63.509 176.94,63.6C179.195,64.513 181.708,64.566 184,63.75C181.08,62.826 178.613,60.837 177.09,58.18C175.988,56.34 175.039,54.414 174.25,52.42C173.74,51.23 173.25,49.99 172.62,48.82C171.24,46.07 167.55,39.53 163.19,38.12C161.293,37.514 159.312,37.21 157.32,37.22Z" style="fill:rgb(35,31,32);fill-rule:nonzero;"/>
        <path d="M169.7,68.25C169.7,68.25 172.43,76.79 171,78C169.57,79.21 166.6,77.31 166.6,77.31" style="fill:white;fill-rule:nonzero;"/>
        <path d="M169.79,78.91C168.567,78.805 167.389,78.4 166.36,77.73C166.204,77.641 166.108,77.475 166.108,77.296C166.108,77.021 166.333,76.796 166.608,76.796C166.713,76.796 166.815,76.829 166.9,76.89C167.6,77.33 169.79,78.42 170.7,77.62C171.39,77.03 170.5,72.38 169.22,68.41C169.142,68.147 169.289,67.865 169.55,67.78C169.811,67.695 170.095,67.84 170.18,68.1C170.84,70.18 172.89,77.1 171.35,78.38C170.914,78.745 170.358,78.934 169.79,78.91Z" style="fill:rgb(35,31,32);fill-rule:nonzero;"/>
        <path d="M171.36,58.46C173.69,61.78 171.36,66.76 170.36,70.15C168.98,74.923 167.49,79.66 165.89,84.36C164.89,87.36 157.01,85.19 155.89,83.9L153.75,96.21L137.18,90.48L142.51,75.55C142.51,75.55 147.84,77.09 152.64,71.78C157.44,66.47 160.78,52.93 160.78,52.93C160.78,52.93 169.09,55.21 171.36,58.46Z" style="fill:white;fill-rule:nonzero;"/>
        <path d="M153.74,96.71L153.58,96.71L137,91C136.873,90.961 136.768,90.87 136.71,90.75C136.665,90.624 136.665,90.486 136.71,90.36L142,75.38C142.085,75.135 142.351,74.997 142.6,75.07C142.81,75.12 147.71,76.44 152.23,71.44C156.75,66.44 160.23,52.95 160.23,52.81C160.26,52.679 160.343,52.567 160.46,52.5C160.582,52.45 160.718,52.45 160.84,52.5C161.19,52.6 169.36,54.87 171.71,58.22C173.79,61.22 172.45,65.22 171.36,68.52C171.15,69.16 170.95,69.77 170.78,70.34C169.4,75.09 167.9,79.88 166.3,84.57C165.902,85.508 165.015,86.151 164,86.24C161.31,86.538 158.591,86.03 156.19,84.78L154.19,96.3C154.167,96.444 154.078,96.57 153.95,96.64C153.887,96.68 153.815,96.705 153.74,96.71ZM137.81,90.17L153.35,95.55L155.35,83.81C155.392,83.572 155.601,83.398 155.842,83.398C155.987,83.398 156.125,83.461 156.22,83.57C156.94,84.4 161.27,85.76 163.81,85.26C164.67,85.09 165.19,84.73 165.37,84.19C166.96,79.52 168.47,74.75 169.84,70.01C170.01,69.43 170.22,68.81 170.43,68.15C171.43,65.1 172.71,61.3 170.91,58.74C169.11,56.18 162.91,54.1 161.09,53.56C160.42,56.11 157.32,67.29 152.96,72.11C148.77,76.74 144.23,76.39 142.78,76.11L137.81,90.17Z" style="fill:rgb(35,31,32);fill-rule:nonzero;"/>
        <path d="M166.78,80.76C166.78,80.76 162.43,82 161.54,77.61" style="fill:white;fill-rule:nonzero;"/>
        <path d="M165.45,81.42C164.592,81.442 163.744,81.227 163,80.8C161.922,80.104 161.193,78.978 161,77.71C160.995,77.68 160.992,77.65 160.992,77.62C160.992,77.34 161.222,77.11 161.502,77.11C161.74,77.11 161.949,77.277 162,77.51C162.134,78.495 162.68,79.379 163.5,79.94C164.462,80.424 165.566,80.545 166.61,80.28C166.654,80.268 166.699,80.262 166.745,80.262C167.029,80.262 167.263,80.496 167.263,80.78C167.263,81.013 167.105,81.219 166.88,81.28C166.411,81.385 165.931,81.432 165.45,81.42Z" style="fill:rgb(35,31,32);fill-rule:nonzero;"/>
        <path d="M159.67,68.74C159.873,67.506 159.731,66.239 159.26,65.08C159.016,64.144 158.639,63.248 158.14,62.42C157.615,61.594 156.75,61.04 155.78,60.91C154.908,60.894 154.071,61.26 153.49,61.91C152.906,62.536 152.475,63.289 152.23,64.11C151.054,67.708 151.882,71.673 154.4,74.5L154.21,74.14" style="fill:white;fill-rule:nonzero;"/>
        <path d="M154.4,75C154.26,74.999 154.127,74.941 154.03,74.84C151.388,71.863 150.518,67.695 151.75,63.91C152.018,63.017 152.491,62.199 153.13,61.52C153.826,60.783 154.806,60.379 155.82,60.41C156.946,60.538 157.954,61.176 158.55,62.14C159.081,63.007 159.482,63.947 159.74,64.93C160.241,66.176 160.387,67.537 160.16,68.86C160.087,69.128 159.809,69.29 159.54,69.22C159.278,69.147 159.12,68.873 159.19,68.61C159.358,67.467 159.216,66.3 158.78,65.23C158.556,64.341 158.198,63.492 157.72,62.71C157.286,61.996 156.549,61.517 155.72,61.41C155,61.396 154.308,61.691 153.82,62.22C153.288,62.789 152.895,63.474 152.67,64.22C151.62,67.433 152.231,70.967 154.3,73.64C154.441,73.679 154.56,73.772 154.63,73.9L154.81,74.26C154.929,74.482 154.859,74.761 154.65,74.9C154.578,74.957 154.491,74.992 154.4,75Z" style="fill:rgb(35,31,32);fill-rule:nonzero;"/>
        <g transform="matrix(0.218314,-0.975879,0.975879,0.218314,69.77,215.38)">
            <ellipse cx="169.34" cy="64.14" rx="1.77" ry="0.7" style="fill:rgb(35,31,32);"/>
        </g>
        <path d="M155.88,83.9C153.707,82.49 151.626,80.944 149.65,79.27C147.674,77.596 148.65,87.93 154.58,89.92L155.88,83.9Z" style="fill:rgb(35,31,32);fill-rule:nonzero;"/>
        <path d="M154.58,90.42C154.527,90.43 154.473,90.43 154.42,90.42C148.2,88.33 149.11,79.61 149.15,79.24C149.172,79.058 149.291,78.901 149.46,78.83C149.632,78.765 149.826,78.795 149.97,78.91C151.933,80.57 153.997,82.106 156.15,83.51C156.321,83.623 156.408,83.829 156.37,84.03L155.07,90.03C155.039,90.169 154.952,90.288 154.83,90.36C154.753,90.399 154.667,90.42 154.58,90.42ZM150.1,80.29C150.1,82.43 150.38,87.54 154.22,89.24L155.32,84.13C153.514,82.942 151.772,81.66 150.1,80.29Z" style="fill:rgb(35,31,32);fill-rule:nonzero;"/>
        <path d="M108.16,175.87C108.16,175.87 109.06,114.67 118.24,100.58C127.42,86.49 151.24,83.31 162.6,91.71C173.96,100.11 168.49,164.31 168.49,164.31C168.49,164.31 132.27,175.87 108.16,175.87Z" style="fill:rgb(255,146,159);fill-rule:nonzero;"/>
        <path d="M154.67,88.11C160.713,90.565 166.36,93.897 171.43,98C179.29,104.53 195.88,132.61 195.88,132.61L174,145.86L154.36,121.64L154.67,88.11Z" style="fill:rgb(255,146,159);fill-rule:nonzero;"/>
        <path d="M127.7,91.92C127.7,91.92 116.25,93.21 110.19,105.78C106.91,112.6 98.51,134.62 98.51,134.62L123.77,137.53L127.7,91.92Z" style="fill:rgb(255,146,159);fill-rule:nonzero;"/>
        <path d="M172.36,144.33C172.201,144.329 172.051,144.251 171.96,144.12L152.45,117.55C152.385,117.463 152.35,117.358 152.35,117.25C152.35,117.093 152.424,116.944 152.55,116.85C152.773,116.693 153.085,116.742 153.25,116.96L172.76,143.53C172.825,143.617 172.86,143.722 172.86,143.83C172.86,144.104 172.634,144.33 172.36,144.33Z" style="fill:rgb(35,31,32);fill-rule:nonzero;"/>
        <path d="M230.6,114.3L235.48,99.15L237,99.59L233.93,114.53C233.93,114.53 231.77,116.61 230.6,114.3Z" style="fill:rgb(35,31,32);fill-rule:nonzero;"/>
        <path d="M232.1,115.89L231.76,115.89C231.035,115.737 230.432,115.235 230.15,114.55C230.1,114.428 230.1,114.292 230.15,114.17L235,99C235.089,98.747 235.36,98.603 235.62,98.67L237.14,99.11C237.388,99.182 237.542,99.436 237.49,99.69L234.42,114.69C234.4,114.786 234.351,114.873 234.28,114.94C233.685,115.499 232.914,115.835 232.1,115.89ZM231.1,114.24C231.254,114.561 231.544,114.796 231.89,114.88C232.463,114.885 233.016,114.666 233.43,114.27L236.38,99.94L235.77,99.77L231.1,114.24Z" style="fill:rgb(35,31,32);fill-rule:nonzero;"/>
        <path d="M138.32,80C129.32,78 119.32,79.4 112.05,85C108.969,87.248 106.654,90.391 105.42,94C104.234,97.678 104.93,101.713 107.28,104.78C114.18,113.07 129.33,113.03 138.7,110.32C145.09,108.48 164.01,99.5 158.8,90.68C155.05,84.37 145.07,81.45 138.32,80Z" style="fill:rgb(255,146,159);fill-rule:nonzero;"/>
        <path d="M126.86,111.07C120.897,110.897 115.073,109.222 109.93,106.2C109.781,106.112 109.69,105.951 109.69,105.779C109.69,105.683 109.718,105.59 109.77,105.51C109.918,105.28 110.23,105.212 110.46,105.36C110.58,105.44 122.95,113.13 134.66,108.69C140.28,106.56 143.66,102.78 146.89,99.13C150.46,95.13 153.83,91.35 159.65,90.82C159.664,90.819 159.678,90.818 159.691,90.818C159.951,90.818 160.17,91.021 160.19,91.28C160.192,91.297 160.193,91.314 160.193,91.331C160.193,91.586 159.994,91.801 159.74,91.82C154.32,92.31 151.22,95.82 147.64,99.82C144.46,103.39 140.86,107.43 135.01,109.65C132.402,110.612 129.64,111.093 126.86,111.07Z" style="fill:rgb(35,31,32);fill-rule:nonzero;"/>
        <path d="M109.06,154C108.793,153.99 108.58,153.767 108.58,153.5C108.58,153.494 108.58,153.487 108.58,153.48C109.31,137.65 112.58,114.87 112.58,114.64C112.626,114.371 112.88,114.184 113.15,114.22C113.417,114.261 113.606,114.512 113.57,114.78C113.57,115.01 110.26,137.78 109.57,153.52C109.559,153.79 109.331,154.006 109.06,154Z" style="fill:rgb(35,31,32);fill-rule:nonzero;"/>
        <path d="M185.75,253.19L207,253.19C207,253.19 209.31,248.04 214.29,247.33C214.29,247.33 233.67,255.52 230.82,257.2C227.97,258.88 184.25,258.7 184.25,258.7L185.75,253.19Z" style="fill:rgb(35,31,32);fill-rule:nonzero;"/>
        <path d="M188.71,259.21L184.24,259.21C184.088,259.211 183.943,259.14 183.85,259.02C183.752,258.896 183.719,258.733 183.76,258.58L185.26,253.07C185.319,252.85 185.522,252.697 185.75,252.7L206.69,252.7C207.28,251.55 209.69,247.49 214.22,246.84C214.305,246.815 214.395,246.815 214.48,246.84C218.48,248.52 231.48,254.2 231.61,256.68C231.624,257.062 231.418,257.42 231.08,257.6C228.65,259.06 200.3,259.21 188.71,259.21ZM184.9,258.21C202.43,258.26 228.59,257.94 230.57,256.77C230.57,255.53 222.1,251.18 214.22,247.84C209.68,248.58 207.48,253.35 207.46,253.4C207.377,253.579 207.197,253.692 207,253.69L186.13,253.69L184.9,258.21Z" style="fill:rgb(35,31,32);fill-rule:nonzero;"/>
        <path d="M169.69,204C183.22,201.15 192.29,194.82 186.97,186.28C181.65,177.74 143.44,183.28 135.97,176.95C128.5,170.62 131.17,137.05 122.97,131.3C114.77,125.55 79.62,119.74 75.69,127C71.76,134.26 75.69,187.09 87.14,198.82C98.59,210.55 156.49,206.72 169.69,204Z" style="fill:rgb(35,31,32);fill-rule:nonzero;"/>
        <path d="M130,207.35L127.74,207.35C112.54,207.22 93.09,205.69 86.74,199.21C75.42,187.53 71,134.68 75.25,126.79C75.98,125.44 77.65,124.45 80.25,123.79C91.12,121.21 116.25,125.91 123.25,130.79C127.66,133.88 129.03,144.41 130.36,154.59C131.57,163.89 132.82,173.5 136.31,176.47C139.63,179.29 149.83,179.7 159.7,180.1C171.85,180.59 184.42,181.1 187.43,185.92C189.17,188.72 189.51,191.42 188.43,193.92C186.43,198.54 179.85,202.25 169.82,204.36C162.93,205.88 146.09,207.35 130,207.35ZM87.85,124.12C85.365,124.076 82.884,124.307 80.45,124.81C78.17,125.35 76.71,126.18 76.13,127.27C72.25,134.44 76.48,187.18 87.5,198.5C98.71,210.01 156.31,206.25 169.58,203.5C179.15,201.5 185.67,197.9 187.48,193.64C188.42,191.44 188.11,189.05 186.55,186.54C183.82,182.16 171.55,181.67 159.63,181.19C149.13,180.77 139.21,180.37 135.63,177.32C131.85,174.1 130.63,164.73 129.34,154.81C128.05,144.89 126.7,134.53 122.64,131.7C117.24,127.89 99.84,124.12 87.85,124.12Z" style="fill:rgb(35,31,32);fill-rule:nonzero;"/>
        <path d="M194.8,176.37L194.72,176.37L162.48,170.73C162.237,170.689 162.058,170.476 162.058,170.23C162.058,169.952 162.287,169.723 162.565,169.723C162.593,169.723 162.622,169.725 162.65,169.73L194.89,175.37C195.147,175.393 195.347,175.612 195.347,175.87C195.347,176.145 195.12,176.372 194.845,176.372C194.83,176.372 194.815,176.371 194.8,176.37Z" style="fill:rgb(209,211,212);fill-rule:nonzero;"/>
        <path d="M287.75,242L286.75,241.89C286.75,241.6 289.9,212.65 279.88,199.79L280.67,199.18C284.99,204.72 287.5,213.62 288.11,225.63C288.387,231.088 288.267,236.559 287.75,242Z" style="fill:rgb(35,31,32);fill-rule:nonzero;"/>
        <path d="M284.3,245.69C284.284,245.354 284.318,245.017 284.4,244.69C286.79,229.54 282.74,222.48 278.92,219.22L279.57,218.46C283.57,221.88 287.85,229.24 285.39,244.85C285.33,245.23 285.29,245.48 285.29,245.58L284.3,245.69Z" style="fill:rgb(35,31,32);fill-rule:nonzero;"/>
        <path d="M279.11,212.79C278.301,212.316 277.387,212.048 276.45,212.01C274.77,211.769 273.063,212.237 271.74,213.3C271.41,213.62 271.12,214.16 271.42,214.51C271.598,214.672 271.821,214.777 272.06,214.81C273.389,215.189 274.431,216.231 274.81,217.56C274.12,217.05 273.53,216.4 272.81,215.89C272.144,215.332 271.287,215.052 270.42,215.11C269.481,215.332 268.653,215.886 268.09,216.67C267.444,217.361 266.908,218.147 266.5,219C266.074,219.857 265.948,220.833 266.14,221.77C267.052,221.507 268.011,221.443 268.95,221.58C269.618,221.64 270.253,221.902 270.77,222.33C270.926,222.451 271.038,222.62 271.09,222.81C271.124,223.21 270.852,223.576 270.46,223.66C270.079,223.749 269.681,223.749 269.3,223.66C268.485,223.493 267.66,223.376 266.83,223.31C266.519,223.27 266.203,223.29 265.9,223.37C265.169,223.778 264.769,224.603 264.9,225.43C264.885,225.769 265.012,226.099 265.25,226.34C265.66,226.66 266.25,226.43 266.73,226.23C267.567,225.88 268.463,225.69 269.37,225.67C269.473,225.661 269.576,225.678 269.67,225.72C269.788,225.802 269.858,225.937 269.858,226.081C269.858,226.187 269.82,226.29 269.75,226.37C269.581,226.558 269.357,226.688 269.11,226.74C268.424,226.957 267.722,227.121 267.01,227.23C266.6,227.29 266.12,227.38 265.92,227.75C265.843,227.912 265.805,228.09 265.81,228.27C265.77,229.626 266.162,230.961 266.93,232.08C267.055,232.283 267.218,232.46 267.41,232.6C267.685,232.746 267.989,232.828 268.3,232.84C270.68,233.086 273.084,232.743 275.3,231.84C275.415,231.8 275.516,231.727 275.59,231.63C275.72,231.4 275.5,231.13 275.33,230.93C274.59,230.02 274.76,228.71 274.97,227.56C274.987,227.337 275.079,227.125 275.23,226.96C275.519,226.765 275.914,226.827 276.13,227.1C276.332,227.373 276.447,227.701 276.46,228.04C276.608,229.223 276.512,230.425 276.18,231.57C277.332,231.302 278.454,230.92 279.53,230.43C280.401,230.092 281.221,229.638 281.97,229.08C282.722,228.513 283.25,227.698 283.46,226.78C283.505,226.61 283.487,226.429 283.41,226.27C283.333,226.16 283.23,226.071 283.11,226.01C282.067,225.335 281.246,224.368 280.75,223.23C280.65,222.99 280.6,222.66 280.82,222.54C280.914,222.51 281.016,222.51 281.11,222.54C282.37,222.75 283.01,224.16 284.05,224.91C284.132,224.978 284.233,225.02 284.34,225.03C284.469,225.03 284.593,224.976 284.68,224.88C285.098,224.492 285.382,223.98 285.49,223.42C285.792,222.32 285.729,221.151 285.31,220.09C284.874,219.027 283.974,218.219 282.87,217.9C282.359,217.782 281.83,217.758 281.31,217.83C281.13,217.83 280.17,218.17 280.04,218.05C279.91,217.93 280.42,217.21 280.54,216.97C281.19,215.49 280.32,213.59 279.11,212.79Z" style="fill:rgb(35,31,32);fill-rule:nonzero;"/>
        <path d="M294.22,203.74C292.628,203.726 291.128,204.502 290.22,205.81C289.614,206.855 289.368,208.071 289.52,209.27C289.676,210.455 289.965,211.619 290.38,212.74C291.164,211.332 292.595,210.399 294.2,210.25C295.83,210.11 293.93,211.68 293.65,212.01C292.73,213.09 291.85,214.2 290.98,215.32C290.725,215.6 290.555,215.947 290.49,216.32C290.487,216.722 290.606,217.116 290.83,217.45C291.507,218.949 292.536,220.263 293.83,221.28C294.187,221.593 294.693,221.675 295.13,221.49C295.332,221.321 295.484,221.099 295.57,220.85C296.049,219.845 296.672,218.915 297.42,218.09C297.6,217.88 297.89,217.67 298.12,217.82C298.35,217.97 298.31,218.2 298.29,218.42L298.08,220.65C297.94,221.453 297.988,222.278 298.22,223.06C298.75,224.48 300.35,225.19 301.84,225.47C302.246,225.58 302.674,225.58 303.08,225.47C303.88,225.19 304.21,224.24 304.35,223.4C304.508,222.3 304.96,221.263 305.66,220.4C305.842,221.853 306.308,223.256 307.03,224.53C307.392,225.216 307.893,225.818 308.5,226.3C309.147,226.759 309.888,227.067 310.67,227.2C311.989,227.438 313.333,227.511 314.67,227.42C315.595,227.431 316.517,227.313 317.41,227.07C318.309,226.818 319.081,226.236 319.57,225.44C320.36,224.02 319.75,222.19 318.73,220.93C317.71,219.67 316.33,218.73 315.27,217.5C316.593,217.864 317.824,218.505 318.88,219.38C319.132,219.669 319.496,219.837 319.88,219.84C320.056,219.802 320.217,219.711 320.34,219.58C321.92,218 320.1,215.33 319.26,213.91C318.813,212.9 318.018,212.083 317.02,211.61C316.429,211.46 315.811,211.46 315.22,211.61C314.32,211.76 309.86,213.79 311.76,211.12C312.795,209.923 314.318,209.257 315.9,209.31C316.67,209.38 317.84,210 317.82,208.56C317.766,208.044 317.565,207.554 317.24,207.15C316.622,206.225 315.954,205.333 315.24,204.48C315.062,204.219 314.796,204.03 314.49,203.95C314.224,203.94 313.962,204.014 313.74,204.16C311.916,205.265 309.901,206.018 307.8,206.38C307.32,206.38 306.65,206.23 306.73,205.76C306.778,205.589 306.888,205.442 307.04,205.35C308.31,204.35 310.21,204.78 311.51,203.86C311.901,203.611 312.162,203.2 312.22,202.74C312.22,202.07 311.67,201.54 311.13,201.13C309.78,199.959 308.126,199.192 306.36,198.92C303.73,198.71 301.36,200.44 299.59,202.41C299,203.08 298.59,204.82 297.68,204.71C297.106,204.507 296.545,204.27 296,204C295.424,203.82 294.823,203.732 294.22,203.74Z" style="fill:rgb(35,31,32);fill-rule:nonzero;"/>
        <path d="M281.48,189.9C281.368,188.888 280.904,187.946 280.17,187.24C278.83,186.02 276.82,185.96 275.03,186.24C273.688,186.527 272.371,186.918 271.09,187.41C269.8,187.78 269.42,188.07 270.57,189.12C271.38,189.85 273.57,192.46 272.57,193.71C271.57,194.96 269.89,191.77 269.24,191.24C268.392,190.412 267.264,189.931 266.08,189.89C265.043,190.067 264.09,190.572 263.36,191.33C262.581,192.019 261.84,192.75 261.14,193.52C261.027,193.63 260.938,193.763 260.88,193.91C260.72,194.49 261.51,194.83 262.1,194.91C263.79,195.22 265.68,196.1 266.02,197.78C264.28,198.21 262.64,196.45 260.86,196.64C259.549,196.955 258.479,197.906 258.01,199.17C257.53,200.295 257.38,201.533 257.58,202.74C259.082,202.219 260.691,202.081 262.26,202.34C262.455,202.351 262.64,202.433 262.78,202.57C262.928,202.847 262.825,203.197 262.55,203.35C262.278,203.486 261.972,203.538 261.67,203.5L258.77,203.5C258.486,203.47 258.201,203.537 257.96,203.69C257.765,203.892 257.651,204.159 257.64,204.44C257.453,205.766 257.436,207.11 257.59,208.44C257.613,209.266 257.937,210.055 258.5,210.66C258.952,211.002 259.481,211.228 260.04,211.32C261.505,211.672 263.004,211.859 264.51,211.88C263.841,210.943 263.672,209.734 264.06,208.65C264.66,207.25 265.68,208.06 265.73,209.33C265.73,209.93 265.62,210.52 265.6,211.12C265.59,211.233 265.611,211.347 265.66,211.45C265.721,211.528 265.8,211.59 265.89,211.63C266.685,212.06 267.611,212.181 268.49,211.97C268.741,211.921 268.977,211.815 269.18,211.66C269.644,211.106 269.802,210.354 269.6,209.66L269.19,206.05C269.145,205.88 269.182,205.698 269.29,205.56C269.47,205.38 269.79,205.56 269.98,205.7C270.725,206.363 271.124,207.334 271.06,208.33C271.06,208.9 270.82,209.45 270.78,210.01C270.697,210.584 270.926,211.16 271.38,211.52C271.862,211.751 272.417,211.78 272.92,211.6C273.589,211.503 274.206,211.182 274.67,210.69C275.068,210.06 275.187,209.292 275,208.57C274.801,207.859 274.66,207.134 274.58,206.4C274.58,204.92 276.1,202.8 276.35,205.4C276.36,206.249 276.309,207.098 276.2,207.94C276.175,208.049 276.175,208.161 276.2,208.27C276.334,208.448 276.547,208.549 276.77,208.54C277.946,208.643 279.127,208.414 280.18,207.88C280.906,207.528 281.542,207.015 282.04,206.38C282.41,205.859 282.722,205.299 282.97,204.71C284.18,202.14 286.11,200.13 283.86,197.38C283.09,196.44 281.66,196.19 280.94,195.23C280.09,194.09 281.4,192.28 281.45,190.85C281.485,190.535 281.495,190.217 281.48,189.9Z" style="fill:rgb(35,31,32);fill-rule:nonzero;"/>
        <path d="M274.27,239L299.77,239L297.77,258.14C297.474,261.037 295.002,263.265 292.09,263.26L281.9,263.26C278.991,263.26 276.526,261.033 276.23,258.14L274.27,239Z" style="fill:white;fill-rule:nonzero;"/>
        <path d="M292.13,263.79L281.9,263.79C278.722,263.796 276.027,261.362 275.71,258.2L273.71,239.06C273.7,238.918 273.747,238.778 273.84,238.67C273.94,238.56 274.082,238.498 274.23,238.5L299.73,238.5C299.876,238.497 300.015,238.56 300.11,238.67C300.211,238.773 300.259,238.917 300.24,239.06L298.24,258.2C297.93,261.334 295.279,263.76 292.13,263.79ZM274.84,239.53L276.74,258.1C277.006,260.735 279.252,262.763 281.9,262.76L292.13,262.76C294.778,262.763 297.024,260.735 297.29,258.1L299.2,239.53L274.84,239.53Z" style="fill:rgb(35,31,32);fill-rule:nonzero;"/>
        <path d="M290.56,239.35C290.56,239.17 288.56,220.85 297.56,206.09L298.42,206.61C289.61,221.07 291.57,239.05 291.59,239.23L290.56,239.35Z" style="fill:rgb(35,31,32);fill-rule:nonzero;"/>
        <path d="M267.4,204.6C267.273,204.597 267.152,204.547 267.06,204.46C266.965,204.366 266.912,204.238 266.912,204.105C266.912,203.972 266.965,203.844 267.06,203.75C272.28,198.25 280.5,194.9 280.85,194.75C280.909,194.727 280.972,194.715 281.035,194.715C281.31,194.715 281.535,194.94 281.535,195.215C281.535,195.42 281.41,195.604 281.22,195.68C281.14,195.68 272.85,199.08 267.78,204.43C267.684,204.539 267.545,204.601 267.4,204.6Z" style="fill:white;fill-rule:nonzero;"/>
        <path d="M270.92,230.08C270.647,230.078 270.424,229.853 270.424,229.58C270.424,229.5 270.443,229.421 270.48,229.35C272.377,225.787 274.782,222.52 277.62,219.65C277.712,219.556 277.838,219.503 277.97,219.503C278.102,219.503 278.228,219.556 278.32,219.65C278.509,219.843 278.509,220.157 278.32,220.35C275.564,223.15 273.227,226.333 271.38,229.8C271.293,229.973 271.114,230.082 270.92,230.08Z" style="fill:white;fill-rule:nonzero;"/>
        <path d="M313.44,223C313.273,222.998 313.116,222.916 313.02,222.78C312.78,222.41 307.02,213.78 300.19,208.68C299.971,208.515 299.925,208.199 300.09,207.98C300.258,207.765 300.569,207.721 300.79,207.88C307.61,213.03 313.23,221.3 313.85,222.22C314,222.448 313.937,222.758 313.71,222.91C313.632,222.968 313.537,222.999 313.44,223Z" style="fill:white;fill-rule:nonzero;"/>
        <rect x="250.08" y="49.3" width="60.71" height="42.62" style="fill:white;"/>
        <path d="M310.78,92.42L250.08,92.42C249.806,92.42 249.58,92.194 249.58,91.92L249.58,49.3C249.58,49.026 249.806,48.8 250.08,48.8L310.78,48.8C311.054,48.8 311.28,49.026 311.28,49.3L311.28,91.92C311.28,92.194 311.054,92.42 310.78,92.42ZM250.58,91.42L310.28,91.42L310.28,49.8L250.58,49.8L250.58,91.42Z" style="fill:rgb(209,211,212);fill-rule:nonzero;"/>
        <path d="M289.26,132.38C289.015,132.379 288.803,132.201 288.76,131.96L286.3,116L282,117.9C281.937,117.928 281.868,117.942 281.799,117.942C281.6,117.942 281.419,117.823 281.34,117.64C281.313,117.578 281.298,117.51 281.298,117.442C281.298,117.245 281.418,117.066 281.6,116.99L286.51,114.87C286.648,114.801 286.812,114.801 286.95,114.87C287.087,114.944 287.183,115.077 287.21,115.23L289.77,131.78C289.775,131.808 289.777,131.836 289.777,131.864C289.777,132.109 289.593,132.319 289.35,132.35L289.26,132.38Z" style="fill:rgb(35,31,32);fill-rule:nonzero;"/>
        <path d="M297.74,149.51L285.22,149.51L284.54,122.56L298.42,122.56L297.74,149.51Z" style="fill:white;fill-rule:nonzero;"/>
        <path d="M297.74,150L285.22,150C284.953,150 284.731,149.787 284.72,149.52L284,122.58C283.998,122.446 284.048,122.317 284.14,122.22C284.234,122.122 284.364,122.064 284.5,122.06L298.38,122.06C298.656,122.076 298.875,122.304 298.88,122.58L298.2,149.58C298.163,149.809 297.972,149.984 297.74,150ZM285.74,149L297.28,149L297.93,123.05L285.05,123.05L285.74,149Z" style="fill:rgb(35,31,32);fill-rule:nonzero;"/>
        <rect x="283.27" y="119.83" width="16.42" height="2.73" style="fill:white;"/>
        <path d="M299.69,123.06L283.27,123.06C282.996,123.06 282.77,122.834 282.77,122.56L282.77,119.83C282.77,119.556 282.996,119.33 283.27,119.33L299.69,119.33C299.964,119.33 300.19,119.556 300.19,119.83L300.19,122.56C300.19,122.834 299.964,123.06 299.69,123.06ZM283.77,122.06L299.19,122.06L299.19,120.33L283.77,120.33L283.77,122.06Z" style="fill:rgb(35,31,32);fill-rule:nonzero;"/>
        <path d="M291.75,140.41C291.58,140.424 291.41,140.432 291.24,140.432C287.949,140.432 285.24,137.723 285.24,134.432C285.24,131.14 287.949,128.432 291.24,128.432C294.523,128.432 297.228,131.127 297.24,134.41C297.375,137.56 294.899,140.265 291.75,140.41ZM291.75,129.46C291.581,129.443 291.41,129.434 291.24,129.434C288.497,129.434 286.24,131.691 286.24,134.434C286.24,137.177 288.497,139.434 291.24,139.434C293.973,139.434 296.226,137.193 296.24,134.46C296.375,131.858 294.351,129.604 291.75,129.46Z" style="fill:rgb(209,211,212);fill-rule:nonzero;"/>
        <path d="M267.9,83.48C266.674,83.472 265.458,83.263 264.3,82.86C262.786,82.384 261.322,81.761 259.93,81C259.59,80.81 259.26,80.59 258.93,80.37C257.243,79.279 256.08,77.537 255.72,75.56C255.591,74.842 255.711,74.101 256.06,73.46C256.614,72.7 257.379,72.12 258.26,71.79C258.845,71.548 259.386,71.21 259.86,70.79C260.86,69.72 260.47,68.16 260.07,66.51C259.96,66.09 259.86,65.68 259.78,65.28C259.27,62.692 259.97,60.008 261.68,58C263.553,55.909 266.316,54.834 269.11,55.11C272.99,55.55 276.05,57.42 277.51,60.23C278.806,62.895 278.651,66.045 277.1,68.57C276.559,69.332 276.253,70.236 276.22,71.17C276.424,71.994 276.857,72.743 277.47,73.33C278.182,74.053 278.686,74.955 278.93,75.94C279.17,77.58 278.09,79.15 275.63,80.74C273.38,82.395 270.69,83.349 267.9,83.48ZM260.43,80.12C261.764,80.853 263.168,81.453 264.62,81.91C268.84,83.35 272.15,81.78 275.1,79.91C277.2,78.54 278.1,77.3 277.95,76.09C277.727,75.288 277.299,74.558 276.71,73.97C275.97,73.235 275.459,72.3 275.24,71.28C275.227,70.167 275.559,69.077 276.19,68.16C277.607,65.913 277.774,63.088 276.63,60.69C275.33,58.18 272.55,56.51 269.01,56.1C266.539,55.854 264.093,56.806 262.44,58.66C260.936,60.437 260.32,62.806 260.77,65.09C260.85,65.47 260.95,65.87 261.05,66.27C261.48,68.02 261.97,70.01 260.6,71.47C260.048,71.991 259.408,72.411 258.71,72.71C258.008,72.965 257.391,73.412 256.93,74C256.697,74.449 256.623,74.964 256.72,75.46C257.058,77.157 258.073,78.646 259.53,79.58C259.82,79.792 260.12,79.989 260.43,80.17L260.43,80.12Z" style="fill:rgb(209,211,212);fill-rule:nonzero;"/>
        <path d="M295.13,83.19C292.564,83.155 290.028,82.629 287.66,81.64L287.16,81.44C285.036,80.226 282.395,80.327 280.37,81.7C279.276,82.265 278.103,82.659 276.89,82.87C274.139,83.111 271.445,81.943 269.74,79.77C268.29,78.151 267.339,76.147 267,74C266.585,71.356 267.948,68.732 270.35,67.55C272.67,66.55 275.14,67.24 277.54,67.92C279.261,68.536 281.084,68.814 282.91,68.74C284.311,68.505 285.663,68.039 286.91,67.36C287.728,66.953 288.569,66.596 289.43,66.29C293.43,64.96 301.16,66.29 304.2,69.63C305.866,71.375 306.494,73.875 305.85,76.2C304.929,79.235 302.564,81.625 299.54,82.58C298.111,83.014 296.623,83.22 295.13,83.19ZM284.06,79.59L284.3,79.59C285.428,79.701 286.528,80.009 287.55,80.5L288.03,80.7C291.524,82.278 295.463,82.586 299.16,81.57C301.861,80.726 303.98,78.603 304.82,75.9C305.367,73.899 304.823,71.75 303.39,70.25C300.65,67.25 293.34,65.96 289.68,67.19C288.857,67.474 288.052,67.808 287.27,68.19C285.94,68.926 284.497,69.437 283,69.7C281.043,69.787 279.087,69.495 277.24,68.84C274.92,68.18 272.72,67.55 270.73,68.43C268.753,69.452 267.648,71.642 268,73.84C268.322,75.804 269.204,77.634 270.54,79.11C271.6,80.3 273.82,82.26 276.82,81.88C277.928,81.676 279,81.309 280,80.79C281.251,80.103 282.636,79.693 284.06,79.59Z" style="fill:rgb(209,211,212);fill-rule:nonzero;"/>
        <path d="M293.71,75.7C292.36,75.786 291.045,75.234 290.16,74.21C289.673,73.723 289.113,73.315 288.5,73C287.767,72.654 286.978,72.44 286.17,72.37C284.716,72.33 283.345,71.675 282.4,70.57C281.346,69.202 280.94,67.441 281.29,65.75C281.718,63.535 283.062,61.602 284.99,60.43C290.26,57.33 300.04,60.56 303.23,65.14C304.36,66.76 305.65,69.97 301.63,73.22C299.517,74.787 296.97,75.661 294.34,75.72L293.71,75.7ZM290.11,60.16C288.505,60.107 286.915,60.48 285.5,61.24C283.823,62.265 282.654,63.951 282.28,65.88C281.977,67.281 282.31,68.748 283.19,69.88C283.977,70.782 285.113,71.307 286.31,71.32C288.045,71.427 289.672,72.202 290.85,73.48C291.69,74.47 293.007,74.927 294.28,74.67C296.696,74.6 299.037,73.81 301,72.4C303.55,70.33 304,68 302.41,65.67C300.27,62.59 294.77,60.16 290.11,60.16Z" style="fill:rgb(209,211,212);fill-rule:nonzero;"/>
        <path d="M141.1,72.06C141.1,72.06 144.33,69.44 141.1,66.06L135.89,66.06C135.89,66.06 137.01,70.43 135.89,72.06L141.1,72.06Z" style="fill:rgb(35,31,32);fill-rule:nonzero;"/>
        <path d="M141.1,72.56L135.89,72.56C135.702,72.558 135.53,72.454 135.44,72.29C135.345,72.13 135.345,71.93 135.44,71.77C136.25,70.6 135.66,67.35 135.36,66.2C135.329,66.047 135.361,65.888 135.45,65.76C135.547,65.639 135.695,65.569 135.85,65.57L141.06,65.57C141.194,65.574 141.322,65.628 141.42,65.72C142.44,66.649 143.015,67.971 143,69.35C142.874,70.551 142.294,71.661 141.38,72.45C141.3,72.514 141.202,72.552 141.1,72.56ZM136.67,71.56L140.9,71.56C141.526,70.955 141.916,70.146 142,69.28C142.004,68.258 141.588,67.277 140.85,66.57L136.49,66.57C136.912,68.2 136.973,69.903 136.67,71.56Z" style="fill:rgb(35,31,32);fill-rule:nonzero;"/>
        <path d="M138.27,70.08C138.423,68.898 138.003,67.712 137.14,66.89C136.758,66.393 136.318,65.943 135.83,65.55C134.892,64.94 133.841,64.525 132.74,64.33C130.31,63.74 127.47,64.49 124.99,64.54C122.326,64.591 119.679,64.101 117.21,63.1C116.362,62.813 115.601,62.314 115,61.65C114.38,65.28 114.46,69.28 116.55,72.33C118.321,74.632 120.769,76.322 123.55,77.16C127.309,78.676 131.607,78.053 134.78,75.53C136.206,74.453 137.307,73.003 137.96,71.34C138.105,70.931 138.209,70.509 138.27,70.08Z" style="fill:white;fill-rule:nonzero;"/>
        <path d="M127.88,78.46C126.33,78.445 124.795,78.164 123.34,77.63C120.466,76.761 117.937,75.012 116.11,72.63C114.24,69.9 113.7,66.19 114.49,61.63C114.526,61.437 114.67,61.281 114.86,61.23C115.05,61.182 115.252,61.253 115.37,61.41C115.919,62.002 116.606,62.448 117.37,62.71C119.803,63.641 122.396,64.08 125,64C125.82,64 126.67,63.89 127.57,63.79C129.327,63.485 131.123,63.485 132.88,63.79C134.05,63.998 135.166,64.44 136.16,65.09C136.67,65.515 137.136,65.991 137.55,66.51C138.506,67.443 138.963,68.777 138.78,70.1C138.705,70.565 138.581,71.021 138.41,71.46C137.72,73.207 136.565,74.733 135.07,75.87C133.039,77.527 130.501,78.442 127.88,78.46ZM115.33,62.67C114.81,66.57 115.33,69.67 116.94,72.04C118.641,74.26 121.001,75.888 123.68,76.69C127.281,78.137 131.394,77.545 134.44,75.14C135.787,74.107 136.825,72.723 137.44,71.14C137.588,70.765 137.698,70.377 137.77,69.98C137.9,68.942 137.528,67.901 136.77,67.18C136.399,66.744 135.984,66.349 135.53,66C134.644,65.436 133.655,65.052 132.62,64.87C130.966,64.585 129.274,64.585 127.62,64.87C126.74,64.96 125.82,65.06 124.96,65.08C122.222,65.124 119.503,64.624 116.96,63.61C116.381,63.363 115.834,63.047 115.33,62.67Z" style="fill:rgb(35,31,32);fill-rule:nonzero;"/>
        <rect x="200" y="44.01" width="42.46" height="28.04" style="fill:white;"/>
        <path d="M242.46,72.56L200,72.56C199.726,72.56 199.5,72.334 199.5,72.06L199.5,44C199.5,43.726 199.726,43.5 200,43.5L242.46,43.5C242.732,43.505 242.955,43.728 242.96,44L242.96,72.06C242.955,72.332 242.732,72.555 242.46,72.56ZM200.46,71.56L242,71.56L242,44.51L200.5,44.51L200.46,71.56Z" style="fill:rgb(209,211,212);fill-rule:nonzero;"/>
        <rect x="200" y="72.06" width="42.46" height="5.55" style="fill:white;"/>
        <path d="M242.46,78.11L200,78.11C199.726,78.11 199.5,77.884 199.5,77.61L199.5,72.06C199.5,71.786 199.726,71.56 200,71.56L242.46,71.56C242.734,71.56 242.96,71.786 242.96,72.06L242.96,77.61C242.96,77.884 242.734,78.11 242.46,78.11ZM200.46,77.11L242,77.11L242,72.56L200.5,72.56L200.46,77.11Z" style="fill:rgb(209,211,212);fill-rule:nonzero;"/>
        <path d="M204.86,65.53C204.854,65.53 204.847,65.53 204.841,65.53C204.572,65.53 204.351,65.309 204.351,65.04C204.351,64.923 204.393,64.809 204.47,64.72C204.95,64.12 216.47,49.99 227.21,50.84C231.49,51.18 234.41,53.42 235.03,56.84C235.603,59.841 234.074,62.876 231.32,64.2C228.32,65.59 225.54,65.57 223.6,64.14C221.886,62.772 221.087,60.546 221.54,58.4C221.622,56.54 222.884,54.927 224.67,54.4C226.511,53.915 228.477,54.472 229.79,55.85C230.396,56.518 230.528,57.496 230.12,58.3C229.36,59.77 228.46,60.54 227.44,60.58C225.81,60.58 224.61,58.73 224.56,58.65C224.512,58.571 224.487,58.481 224.487,58.389C224.487,58.213 224.579,58.05 224.73,57.96C224.807,57.912 224.896,57.887 224.987,57.887C225.161,57.887 225.322,57.98 225.41,58.13C225.67,58.54 226.5,59.63 227.41,59.58C228.32,59.53 228.83,58.58 229.23,57.84C229.456,57.388 229.367,56.838 229.01,56.48C227.953,55.406 226.398,54.978 224.94,55.36C223.544,55.791 222.572,57.07 222.53,58.53C222.139,60.309 222.782,62.164 224.19,63.32C225.82,64.53 228.27,64.52 230.9,63.32C233.248,62.172 234.53,59.559 234,57C233.47,54.07 230.89,52.14 227.09,51.84C216.92,51 205.36,65.2 205.25,65.35C205.153,65.464 205.01,65.53 204.86,65.53Z" style="fill:rgb(209,211,212);fill-rule:nonzero;"/>
        <path d="M221.44,98.13L205.08,98.13C204.806,98.13 204.58,97.904 204.58,97.63L204.58,84.63C204.58,84.356 204.806,84.13 205.08,84.13L221.44,84.13C221.714,84.13 221.94,84.356 221.94,84.63L221.94,97.63C221.94,97.904 221.714,98.13 221.44,98.13ZM205.58,97.13L220.94,97.13L220.94,85.13L205.58,85.13L205.58,97.13Z" style="fill:rgb(209,211,212);fill-rule:nonzero;"/>
        <path d="M213.26,87C212.986,87 212.76,86.774 212.76,86.5L212.76,83.39C212.76,83.116 212.986,82.89 213.26,82.89C213.534,82.89 213.76,83.116 213.76,83.39L213.76,86.48C213.76,86.487 213.76,86.493 213.76,86.5C213.76,86.774 213.535,87 213.26,87C213.26,87 213.26,87 213.26,87Z" style="fill:rgb(209,211,212);fill-rule:nonzero;"/>
    </g>
</svg>
