<?xml version="1.0" encoding="UTF-8" standalone="no"?><!DOCTYPE svg PUBLIC "-//W3C//DTD SVG 1.1//EN" "http://www.w3.org/Graphics/SVG/1.1/DTD/svg11.dtd"><svg width="100%" height="100%" viewBox="0 0 321 189" version="1.1" xmlns="http://www.w3.org/2000/svg" xmlns:xlink="http://www.w3.org/1999/xlink" xml:space="preserve" xmlns:serif="http://www.serif.com/" style="fill-rule:evenodd;clip-rule:evenodd;stroke-linejoin:round;stroke-miterlimit:1.41421;"><path d="M130.421,60.107c0.316,-5.22 1.523,-10.347 3.57,-15.16c0.3,-0.72 1,-1.58 1.69,-1.21c-0.4,2.22 -0.804,4.433 -1.21,6.64c4.103,-2.718 7.664,-6.177 10.5,-10.2c0.24,-0.415 0.585,-0.76 1,-1c0.432,-0.242 0.986,-0.095 1.24,0.33c0.1,0.391 0.019,0.806 -0.22,1.13c-1.211,2.17 -2.616,4.225 -4.2,6.14c2,-3 4.19,-6.12 7.37,-7.87c-0.332,3.475 -1.639,6.786 -3.77,9.55l5.09,-5.66c0.46,-0.52 1.23,-1.07 1.77,-0.64c0.54,0.43 0.18,1.28 -0.19,1.84l-3.54,5.28c1.8,-1.58 3.67,-3.073 5.61,-4.48c-0.34,3.22 -2.8,5.8 -5.42,7.69c-2.62,1.89 -5.57,3.41 -7.72,5.82c-1.29,1.58 -2.39,3.305 -3.28,5.14" style="fill:#fff;fill-rule:nonzero;"/><path d="M138.701,63.907c-0.073,0.014 -0.148,0.014 -0.22,0c-0.218,-0.122 -0.299,-0.4 -0.18,-0.62c0.899,-1.871 2.021,-3.627 3.34,-5.23c1.618,-1.668 3.451,-3.114 5.45,-4.3c0.79,-0.52 1.58,-1 2.34,-1.59c2.74,-2 4.43,-4.08 5,-6.26c-1.59,1.2 -3.15,2.46 -4.64,3.76c-0.086,0.099 -0.21,0.155 -0.34,0.155c-0.247,0 -0.45,-0.203 -0.45,-0.45c0,-0.108 0.039,-0.213 0.11,-0.295l3.54,-5.28c0.3,-0.46 0.52,-1 0.28,-1.23c-0.24,-0.23 -0.75,0.15 -1.14,0.58l-5.09,5.67c-0.18,0.167 -0.461,0.167 -0.64,0c-0.191,-0.154 -0.223,-0.438 -0.07,-0.63c1.883,-2.448 3.112,-5.336 3.57,-8.39c-1.296,0.899 -2.454,1.98 -3.44,3.21c-0.918,1.412 -1.92,2.768 -3,4.06c-0.157,0.185 -0.432,0.22 -0.63,0.08c-0.19,-0.147 -0.234,-0.42 -0.1,-0.62c0.929,-1.408 1.93,-2.766 3,-4.07c0.43,-0.67 0.83,-1.35 1.22,-2c0.13,-0.25 0.28,-0.55 0.2,-0.73c-0.03,-0.062 -0.084,-0.109 -0.15,-0.13c-0.151,-0.059 -0.319,-0.059 -0.47,0c-0.334,0.21 -0.612,0.499 -0.81,0.84c-2.872,4.073 -6.477,7.576 -10.63,10.33c-0.155,0.1 -0.355,0.1 -0.51,0c-0.152,-0.099 -0.228,-0.282 -0.19,-0.46c0.37,-2 0.75,-4.08 1.11,-6.12c-0.336,0.253 -0.587,0.602 -0.72,1c-2.027,4.761 -3.221,9.835 -3.53,15c-0.016,0.241 -0.219,0.431 -0.46,0.431c-0.253,0 -0.461,-0.208 -0.461,-0.461c0,-0.01 0,-0.02 0.001,-0.03c0.315,-5.273 1.536,-10.452 3.61,-15.31c0.239,-0.659 0.727,-1.198 1.36,-1.5c0.326,-0.131 0.695,-0.105 1,0.07c0.175,0.09 0.269,0.287 0.23,0.48c-0.33,1.86 -0.67,3.71 -1,5.57c3.678,-2.587 6.885,-5.787 9.48,-9.46c0.284,-0.486 0.691,-0.889 1.18,-1.17c0.378,-0.154 0.802,-0.154 1.18,0c0.298,0.108 0.54,0.331 0.67,0.62c0.101,0.233 0.125,0.492 0.07,0.74c0.69,-0.597 1.44,-1.12 2.24,-1.56c0.143,-0.09 0.327,-0.09 0.47,0c0.141,0.091 0.222,0.253 0.21,0.42c-0.195,2.002 -0.708,3.96 -1.52,5.8l2,-2.26c0.84,-0.94 1.76,-1.2 2.4,-0.68c0.64,0.52 0.58,1.42 -0.1,2.45l-1.75,2.6c1,-0.84 2.1,-1.65 3.17,-2.43c0.149,-0.094 0.34,-0.094 0.49,0c0.157,0.087 0.248,0.261 0.23,0.44c-0.3,2.84 -2.18,5.54 -5.61,8c-0.77,0.56 -1.57,1.08 -2.37,1.61c-1.933,1.144 -3.705,2.539 -5.27,4.15c-1.264,1.536 -2.345,3.214 -3.22,5c-0.097,0.144 -0.268,0.222 -0.44,0.2Z" style="fill:#231f20;fill-rule:nonzero;"/><path d="M4.541,67.747c4,-4.45 10.34,-7.39 15.65,-8.63c13.05,-3.07 27.52,-4.2 40.43,0.3c20.15,7 15.93,32.06 17.74,49.32c0.93,8.86 1.07,18.55 4.35,26.88c3.63,9.21 1.69,17.36 -6.52,24c-6.17,5 -14.39,6.86 -22.32,6.72c-8.79,-0.16 -22.86,3.36 -30.31,-1.9c-10.62,-7.5 -12.58,-24.09 -15.45,-35.76c-3.757,-15.306 -6.252,-30.895 -7.46,-46.61c-0.376,-2.778 -0.237,-5.602 0.41,-8.33c0.689,-2.235 1.879,-4.284 3.48,-5.99Z" style="fill:#231f20;fill-rule:nonzero;"/><path d="M35.961,167.797c-4.8,0 -9.35,-0.65 -12.66,-3c-9.09,-6.42 -11.86,-19.06 -14.3,-30.22c-0.44,-2 -0.87,-4 -1.31,-5.79c-3.767,-15.332 -6.269,-30.948 -7.48,-46.69c-0.385,-2.831 -0.242,-5.71 0.42,-8.49c0.72,-2.297 1.943,-4.405 3.58,-6.17c3.61,-4 9.55,-7.28 15.88,-8.76c15.76,-3.7 29.45,-3.6 40.68,0.31c16.38,5.71 16.93,23.17 17.42,38.57c0.13,3.94 0.25,7.67 0.61,11.13c0.19,1.85 0.35,3.75 0.52,5.66c0.6,7.16 1.23,14.57 3.8,21.1c3.79,9.62 1.55,17.87 -6.66,24.51c-5.62,4.56 -13.64,7 -22.6,6.82c-2.46,-0.05 -5.34,0.2 -8.38,0.46c-3.04,0.26 -6.36,0.56 -9.52,0.56Zm5.6,-110.93c-7.17,0.072 -14.307,0.971 -21.27,2.68c-6.17,1.44 -11.93,4.63 -15.43,8.49c-1.552,1.664 -2.708,3.657 -3.38,5.83c-0.627,2.677 -0.763,5.445 -0.4,8.17c1.22,15.693 3.715,31.261 7.46,46.55c0.45,1.83 0.88,3.77 1.33,5.82c2.4,11 5.13,23.46 13.94,29.68c5.22,3.68 13.92,2.94 21.59,2.28c3.07,-0.26 6,-0.51 8.47,-0.46c8.78,0.17 16.58,-2.2 22,-6.62c7.87,-6.38 10,-14.29 6.39,-23.51c-2.61,-6.65 -3.25,-14.12 -3.86,-21.35c-0.16,-1.9 -0.32,-3.79 -0.52,-5.64c-0.37,-3.49 -0.48,-7.23 -0.61,-11.19c-0.48,-15.12 -1,-32.26 -16.83,-37.76c-6.083,-2.041 -12.465,-3.045 -18.88,-2.97Z" style="fill:#231f20;fill-rule:nonzero;"/><path d="M43.791,45.237l2.84,-11.38c3.07,-12.31 7.3,-25 20.77,-28.84c4,-1.13 8,-0.68 10.69,2.93c2.72,-2.29 7,-1.06 9.8,1.11c3.9,3 6.47,7.43 8.17,12c3,8.12 3.53,16.9 7,25c-17.18,12.68 -41.72,14.47 -60.56,4.42l1.29,-5.24Z" style="fill:#fff;fill-rule:nonzero;"/><path d="M69.051,57.537c-9.336,0.038 -18.54,-2.218 -26.8,-6.57c-0.185,-0.095 -0.281,-0.308 -0.23,-0.51l1.33,-5.28l2.84,-11.38c3,-12.07 7.37,-25.28 21.08,-29.16c4.59,-1.31 8.44,-0.34 10.9,2.72c2.94,-2.06 7.19,-0.77 10,1.39c3.51,2.69 6.31,6.81 8.32,12.24c1.305,3.788 2.351,7.66 3.13,11.59c0.868,4.569 2.146,9.051 3.82,13.39c0.079,0.196 0.017,0.422 -0.15,0.55c-9.952,7.216 -21.948,11.077 -34.24,11.02Zm-26.06,-7.21c19.053,9.743 42.033,8.066 59.47,-4.34c-1.624,-4.287 -2.872,-8.707 -3.73,-13.21c-0.774,-3.908 -1.81,-7.76 -3.1,-11.53c-1.94,-5.26 -4.64,-9.24 -8,-11.83c-2.65,-2 -6.68,-3.26 -9.23,-1.12c-0.097,0.082 -0.225,0.119 -0.35,0.1c-0.124,-0.013 -0.237,-0.079 -0.31,-0.18c-2.83,-3.86 -7.1,-3.63 -10.2,-2.76c-13.27,3.72 -17.42,16.15 -20.42,28.51l-4.13,16.36Z" style="fill:#231f20;fill-rule:nonzero;"/><path d="M97.121,59.627c3.47,3.24 11.22,15.45 18.28,28.25l14.63,-30.7l11.88,3.54c0,0 -10.75,56.69 -21.35,59c-10.6,2.31 -25.05,-23 -25.05,-23l-16.21,-44.51c0,0 12.64,2.57 17.82,7.42Z" style="fill:#ff8c9a;fill-rule:nonzero;"/><path d="M78.121,57.587c0,0 16,9 19.15,24.57c3.15,15.57 -3,63.18 -3,63.18l-39.7,-1.65c0,0 6.47,-56.74 2.59,-69.09c-3.88,-12.35 -3.76,-15.78 0,-17c3.76,-1.22 13.96,-7.73 20.96,-0.01Z" style="fill:#fff;fill-rule:nonzero;"/><path d="M94.281,145.797l-39.72,-1.62c-0.126,-0.005 -0.244,-0.059 -0.33,-0.15c-0.081,-0.097 -0.118,-0.224 -0.1,-0.35c0.06,-0.57 6.41,-56.79 2.61,-68.9c-3.92,-12.45 -3.86,-16.23 0.29,-17.58c0.59,-0.19 1.37,-0.53 2.27,-0.92c4.56,-2 13,-5.64 19.09,1c1.14,0.66 16.3,9.77 19.31,24.83c3.09,15.44 -2.91,62.85 -3,63.33c-0.041,0.202 -0.215,0.351 -0.42,0.36Zm-39.16,-2.55l38.79,1.62c0.59,-4.73 5.83,-48.1 2.93,-62.62c-3,-15.17 -18.78,-24.17 -18.93,-24.26c-0.048,-0.018 -0.09,-0.049 -0.12,-0.09c-5.62,-6.22 -13.43,-2.84 -18.1,-0.82c-0.92,0.4 -1.71,0.74 -2.35,0.95c-3.11,1 -3.76,3.52 0.3,16.44c3.69,11.82 -1.89,62.85 -2.52,68.78Z" style="fill:#231f20;fill-rule:nonzero;"/><path d="M87.981,153.587c-1.06,-25.22 -3.49,-45.64 -4,-52.78c-0.57,-7.82 -2.58,-30.52 -4.74,-40.45c-2.8,-6.18 -1.59,-8 -1.59,-8c0,0 15.8,-2.22 20.5,21.36c1.39,6.95 4.92,47.46 8.32,78.93l-18.49,0.94Z" style="fill:#ff8c9a;fill-rule:nonzero;"/><path d="M79.281,48.177l0.07,12.14c0,0 -1.23,6.86 -8.61,4.76c-4.409,-1.283 -8.014,-4.484 -9.81,-8.71l0.84,-21c0.971,-3.674 1.382,-7.473 1.22,-11.27c9,-0.15 16,-6.92 16,-6.92c0,0 3.08,4.64 4.42,6.1c1.074,1.101 2.008,2.33 2.78,3.66c1.24,2.34 1.19,5.25 1.13,7.84c-0.028,3.068 -0.332,6.127 -0.91,9.14c-1.16,5.71 -7.13,4.26 -7.13,4.26Z" style="fill:#fff;fill-rule:nonzero;"/><path d="M73.361,65.927c-0.928,-0.012 -1.85,-0.15 -2.74,-0.41c-4.563,-1.305 -8.292,-4.62 -10.12,-9c-0.014,-0.056 -0.014,-0.114 0,-0.17c0.014,-0.056 0.83,-20.89 0.83,-21c0.039,-0.34 0.112,-0.675 0.22,-1c0.832,-3.332 1.169,-6.769 1,-10.2c-0.005,-0.123 0.042,-0.243 0.13,-0.33c0.082,-0.09 0.198,-0.141 0.32,-0.14c8.68,-0.14 15.65,-6.72 15.72,-6.79c0.086,-0.078 0.198,-0.121 0.314,-0.121c0.154,0 0.298,0.075 0.386,0.201c0,0.05 3.08,4.62 4.38,6c1.099,1.13 2.053,2.393 2.84,3.76c1.31,2.46 1.25,5.56 1.19,8.06c-0.023,3.095 -0.331,6.182 -0.92,9.22c-0.253,1.583 -1.152,2.993 -2.48,3.89c-1.415,0.806 -3.06,1.113 -4.67,0.87l0.07,11.6c-0.357,1.878 -1.434,3.544 -3,4.64c-1.042,0.638 -2.249,0.958 -3.47,0.92Zm-12,-9.63c1.778,4.037 5.249,7.091 9.48,8.34c1.778,0.645 3.749,0.496 5.41,-0.41c1.352,-0.949 2.29,-2.381 2.62,-4l-0.05,-12.05c-0.001,-0.139 0.062,-0.272 0.17,-0.36c0.111,-0.084 0.253,-0.117 0.39,-0.09c1.542,0.329 3.152,0.098 4.54,-0.65c1.119,-0.768 1.869,-1.968 2.07,-3.31c0.579,-2.966 0.883,-5.978 0.91,-9c0,-2.51 0.12,-5.36 -1.09,-7.62c-0.745,-1.297 -1.649,-2.496 -2.69,-3.57c-1.11,-1.22 -3.36,-4.51 -4.17,-5.71c-1.6,1.41 -7.75,6.35 -15.48,6.66c0.148,3.364 -0.189,6.732 -1,10c-0.087,0.277 -0.147,0.562 -0.18,0.85c-0.033,0.289 -0.08,0.33 -0.9,20.92l-0.03,0Z" style="fill:#231f20;fill-rule:nonzero;"/><path d="M61.991,73.294c-1.06,0 -5.29,-0.2 -8.19,-3.21c-3.28,-3.4 -2.84,-6.81 -2.82,-7c0.022,-0.151 0.12,-0.28 0.26,-0.34c0.13,-0.075 0.29,-0.075 0.42,0c0.13,0.075 5.29,3.5 10.63,3.62c0.237,0.005 0.43,0.202 0.43,0.44l-0.07,6c-0.005,0.23 -0.19,0.419 -0.42,0.43l-0.24,0.06Zm-10.15,-9.32c0.174,2.084 1.094,4.038 2.59,5.5c2.47,2.56 6.12,2.89 7.34,2.93l0.06,-5.1c-3.538,-0.344 -6.954,-1.482 -9.99,-3.33Z" style="fill:#231f20;fill-rule:nonzero;"/><path d="M74.981,30.777c0,0 3.91,5.83 3,6.85c-0.91,1.02 -3.53,0.34 -3.53,0.34" style="fill:#fff;fill-rule:nonzero;"/><path d="M76.121,38.627c-0.62,-0.007 -1.238,-0.084 -1.84,-0.23c-0.234,-0.063 -0.377,-0.304 -0.32,-0.54c0.048,-0.196 0.225,-0.335 0.427,-0.335c0.038,0 0.076,0.005 0.113,0.015c0.61,0.15 2.48,0.45 3.09,-0.21c0.33,-0.47 -1.08,-3.41 -3,-6.3c-0.032,-0.063 -0.049,-0.133 -0.049,-0.204c0,-0.247 0.203,-0.45 0.45,-0.45c0.13,0 0.253,0.056 0.339,0.154c1.23,1.85 4,6.25 2.93,7.4c-0.586,0.518 -1.361,0.772 -2.14,0.7Z" style="fill:#231f20;fill-rule:nonzero;"/><path d="M82.897,28.52c0.369,-0.015 0.692,0.538 0.719,1.233c0.027,0.694 -0.251,1.27 -0.62,1.285c-0.37,0.014 -0.692,-0.538 -0.719,-1.233c-0.027,-0.695 0.25,-1.271 0.62,-1.285Z" style="fill:#231f20;"/><path d="M71.898,27.562c0.37,-0.014 0.692,0.538 0.719,1.233c0.027,0.695 -0.25,1.271 -0.62,1.286c-0.369,0.014 -0.692,-0.538 -0.719,-1.233c-0.027,-0.695 0.251,-1.271 0.62,-1.286Z" style="fill:#231f20;"/><path d="M77.641,41.047l-3.11,-0.8c0,0 -0.63,4.54 1.12,4.94c1.75,0.4 1.99,-4.14 1.99,-4.14Z" style="fill:#fff;fill-rule:nonzero;"/><path d="M75.861,45.657c-0.103,0.015 -0.207,0.015 -0.31,0c-2.09,-0.48 -1.53,-4.96 -1.43,-5.48c0.021,-0.124 0.093,-0.233 0.2,-0.3c0.101,-0.073 0.23,-0.096 0.35,-0.06l3.11,0.79c0.202,0.052 0.341,0.241 0.33,0.45c0,0.35 -0.21,3.4 -1.42,4.31c-0.236,0.189 -0.529,0.291 -0.83,0.29Zm-0.95,-4.85c-0.13,1.45 -0.07,3.74 0.84,4c0.133,0.036 0.277,0.002 0.38,-0.09c0.6,-0.45 0.94,-2.12 1,-3.28l-2.22,-0.63Z" style="fill:#231f20;fill-rule:nonzero;"/><path d="M65.821,29.177c-0.81,-2.13 -3.52,-2.92 -5.58,-2.51c-1.387,0.228 -2.507,1.273 -2.83,2.64c-0.165,0.832 -0.165,1.688 0,2.52c0.234,1.527 0.739,3 1.49,4.35c0.347,0.704 0.867,1.309 1.51,1.76c0.845,0.505 1.92,0.433 2.69,-0.18" style="fill:#fff;fill-rule:nonzero;"/><path d="M61.581,38.747c-0.504,-0.003 -0.996,-0.148 -1.42,-0.42c-0.705,-0.491 -1.276,-1.151 -1.66,-1.92c-0.791,-1.413 -1.32,-2.958 -1.56,-4.56c-0.177,-0.891 -0.177,-1.809 0,-2.7c0.357,-1.541 1.618,-2.719 3.18,-2.97c2.3,-0.46 5.21,0.46 6.1,2.79c0.088,0.233 -0.029,0.498 -0.26,0.59c-0.236,0.087 -0.502,-0.034 -0.59,-0.27c-0.72,-1.87 -3.14,-2.6 -5.07,-2.22c-1.219,0.183 -2.206,1.099 -2.48,2.3c-0.152,0.773 -0.152,1.568 0,2.34c0.228,1.496 0.723,2.939 1.46,4.26c0.313,0.633 0.776,1.179 1.35,1.59c0.692,0.407 1.569,0.339 2.19,-0.17c0.076,-0.052 0.167,-0.08 0.26,-0.08c0.252,0 0.46,0.208 0.46,0.46c0,0.152 -0.075,0.294 -0.2,0.38c-0.513,0.373 -1.126,0.582 -1.76,0.6Z" style="fill:#231f20;fill-rule:nonzero;"/><path d="M36.881,153.587c1.463,-6.063 2.546,-12.211 3.24,-18.41c1.28,-14.38 0,-63.33 3.06,-73.07c1.48,-4.65 17.13,-8.06 17.13,-8.06c0,0 15,79.36 15,100.8l-38.43,-1.26Z" style="fill:#ff8c9a;fill-rule:nonzero;"/><path d="M63.411,112.417c3.68,-0.63 7,-2.34 10.45,-3.79c1.38,-0.58 2.79,-1.11 4.22,-1.55c1.68,-0.52 3.29,-1.52 5.09,-1.57c1.12,0 0.83,1.55 0.41,2.12c-0.431,0.519 -0.949,0.959 -1.53,1.3c-1.05,0.72 -3.27,2 -3.65,3.3c1.397,0.239 2.813,0.352 4.23,0.34c1.52,0.17 3,0.4 4.52,0.69c1.52,0.29 2.92,0.63 4.36,1c1.288,0.231 2.555,0.565 3.79,1c0.29,0.15 0.6,0.37 0.62,0.69c0.07,1.14 -2.49,1 -3.13,0.94l-11.79,-1.18c4.128,0.388 8.216,1.124 12.22,2.2c0.389,0.061 0.744,0.26 1,0.56c1,1.51 -3.22,1.59 -3.69,1.6c-2.175,0.053 -4.351,-0.003 -6.52,-0.17l5.3,0.88c1.18,0.2 2.37,0.39 3.54,0.69c0.648,0.124 1.252,0.417 1.75,0.85c0.068,0.059 0.111,0.141 0.12,0.23c0,0.12 -0.13,0.2 -0.24,0.25c-0.999,0.407 -2.072,0.598 -3.15,0.56c-2.209,0.044 -4.417,-0.103 -6.6,-0.44l6.54,0.7c0.585,-0.002 1.152,0.203 1.6,0.58c0.104,0.382 -0.055,0.79 -0.39,1c-0.34,0.203 -0.725,0.319 -1.12,0.34c-2.411,0.15 -4.829,0.15 -7.24,0c-2.632,0.014 -5.261,-0.153 -7.87,-0.5c-5.159,-0.644 -10.175,-2.144 -14.84,-4.44" style="fill:#fff;fill-rule:nonzero;"/><path d="M88.791,126.177c-0.78,0 -1.54,0 -2.3,-0.06c-0.76,-0.06 -1.58,-0.06 -2.38,0c-2.652,0.008 -5.301,-0.159 -7.93,-0.5c-5.215,-0.651 -10.285,-2.169 -15,-4.49c-0.225,-0.115 -0.319,-0.392 -0.21,-0.62c0.119,-0.221 0.394,-0.31 0.62,-0.2c4.616,2.278 9.582,3.766 14.69,4.4c2.599,0.342 5.219,0.499 7.84,0.47c0.81,0 1.62,0 2.42,0.06c1.586,0.104 3.178,0.077 4.76,-0.08c0.321,-0.02 0.635,-0.109 0.92,-0.26c0.141,-0.09 0.231,-0.243 0.24,-0.41c-0.368,-0.234 -0.794,-0.359 -1.23,-0.36l-3.07,-0.33c-1.17,-0.07 -2.34,-0.2 -3.5,-0.37c-0.243,-0.045 -0.411,-0.275 -0.38,-0.52c0.036,-0.241 0.257,-0.414 0.5,-0.39l3.45,0.37c1.026,0.06 2.056,0.08 3.09,0.06c0.938,0.033 1.874,-0.109 2.76,-0.42c-0.408,-0.277 -0.867,-0.471 -1.35,-0.57c-1.15,-0.29 -2.34,-0.49 -3.5,-0.68l-5.29,-0.88c-0.228,-0.025 -0.403,-0.22 -0.403,-0.45c0,-0.248 0.204,-0.453 0.453,-0.453c0.017,0 0.033,0.001 0.05,0.003c2.15,0.16 4.33,0.21 6.48,0.16c2.15,-0.05 3.25,-0.44 3.38,-0.69c0,-0.05 0,-0.15 -0.06,-0.2c-0.201,-0.199 -0.46,-0.329 -0.74,-0.37c-3.98,-1.084 -8.044,-1.827 -12.15,-2.22c-0.23,-0.025 -0.407,-0.219 -0.41,-0.45l0,-0.05c0.031,-0.246 0.252,-0.428 0.5,-0.41l11.79,1.19c0.868,0.154 1.763,0.046 2.57,-0.31c0.06,-0.06 0.07,-0.1 0.06,-0.15c-0.01,-0.05 -0.08,-0.17 -0.36,-0.3c-0.75,-0.319 -1.536,-0.547 -2.34,-0.68c-0.47,-0.1 -0.94,-0.19 -1.38,-0.32c-1.42,-0.4 -2.87,-0.75 -4.32,-1c-1.45,-0.25 -3,-0.52 -4.48,-0.68c-0.512,-0.049 -1.026,-0.072 -1.54,-0.07c-0.929,0.028 -1.857,-0.07 -2.76,-0.29c-0.12,-0.03 -0.222,-0.11 -0.28,-0.22c-0.045,-0.112 -0.045,-0.238 0,-0.35c0.38,-1.26 2.11,-2.4 3.37,-3.24l0.62,-0.42c0.479,-0.28 0.905,-0.642 1.26,-1.07c0.253,-0.383 0.333,-0.855 0.22,-1.3c-0.113,-0.445 -0.08,-0.11 -0.25,-0.1c-1.138,0.093 -2.248,0.402 -3.27,0.91c-0.55,0.22 -1.12,0.46 -1.7,0.64c-1.417,0.438 -2.809,0.952 -4.17,1.54c-0.63,0.26 -1.26,0.54 -1.88,0.81c-2.759,1.354 -5.674,2.361 -8.68,3c-0.006,0 -0.011,0 -0.017,0c-0.252,0 -0.46,-0.207 -0.46,-0.46c0,-0.202 0.133,-0.381 0.327,-0.44c2.928,-0.629 5.769,-1.613 8.46,-2.93l1.89,-0.83c1.393,-0.594 2.814,-1.118 4.26,-1.57c0.55,-0.176 1.09,-0.379 1.62,-0.61c1.13,-0.547 2.35,-0.885 3.6,-1c0.444,-0.022 0.864,0.212 1.08,0.6c0.28,0.751 0.172,1.595 -0.29,2.25c-0.412,0.519 -0.913,0.959 -1.48,1.3l-0.64,0.43c-1.043,0.606 -1.979,1.38 -2.77,2.29c0.662,0.095 1.331,0.139 2,0.13c0.541,-0.006 1.081,0.017 1.62,0.07c1.52,0.16 3,0.4 4.56,0.69c1.56,0.29 2.95,0.64 4.39,1.05c0.42,0.12 0.87,0.21 1.31,0.3c0.877,0.146 1.733,0.398 2.55,0.75c0.474,0.161 0.818,0.575 0.89,1.07c0.023,0.328 -0.106,0.65 -0.35,0.87c-0.7,0.67 -2.4,0.63 -3.08,0.57l0.39,0.11c0.493,0.09 0.938,0.357 1.25,0.75c0.252,0.323 0.295,0.765 0.11,1.13c-0.38,0.72 -1.78,1.12 -4.15,1.17c0.8,0.14 1.62,0.29 2.42,0.5c0.748,0.137 1.442,0.484 2,1c0.153,0.146 0.24,0.349 0.24,0.56c-0.023,0.296 -0.22,0.552 -0.5,0.65c-0.531,0.24 -1.093,0.402 -1.67,0.48c0.075,0.062 0.145,0.128 0.21,0.2c0.036,0.037 0.063,0.081 0.08,0.13c0.198,0.586 -0.03,1.236 -0.55,1.57c-0.402,0.245 -0.86,0.386 -1.33,0.41c-0.896,0.107 -1.798,0.151 -2.7,0.13Z" style="fill:#231f20;fill-rule:nonzero;"/><path d="M43.121,62.087c0,0 -30.77,56 -19.74,59.76c4.52,1.54 45,3.91 45,3.91l4.29,-17.46l-30.32,-4.69l0.77,-41.52Z" style="fill:#ff8c9a;fill-rule:nonzero;"/><path d="M82.951,36.887c-3.915,-0.011 -7.13,-3.235 -7.13,-7.15c0,-3.922 3.227,-7.15 7.15,-7.15c3.922,0 7.15,3.228 7.15,7.15c0,0.004 0,0.007 0,0.01c-0.006,3.919 -3.232,7.14 -7.15,7.14c-0.007,0 -0.014,0 -0.02,0Zm0,-13.37c-3.418,0 -6.23,2.812 -6.23,6.23c0,3.418 2.812,6.23 6.23,6.23c3.417,0 6.23,-2.812 6.23,-6.23c-0.006,-3.415 -2.815,-6.224 -6.23,-6.23Z" style="fill:#231f20;fill-rule:nonzero;"/><path d="M69.121,35.737c-3.917,0 -7.14,-3.223 -7.14,-7.14c0,-3.917 3.223,-7.14 7.14,-7.14c3.917,0 7.14,3.223 7.14,7.14c-0.006,3.915 -3.225,7.135 -7.14,7.14Zm0,-13.37c-0.004,0 -0.007,0 -0.01,0c-3.418,0 -6.23,2.812 -6.23,6.23c0,3.418 2.812,6.23 6.23,6.23c3.417,0 6.23,-2.812 6.23,-6.23c-0.006,-3.412 -2.808,-6.219 -6.22,-6.23Z" style="fill:#231f20;fill-rule:nonzero;"/><path d="M72.681,108.747l-0.07,0l-30.32,-4.69c-0.128,-0.018 -0.241,-0.091 -0.31,-0.2c-0.074,-0.104 -0.099,-0.235 -0.07,-0.36l7.3,-31.5c0.043,-0.216 0.234,-0.374 0.455,-0.374c0.254,0 0.464,0.21 0.464,0.464c0,0.03 -0.003,0.061 -0.009,0.09l-7.19,31l29.84,4.61c0.222,0.036 0.386,0.23 0.386,0.454c0,0.026 -0.002,0.051 -0.006,0.076c-0.011,0.239 -0.21,0.431 -0.45,0.431c-0.007,0 -0.013,-0.001 -0.02,-0.001Z" style="fill:#231f20;fill-rule:nonzero;"/><path d="M102.771,116.947c-0.229,0.002 -0.425,-0.172 -0.45,-0.4l-4.77,-39.54c-0.93,-7.74 -0.93,-7.74 -0.51,-7.83l0.18,0.9l-0.09,-0.45l0.46,0c0.06,0.68 5.58,46.38 5.64,46.84c0.029,0.25 -0.151,0.479 -0.4,0.51l-0.06,-0.03Z" style="fill:#231f20;fill-rule:nonzero;"/><path d="M109.591,98.877c-0.251,-0.002 -0.456,-0.209 -0.456,-0.46c0,-0.069 0.016,-0.137 0.046,-0.2l18.12,-36.33c0.111,-0.223 0.385,-0.317 0.61,-0.21c0.224,0.115 0.318,0.392 0.21,0.62l-18.12,36.33c-0.077,0.155 -0.237,0.253 -0.41,0.25Z" style="fill:#231f20;fill-rule:nonzero;"/><path d="M19.441,99.667l-0.06,0c-0.271,-0.031 -0.469,-0.279 -0.44,-0.55c0,-0.17 1.94,-17.13 0,-25.67c-1,-4.55 -2.48,-6.23 -3.52,-6.84c-0.417,-0.288 -0.933,-0.397 -1.43,-0.3c-0.263,0.078 -0.545,-0.069 -0.63,-0.33c-0.079,-0.257 0.064,-0.535 0.32,-0.62c0.748,-0.185 1.54,-0.055 2.19,0.36c1.78,1 3.14,3.53 4,7.52c2,8.69 0.09,25.29 0,26c-0.026,0.225 -0.205,0.404 -0.43,0.43Z" style="fill:#fff;fill-rule:nonzero;"/><path d="M62.451,92.377c-0.136,-0.011 -0.258,-0.085 -0.33,-0.2l-9.25,-10.6c-0.164,-0.173 -0.164,-0.447 0,-0.62l6,-6.13l-6,-5.61c-0.158,-0.151 -0.188,-0.395 -0.07,-0.58c1,-1.47 5.84,-8.82 6.25,-9.23c0.178,-0.178 0.471,-0.178 0.65,0c0.085,0.085 0.133,0.2 0.133,0.32c0,0.12 -0.048,0.236 -0.133,0.32c-0.32,0.36 -3.64,5.32 -5.92,8.77l6,5.66c0.09,0.086 0.141,0.206 0.14,0.33c-0.003,0.122 -0.049,0.239 -0.13,0.33l-6,6.16l9,10.32c0.16,0.194 0.137,0.483 -0.05,0.65c-0.082,0.068 -0.184,0.107 -0.29,0.11Z" style="fill:#231f20;fill-rule:nonzero;"/><path d="M85.121,89.817c-0.096,-0.002 -0.189,-0.029 -0.27,-0.08c-0.201,-0.149 -0.25,-0.433 -0.11,-0.64l7.25,-10.33l-7.56,-6c-0.1,-0.082 -0.161,-0.201 -0.17,-0.33c-0.013,-0.125 0.031,-0.25 0.12,-0.34l4.58,-4.8l-8,-7.21c-0.173,-0.18 -0.173,-0.469 0,-0.65c0.178,-0.178 0.471,-0.178 0.65,0l8.3,7.53c0.092,0.081 0.147,0.197 0.15,0.32c0.007,0.124 -0.04,0.245 -0.13,0.33l-4.55,4.77l7.51,6c0.191,0.148 0.231,0.424 0.09,0.62l-7.5,10.69c-0.098,0.089 -0.229,0.133 -0.36,0.12Z" style="fill:#231f20;fill-rule:nonzero;"/><path d="M262.841,48.837c2.11,-0.09 4.21,-0.45 6.66,-0.66c2.28,-0.2 5.21,-1 5.25,-3.33c0,-2 -2.31,-3.56 -1.79,-5.45c0.179,-0.507 0.454,-0.976 0.81,-1.38c6.724,-9.021 5.11,-21.914 -3.63,-29c0.067,0.012 0.134,0.018 0.202,0.018c0.62,0 1.14,-0.489 1.178,-1.108c0.01,-0.685 -0.253,-1.348 -0.73,-1.84c-1.691,-1.873 -3.891,-3.215 -6.33,-3.86c-7.707,-2.375 -15.953,-2.375 -23.66,0c-5.92,1.73 -13,6.44 -12.23,13.58c0.28,2.56 2.29,5.07 4.87,5.18c1.32,7.65 5.33,12.87 10.37,18.41c3.377,3.794 7.64,6.694 12.41,8.44c2.118,0.769 4.369,1.109 6.62,1Z" style="fill:#fff;fill-rule:nonzero;"/><path d="M261.911,49.357c-1.994,0.012 -3.974,-0.326 -5.85,-1c-4.853,-1.768 -9.191,-4.717 -12.62,-8.58c-4.66,-5.11 -8.95,-10.37 -10.42,-18.27c-2.76,-0.36 -4.67,-3.06 -4.95,-5.6c-0.76,-7 5.77,-12.12 12.59,-14.11c7.802,-2.396 16.147,-2.396 23.95,0c2.526,0.68 4.806,2.068 6.57,4c0.561,0.592 0.863,1.385 0.84,2.2c-0.059,0.534 -0.348,1.016 -0.79,1.32c8.298,7.408 9.583,20.078 2.94,29l-0.07,0.09c-0.282,0.333 -0.505,0.712 -0.66,1.12c-0.083,0.911 0.202,1.819 0.79,2.52c0.592,0.824 0.939,1.798 1,2.81c0,2.09 -2.17,3.51 -5.71,3.81c-1,0.09 -2,0.21 -2.89,0.31c-1.31,0.16 -2.54,0.31 -3.79,0.36l-0.93,0.02Zm-8.91,-48.35c-4.084,0.009 -8.145,0.602 -12.06,1.76c-4.82,1.41 -12.68,5.72 -11.82,13.04c0.24,2.2 2,4.64 4.39,4.75c0.234,0.007 0.432,0.179 0.47,0.41c1.23,7.11 4.69,12 10.25,18.15c3.322,3.735 7.517,6.59 12.21,8.31c2.057,0.73 4.241,1.039 6.42,0.91c1.22,0 2.43,-0.2 3.72,-0.35c0.93,-0.11 1.9,-0.22 2.93,-0.31c1.03,-0.09 4.75,-0.58 4.79,-2.84c-0.082,-0.825 -0.386,-1.613 -0.88,-2.28c-0.6,-1 -1.23,-2.07 -0.89,-3.29c0.178,-0.534 0.456,-1.03 0.82,-1.46l0.07,-0.09c6.551,-8.797 4.973,-21.366 -3.55,-28.27c-0.187,-0.153 -0.237,-0.419 -0.12,-0.63c0.11,-0.213 0.362,-0.316 0.59,-0.24c0.124,0.038 0.259,0.012 0.36,-0.07c0.203,-0.134 0.338,-0.349 0.37,-0.59c-0.009,-0.554 -0.231,-1.085 -0.62,-1.48c-1.64,-2 -4.27,-3.09 -6.1,-3.69c-3.667,-1.18 -7.498,-1.768 -11.35,-1.74Z" style="fill:#231f20;fill-rule:nonzero;"/><path d="M231.401,32.177c0,0 -5.46,9 -4.19,10.76c1.27,1.76 5.21,0.41 5.21,0.41" style="fill:#fff;fill-rule:nonzero;"/><path d="M229.571,44.327c-1.055,0.089 -2.089,-0.34 -2.77,-1.15c-1.35,-1.89 2.85,-9.13 4.17,-11.31c0.084,-0.169 0.258,-0.276 0.447,-0.276c0.274,0 0.5,0.226 0.5,0.5c0,0.107 -0.034,0.21 -0.097,0.296c-2.54,4.19 -4.87,9.28 -4.2,10.2c0.86,1.21 3.63,0.58 4.63,0.24c0.26,-0.086 0.546,0.052 0.64,0.31c0.086,0.258 -0.054,0.541 -0.31,0.63c-0.97,0.337 -1.984,0.526 -3.01,0.56Z" style="fill:#231f20;fill-rule:nonzero;"/><path d="M232.191,20.537c-3.57,3.16 -2.26,9.47 -2.07,13.64c0.266,5.82 0.67,11.63 1.21,17.43c0.34,3.68 9.9,3.39 11.54,2.22l-0.93,14.63c0,0 4.63,1.08 12.2,-2.78c7.57,-3.86 7.57,-5.69 7.57,-5.69l-1.29,-16.81c0,0 -6.3,0.27 -10.3,-7.1c-4,-7.37 -4.34,-18.9 -4.34,-18.9c0,0 -10.11,0.29 -13.59,3.36Z" style="fill:#fff;fill-rule:nonzero;"/><path d="M243.661,69.077c-0.618,0.015 -1.235,-0.039 -1.84,-0.16c-0.24,-0.05 -0.406,-0.276 -0.38,-0.52l0.88,-13.81c-2.14,0.67 -6.76,0.76 -9.37,-0.44c-1.127,-0.368 -1.951,-1.347 -2.12,-2.52c-0.53,-5.78 -0.94,-11.65 -1.21,-17.46c0,-0.69 -0.09,-1.44 -0.16,-2.24c-0.34,-4 -0.76,-9 2.4,-11.76c3.58,-3.16 13.49,-3.51 13.91,-3.52c0.13,-0.014 0.26,0.035 0.35,0.13c0.1,0.089 0.158,0.216 0.16,0.35c0,0.12 0.34,11.53 4.25,18.71c3.81,7 9.63,6.83 9.87,6.82c0.01,0 0.02,-0.001 0.031,-0.001c0.258,0 0.474,0.204 0.489,0.461l1.28,16.8c0,0.4 -0.37,2.36 -7.84,6.17c-3.281,1.826 -6.948,2.85 -10.7,2.99Zm-1.2,-1.07c1.28,0.14 5.42,0.27 11.45,-2.81c6.9,-3.52 7.3,-5.27 7.3,-5.29l-1.25,-16.26c-1.61,-0.08 -6.79,-0.88 -10.31,-7.33c-3.52,-6.45 -4.24,-16.3 -4.35,-18.65c-2.05,0.11 -9.9,0.71 -12.78,3.25c-2.78,2.45 -2.38,7.15 -2.06,10.93c0.07,0.81 0.13,1.57 0.16,2.28c0.27,5.79 0.68,11.64 1.21,17.4c0.06,0.7 0.58,1.27 1.54,1.71c2.79,1.29 8.14,0.92 9.21,0.16c0.161,-0.103 0.369,-0.103 0.53,0c0.17,0.093 0.272,0.277 0.26,0.47l-0.91,14.14Z" style="fill:#231f20;fill-rule:nonzero;"/><path d="M231.301,47.237c0,0 4.62,2.6 6.84,-2.16" style="fill:#fff;fill-rule:nonzero;"/><path d="M234.121,48.447c-1.047,-0.023 -2.075,-0.29 -3,-0.78c-0.159,-0.085 -0.258,-0.251 -0.258,-0.431c0,-0.088 0.023,-0.174 0.068,-0.249c0.134,-0.238 0.441,-0.324 0.68,-0.19c1.134,0.602 2.451,0.77 3.7,0.47c1.118,-0.415 2.006,-1.289 2.44,-2.4c0.082,-0.176 0.259,-0.289 0.453,-0.289c0.075,0 0.149,0.017 0.217,0.049c0.245,0.117 0.353,0.413 0.24,0.66c-0.546,1.371 -1.659,2.44 -3.05,2.93c-0.482,0.154 -0.985,0.232 -1.49,0.23Z" style="fill:#231f20;fill-rule:nonzero;"/><path d="M242.891,37.307c0.167,-1.208 0.713,-2.332 1.56,-3.21c0.578,-0.825 1.275,-1.56 2.07,-2.18c0.894,-0.664 1.998,-0.987 3.11,-0.91c0.913,0.097 1.748,0.564 2.31,1.29c0.462,0.652 0.729,1.422 0.77,2.22c0.32,3.4 -1.9,7 -5.57,9l0.31,-0.29" style="fill:#fff;fill-rule:nonzero;"/><path d="M247.121,43.987c-0.162,-0.002 -0.314,-0.08 -0.41,-0.21c-0.147,-0.205 -0.116,-0.49 0.07,-0.66l0.32,-0.29c0.101,-0.097 0.24,-0.144 0.38,-0.13c3.12,-1.94 5,-5.14 4.72,-8.13c-0.031,-0.718 -0.267,-1.412 -0.68,-2c-0.487,-0.624 -1.212,-1.019 -2,-1.09c-0.992,-0.066 -1.975,0.225 -2.77,0.82c-0.765,0.592 -1.439,1.293 -2,2.08c-0.769,0.797 -1.278,1.808 -1.46,2.9c0,0.274 -0.226,0.5 -0.5,0.5c-0.274,0 -0.5,-0.226 -0.5,-0.5c0.162,-1.322 0.748,-2.557 1.67,-3.52c0.605,-0.861 1.336,-1.627 2.17,-2.27c0.993,-0.742 2.224,-1.097 3.46,-1c1.049,0.115 2.007,0.653 2.65,1.49c0.521,0.727 0.823,1.587 0.87,2.48c0.33,3.57 -2,7.37 -5.83,9.45c-0.049,0.036 -0.103,0.063 -0.16,0.08Z" style="fill:#231f20;fill-rule:nonzero;"/><path d="M234.133,25.968c0.443,-0.093 0.993,0.744 1.228,1.868c0.235,1.124 0.066,2.111 -0.377,2.204c-0.443,0.092 -0.993,-0.745 -1.228,-1.868c-0.235,-1.124 -0.066,-2.111 0.377,-2.204Z" style="fill:#231f20;"/><path d="M207.611,120.177c-2.61,1.52 -6,0.53 -8.5,-1.18c-4.232,-2.956 -6.909,-7.671 -7.28,-12.82c-0.19,-1.702 0.134,-3.423 0.93,-4.94c6.77,-11.33 25.51,12.74 14.85,18.94Z" style="fill:#fff;fill-rule:nonzero;"/><path d="M204.701,121.417c-2.104,-0.08 -4.138,-0.775 -5.85,-2c-4.335,-3.043 -7.08,-7.878 -7.47,-13.16c-0.203,-1.794 0.146,-3.609 1,-5.2c1.51,-2.53 3.7,-3.6 6.37,-3.11c5.22,1 11.23,8 12.36,14.4c0.65,3.73 -0.51,6.66 -3.26,8.27c-0.958,0.548 -2.047,0.825 -3.15,0.8Zm-7.18,-22.7c-1.857,0.047 -3.54,1.124 -4.36,2.79c-0.762,1.431 -1.065,3.061 -0.87,4.67c0.372,5.004 2.974,9.586 7.08,12.47c2.22,1.53 5.49,2.63 8,1.16c3.07,-1.79 3.23,-5 2.82,-7.32c-1.06,-6 -6.81,-12.78 -11.63,-13.67c-0.344,-0.061 -0.691,-0.095 -1.04,-0.1Z" style="fill:#231f20;fill-rule:nonzero;"/><path d="M158.271,124.127l46.63,-0.57l-21.6,-54.97l-46.63,0.56l21.6,54.98Z" style="fill:#fff;fill-rule:nonzero;"/><path d="M158.271,124.577c-0.188,0.006 -0.359,-0.112 -0.42,-0.29l-21.61,-55c-0.069,-0.131 -0.069,-0.289 0,-0.42c0.08,-0.126 0.22,-0.202 0.37,-0.2l46.63,-0.57c0.182,0.019 0.344,0.128 0.43,0.29l21.61,55c0.019,0.051 0.029,0.106 0.029,0.16c0,0.248 -0.201,0.454 -0.449,0.46l-46.63,0.56l0.04,0.01Zm-20.94,-55l21.25,54.07l45.66,-0.56l-21.25,-54.06l-45.66,0.55Z" style="fill:#231f20;fill-rule:nonzero;"/><path d="M159.861,122.787l46.63,-0.56l-21.6,-54.97l-46.63,0.56l21.6,54.97Z" style="fill:#fff;fill-rule:nonzero;"/><path d="M159.861,123.247c-0.187,0.003 -0.356,-0.114 -0.42,-0.29l-21.61,-55c-0.065,-0.132 -0.065,-0.287 0,-0.42c0.081,-0.126 0.22,-0.205 0.37,-0.21l46.64,-0.56c0.184,0.013 0.348,0.124 0.43,0.29l21.6,55c0.054,0.14 0.035,0.297 -0.05,0.42c-0.082,0.126 -0.22,0.205 -0.37,0.21l-46.63,0.56l0.04,0Zm-20.93,-55l21.24,54.06l45.66,-0.55l-21.25,-54.06l-45.65,0.55Z" style="fill:#231f20;fill-rule:nonzero;"/><path d="M155.531,95.727c-0.272,-0.005 -0.495,-0.228 -0.5,-0.5c0,-0.274 0.226,-0.5 0.5,-0.5l33.28,-0.4c0.27,0 0.494,0.22 0.5,0.49c0,0.276 -0.224,0.505 -0.5,0.51l-33.28,0.4Z" style="fill:#d1d3d4;fill-rule:nonzero;"/><path d="M157.731,101.327c-0.274,0 -0.5,-0.226 -0.5,-0.5c0,-0.274 0.226,-0.5 0.5,-0.5l33.28,-0.4c0.013,-0.001 0.027,-0.002 0.04,-0.002c0.258,0 0.47,0.213 0.47,0.47c0,0.008 0,0.015 0,0.022c0,0.004 0,0.007 0,0.01c0,0.271 -0.22,0.495 -0.49,0.5l-33.29,0.4l-0.01,0Z" style="fill:#d1d3d4;fill-rule:nonzero;"/><path d="M159.941,106.927c-0.274,0 -0.5,-0.226 -0.5,-0.5c0,-0.274 0.226,-0.5 0.5,-0.5l33.29,-0.4c0.274,0 0.5,0.226 0.5,0.5c0,0.274 -0.226,0.5 -0.5,0.5l-33.29,0.4Z" style="fill:#d1d3d4;fill-rule:nonzero;"/><path d="M174.321,112.387c-0.272,-0.005 -0.495,-0.228 -0.5,-0.5c0,-0.274 0.226,-0.5 0.5,-0.5l21.1,-0.26c0.274,0 0.5,0.226 0.5,0.5c0,0.274 -0.226,0.5 -0.5,0.5l-21.1,0.26Z" style="fill:#d1d3d4;fill-rule:nonzero;"/><path d="M153.771,91.227c-0.206,0.006 -0.395,-0.118 -0.47,-0.31l-7.18,-18.32c-0.02,-0.055 -0.03,-0.112 -0.03,-0.17c0,-0.272 0.218,-0.499 0.49,-0.51l18.14,-0.22c0.205,-0.003 0.392,0.12 0.47,0.31l7.19,18.32c0.059,0.152 0.041,0.324 -0.05,0.46c-0.09,0.139 -0.245,0.222 -0.41,0.22l-18.14,0.22l-0.01,0Zm-6.47,-18.32l6.8,17.32l17.08,-0.21l-6.81,-17.32l-17.07,0.21Z" style="fill:#d1d3d4;fill-rule:nonzero;"/><path d="M181.621,77.797l-1.11,0l-0.9,-2.3l-0.81,0l-0.54,2.31l-1.34,0l0.71,-2.42c-0.455,-0.038 -0.891,-0.201 -1.26,-0.47c-0.347,-0.251 -0.611,-0.599 -0.76,-1c-0.113,-0.236 -0.152,-0.501 -0.11,-0.76c0.046,-0.195 0.164,-0.366 0.33,-0.48c0.196,-0.131 0.417,-0.22 0.65,-0.26c0.277,-0.053 0.558,-0.08 0.84,-0.08l2.17,0l2.13,5.46Zm-2.34,-3.11l-0.58,-1.48l-1,0l-0.43,0c-0.128,0.016 -0.252,0.049 -0.37,0.1c-0.096,0.048 -0.171,0.13 -0.21,0.23c-0.052,0.121 -0.052,0.259 0,0.38c0.056,0.162 0.152,0.306 0.28,0.42c0.123,0.097 0.262,0.171 0.41,0.22c0.153,0.042 0.311,0.069 0.47,0.08l0.49,0l0.94,0.05Z" style="fill:#d1d3d4;fill-rule:nonzero;"/><path d="M176.121,77.867l-4.29,0.05l-0.34,-0.87l3.18,0l-0.58,-1.47l-2.86,0l-0.35,-0.87l2.87,0l-0.53,-1.33l-3,0l-0.34,-0.87l4.13,-0.05l2.11,5.41Z" style="fill:#d1d3d4;fill-rule:nonzero;"/><path d="M178.451,79.617c0.175,-0.21 0.408,-0.363 0.67,-0.44c0.294,-0.094 0.601,-0.141 0.91,-0.14c0.295,-0.007 0.591,0.02 0.88,0.08c0.294,0.067 0.579,0.168 0.85,0.3c0.264,0.128 0.507,0.297 0.72,0.5c0.215,0.204 0.383,0.454 0.49,0.73c0.12,0.238 0.148,0.512 0.08,0.77c-0.066,0.191 -0.193,0.356 -0.36,0.47c-0.188,0.125 -0.393,0.22 -0.61,0.28c-0.214,0.063 -0.424,0.136 -0.63,0.22c-0.164,0.064 -0.313,0.159 -0.44,0.28c-0.094,0.139 -0.094,0.322 0,0.46c0.052,0.125 0.13,0.238 0.23,0.33c0.104,0.094 0.222,0.171 0.35,0.23c0.127,0.06 0.262,0.104 0.4,0.13c0.136,0.019 0.274,0.019 0.41,0c0.222,0.005 0.443,-0.047 0.64,-0.15c0.169,-0.097 0.299,-0.248 0.37,-0.43l1.11,0.7c-0.157,0.271 -0.405,0.477 -0.7,0.58c-0.339,0.114 -0.693,0.175 -1.05,0.18c-0.31,0.001 -0.618,-0.032 -0.92,-0.1c-0.296,-0.065 -0.582,-0.17 -0.85,-0.31c-0.264,-0.141 -0.503,-0.324 -0.71,-0.54c-0.212,-0.218 -0.379,-0.477 -0.49,-0.76c-0.115,-0.239 -0.143,-0.512 -0.08,-0.77c0.068,-0.193 0.194,-0.36 0.36,-0.48c0.187,-0.125 0.393,-0.219 0.61,-0.28c0.23,-0.07 0.44,-0.15 0.63,-0.22c0.163,-0.061 0.315,-0.149 0.45,-0.26c0.104,-0.118 0.124,-0.29 0.05,-0.43c-0.05,-0.115 -0.121,-0.221 -0.21,-0.31c-0.096,-0.088 -0.204,-0.162 -0.32,-0.22c-0.123,-0.05 -0.25,-0.09 -0.38,-0.12l-0.39,0c-0.199,-0.001 -0.396,0.036 -0.58,0.11c-0.155,0.057 -0.279,0.177 -0.34,0.33l-1.15,-0.72Z" style="fill:#d1d3d4;fill-rule:nonzero;"/><path d="M172.121,79.267l1.11,0l1.34,3.4c0.057,0.15 0.134,0.291 0.23,0.42c0.112,0.15 0.243,0.285 0.39,0.4c0.172,0.126 0.36,0.227 0.56,0.3c0.228,0.079 0.468,0.117 0.71,0.11c0.214,0.007 0.427,-0.037 0.62,-0.13c0.133,-0.068 0.242,-0.176 0.31,-0.31c0.059,-0.124 0.084,-0.263 0.07,-0.4c-0.009,-0.144 -0.039,-0.285 -0.09,-0.42l-1.36,-3.46l1.11,0l1.35,3.44c0.12,0.281 0.175,0.585 0.16,0.89c-0.014,0.247 -0.109,0.483 -0.27,0.67c-0.165,0.202 -0.384,0.355 -0.63,0.44c-0.298,0.11 -0.613,0.164 -0.93,0.16c-0.355,0.009 -0.71,-0.038 -1.05,-0.14c-0.353,-0.083 -0.691,-0.221 -1,-0.41c-0.295,-0.187 -0.564,-0.413 -0.8,-0.67c-0.231,-0.259 -0.414,-0.557 -0.54,-0.88l-1.29,-3.41Z" style="fill:#d1d3d4;fill-rule:nonzero;"/><path d="M186.631,90.387l-0.85,0l-1.43,-3.63l-0.1,3.65l-0.62,0l-2.95,-3.61l1.42,3.63l-0.85,0l-1.72,-4.37l1.35,0l2.56,3.05l0.13,-3.08l1.36,0l1.7,4.36Z" style="fill:#d1d3d4;fill-rule:nonzero;"/><path d="M180.121,90.467l-3.45,0l-0.28,-0.7l2.56,0l-0.46,-1.18l-2.31,0l-0.27,-0.7l2.3,0l-0.42,-1.07l-2.43,0l-0.28,-0.71l3.32,0l1.72,4.36Z" style="fill:#d1d3d4;fill-rule:nonzero;"/><path d="M154.061,85.697c-1,-1.18 -0.66,-2.56 -0.73,-3.9c-0.07,-1.34 -0.6,-2.64 -0.65,-3.92c0.078,-1.744 1.056,-3.328 2.58,-4.18c0.931,-0.625 2.166,-0.58 3.05,0.11c0.49,-0.77 1.71,-0.71 2.65,-0.31c1.293,0.598 2.417,1.509 3.27,2.65c1.086,1.297 1.835,2.843 2.18,4.5c0.338,1.557 -0.008,3.186 -0.95,4.47c-0.974,1.11 -2.324,1.823 -3.79,2c-1.529,0.193 -3.079,0.166 -4.6,-0.08c-0.973,-0.061 -1.905,-0.409 -2.68,-1c-0.118,-0.106 -0.228,-0.219 -0.33,-0.34Z" style="fill:#fff;fill-rule:nonzero;"/><path d="M159.911,87.717c-0.971,-0.009 -1.939,-0.082 -2.9,-0.22c-1.07,-0.054 -2.098,-0.431 -2.95,-1.08c-0.14,-0.123 -0.271,-0.257 -0.39,-0.4c-0.69,-0.945 -0.987,-2.121 -0.83,-3.28c0,-0.31 0,-0.61 0,-0.91c-0.054,-0.634 -0.157,-1.262 -0.31,-1.88c-0.175,-0.655 -0.289,-1.324 -0.34,-2c0.066,-1.933 1.141,-3.696 2.83,-4.64c0.966,-0.636 2.212,-0.679 3.22,-0.11c0.879,-0.562 1.997,-0.608 2.92,-0.12c1.373,0.628 2.566,1.591 3.47,2.8c1.141,1.36 1.928,2.982 2.29,4.72c0.361,1.7 -0.025,3.475 -1.06,4.87c-1.056,1.198 -2.516,1.967 -4.1,2.16c-0.613,0.08 -1.232,0.11 -1.85,0.09Zm-5.47,-2.34c0.089,0.108 0.186,0.208 0.29,0.3c0.702,0.511 1.542,0.8 2.41,0.83c1.471,0.241 2.97,0.272 4.45,0.09c1.341,-0.154 2.579,-0.795 3.48,-1.8c0.857,-1.166 1.168,-2.648 0.85,-4.06c-0.334,-1.575 -1.048,-3.044 -2.08,-4.28c-0.803,-1.072 -1.857,-1.931 -3.07,-2.5c-0.75,-0.31 -1.72,-0.38 -2,0.12c-0.07,0.121 -0.192,0.202 -0.33,0.22c-0.137,0.027 -0.279,-0.006 -0.39,-0.09c-0.722,-0.576 -1.743,-0.608 -2.5,-0.08c-1.365,0.76 -2.246,2.171 -2.33,3.73c0.044,0.632 0.147,1.258 0.31,1.87c0.17,0.656 0.284,1.325 0.34,2c0,0.32 0,0.65 0,1c-0.148,0.918 0.067,1.858 0.6,2.62l-0.03,0.03Z" style="fill:#d1d3d4;fill-rule:nonzero;"/><path d="M163.011,86.747l0.07,0.08c0.168,0.229 0.349,0.449 0.54,0.66c0.712,0.952 1.313,1.982 1.79,3.07l4.77,0c-0.15,-0.31 -0.28,-0.54 -0.38,-0.71c-1.63,-2.77 -3.36,-3.89 -4.72,-4.31c-0.715,-0.225 -1.473,-0.273 -2.21,-0.14c-0.143,0.024 -0.284,0.061 -0.42,0.11c-0.137,0.049 -0.1,0.34 0.56,1.24Z" style="fill:#d1d3d4;fill-rule:nonzero;"/><path d="M162.471,84.297l1.18,3.18c0,0 0.33,1.85 -1.78,1.77c-1.302,-0.089 -2.516,-0.694 -3.37,-1.68l-1.8,-5.57c-0.106,-1.032 -0.362,-2.042 -0.76,-3c1.475,-0.458 2.723,-1.459 3.49,-2.8c0.767,-1.34 1.25,1 1.73,1.33c0.387,0.22 0.746,0.485 1.07,0.79c0.486,0.579 0.828,1.264 1,2c0.281,0.801 0.495,1.624 0.64,2.46c0.25,1.52 -1.4,1.52 -1.4,1.52Z" style="fill:#fff;fill-rule:nonzero;"/><path d="M162.011,89.747l-0.16,0c-1.442,-0.103 -2.785,-0.776 -3.73,-1.87c-0.033,-0.05 -0.06,-0.104 -0.08,-0.16c-1.34,-4.15 -1.69,-5.24 -1.78,-5.56c-0.038,-0.116 -0.058,-0.238 -0.06,-0.36c-0.108,-0.912 -0.344,-1.804 -0.7,-2.65c-0.06,-0.126 -0.06,-0.273 0,-0.4c0.063,-0.129 0.18,-0.224 0.32,-0.26c1.338,-0.423 2.47,-1.334 3.17,-2.55c0.073,-0.134 0.201,-0.229 0.35,-0.26c0.146,-0.029 0.298,0.012 0.41,0.11c0.34,0.28 1.3,1 1.68,1.29c0.415,0.238 0.801,0.523 1.15,0.85c0.556,0.624 0.957,1.371 1.17,2.18c0.297,0.825 0.518,1.675 0.66,2.54c0.11,0.522 -0.022,1.067 -0.36,1.48c-0.238,0.272 -0.552,0.466 -0.9,0.56l1,2.61c0.138,0.628 -0.013,1.285 -0.41,1.79c-0.446,0.472 -1.083,0.715 -1.73,0.66Zm-3.07,-2.43c0.778,0.845 1.853,1.358 3,1.43c0.381,0.055 0.768,-0.058 1.06,-0.31c0.179,-0.256 0.254,-0.571 0.21,-0.88l-1.16,-3.09c-0.05,-0.154 -0.028,-0.323 0.06,-0.46c0.096,-0.13 0.248,-0.207 0.41,-0.21c0.307,0.002 0.603,-0.113 0.83,-0.32c0.138,-0.198 0.182,-0.447 0.12,-0.68c-0.134,-0.806 -0.338,-1.599 -0.61,-2.37c-0.173,-0.655 -0.491,-1.264 -0.93,-1.78c-0.303,-0.279 -0.639,-0.521 -1,-0.72c-0.32,-0.2 -0.93,-0.68 -1.35,-1c-0.743,1.07 -1.788,1.895 -3,2.37c0.288,0.774 0.48,1.58 0.57,2.4c0,0.08 0,0.13 0,0.17c0,0.04 1.55,4.72 1.79,5.45Z" style="fill:#d1d3d4;fill-rule:nonzero;"/><path d="M156.181,79.177c-0.369,-0.246 -0.852,-0.246 -1.22,0c-0.289,0.373 -0.332,0.884 -0.11,1.3c0.203,0.525 0.483,1.017 0.83,1.46c0.185,0.281 0.431,0.517 0.72,0.69c0.275,0.176 0.636,0.148 0.88,-0.07" style="fill:#fff;fill-rule:nonzero;"/><path d="M156.841,83.237c-0.23,-0.001 -0.456,-0.055 -0.66,-0.16c-0.361,-0.206 -0.669,-0.494 -0.9,-0.84c-0.375,-0.484 -0.678,-1.019 -0.9,-1.59c-0.307,-0.608 -0.207,-1.345 0.25,-1.85c0.529,-0.389 1.249,-0.409 1.8,-0.05c0.155,0.09 0.252,0.256 0.252,0.435c0,0.275 -0.227,0.502 -0.502,0.502c-0.088,0 -0.174,-0.023 -0.25,-0.067c-0.185,-0.136 -0.43,-0.163 -0.64,-0.07c-0.11,0.1 -0.09,0.42 0,0.76c0.186,0.479 0.442,0.927 0.76,1.33c0.14,0.222 0.328,0.41 0.55,0.55c0.087,0.034 0.183,0.034 0.27,0c0.093,-0.117 0.234,-0.185 0.384,-0.185c0.115,0 0.227,0.041 0.316,0.115c0.211,0.177 0.242,0.495 0.07,0.71c-0.187,0.256 -0.484,0.408 -0.8,0.41Z" style="fill:#d1d3d4;fill-rule:nonzero;"/><path d="M154.431,88.687c0.072,0.677 0.203,1.346 0.39,2l5.07,0c-0.6,-1.23 -1.13,-2.33 -1.52,-3.11c-0.08,-0.15 -0.15,-0.3 -0.21,-0.42l-0.42,-0.85c-0.498,0.171 -0.986,0.371 -1.46,0.6c-0.9,0.41 -1.88,1.06 -1.85,1.78Z" style="fill:#d1d3d4;fill-rule:nonzero;"/><path d="M160.155,77.988c0.595,-0.732 1.749,-0.781 2.576,-0.109c0.826,0.671 1.014,1.811 0.419,2.544c-0.595,0.732 -1.75,0.781 -2.576,0.11c-0.827,-0.672 -1.015,-1.812 -0.419,-2.545Z" style="fill:#fff;"/><path d="M161.891,81.527c-1.087,-0.02 -2.056,-0.703 -2.44,-1.72c-0.222,-0.588 -0.182,-1.243 0.11,-1.8c0.279,-0.513 0.769,-0.878 1.34,-1c1.268,-0.272 2.556,0.441 3,1.66c0.219,0.588 0.182,1.241 -0.1,1.8c-0.281,0.515 -0.776,0.881 -1.35,1c-0.184,0.044 -0.372,0.064 -0.56,0.06Zm-1.5,-2.06c0.288,0.709 1.035,1.126 1.79,1c0.295,-0.069 0.548,-0.258 0.7,-0.52c0.144,-0.317 0.144,-0.682 0,-1c-0.279,-0.716 -1.034,-1.138 -1.79,-1c-0.297,0.06 -0.551,0.251 -0.69,0.52c-0.144,0.318 -0.144,0.683 0,1l-0.01,0Z" style="fill:#d1d3d4;fill-rule:nonzero;"/><path d="M156.859,77.666c0.594,-0.736 1.752,-0.789 2.583,-0.118c0.83,0.671 1.022,1.814 0.428,2.55c-0.595,0.736 -1.752,0.789 -2.583,0.118c-0.831,-0.671 -1.023,-1.814 -0.428,-2.55Z" style="fill:#fff;"/><path d="M158.201,82.077c-1.087,-0.02 -2.056,-0.703 -2.44,-1.72c-0.222,-0.588 -0.182,-1.243 0.11,-1.8c0.279,-0.513 0.769,-0.878 1.34,-1c1.268,-0.272 2.556,0.441 3,1.66c0.219,0.588 0.182,1.241 -0.1,1.8c-0.281,0.515 -0.776,0.881 -1.35,1c-0.184,0.043 -0.372,0.063 -0.56,0.06Zm-1.5,-2.06c0.285,0.711 1.035,1.13 1.79,1c0.295,-0.069 0.548,-0.258 0.7,-0.52c0.144,-0.317 0.144,-0.682 0,-1c-0.282,-0.714 -1.035,-1.134 -1.79,-1c-0.293,0.068 -0.545,0.257 -0.69,0.52c-0.144,0.318 -0.144,0.683 0,1l-0.01,0Z" style="fill:#d1d3d4;fill-rule:nonzero;"/><path d="M159.691,79.987c0,0 1.57,1.29 1.43,1.61c-0.14,0.32 -0.89,0.31 -0.89,0.31" style="fill:#fff;fill-rule:nonzero;"/><path d="M160.271,82.407l-0.05,0c-0.274,0 -0.5,-0.226 -0.5,-0.5c0,-0.274 0.226,-0.5 0.5,-0.5l0.22,0c-0.339,-0.359 -0.703,-0.693 -1.09,-1c-0.117,-0.096 -0.185,-0.239 -0.185,-0.39c0,-0.277 0.228,-0.504 0.505,-0.504c0.116,0 0.23,0.04 0.32,0.114c1.86,1.54 1.67,2 1.56,2.21c-0.22,0.51 -0.98,0.57 -1.28,0.57Z" style="fill:#d1d3d4;fill-rule:nonzero;"/><path d="M160.671,83.557c-0.307,-0.001 -0.612,-0.055 -0.9,-0.16c-0.205,-0.067 -0.343,-0.259 -0.343,-0.475c0,-0.274 0.225,-0.5 0.5,-0.5c0.062,0 0.124,0.012 0.183,0.035c0.637,0.195 1.332,0.044 1.83,-0.4c0.094,-0.094 0.222,-0.148 0.355,-0.148c0.133,0 0.261,0.054 0.355,0.148c0.096,0.091 0.151,0.218 0.151,0.35c0,0.133 -0.055,0.259 -0.151,0.35c-0.544,0.494 -1.246,0.777 -1.98,0.8Z" style="fill:#d1d3d4;fill-rule:nonzero;"/><path d="M146.121,78.727c-1.069,-0.021 -2.038,-0.651 -2.49,-1.62l-3.27,-8.34c-0.263,-0.583 -0.214,-1.261 0.13,-1.8c0.424,-0.56 1.097,-0.878 1.8,-0.85c1.486,0.027 2.833,0.897 3.47,2.24l1,2.64c0.023,0.059 0.035,0.122 0.035,0.185c0,0.205 -0.125,0.39 -0.315,0.465c-0.255,0.096 -0.545,-0.028 -0.65,-0.28l-1,-2.65c-0.483,-0.958 -1.458,-1.574 -2.53,-1.6c-0.381,-0.042 -0.758,0.113 -1,0.41c-0.136,0.278 -0.136,0.603 0,0.88l3.28,8.33c0.293,0.601 0.901,0.989 1.57,1c0.2,0.019 0.397,-0.059 0.53,-0.21c0.074,-0.14 0.074,-0.309 0,-0.45l-2.56,-6.63c-0.104,-0.196 -0.308,-0.32 -0.53,-0.32l2.34,6c0.032,0.067 0.048,0.141 0.048,0.215c0,0.274 -0.226,0.5 -0.5,0.5c-0.219,0 -0.414,-0.145 -0.478,-0.355l-2.37,-6c-0.132,-0.296 -0.102,-0.641 0.08,-0.91c0.196,-0.283 0.525,-0.446 0.87,-0.43c0.639,0.02 1.211,0.411 1.46,1l2.6,6.62c0.192,0.447 0.151,0.96 -0.11,1.37c-0.312,0.43 -0.82,0.674 -1.35,0.65l-0.06,-0.06Z" style="fill:#231f20;fill-rule:nonzero;"/><path d="M209.601,109.077c-1.432,-3.86 -4.029,-7.18 -7.43,-9.5c-1.624,-1.239 -3.486,-2.131 -5.47,-2.62c-2.12,-0.36 -2.55,1.73 -0.89,2.87l4.17,2.84c0.3,0.21 0.66,0.4 0.94,0.64c0.48,0.43 0.41,0.2 0.31,0.75c-0.343,1.714 -0.257,3.487 0.25,5.16c0.429,1.253 0.958,2.471 1.58,3.64" style="fill:#fff;fill-rule:nonzero;"/><path d="M203.121,113.317c-0.173,0.003 -0.333,-0.095 -0.41,-0.25c-0.635,-1.193 -1.176,-2.433 -1.62,-3.71c-0.523,-1.745 -0.612,-3.592 -0.26,-5.38l0,-0.16l-0.19,-0.16c-0.178,-0.15 -0.369,-0.284 -0.57,-0.4l-0.33,-0.21l-4.18,-2.87c-0.945,-0.524 -1.404,-1.643 -1.1,-2.68c0.436,-0.838 1.411,-1.258 2.32,-1c2.047,0.502 3.97,1.417 5.65,2.69c3.475,2.378 6.131,5.774 7.6,9.72c0.087,0.236 -0.035,0.502 -0.27,0.59c-0.236,0.087 -0.502,-0.034 -0.59,-0.27c-1.397,-3.774 -3.935,-7.022 -7.26,-9.29c-1.574,-1.196 -3.373,-2.06 -5.29,-2.54c-0.66,-0.11 -1.15,0.06 -1.31,0.45c-0.16,0.39 0,1.07 0.76,1.59l4.17,2.84l0.3,0.2c0.241,0.138 0.469,0.299 0.68,0.48l0.22,0.18c0.272,0.159 0.391,0.495 0.28,0.79l0,0.2c-0.327,1.641 -0.248,3.337 0.23,4.94c0.429,1.231 0.951,2.428 1.56,3.58c0.035,0.065 0.054,0.138 0.054,0.211c0,0.171 -0.099,0.327 -0.254,0.399c-0.057,0.036 -0.123,0.057 -0.19,0.06Z" style="fill:#231f20;fill-rule:nonzero;"/><rect x="184.841" y="141.357" width="50.95" height="41.82" style="fill:#d1d3d4;"/><path d="M235.791,183.677l-51,0c-0.274,0 -0.5,-0.226 -0.5,-0.5l0,-41.81c0,-0.274 0.226,-0.5 0.5,-0.5l51,0c0.274,0 0.5,0.226 0.5,0.5l0,41.81c0,0.274 -0.226,0.5 -0.5,0.5Zm-50.45,-1l50,0l0,-40.81l-50,0l0,40.81Z" style="fill:#d1d3d4;fill-rule:nonzero;"/><rect x="189.641" y="135.657" width="43.29" height="5.7" style="fill:#fff;"/><path d="M232.931,141.817l-43.29,0c-0.249,0 -0.455,-0.201 -0.46,-0.45l0,-5.71c0.005,-0.248 0.211,-0.45 0.46,-0.45l43.29,0c0.248,0 0.454,0.202 0.46,0.45l0,5.71c-0.006,0.249 -0.212,0.45 -0.46,0.45Zm-42.81,-0.91l42.37,0l0,-4.79l-42.37,0l0,4.79Z" style="fill:#231f20;fill-rule:nonzero;"/><rect x="127.411" y="125.907" width="111.83" height="9.52" style="fill:#fff;"/><path d="M239.241,135.887l-111.83,0c0,0 0,0 0,0c-0.247,0 -0.45,-0.203 -0.45,-0.45c0,-0.003 0,-0.007 0,-0.01l0,-9.51c0,-0.003 0,-0.006 0,-0.01c0,-0.247 0.203,-0.45 0.45,-0.45l111.83,0c0.252,0 0.46,0.208 0.46,0.46l0,9.51c0,0.253 -0.208,0.46 -0.46,0.46Zm-111.37,-0.91l110.92,0l0,-8.61l-110.92,0l0,8.61Z" style="fill:#231f20;fill-rule:nonzero;"/><rect x="12.811" y="125.907" width="122.42" height="9.52" style="fill:#fff;"/><path d="M135.231,135.887l-122.43,0c0,0 0,0 0,0c-0.247,0 -0.45,-0.203 -0.45,-0.45c0,-0.003 0,-0.007 0,-0.01l0,-9.51c0,-0.003 0,-0.006 0,-0.01c0,-0.247 0.203,-0.45 0.45,-0.45l122.43,0c0.252,0 0.46,0.208 0.46,0.46l0,9.51c0,0.253 -0.208,0.46 -0.46,0.46Zm-122,-0.91l121.54,0l0,-8.61l-121.51,0l-0.03,8.61Z" style="fill:#231f20;fill-rule:nonzero;"/><path d="M235.641,71.197l2.28,-9.46l32.74,-5.72l0.85,11.41l-35.87,3.77Z" style="fill:#fff;fill-rule:nonzero;"/><path d="M235.641,71.697c-0.277,-0.004 -0.502,-0.233 -0.502,-0.51c0,-0.037 0.004,-0.074 0.012,-0.11l2.28,-9.46c0.045,-0.195 0.203,-0.345 0.4,-0.38l32.75,-5.71c0.138,-0.021 0.279,0.015 0.39,0.1c0.109,0.089 0.178,0.219 0.19,0.36l0.85,11.4c0.018,0.27 -0.182,0.509 -0.45,0.54l-35.87,3.76l-0.05,0.01Zm2.68,-9.52l-2,8.45l34.68,-3.64l-0.77,-10.37l-31.91,5.56Z" style="fill:#231f20;fill-rule:nonzero;"/><path d="M296.661,74.177c0,0 -14.76,-13.81 -43.92,-9.9c-29.16,3.91 -26.42,18 -28.52,31.85c-2.1,13.85 0,64.05 0,64.05c0,0 -38.78,-6.58 -43,0c-4.22,6.58 -0.68,24.33 -0.68,24.33l44.88,0l62.53,-5.11l8.71,-105.22Z" style="fill:#a2e5ff;fill-rule:nonzero;"/><path d="M243.461,169.177c0,0 8.56,-96 21.66,-106.84c13.1,-10.84 49,-7 54,6c5,13 -17.43,96.39 -22.4,107.66c-4.97,11.27 -7,10.75 -30.66,10.75c-15,0 -70.61,4.06 -74.67,-3.61c-4.06,-7.67 8.78,-14.84 52.07,-13.96Z" style="fill:#231f20;fill-rule:nonzero;"/><path d="M222.991,188.287c-17,0 -30,-1.09 -32.05,-4.9c-1.026,-1.69 -1.026,-3.819 0,-5.51c4,-6.47 22.48,-9.71 52.07,-9.12c0.71,-7.73 9,-96.2 21.77,-106.76c8.77,-7.26 26.51,-7.74 38.74,-4.51c8.49,2.24 14.14,6 15.91,10.73c5.14,13.55 -17.66,97.22 -22.4,108c-4.86,11 -7.05,11 -28.07,11l-3,0c-3.11,0 -8.06,0.18 -13.8,0.39c-10.1,0.37 -20.19,0.68 -29.17,0.68Zm13.6,-18.72c-25.19,0 -41.39,3.14 -44.86,8.77c-0.876,1.42 -0.876,3.22 0,4.64c3.09,5.82 40.4,4.48 60.45,3.76c5.74,-0.21 10.7,-0.39 13.83,-0.39l3,0c20.91,0 22.64,0 27.26,-10.49c5.1,-11.59 27.2,-94.63 22.39,-107.33c-1.67,-4.4 -7.11,-8 -15.31,-10.19c-16.11,-4.26 -31.58,-0.94 -38,4.34c-12.79,10.58 -21.4,105.61 -21.48,106.56c-0.025,0.226 -0.213,0.402 -0.44,0.41c-2.347,-0.047 -4.627,-0.073 -6.84,-0.08Z" style="fill:#231f20;fill-rule:nonzero;"/><path d="M218.761,145.177c-6,0.81 -12.41,2.58 -16.07,7.4c-4.54,6 -3.3,14.39 -1.85,21.76c2.834,0.267 5.628,0.854 8.33,1.75c-1.636,-4.265 -2.044,-8.904 -1.18,-13.39c0.256,-2.109 1.244,-4.063 2.79,-5.52c1.566,-1.06 3.391,-1.676 5.28,-1.78c12,-1.63 22.88,0.19 34.66,1.69c1.9,-6.9 -0.69,-10.73 -7.25,-11.67c-8.186,-1.219 -16.502,-1.3 -24.71,-0.24Z" style="fill:#231f20;fill-rule:nonzero;"/><path d="M209.171,176.477l-0.14,0c-2.669,-0.888 -5.43,-1.469 -8.23,-1.73c-0.193,-0.018 -0.352,-0.161 -0.39,-0.35c-1.48,-7.51 -2.68,-16 1.93,-22.11c4.06,-5.36 11.28,-6.89 16.36,-7.58c8.249,-1.059 16.604,-0.975 24.83,0.25c3.39,0.48 5.76,1.73 7.06,3.71c1.3,1.98 1.53,4.91 0.53,8.51c-0.065,0.206 -0.266,0.339 -0.48,0.32l-3.73,-0.49c-10.37,-1.36 -20.16,-2.65 -30.81,-1.2c-1.808,0.092 -3.557,0.673 -5.06,1.68c-1.29,1 -2.15,2.76 -2.64,5.27c-0.836,4.403 -0.434,8.952 1.16,13.14c0.063,0.158 0.028,0.338 -0.09,0.46c-0.082,0.076 -0.189,0.119 -0.3,0.12Zm-8,-2.59c2.455,0.251 4.879,0.74 7.24,1.46c-1.395,-4.111 -1.705,-8.514 -0.9,-12.78c0.53,-2.72 1.5,-4.61 2.95,-5.78c1.631,-1.108 3.531,-1.758 5.5,-1.88c10.76,-1.46 20.61,-0.17 31,1.21l3.35,0.43c0.81,-3.14 0.63,-5.64 -0.54,-7.41c-1.17,-1.77 -3.32,-2.88 -6.44,-3.33c-8.146,-1.216 -16.422,-1.297 -24.59,-0.24c-4.92,0.66 -11.91,2.14 -15.78,7.23c-4.24,5.7 -3.17,13.84 -1.75,21.09l-0.04,0Z" style="fill:#231f20;fill-rule:nonzero;"/><path d="M239.401,167.177c-0.066,0.015 -0.134,0.015 -0.2,0l-15.18,-6.51c-0.175,-0.082 -0.287,-0.259 -0.287,-0.452c0,-0.275 0.225,-0.5 0.5,-0.5c0.06,0 0.12,0.011 0.177,0.032l15.18,6.52c0.187,0.074 0.31,0.255 0.31,0.456c0,0.067 -0.014,0.133 -0.04,0.194c-0.091,0.167 -0.27,0.268 -0.46,0.26Z" style="fill:#231f20;fill-rule:nonzero;"/><rect x="127.411" y="135.437" width="62.23" height="52.43" style="fill:#fff;"/><path d="M189.641,188.317l-62.23,0c0,0 0,0 0,0c-0.247,0 -0.45,-0.203 -0.45,-0.45c0,-0.003 0,-0.007 0,-0.01l0,-52.43c0,-0.247 0.203,-0.45 0.45,-0.45l62.23,0c0.248,0 0.454,0.202 0.46,0.45l0,52.43c0,0.253 -0.208,0.46 -0.46,0.46Zm-61.77,-0.91l61.31,0l0,-51.52l-61.31,0l0,51.52Z" style="fill:#231f20;fill-rule:nonzero;"/><rect x="18.151" y="135.437" width="109.26" height="52.43" style="fill:#fff;"/><path d="M127.411,188.317l-109.29,0c-0.004,0 -0.007,0 -0.01,0c-0.247,0 -0.45,-0.203 -0.45,-0.45c0,-0.003 0,-0.006 0,-0.01l0,-52.43c0,0 0,0 0,0c0,-0.247 0.203,-0.45 0.45,-0.45c0.003,0 0.006,0 0.01,0l109.29,0c0.248,0 0.454,0.202 0.46,0.45l0,52.43c0,0.253 -0.208,0.46 -0.46,0.46Zm-108.8,-0.91l108.35,0l0,-51.52l-108.35,0l0,51.52Z" style="fill:#231f20;fill-rule:nonzero;"/><path d="M183.331,180.767l-48.64,0c-0.274,0 -0.5,-0.226 -0.5,-0.5l0,-37.22c0,-0.274 0.226,-0.5 0.5,-0.5l48.64,0c0.272,0.005 0.495,0.228 0.5,0.5l0,37.22c0,0.274 -0.226,0.5 -0.5,0.5Zm-48.14,-1l47.64,0l0,-36.22l-47.64,0l0,36.22Z" style="fill:#d1d3d4;fill-rule:nonzero;"/><path d="M158.811,155.727c-0.004,0 -0.007,0 -0.01,0c-2.101,0 -3.83,-1.729 -3.83,-3.83c0,-2.101 1.729,-3.83 3.83,-3.83c2.101,0 3.83,1.729 3.83,3.83c-0.006,2.095 -1.725,3.819 -3.82,3.83Zm0,-6.65c-0.004,0 -0.007,0 -0.01,0c-1.553,0 -2.83,1.278 -2.83,2.83c0,1.553 1.277,2.83 2.83,2.83c1.552,0 2.83,-1.277 2.83,-2.83c0,-0.003 0,-0.007 0,-0.01c-0.006,-1.545 -1.275,-2.814 -2.82,-2.82Z" style="fill:#d1d3d4;fill-rule:nonzero;"/><path d="M152.941,103.377c0.56,1.81 1.19,3.59 1.92,5.33c-2.181,-1.832 -4.472,-3.529 -6.86,-5.08c-0.424,-0.349 -0.961,-0.534 -1.51,-0.52c-0.63,0.186 -1.137,0.656 -1.37,1.27c-2.06,4 -1.07,9.08 1.42,12.86c4,6 10.85,11.22 18.26,10.81c0.481,0.009 0.955,-0.115 1.37,-0.36c0.301,-0.257 0.547,-0.573 0.72,-0.93c1.253,-2.24 2.403,-4.53 3.45,-6.87c0.228,-0.367 0.306,-0.807 0.22,-1.23c-0.178,-0.364 -0.474,-0.657 -0.84,-0.83c-5.3,-3.34 -8.24,-8.23 -11.71,-13.18c-0.7,-1 -2.3,-4.62 -3.81,-4.56c-1.69,0.09 -1.65,2.02 -1.26,3.29Z" style="fill:#fff;fill-rule:nonzero;"/><path d="M163.991,128.527c-7.73,0 -14.38,-5.87 -17.81,-11c-2.82,-4.28 -3.39,-9.51 -1.44,-13.32c0.276,-0.749 0.906,-1.315 1.68,-1.51c0.661,-0.035 1.313,0.175 1.83,0.59c1.9,1.23 3.75,2.57 5.53,4c-0.47,-1.23 -0.89,-2.48 -1.27,-3.72c-0.379,-1.022 -0.314,-2.158 0.18,-3.13c0.352,-0.48 0.914,-0.763 1.51,-0.76c1.41,0 2.7,2.16 3.62,3.78c0.179,0.343 0.376,0.677 0.59,1l1.26,1.83c3,4.29 5.75,8.34 10.31,11.22c0.673,0.26 1.119,0.911 1.119,1.633c0,0.36 -0.112,0.712 -0.319,1.007c-1,2.34 -2.22,4.66 -3.47,6.9c-0.204,0.419 -0.497,0.788 -0.86,1.08c-0.483,0.299 -1.042,0.452 -1.61,0.44c-0.28,-0.05 -0.57,-0.04 -0.85,-0.04Zm-17.32,-25l-0.11,0c-0.36,0.05 -0.69,0.39 -1,1c-1.8,3.52 -1.25,8.39 1.4,12.39c3.41,5.17 10.14,11 17.84,10.61c0.395,0.014 0.786,-0.083 1.13,-0.28c0.251,-0.214 0.452,-0.48 0.59,-0.78c1.24,-2.21 2.39,-4.51 3.44,-6.82c0.161,-0.271 0.231,-0.586 0.2,-0.9c-0.08,-0.24 -0.39,-0.43 -0.66,-0.6c-4.72,-3 -7.56,-7.1 -10.57,-11.47l-1.26,-1.83c-0.17,-0.23 -0.38,-0.61 -0.63,-1c-0.67,-1.17 -1.86,-3.35 -2.79,-3.32c-0.311,-0.005 -0.607,0.136 -0.8,0.38c-0.333,0.737 -0.355,1.577 -0.06,2.33c0.54,1.78 1.18,3.56 1.9,5.29c0.076,0.195 0.009,0.418 -0.16,0.54c-0.162,0.134 -0.398,0.134 -0.56,0c-2.161,-1.81 -4.436,-3.481 -6.81,-5c-0.31,-0.267 -0.687,-0.443 -1.09,-0.51l0,-0.03Z" style="fill:#231f20;fill-rule:nonzero;"/><path d="M250.121,75.407c0,0 -6,61.35 -26.58,61c-20.58,-0.35 -64,-6.79 -64,-7.69c0,-0.9 5.35,-17 5.35,-17c0,0 46.15,4.81 50.66,-2.41c4.51,-7.22 11.5,-29.94 11.5,-29.94" style="fill:#a2e5ff;fill-rule:nonzero;"/><path d="M225.121,136.177c-17.21,0 -48.15,-4 -49.86,-4.22c-0.272,-0.036 -0.465,-0.288 -0.43,-0.56c0.036,-0.272 0.286,-0.469 0.56,-0.44c18.81,2.46 55.56,6.24 59.94,3c5.5,-4.05 14.16,-39.93 14.24,-40.3c0.073,-0.264 0.342,-0.427 0.61,-0.37c0.264,0.073 0.427,0.342 0.37,0.61c-0.36,1.49 -8.83,36.6 -14.62,40.87c-1.38,0.98 -5.42,1.41 -10.81,1.41Z" style="fill:#231f20;fill-rule:nonzero;"/><path d="M255.201,170.627l-0.08,0c-0.228,-0.046 -0.393,-0.248 -0.393,-0.48c0,-0.037 0.005,-0.074 0.013,-0.11c7.24,-32.84 20.74,-96 20.07,-100c-1.1,-6.58 -7.43,-5.64 -7.7,-5.6c-0.027,0.004 -0.053,0.007 -0.08,0.007c-0.278,0 -0.507,-0.229 -0.507,-0.507c0,-0.248 0.182,-0.461 0.427,-0.5c0.08,0 7.57,-1.15 8.84,6.42c0.88,5.19 -19.22,96.51 -20.07,100.39c-0.061,0.233 -0.28,0.393 -0.52,0.38Z" style="fill:#fff;fill-rule:nonzero;"/></svg>