<?xml version="1.0" encoding="UTF-8" standalone="no"?><!DOCTYPE svg PUBLIC "-//W3C//DTD SVG 1.1//EN" "http://www.w3.org/Graphics/SVG/1.1/DTD/svg11.dtd"><svg width="100%" height="100%" viewBox="0 0 293 213" version="1.1" xmlns="http://www.w3.org/2000/svg" xmlns:xlink="http://www.w3.org/1999/xlink" xml:space="preserve" xmlns:serif="http://www.serif.com/" style="fill-rule:evenodd;clip-rule:evenodd;stroke-linejoin:round;stroke-miterlimit:1.41421;"><path d="M0.497,193.89l-0.15,0c-0.205,-0.062 -0.347,-0.254 -0.347,-0.469c0,-0.054 0.009,-0.109 0.027,-0.161l47.05,-142.39l-10.32,-3.35c-0.208,-0.065 -0.35,-0.259 -0.35,-0.477c0,-0.153 0.07,-0.298 0.19,-0.393l36.84,-29.74c0.133,-0.104 0.31,-0.134 0.47,-0.08c0.161,0.049 0.286,0.178 0.33,0.34l12.35,45.71c0.042,0.18 -0.011,0.368 -0.14,0.5c-0.134,0.124 -0.326,0.166 -0.5,0.11l-10.33,-3.35l-42.35,128.16c-0.085,0.261 -0.369,0.405 -0.63,0.32c-0.205,-0.062 -0.347,-0.254 -0.347,-0.469c0,-0.054 0.009,-0.109 0.027,-0.161l42.51,-128.64c0.09,-0.257 0.37,-0.399 0.63,-0.32l9.92,3.22l-11.91,-44.08l-35.53,28.68l9.92,3.22c0.13,0.039 0.238,0.13 0.3,0.25c0.055,0.121 0.055,0.259 0,0.38l-47.13,142.89c-0.09,0.206 -0.307,0.328 -0.53,0.3Z" style="fill:#fff;fill-opacity:0.5;fill-rule:nonzero;"/><path d="M187.287,207.42c-0.053,0.01 -0.107,0.01 -0.16,0c-0.26,-0.085 -0.405,-0.369 -0.32,-0.63l45.3,-139.52l-9.73,-3.16c-0.208,-0.061 -0.353,-0.253 -0.353,-0.47c0,-0.153 0.072,-0.297 0.193,-0.39l34.81,-28.15c0.131,-0.108 0.309,-0.142 0.47,-0.09c0.158,0.06 0.28,0.189 0.33,0.35l11.7,43.23c0.047,0.177 -0.007,0.365 -0.14,0.49c-0.131,0.13 -0.326,0.173 -0.5,0.11l-9.73,-3.16l-28.56,87.95c-0.085,0.261 -0.369,0.405 -0.63,0.32c-0.205,-0.062 -0.347,-0.254 -0.347,-0.469c0,-0.054 0.009,-0.109 0.027,-0.161l28.71,-88.42c0.04,-0.127 0.13,-0.232 0.25,-0.29c0.122,-0.05 0.259,-0.05 0.38,0l9.33,3l-11.23,-41.6l-33.52,27.06l9.33,3c0.124,0.039 0.229,0.125 0.29,0.24c0.05,0.125 0.05,0.265 0,0.39l-45.46,140c-0.054,0.203 -0.23,0.352 -0.44,0.37Z" style="fill:#fff;fill-opacity:0.5;fill-rule:nonzero;"/><path d="M240.387,212.19l-0.15,0c-0.209,-0.064 -0.353,-0.259 -0.353,-0.478c0,-0.051 0.008,-0.103 0.023,-0.152l21.8,-69.67l-7.75,-2.52c-0.172,-0.054 -0.3,-0.201 -0.33,-0.38c-0.037,-0.179 0.029,-0.364 0.17,-0.48l28.05,-22.63c0.127,-0.108 0.302,-0.142 0.46,-0.09c0.163,0.046 0.29,0.176 0.33,0.34l9.4,34.8c0.011,0.041 0.016,0.083 0.016,0.125c0,0.274 -0.226,0.5 -0.5,0.5c-0.053,0 -0.105,-0.008 -0.156,-0.025l-7.74,-2.51l-17.13,55.27c-0.05,0.228 -0.254,0.391 -0.488,0.391c-0.274,0 -0.5,-0.225 -0.5,-0.5c0,-0.065 0.013,-0.13 0.038,-0.191l17.28,-55.77c0.042,-0.128 0.132,-0.235 0.25,-0.3c0.122,-0.05 0.259,-0.05 0.38,0l7.34,2.39l-8.95,-33.16l-26.73,21.54l7.34,2.38c0.257,0.09 0.399,0.37 0.32,0.63l-21.95,70.14c-0.059,0.209 -0.252,0.354 -0.47,0.35Z" style="fill:#fff;fill-opacity:0.5;fill-rule:nonzero;"/><path d="M108.247,204.94c-0.159,-0.003 -0.318,-0.03 -0.47,-0.08c-0.612,-0.203 -1.027,-0.779 -1.027,-1.424c0,-0.161 0.026,-0.322 0.077,-0.476l67.86,-201.95c0.212,-0.603 0.786,-1.01 1.425,-1.01c0.829,0 1.51,0.682 1.51,1.51c0,0.17 -0.028,0.34 -0.085,0.5l-67.86,202c-0.238,0.574 -0.808,0.945 -1.43,0.93Z" style="fill:#231f20;fill-rule:nonzero;"/><path d="M152.027,205.21c-0.163,-0.002 -0.325,-0.029 -0.48,-0.08c-0.608,-0.201 -1.021,-0.774 -1.021,-1.414c0,-0.165 0.027,-0.33 0.081,-0.486l63.57,-189.25c0.212,-0.603 0.786,-1.01 1.425,-1.01c0.829,0 1.51,0.682 1.51,1.51c0,0.17 -0.028,0.34 -0.085,0.5l-63.58,189.21c-0.208,0.606 -0.779,1.017 -1.42,1.02Z" style="fill:#231f20;fill-rule:nonzero;"/><path d="M207.027,39.08c-0.163,-0.002 -0.325,-0.029 -0.48,-0.08l-38.52,-12.97c-0.603,-0.212 -1.01,-0.785 -1.01,-1.425c0,-0.828 0.682,-1.51 1.51,-1.51c0.171,0 0.34,0.029 0.5,0.085l38.49,13c0.607,0.207 1.017,0.78 1.017,1.42c0,0.822 -0.675,1.498 -1.497,1.5l-0.01,-0.02Z" style="fill:#231f20;fill-rule:nonzero;"/><path d="M199.767,60.59c-0.163,-0.002 -0.325,-0.029 -0.48,-0.08l-38.49,-12.92c-0.603,-0.212 -1.01,-0.785 -1.01,-1.425c0,-0.828 0.682,-1.51 1.51,-1.51c0.171,0 0.34,0.029 0.5,0.085l38.49,13c0.612,0.203 1.028,0.779 1.028,1.424c0,0.162 -0.026,0.323 -0.078,0.476c-0.239,0.594 -0.83,0.976 -1.47,0.95Z" style="fill:#231f20;fill-rule:nonzero;"/><path d="M192.517,82.1c-0.163,-0.002 -0.325,-0.029 -0.48,-0.08l-38.49,-13c-0.603,-0.212 -1.01,-0.785 -1.01,-1.425c0,-0.828 0.682,-1.51 1.51,-1.51c0.171,0 0.34,0.029 0.5,0.085l38.49,13c0.612,0.203 1.028,0.779 1.028,1.424c0,0.162 -0.026,0.323 -0.078,0.476c-0.212,0.625 -0.809,1.044 -1.47,1.03Z" style="fill:#231f20;fill-rule:nonzero;"/><path d="M185.267,103.59c-0.163,-0.002 -0.325,-0.029 -0.48,-0.08l-38.49,-13c-0.601,-0.211 -1.005,-0.783 -1.005,-1.42c0,-0.826 0.679,-1.505 1.505,-1.505c0.171,0 0.34,0.029 0.5,0.085l38.49,13c0.612,0.203 1.028,0.779 1.028,1.424c0,0.162 -0.026,0.323 -0.078,0.476c-0.216,0.621 -0.812,1.035 -1.47,1.02Z" style="fill:#231f20;fill-rule:nonzero;"/><path d="M178.027,125.12c-0.163,-0.002 -0.325,-0.029 -0.48,-0.08l-38.49,-13c-0.601,-0.211 -1.005,-0.783 -1.005,-1.42c0,-0.826 0.679,-1.505 1.505,-1.505c0.171,0 0.34,0.029 0.5,0.085l38.49,13c0.622,0.197 1.048,0.778 1.048,1.43c0,0.823 -0.677,1.5 -1.5,1.5c-0.009,0 -0.018,0 -0.028,0l-0.04,-0.01Z" style="fill:#231f20;fill-rule:nonzero;"/><path d="M170.767,146.59c-0.163,-0.002 -0.325,-0.029 -0.48,-0.08l-38.49,-13c-0.601,-0.211 -1.005,-0.783 -1.005,-1.42c0,-0.826 0.679,-1.505 1.505,-1.505c0.171,0 0.34,0.029 0.5,0.085l38.49,13c0.622,0.197 1.048,0.778 1.048,1.43c0,0.823 -0.677,1.5 -1.5,1.5c-0.009,0 -0.018,0 -0.028,0l-0.04,-0.01Z" style="fill:#231f20;fill-rule:nonzero;"/><path d="M163.517,168.13c-0.162,0.002 -0.324,-0.022 -0.48,-0.07l-38.49,-13c-0.601,-0.211 -1.005,-0.783 -1.005,-1.42c0,-0.826 0.679,-1.505 1.505,-1.505c0.171,0 0.34,0.029 0.5,0.085l38.49,13c0.607,0.207 1.017,0.78 1.017,1.42c0,0.822 -0.675,1.498 -1.497,1.5l-0.04,-0.01Z" style="fill:#231f20;fill-rule:nonzero;"/><path d="M156.267,189.64c-0.163,0.003 -0.326,-0.024 -0.48,-0.08l-38.49,-13c-0.601,-0.211 -1.005,-0.783 -1.005,-1.42c0,-0.826 0.679,-1.505 1.505,-1.505c0.171,0 0.34,0.029 0.5,0.085l38.49,13c0.607,0.207 1.017,0.78 1.017,1.42c0,0.822 -0.675,1.498 -1.497,1.5l-0.04,0Z" style="fill:#231f20;fill-rule:nonzero;"/><path d="M128.427,4.76c-4.94,0.87 -9.39,3.85 -9.3,9.38c0.187,3.407 1.791,6.585 4.42,8.76c3.759,3.359 9.065,4.411 13.82,2.74c3.996,-1.618 6.745,-5.372 7.08,-9.67c0.18,-3.32 -1.3,-8.8 -4.8,-10c-1.039,-0.192 -2.114,0.023 -3,0.6c-0.62,-1.98 -6.16,-2.18 -8.22,-1.81Z" style="fill:#fff;fill-rule:nonzero;"/><path d="M132.937,26.91c-3.563,-0.022 -7.002,-1.321 -9.69,-3.66c-2.732,-2.256 -4.392,-5.561 -4.57,-9.1c-0.09,-5.08 3.52,-8.76 9.67,-9.84c1.69,-0.3 7.08,-0.31 8.48,1.63c0.91,-0.517 1.985,-0.664 3,-0.41c3.8,1.31 5.29,7 5.1,10.47c-0.352,4.472 -3.213,8.376 -7.37,10.06c-1.472,0.574 -3.04,0.862 -4.62,0.85Zm-2.46,-21.85c-0.67,-0.009 -1.339,0.041 -2,0.15c-2.13,0.37 -9,2.12 -8.92,8.92c0.174,3.297 1.733,6.372 4.29,8.46c3.632,3.242 8.756,4.259 13.35,2.65c3.842,-1.557 6.49,-5.159 6.83,-9.29c0.18,-3.3 -1.28,-8.45 -4.49,-9.56c-0.905,-0.159 -1.837,0.038 -2.6,0.55c-0.125,0.064 -0.274,0.064 -0.4,0c-0.136,-0.046 -0.244,-0.153 -0.29,-0.29c-0.41,-1.06 -3.37,-1.59 -5.77,-1.59Z" style="fill:#231f20;fill-rule:nonzero;"/><path d="M155.537,125.09l-4.63,11.5c0,0 13.54,5.3 17.2,6.08c3.66,0.78 3.78,-0.89 -1.14,-5.44c-3.84,-3.55 -5.32,-4 -5.32,-4l2.48,-4.45l-8.59,-3.69Z" style="fill:#fff;fill-rule:nonzero;"/><path d="M169.567,143.29c-0.522,-0.014 -1.041,-0.081 -1.55,-0.2c-3.66,-0.78 -16.73,-5.88 -17.28,-6.1c-0.114,-0.045 -0.205,-0.135 -0.25,-0.25c-0.045,-0.112 -0.045,-0.238 0,-0.35l4.63,-11.47c0.051,-0.11 0.14,-0.199 0.25,-0.25c0.112,-0.049 0.239,-0.049 0.35,0l8.6,3.64c0.119,0.049 0.21,0.148 0.25,0.27c0.055,0.121 0.055,0.259 0,0.38l-2.24,4c1.815,1.095 3.493,2.401 5,3.89c4.08,3.77 4.19,5 3.83,5.74c-0.342,0.529 -0.969,0.805 -1.59,0.7Zm-18.07,-7c2.34,0.9 13.49,5.2 16.71,5.89c1.48,0.31 2,0.13 2.09,0c0.09,-0.13 0.4,-0.91 -3.64,-4.64c-3.66,-3.39 -5.13,-3.92 -5.15,-3.93c-0.13,-0.041 -0.233,-0.141 -0.28,-0.27c-0.055,-0.124 -0.055,-0.266 0,-0.39l2.23,-4l-7.69,-3.27l-4.27,10.61Z" style="fill:#231f20;fill-rule:nonzero;"/><path d="M128.767,164.28c-0.172,2.29 0.004,4.593 0.52,6.83c0.85,2.86 1.66,6.74 1.34,9.2c-0.32,2.46 -2.94,5.41 -5.53,4.21c-2.59,-1.2 -3.63,-8.67 -3.54,-10.69c0.09,-2.02 0.34,-7.27 -0.22,-10l7.43,0.45Z" style="fill:#fff;fill-rule:nonzero;"/><path d="M126.327,185.25c-0.491,0.002 -0.976,-0.108 -1.42,-0.32c-3.06,-1.41 -3.87,-9.56 -3.81,-11.12l0,-0.22c0.09,-2.12 0.31,-7.08 -0.22,-9.65c-0.028,-0.141 0.009,-0.288 0.1,-0.4c0.1,-0.102 0.238,-0.156 0.38,-0.15l7.42,0.45c0.124,0.001 0.241,0.056 0.32,0.15c0.08,0.095 0.12,0.217 0.11,0.34c-0.162,2.233 0.01,4.478 0.51,6.66c0.42,1.41 1.76,6.27 1.35,9.39c-0.291,1.838 -1.393,3.451 -3,4.39c-0.531,0.301 -1.129,0.466 -1.74,0.48Zm-4.44,-20.93c0.29,3.082 0.337,6.181 0.14,9.27l0,0.23c-0.09,2.07 1,9.19 3.27,10.25c0.77,0.352 1.667,0.299 2.39,-0.14c1.339,-0.808 2.254,-2.166 2.5,-3.71c0.38,-2.94 -0.92,-7.64 -1.32,-9c-0.518,-2.135 -0.714,-4.336 -0.58,-6.53l-6.4,-0.37Z" style="fill:#231f20;fill-rule:nonzero;"/><path d="M112.807,73.39c1.36,-0.85 31.94,5.85 31.94,5.85c0,0 37.06,6.71 36.07,16c-0.99,9.29 -16.09,35.35 -16.09,35.35l-11.4,-3.12l10,-25.14l-28.25,-4.89c0,0 -6.69,53 -4.52,69.43l-11.06,1.72l-6.69,-95.2Z" style="fill:#231f20;fill-rule:nonzero;"/><path d="M119.497,168.99c-0.099,0.002 -0.196,-0.033 -0.27,-0.1c-0.108,-0.065 -0.182,-0.175 -0.2,-0.3l-6.69,-95.16c-0.007,-0.159 0.069,-0.31 0.2,-0.4c1.41,-0.88 25.06,4.21 32.28,5.79c1.51,0.28 37.43,6.89 36.41,16.47c-1,9.28 -15.53,34.41 -16.15,35.48c-0.103,0.17 -0.308,0.251 -0.5,0.2l-11.4,-3.11c-0.118,-0.035 -0.216,-0.119 -0.27,-0.23c-0.055,-0.113 -0.055,-0.246 0,-0.36l9.84,-24.68l-27.25,-4.72c-0.64,5.23 -6.5,53.47 -4.46,68.86c0.03,0.238 -0.134,0.46 -0.37,0.5l-11.1,1.72l-0.07,0.04Zm-6.23,-95.24l6.64,94.29l10.2,-1.59c-2,-16.79 4.51,-68.59 4.57,-69.12c0.017,-0.12 0.082,-0.228 0.18,-0.3c0.099,-0.07 0.221,-0.099 0.34,-0.08l28.24,4.89c0.133,0.02 0.248,0.102 0.31,0.22c0.055,0.121 0.055,0.259 0,0.38l-9.86,24.69l10.6,2.89c1.66,-2.89 15,-26.26 15.86,-34.83c0.78,-7.29 -25.51,-13.67 -35.71,-15.51c-10.99,-2.42 -28.68,-6.01 -31.37,-5.93Z" style="fill:#231f20;fill-rule:nonzero;"/><path d="M133.587,34.64c0,0 9.54,5.36 11.39,14.6c1.85,9.24 -0.23,30 -0.23,30l-23.61,-1c0,0 2.31,-26.17 0,-33.51c-2.31,-7.34 -1.88,-5.48 0.35,-6.2c2.23,-0.72 7.95,-8.49 12.1,-3.89Z" style="fill:#231f20;fill-rule:nonzero;"/><path d="M144.747,79.68l-23.61,-1c-0.119,-0.008 -0.23,-0.062 -0.31,-0.15c-0.08,-0.09 -0.12,-0.209 -0.11,-0.33c0,-0.26 2.28,-26.16 0,-33.34l-0.4,-1.27c-1.13,-3.57 -1.37,-4.31 -1,-4.85c0.247,-0.293 0.618,-0.453 1,-0.43c0.34,-0.032 0.675,-0.099 1,-0.2c0.858,-0.461 1.652,-1.032 2.36,-1.7c2.73,-2.28 6.85,-5.71 10.14,-2.14c0.92,0.52 9.74,5.82 11.55,14.87c1.84,9.2 -0.14,29.28 -0.22,30.13c-0.014,0.216 -0.184,0.391 -0.4,0.41Zm-23.13,-1.84l22.73,1c0.28,-3 1.87,-21.1 0.2,-29.46c-1.79,-8.93 -11.09,-14.26 -11.18,-14.31c-0.043,-0.021 -0.081,-0.052 -0.11,-0.09c-2.53,-2.8 -5.56,-0.67 -9,2.18c-0.781,0.754 -1.675,1.381 -2.65,1.86c-0.394,0.118 -0.8,0.195 -1.21,0.23c-0.138,0.01 -0.276,0.033 -0.41,0.07c0.266,1.391 0.65,2.756 1.15,4.08l0.4,1.27c2.19,6.84 0.39,29.53 0.08,33.17Z" style="fill:#231f20;fill-rule:nonzero;"/><path d="M133.307,31.59c0,0 1.87,0 3.54,3.65c1.59,3 4.42,49.75 4.42,49.75l19,-5.7c0,0 -10.37,-22.35 -12,-30.47c-1.438,-8.045 -7.196,-14.677 -14.96,-17.23Z" style="fill:#ffe8a6;fill-rule:nonzero;"/><path d="M137.187,30.9l0,7.22c0,0 -0.73,4 -5.12,2.8c-2.622,-0.755 -4.766,-2.657 -5.83,-5.17c-1.063,-2.513 -0.37,-15.21 -0.46,-19.79c5.34,-0.09 11.21,-3.52 11.21,-3.52c0,0 1.84,2.75 2.63,3.62c0.64,0.655 1.194,1.387 1.65,2.18c0.611,1.473 0.845,3.075 0.68,4.66c-0.014,1.823 -0.195,3.64 -0.54,5.43c-0.67,3.41 -4.22,2.57 -4.22,2.57Z" style="fill:#fff;fill-rule:nonzero;"/><path d="M133.667,41.59c-0.569,0 -1.135,-0.085 -1.68,-0.25c-2.769,-0.783 -5.033,-2.793 -6.14,-5.45c-0.009,-0.049 -0.009,-0.1 0,-0.15c0.01,-0.049 -0.37,-15.21 -0.45,-19.79c-0.005,-0.123 0.043,-0.243 0.13,-0.33c0.082,-0.09 0.199,-0.141 0.32,-0.14c5.15,-0.08 10.92,-3.42 11,-3.46c0.208,-0.119 0.476,-0.058 0.61,0.14c0.135,0.198 1.83,2.74 2.59,3.57c0.662,0.686 1.239,1.448 1.72,2.27c0.645,1.544 0.896,3.225 0.73,4.89c-0.017,1.853 -0.204,3.701 -0.56,5.52c-0.153,0.991 -0.716,1.873 -1.55,2.43c-0.813,0.47 -1.755,0.67 -2.69,0.57l0,6.69c-0.217,1.188 -0.902,2.24 -1.9,2.92c-0.641,0.389 -1.38,0.587 -2.13,0.57Zm-6.94,-6c1.036,2.335 3.049,4.1 5.5,4.82c1.006,0.371 2.124,0.295 3.07,-0.21c0.755,-0.532 1.283,-1.328 1.48,-2.23l-0.05,-7.14c-0.001,-0.139 0.062,-0.272 0.17,-0.36c0.111,-0.084 0.253,-0.117 0.39,-0.09c0.869,0.186 1.777,0.059 2.56,-0.36c0.617,-0.41 1.043,-1.052 1.18,-1.78c0.345,-1.762 0.523,-3.554 0.53,-5.35c0.167,-1.508 -0.046,-3.035 -0.62,-4.44c-0.44,-0.755 -0.971,-1.453 -1.58,-2.08c-0.871,-1.066 -1.686,-2.177 -2.44,-3.33c-1.35,0.74 -6.06,3.14 -10.6,3.36c0.07,4.83 0.38,18.09 0.41,19.26l0,-0.07Z" style="fill:#231f20;fill-rule:nonzero;"/><path d="M134.357,19.38c0,0 2.32,3.47 1.77,4.07c-0.55,0.6 -2.1,0.2 -2.1,0.2" style="fill:#fff;fill-rule:nonzero;"/><path d="M135.027,24.23c-0.381,-0.004 -0.76,-0.054 -1.13,-0.15c-0.207,-0.039 -0.358,-0.221 -0.358,-0.432c0,-0.242 0.198,-0.44 0.44,-0.44c0.047,0 0.094,0.007 0.138,0.022c0.52,0.13 1.41,0.2 1.66,-0.08c-0.384,-1.274 -0.975,-2.477 -1.75,-3.56c-0.135,-0.203 -0.081,-0.482 0.12,-0.62c0.205,-0.13 0.479,-0.077 0.62,0.12c1.66,2.5 2.25,4.05 1.72,4.62c-0.386,0.38 -0.921,0.57 -1.46,0.52Z" style="fill:#231f20;fill-rule:nonzero;"/><path d="M137.377,17.548c0.221,-0.008 0.413,0.32 0.429,0.734c0.017,0.414 -0.149,0.756 -0.37,0.765c-0.221,0.009 -0.413,-0.32 -0.429,-0.734c-0.016,-0.413 0.15,-0.756 0.37,-0.765Z" style="fill:#231f20;"/><path d="M130.311,18.083c0.013,-0.413 0.202,-0.744 0.422,-0.738c0.221,0.007 0.39,0.348 0.378,0.762c-0.012,0.414 -0.201,0.744 -0.422,0.738c-0.221,-0.007 -0.39,-0.348 -0.378,-0.762Z" style="fill:#231f20;"/><path d="M127.297,20.65c-0.77,-1.08 -2,-3 -3.56,-2.44c-0.424,0.168 -0.796,0.443 -1.08,0.8c-1.13,1.523 -1.225,3.59 -0.24,5.21c0.73,1.44 3,3.62 4.6,1.81" style="fill:#fff;fill-rule:nonzero;"/><path d="M125.627,27.17c-0.093,0.01 -0.187,0.01 -0.28,0c-1.52,-0.18 -2.85,-1.77 -3.34,-2.73c-1.081,-1.776 -0.961,-4.047 0.3,-5.7c0.337,-0.416 0.774,-0.739 1.27,-0.94c1.8,-0.67 3.12,1.21 3.91,2.34l0.18,0.26c0.147,0.203 0.102,0.491 -0.1,0.64c-0.077,0.057 -0.171,0.088 -0.267,0.088c-0.149,0 -0.289,-0.074 -0.373,-0.198l-0.19,-0.27c-0.9,-1.28 -1.78,-2.4 -2.84,-2c-0.348,0.149 -0.654,0.383 -0.89,0.68c-1.017,1.378 -1.088,3.248 -0.18,4.7c0.522,1.083 1.478,1.897 2.63,2.24c0.466,0.051 0.926,-0.147 1.21,-0.52c0.181,-0.173 0.47,-0.173 0.65,0c0.178,0.179 0.178,0.472 0,0.65c-0.429,0.482 -1.044,0.759 -1.69,0.76Z" style="fill:#231f20;fill-rule:nonzero;"/><path d="M125.727,33.43c0,0 0.56,16.83 0.56,27c0,11.65 2.28,27.25 2.28,27.25l-18.93,5.2c-0.256,-7.714 -0.022,-15.436 0.7,-23.12c0.76,-8.55 2.08,-20.56 1.74,-26.63c-0.34,-6.07 13.65,-9.7 13.65,-9.7Z" style="fill:#ffe8a6;fill-rule:nonzero;"/><path d="M134.647,27.59c-0.143,0.01 -0.287,0.01 -0.43,0c-2.38,-0.27 -4,-2.71 -4.1,-2.81c-0.134,-0.2 -0.08,-0.475 0.12,-0.61c0.204,-0.135 0.482,-0.081 0.62,0.12c0.139,0.202 1.49,2.2 3.46,2.42c1.052,0.074 2.082,-0.339 2.79,-1.12c0.083,-0.085 0.197,-0.133 0.315,-0.133c0.119,0 0.233,0.048 0.315,0.133c0.085,0.081 0.132,0.193 0.132,0.31c0,0.117 -0.047,0.229 -0.132,0.31c-0.807,0.85 -1.918,1.346 -3.09,1.38Z" style="fill:#231f20;fill-rule:nonzero;"/><path d="M133.117,42.45l-2.6,3.38l1.96,0.84l-2.86,31.35l4.14,3.54l3.24,-3.82l-2.78,-31.25l1.8,-1.41l-2.9,-2.63Z" style="fill:#fff;fill-rule:nonzero;"/><path d="M133.757,82.02c-0.109,-0.001 -0.215,-0.04 -0.3,-0.11l-4.13,-3.54c-0.11,-0.098 -0.169,-0.242 -0.16,-0.39l2.83,-31l-1.66,-0.71c-0.128,-0.06 -0.223,-0.173 -0.26,-0.31c-0.029,-0.135 0,-0.277 0.08,-0.39l2.6,-3.38c0.078,-0.1 0.194,-0.162 0.32,-0.17c0.127,-0.01 0.252,0.03 0.35,0.11l2.9,2.63c0.099,0.093 0.153,0.224 0.15,0.36c-0.003,0.135 -0.07,0.262 -0.18,0.34l-1.6,1.25l2.75,31c0.013,0.122 -0.023,0.244 -0.1,0.34l-3.24,3.81c-0.076,0.095 -0.188,0.153 -0.31,0.16l-0.04,0Zm-3.66,-4.19l3.61,3.08l2.82,-3.32l-2.76,-31.06c-0.014,-0.153 0.05,-0.303 0.17,-0.4l1.37,-1.08l-2.13,-1.93l-1.94,2.52l1.42,0.62c0.183,0.077 0.296,0.263 0.28,0.46l-2.84,31.11Z" style="fill:#231f20;fill-rule:nonzero;"/><path d="M121.402,107.835c-0.339,-1.879 -2.141,-3.129 -4.02,-2.79l-33.35,6.025c-1.879,0.339 -3.129,2.141 -2.79,4.02l3.474,19.229c0.339,1.879 2.141,3.129 4.02,2.789l33.35,-6.024c1.879,-0.34 3.129,-2.141 2.79,-4.02l-3.474,-19.229Z" style="fill:#fff;"/><path d="M88.117,137.66c-1.901,-0.019 -3.538,-1.392 -3.89,-3.26l-3.47,-19.23c-0.363,-2.132 1.066,-4.193 3.19,-4.6l33.35,-6c2.136,-0.362 4.198,1.072 4.6,3.2l3.47,19.23c0.363,2.132 -1.065,4.193 -3.19,4.6l-33.35,6c-0.234,0.044 -0.472,0.064 -0.71,0.06Zm29.91,-32.18c-0.177,0.001 -0.355,0.018 -0.53,0.05l-33.35,6c-1.588,0.307 -2.656,1.845 -2.39,3.44l3.47,19.23c0.144,0.773 0.586,1.46 1.23,1.91c0.643,0.448 1.439,0.621 2.21,0.48l33.36,-6c1.404,-0.248 2.437,-1.479 2.437,-2.905c0,-0.176 -0.015,-0.352 -0.047,-0.525l-3.48,-19.24c-0.268,-1.389 -1.485,-2.408 -2.9,-2.43l-0.01,-0.01Z" style="fill:#231f20;fill-rule:nonzero;"/><path d="M86.097,118.45c-0.244,0.003 -0.455,-0.178 -0.49,-0.42c-0.048,-0.268 0.132,-0.53 0.4,-0.58l31.76,-5.73c0.03,-0.005 0.06,-0.008 0.09,-0.008c0.279,0 0.508,0.229 0.508,0.508c0,0.245 -0.177,0.457 -0.418,0.5l-31.76,5.74l-0.09,-0.01Z" style="fill:#d1d3d4;fill-rule:nonzero;"/><path d="M93.287,109.89c-0.238,-0.005 -0.443,-0.176 -0.49,-0.41l-0.51,-2.84c-0.301,-1.681 0.83,-3.313 2.51,-3.62l9.69,-1.75c0.814,-0.152 1.655,0.032 2.33,0.51c0.68,0.468 1.145,1.188 1.29,2l0.51,2.84c0.029,0.129 0,0.265 -0.08,0.37c-0.073,0.111 -0.189,0.186 -0.32,0.21l-14.84,2.68l-0.09,0.01Zm11.74,-7.67c-0.126,-0.01 -0.253,-0.01 -0.38,0l-9.62,1.79c-1.004,0.177 -1.743,1.058 -1.743,2.078c0,0.125 0.011,0.249 0.033,0.372l0.43,2.35l13.85,-2.5l-0.43,-2.35c-0.178,-1 -1.054,-1.736 -2.07,-1.74l-0.07,0Z" style="fill:#231f20;fill-rule:nonzero;"/><path d="M102.237,91.2c0,0 0.46,2.77 1,4.7c0.64,1.748 1.461,3.424 2.45,5c-0.71,-0.19 -1.41,0.13 -2.11,0c0.414,0.678 0.709,1.422 0.87,2.2c0.157,0.792 -0.095,1.612 -0.67,2.18c-0.338,0.254 -0.721,0.441 -1.13,0.55c-1.46,0.45 -3.92,1.12 -5.18,-0.13c-0.442,-0.519 -0.727,-1.154 -0.82,-1.83c-0.58,-2.74 -0.41,-11.07 -0.37,-12.42" style="fill:#fff;fill-rule:nonzero;"/><path d="M99.577,106.9c-0.901,0.055 -1.788,-0.255 -2.46,-0.86c-0.53,-0.58 -0.878,-1.303 -1,-2.08c-0.64,-3.05 -0.39,-12.45 -0.38,-12.54c0.006,-0.27 0.23,-0.49 0.5,-0.49c0.004,0 0.007,0 0.01,0c0.276,0.011 0.496,0.244 0.49,0.52c-0.08,2.41 -0.16,9.84 0.36,12.3c0.079,0.579 0.314,1.125 0.68,1.58c1,1 3,0.51 4.68,0c0.343,-0.086 0.666,-0.239 0.95,-0.45c0.444,-0.457 0.635,-1.105 0.51,-1.73c-0.165,-0.706 -0.442,-1.381 -0.82,-2c-0.039,-0.073 -0.06,-0.155 -0.06,-0.238c0,-0.274 0.226,-0.5 0.5,-0.5c0.03,0 0.06,0.003 0.09,0.008c0.272,0.044 0.549,0.044 0.82,0l0.29,0c-0.818,-1.354 -1.488,-2.792 -2,-4.29c-0.54,-1.93 -1,-4.63 -1,-4.75c-0.005,-0.028 -0.007,-0.057 -0.007,-0.085c0,-0.242 0.178,-0.449 0.417,-0.485c0.271,-0.042 0.53,0.141 0.58,0.41c0.256,1.563 0.59,3.111 1,4.64c0.623,1.689 1.42,3.308 2.38,4.83c0.05,0.08 0.077,0.172 0.077,0.267c0,0.274 -0.226,0.5 -0.5,0.5c-0.043,0 -0.085,-0.006 -0.127,-0.017c-0.313,-0.065 -0.636,-0.065 -0.95,0l-0.21,0c0.262,0.517 0.447,1.07 0.55,1.64c0.183,0.963 -0.137,1.956 -0.85,2.63c-0.384,0.302 -0.827,0.52 -1.3,0.64c-1.041,0.338 -2.125,0.523 -3.22,0.55Z" style="fill:#231f20;fill-rule:nonzero;"/><path d="M113.437,39.69c0,0 -14.93,16.53 -20.61,25.6c-1.62,2.59 1.41,34.48 1.41,34.48l12.11,-4c0,0 -1.69,-22.18 -0.85,-24.75c0.84,-2.57 17.85,-17.1 17.85,-17.1l-9.91,-14.23Z" style="fill:#ffe8a6;fill-rule:nonzero;"/><path d="M111.827,52.59c-0.22,0.13 -2.27,31.8 -2.27,31.8" style="fill:#fff;fill-rule:nonzero;"/><path d="M109.557,84.86c-0.25,-0.021 -0.441,-0.239 -0.43,-0.49c2.07,-31.91 2.22,-32 2.51,-32.16c0.07,-0.042 0.15,-0.064 0.231,-0.064c0.16,0 0.309,0.086 0.389,0.224c0.06,0.127 0.06,0.274 0,0.4c-0.22,1.13 -1.46,19.5 -2.24,31.66c-0.02,0.239 -0.22,0.426 -0.46,0.43Z" style="fill:#231f20;fill-rule:nonzero;"/><path d="M178.027,35.28c0,0 5.72,-9.44 6.75,-9.41c1.03,0.03 6.29,1.94 6.38,2.84c0.031,0.656 -0.079,1.31 -0.32,1.92c-0.241,0.61 -1,-0.85 -1.36,-0.52c-0.36,0.33 -1.6,2.44 -1.13,2.77c0.437,0.228 0.918,0.357 1.41,0.38c-0.521,0.637 -1.216,1.109 -2,1.36c-1.32,0.42 -5,4.22 -5,4.22l-4.73,-3.56Z" style="fill:#fff;fill-rule:nonzero;"/><path d="M182.817,39.3c-0.1,0.001 -0.198,-0.031 -0.28,-0.09l-4.76,-3.57c-0.189,-0.137 -0.242,-0.4 -0.12,-0.6c3.88,-6.39 6.29,-9.63 7.16,-9.63c0.91,0 6.69,1.88 6.83,3.25c0.033,0.731 -0.09,1.46 -0.36,2.14c-0.067,0.173 -0.234,0.287 -0.419,0.287c-0.106,0 -0.209,-0.038 -0.291,-0.107c-0.245,-0.199 -0.518,-0.36 -0.81,-0.48c-0.449,0.624 -0.788,1.321 -1,2.06c0.343,0.145 0.709,0.226 1.08,0.24c0.168,0.009 0.318,0.109 0.39,0.26c0.08,0.146 0.08,0.324 0,0.47c-0.584,0.712 -1.362,1.24 -2.24,1.52c-0.89,0.29 -3.4,2.67 -4.77,4.11c-0.105,0.111 -0.259,0.163 -0.41,0.14Zm-4.16,-4.14l4.11,3.07c0.93,-1 3.65,-3.66 4.87,-4c0.428,-0.134 0.828,-0.344 1.18,-0.62c-0.248,-0.061 -0.484,-0.162 -0.7,-0.3c-0.176,-0.13 -0.286,-0.331 -0.3,-0.55c0.191,-1.075 0.66,-2.082 1.36,-2.92c0.38,-0.38 1,-0.19 1.44,0.1c0.108,-0.37 0.148,-0.756 0.12,-1.14c-0.32,-0.61 -4.87,-2.4 -5.94,-2.43c-0.61,0.22 -3.58,4.6 -6.14,8.79Z" style="fill:#231f20;fill-rule:nonzero;"/><path d="M139.127,34.45c0,0 23.12,11.14 26.07,10.21c2.95,-0.93 12.67,-11.47 12.67,-11.47l7.88,3.82c0,0 -11.07,21.27 -18,20c-6.93,-1.27 -25.54,-10.14 -25.54,-10.14l-3.08,-12.42Z" style="fill:#ffe8a6;fill-rule:nonzero;"/><path d="M144.457,48.04c0,0 13.57,5.63 20.57,8.18" style="fill:#fff;fill-rule:nonzero;"/><path d="M165.027,56.67c-0.053,0.01 -0.107,0.01 -0.16,0c-6.87,-2.52 -20.43,-8.13 -20.56,-8.19c-0.203,-0.051 -0.347,-0.236 -0.347,-0.446c0,-0.252 0.208,-0.46 0.46,-0.46c0.084,0 0.166,0.023 0.237,0.066c0.13,0 13.67,5.65 20.53,8.17c0.231,0.088 0.351,0.347 0.27,0.58c-0.07,0.174 -0.242,0.286 -0.43,0.28Z" style="fill:#231f20;fill-rule:nonzero;"/></svg>