<?xml version="1.0" encoding="UTF-8" standalone="no"?><!DOCTYPE svg PUBLIC "-//W3C//DTD SVG 1.1//EN" "http://www.w3.org/Graphics/SVG/1.1/DTD/svg11.dtd"><svg width="100%" height="100%" viewBox="0 0 216 221" version="1.1" xmlns="http://www.w3.org/2000/svg" xmlns:xlink="http://www.w3.org/1999/xlink" xml:space="preserve" xmlns:serif="http://www.serif.com/" style="fill-rule:evenodd;clip-rule:evenodd;stroke-linejoin:round;stroke-miterlimit:1.41421;"><path d="M215.206,12.58c0,-6.656 -5.404,-12.06 -12.06,-12.06l-91.09,0c-6.656,0 -12.06,5.404 -12.06,12.06l0,189.85c0,6.656 5.404,12.06 12.06,12.06l91.09,0c6.656,0 12.06,-5.404 12.06,-12.06l0,-189.85Z" style="fill:#fff;"/><path d="M203.156,215l-91.1,0c-6.885,-0.005 -12.549,-5.666 -12.56,-12.55l0,-189.88c0,-6.892 5.668,-12.565 12.56,-12.57l91.1,0c6.882,0.005 12.544,5.667 12.55,12.55l0,189.88c0,0.003 0,0.007 0,0.01c0,6.886 -5.664,12.555 -12.55,12.56Zm-91.1,-214c-6.336,0.005 -11.549,5.214 -11.56,11.55l0,189.88c0,6.343 5.216,11.565 11.56,11.57l91.1,0c6.334,-0.005 11.544,-5.216 11.55,-11.55l0,-189.88c0,-0.003 0,-0.007 0,-0.01c0,-6.338 -5.213,-11.555 -11.55,-11.56l-91.1,0Z" style="fill:#231f20;fill-rule:nonzero;"/><rect x="105.656" y="13.98" width="103.9" height="179.74" style="fill:#fff;"/><path d="M209.556,14l0,179.72l-103.9,0l0,-179.72l103.9,0m0,-1l-103.9,0c-0.549,0 -1,0.451 -1,1l0,179.72c0,0.549 0.451,1 1,1l103.9,0c0.548,0 1,-0.451 1,-1l0,-179.72c0,-0.549 -0.452,-1 -1,-1Z" style="fill:#231f20;fill-rule:nonzero;"/><rect x="105.656" y="13.98" width="103.9" height="47.18" style="fill:#ff929f;"/><path d="M181.266,29.45c0,-3.963 -3.218,-7.18 -7.18,-7.18l-54.05,0c-3.963,0 -7.18,3.217 -7.18,7.18l0,16.45c0,3.963 3.217,7.18 7.18,7.18l54.05,0c3.962,0 7.18,-3.217 7.18,-7.18l0,-16.45Z" style="fill:#fff;"/><path d="M174.086,53.58l-54.05,0c-4.211,-0.005 -7.675,-3.469 -7.68,-7.68l0,-16.45c0.005,-4.211 3.469,-7.675 7.68,-7.68l54.05,0c4.211,0.005 7.674,3.469 7.68,7.68l0,16.45c-0.006,4.211 -3.469,7.675 -7.68,7.68Zm-54.05,-30.81c-3.663,0.005 -6.675,3.018 -6.68,6.68l0,16.45c0.005,3.662 3.017,6.675 6.68,6.68l54.05,0c3.662,-0.005 6.674,-3.018 6.68,-6.68l0,-16.45c-0.006,-3.662 -3.018,-6.675 -6.68,-6.68l-54.05,0Z" style="fill:#231f20;fill-rule:nonzero;"/><path d="M210.076,22.27l0,30.81l-16,0c-3.941,-0.005 -7.18,-3.249 -7.18,-7.19l0,-16.44c0.005,-3.937 3.243,-7.175 7.18,-7.18l16,0Z" style="fill:#fff;fill-rule:nonzero;"/><path d="M210.076,53.58l-16,0c-4.215,-0.005 -7.68,-3.475 -7.68,-7.69l0,-16.44c0.005,-4.211 3.469,-7.675 7.68,-7.68l16,0c0.274,0 0.5,0.226 0.5,0.5l0,30.81c0,0.274 -0.226,0.5 -0.5,0.5Zm-16,-30.81c-3.663,0.005 -6.675,3.018 -6.68,6.68l0,16.44c0,3.666 3.013,6.685 6.68,6.69l15.46,0l0,-29.81l-15.46,0Z" style="fill:#231f20;fill-rule:nonzero;"/><path d="M129.576,46.23l-7.2,0c-0.275,0 -0.5,-0.226 -0.5,-0.5l0,-4.38c0,-0.274 0.225,-0.5 0.5,-0.5l7.2,0c0.272,0.005 0.494,0.228 0.5,0.5l0,4.38c-0.006,0.272 -0.228,0.495 -0.5,0.5Zm-6.7,-1l6.2,0l0,-3.38l-6.22,0l0.02,3.38Z" style="fill:#231f20;fill-rule:nonzero;"/><path d="M154.346,44l-20.57,0c-0.275,0 -0.5,-0.226 -0.5,-0.5c0,-0.274 0.225,-0.5 0.5,-0.5l20.57,0c0.274,0 0.5,0.226 0.5,0.5c0,0.274 -0.226,0.5 -0.5,0.5Z" style="fill:#231f20;fill-rule:nonzero;"/><rect x="122.376" y="29.78" width="31.97" height="4.46" style="fill:#231f20;"/><path d="M138.356,72.29l-22.76,0c-0.273,-0.005 -0.495,-0.228 -0.5,-0.5c0,-0.274 0.225,-0.5 0.5,-0.5l22.76,0c0.274,0 0.5,0.226 0.5,0.5c0,0.274 -0.226,0.5 -0.5,0.5Z" style="fill:#d1d3d4;fill-rule:nonzero;"/><path d="M208.186,79.37l-100.47,0c-0.275,0 -0.5,-0.226 -0.5,-0.5c0,-0.274 0.225,-0.5 0.5,-0.5l100.47,0c0.272,0.005 0.494,0.228 0.5,0.5c0,0.274 -0.226,0.5 -0.5,0.5Z" style="fill:#d1d3d4;fill-rule:nonzero;"/><path d="M201.066,73c-2.299,0 -4.19,-1.891 -4.19,-4.19c0,-2.299 1.891,-4.19 4.19,-4.19c2.298,0 4.19,1.891 4.19,4.19c0,0.003 0,0.007 0,0.01c-0.006,2.295 -1.896,4.18 -4.19,4.18Zm0,-7.37c-1.75,0 -3.19,1.44 -3.19,3.19c0,1.75 1.44,3.19 3.19,3.19c1.75,0 3.19,-1.44 3.19,-3.19c0,-0.01 0,-0.02 0,-0.03c0,-1.75 -1.44,-3.19 -3.19,-3.19c0,0 0,0 0,0l0,0.03Z" style="fill:#ff929f;fill-rule:nonzero;"/><path d="M195.576,75.54c-0.121,-0.001 -0.238,-0.043 -0.33,-0.12c-0.191,-0.197 -0.191,-0.513 0,-0.71l2.93,-3.26c0.196,-0.191 0.513,-0.191 0.71,0c0.094,0.094 0.148,0.222 0.148,0.355c0,0.133 -0.054,0.261 -0.148,0.355l-2.92,3.26c-0.108,0.092 -0.249,0.136 -0.39,0.12Z" style="fill:#ff929f;fill-rule:nonzero;"/><path d="M119.156,94.23c-2.063,0 -3.76,-1.697 -3.76,-3.76c0,-2.063 1.697,-3.76 3.76,-3.76c2.062,0 3.76,1.697 3.76,3.76c0,0.003 0,0.007 0,0.01c-0.006,2.059 -1.701,3.75 -3.76,3.75Zm0,-6.51c-1.514,0 -2.76,1.246 -2.76,2.76c0,1.514 1.246,2.76 2.76,2.76c1.514,0 2.76,-1.246 2.76,-2.76c-0.006,-1.512 -1.248,-2.755 -2.76,-2.76Z" style="fill:#d1d3d4;fill-rule:nonzero;"/><path d="M149.156,87.72l-21.3,0c-0.275,0 -0.5,-0.226 -0.5,-0.5c0,-0.274 0.225,-0.5 0.5,-0.5l21.3,0c0.274,0 0.5,0.226 0.5,0.5c0,0.274 -0.226,0.5 -0.5,0.5Z" style="fill:#d1d3d4;fill-rule:nonzero;"/><path d="M138.486,94.23l-10.63,0c-0.275,0 -0.5,-0.226 -0.5,-0.5c0,-0.274 0.225,-0.5 0.5,-0.5l10.67,0c0.274,0 0.5,0.226 0.5,0.5c0,0.001 0,0.001 0,0.002c0,0.274 -0.226,0.5 -0.5,0.5c-0.014,0 -0.027,-0.001 -0.04,-0.002Z" style="fill:#d1d3d4;fill-rule:nonzero;"/><path d="M199.306,91l-19.8,0c-0.273,-0.005 -0.495,-0.228 -0.5,-0.5c0,-0.274 0.225,-0.5 0.5,-0.5l19.8,0c0.274,0 0.5,0.226 0.5,0.5c0,0.274 -0.226,0.5 -0.5,0.5Z" style="fill:#d1d3d4;fill-rule:nonzero;"/><path d="M202.186,102.52l-89.16,0c-0.275,0 -0.5,-0.226 -0.5,-0.5c0,-0.274 0.225,-0.5 0.5,-0.5l89.16,0c0.274,0 0.5,0.226 0.5,0.5c0,0.274 -0.226,0.5 -0.5,0.5Z" style="fill:#d1d3d4;fill-rule:nonzero;"/><path d="M119.156,120.12c-2.063,0 -3.76,-1.697 -3.76,-3.76c0,-2.063 1.697,-3.76 3.76,-3.76c2.062,0 3.76,1.697 3.76,3.76c-0.006,2.061 -1.7,3.755 -3.76,3.76Zm0,-6.52c-1.514,0 -2.76,1.246 -2.76,2.76c0,1.514 1.246,2.76 2.76,2.76c1.514,0 2.76,-1.246 2.76,-2.76c-0.006,-1.512 -1.248,-2.755 -2.76,-2.76Z" style="fill:#d1d3d4;fill-rule:nonzero;"/><path d="M149.156,113.6l-21.3,0c-0.275,0 -0.5,-0.226 -0.5,-0.5c0,-0.274 0.225,-0.5 0.5,-0.5l21.3,0c0.274,0 0.5,0.226 0.5,0.5c0,0.274 -0.226,0.5 -0.5,0.5Z" style="fill:#d1d3d4;fill-rule:nonzero;"/><path d="M138.486,120.12l-10.63,0c-0.275,0 -0.5,-0.226 -0.5,-0.5c0,-0.274 0.225,-0.5 0.5,-0.5l10.67,0c0.274,0 0.5,0.226 0.5,0.5c0,0.274 -0.226,0.5 -0.5,0.5l-0.04,0Z" style="fill:#d1d3d4;fill-rule:nonzero;"/><path d="M199.306,116.86l-19.8,0c-0.275,0 -0.5,-0.226 -0.5,-0.5c0.005,-0.272 0.227,-0.495 0.5,-0.5l19.8,0c0.274,0 0.5,0.226 0.5,0.5c0,0.274 -0.226,0.5 -0.5,0.5Z" style="fill:#d1d3d4;fill-rule:nonzero;"/><path d="M202.186,128.41l-89.16,0c-0.273,-0.005 -0.495,-0.228 -0.5,-0.5c0,-0.274 0.225,-0.5 0.5,-0.5l89.16,0c0.274,0 0.5,0.226 0.5,0.5c-0.006,0.272 -0.228,0.495 -0.5,0.5Z" style="fill:#d1d3d4;fill-rule:nonzero;"/><path d="M119.156,146c-2.063,0 -3.76,-1.697 -3.76,-3.76c0,-2.063 1.697,-3.76 3.76,-3.76c2.062,0 3.76,1.697 3.76,3.76c0,0.003 0,0.007 0,0.01c-0.006,2.059 -1.701,3.75 -3.76,3.75Zm0,-6.51c-1.514,0 -2.76,1.246 -2.76,2.76c0,1.514 1.246,2.76 2.76,2.76c1.514,0 2.76,-1.246 2.76,-2.76c-0.006,-1.512 -1.248,-2.755 -2.76,-2.76Z" style="fill:#d1d3d4;fill-rule:nonzero;"/><path d="M149.156,139.49l-21.3,0c-0.275,0 -0.5,-0.226 -0.5,-0.5c0,-0.274 0.225,-0.5 0.5,-0.5l21.3,0c0.274,0 0.5,0.226 0.5,0.5c0,0.274 -0.226,0.5 -0.5,0.5Z" style="fill:#d1d3d4;fill-rule:nonzero;"/><path d="M138.486,146l-10.63,0c-0.275,0 -0.5,-0.226 -0.5,-0.5c0,-0.274 0.225,-0.5 0.5,-0.5l10.67,0c0.274,0 0.5,0.226 0.5,0.5c0,0.001 0,0.001 0,0.002c0,0.274 -0.226,0.5 -0.5,0.5c-0.014,0 -0.027,-0.001 -0.04,-0.002Z" style="fill:#d1d3d4;fill-rule:nonzero;"/><path d="M199.306,142.75l-19.8,0c-0.273,-0.005 -0.495,-0.228 -0.5,-0.5c0,-0.274 0.225,-0.5 0.5,-0.5l19.8,0c0.274,0 0.5,0.226 0.5,0.5c0,0.274 -0.226,0.5 -0.5,0.5Z" style="fill:#d1d3d4;fill-rule:nonzero;"/><path d="M202.186,154.29l-89.16,0c-0.275,0 -0.5,-0.226 -0.5,-0.5c0,-0.274 0.225,-0.5 0.5,-0.5l89.16,0c0.274,0 0.5,0.226 0.5,0.5c0,0.274 -0.226,0.5 -0.5,0.5Z" style="fill:#d1d3d4;fill-rule:nonzero;"/><path d="M119.156,171.89c-2.063,0 -3.76,-1.697 -3.76,-3.76c0,-2.063 1.697,-3.76 3.76,-3.76c2.062,0 3.76,1.697 3.76,3.76c-0.006,2.061 -1.7,3.755 -3.76,3.76Zm0,-6.51c-1.514,0 -2.76,1.246 -2.76,2.76c0,1.514 1.246,2.76 2.76,2.76c1.514,0 2.76,-1.246 2.76,-2.76c0,-0.003 0,-0.007 0,-0.01c-0.006,-1.51 -1.25,-2.75 -2.76,-2.75Z" style="fill:#d1d3d4;fill-rule:nonzero;"/><path d="M149.156,165.38l-21.3,0c-0.275,0 -0.5,-0.226 -0.5,-0.5c0,-0.274 0.225,-0.5 0.5,-0.5l21.3,0c0.274,0 0.5,0.226 0.5,0.5c0,0.274 -0.226,0.5 -0.5,0.5Z" style="fill:#d1d3d4;fill-rule:nonzero;"/><path d="M138.486,171.89l-10.63,0c-0.275,0 -0.5,-0.226 -0.5,-0.5c0,-0.274 0.225,-0.5 0.5,-0.5l10.67,0c0.274,0 0.5,0.226 0.5,0.5c0,0.274 -0.226,0.5 -0.5,0.5l-0.04,0Z" style="fill:#d1d3d4;fill-rule:nonzero;"/><path d="M199.306,168.63l-19.8,0c-0.275,0 -0.5,-0.226 -0.5,-0.5c0.005,-0.272 0.227,-0.495 0.5,-0.5l19.8,0c0.274,0 0.5,0.226 0.5,0.5c0,0.274 -0.226,0.5 -0.5,0.5Z" style="fill:#d1d3d4;fill-rule:nonzero;"/><rect x="105.656" y="179.11" width="103.9" height="14.61" style="fill:#fff;"/><path d="M209.556,179.11l0,14.61l-103.9,0l0,-14.61l103.9,0m0,-1l-103.9,0c-0.549,0 -1,0.451 -1,1l0,14.61c0,0.549 0.451,1 1,1l103.9,0c0.548,0 1,-0.451 1,-1l0,-14.61c0,-0.549 -0.452,-1 -1,-1Z" style="fill:#231f20;fill-rule:nonzero;"/><circle cx="157.606" cy="179.96" r="7.7" style="fill:#ff929f;"/><path d="M157.606,188.16c-4.489,-0.022 -8.17,-3.721 -8.17,-8.21c0,-4.504 3.706,-8.21 8.21,-8.21c4.504,0 8.21,3.706 8.21,8.21c0,0.017 0,0.033 0,0.05c-0.028,4.5 -3.75,8.182 -8.25,8.16Zm0,-15.41c-3.94,0.022 -7.17,3.27 -7.17,7.21c0,3.955 3.254,7.21 7.21,7.21c3.94,0 7.188,-3.23 7.21,-7.17c0,-0.007 0,-0.013 0,-0.02c0,-3.966 -3.264,-7.23 -7.23,-7.23c-0.007,0 -0.014,0 -0.02,0Z" style="fill:#231f20;fill-rule:nonzero;"/><path d="M122.376,184.71c0,-0.949 -0.771,-1.72 -1.72,-1.72l-5.35,0c-0.95,0 -1.72,0.771 -1.72,1.72l0,3.42c0,0.949 0.77,1.72 1.72,1.72l5.35,0c0.949,0 1.72,-0.771 1.72,-1.72l0,-3.42Z" style="fill:#ff929f;"/><path d="M142.186,184.71c0,-0.949 -0.771,-1.72 -1.72,-1.72l-5.35,0c-0.95,0 -1.72,0.771 -1.72,1.72l0,3.42c0,0.949 0.77,1.72 1.72,1.72l5.35,0c0.949,0 1.72,-0.771 1.72,-1.72l0,-3.42Z" style="fill:#ff929f;"/><path d="M181.816,184.71c0,-0.949 -0.771,-1.72 -1.72,-1.72l-5.35,0c-0.95,0 -1.72,0.771 -1.72,1.72l0,3.42c0,0.949 0.77,1.72 1.72,1.72l5.35,0c0.949,0 1.72,-0.771 1.72,-1.72l0,-3.42Z" style="fill:#ff929f;"/><path d="M201.626,184.71c0,-0.949 -0.771,-1.72 -1.72,-1.72l-5.35,0c-0.95,0 -1.72,0.771 -1.72,1.72l0,3.42c0,0.949 0.77,1.72 1.72,1.72l5.35,0c0.949,0 1.72,-0.771 1.72,-1.72l0,-3.42Z" style="fill:#ff929f;"/><path d="M154.856,184.51c-0.829,0 -1.51,-0.682 -1.51,-1.51c0,-0.828 0.681,-1.51 1.51,-1.51c0.828,0 1.51,0.682 1.51,1.51c-0.006,0.826 -0.684,1.505 -1.51,1.51Zm0,-2.27c-0.417,0 -0.76,0.343 -0.76,0.76c0,0.417 0.343,0.76 0.76,0.76c0.417,0 0.76,-0.343 0.76,-0.76c0,-0.417 -0.343,-0.76 -0.76,-0.76Z" style="fill:#fff;fill-rule:nonzero;"/><path d="M156.376,181.77c-0.084,0.003 -0.166,-0.026 -0.23,-0.08c-0.161,-0.13 -0.188,-0.368 -0.06,-0.53l4.6,-5.62c0.069,-0.112 0.191,-0.18 0.323,-0.18c0.208,0 0.38,0.172 0.38,0.38c0,0.106 -0.045,0.208 -0.123,0.28l-4.6,5.62c-0.072,0.086 -0.179,0.134 -0.29,0.13Z" style="fill:#fff;fill-rule:nonzero;"/><path d="M160.976,178.33c0,0 0,0 -0.001,0c-0.202,0 -0.37,-0.167 -0.37,-0.37c0,-0.003 0.001,-0.007 0.001,-0.01l0,-1.72l-2.41,0.45c-0.003,0 -0.006,0 -0.009,0c-0.208,0 -0.38,-0.171 -0.38,-0.38c0,-0.163 0.104,-0.308 0.259,-0.36l2.84,-0.53c0.11,-0.019 0.223,0.01 0.31,0.08c0.088,0.07 0.14,0.177 0.14,0.29l0,2.22c-0.025,0.189 -0.189,0.332 -0.38,0.33Z" style="fill:#fff;fill-rule:nonzero;"/><path d="M158.996,8.08l-8.44,0c-0.275,0 -0.5,-0.226 -0.5,-0.5c0,-0.274 0.225,-0.5 0.5,-0.5l8.44,0c0.274,0 0.5,0.226 0.5,0.5c0,0.274 -0.226,0.5 -0.5,0.5Z" style="fill:#d1d3d4;fill-rule:nonzero;"/><path d="M164.656,8.08l-2.8,0c-0.275,0 -0.5,-0.226 -0.5,-0.5c0,-0.274 0.225,-0.5 0.5,-0.5l2.83,0c0.274,0 0.5,0.226 0.5,0.5c0,0 0,0.001 0,0.001c0,0.274 -0.226,0.5 -0.5,0.5c-0.01,0 -0.02,0 -0.03,-0.001Z" style="fill:#d1d3d4;fill-rule:nonzero;"/><circle cx="157.606" cy="203.42" r="5.91" style="fill:#d1d3d4;"/><path d="M11.306,63.42c0.059,-1.601 -0.62,-3.143 -1.84,-4.18c-1.47,-1 -3.48,-0.67 -5.17,-0.07c-1.016,0.292 -1.944,0.831 -2.7,1.57c-1.66,1.83 -1.13,4.7 -0.38,7.05c1.192,3.769 2.659,7.446 4.39,11c0.124,0.352 0.364,0.651 0.68,0.85c0.47,0.23 7.2,-0.91 7.73,-0.93c2.73,-0.12 0.49,-2.36 -0.41,-5.71c-0.36,-1.3 -1.37,-2.43 -1.81,-3.72c-0.67,-1.91 -0.39,-3.84 -0.49,-5.86Z" style="fill:#fff;fill-rule:nonzero;"/><path d="M6.596,80.21c-0.181,0.014 -0.362,-0.014 -0.53,-0.08c-0.418,-0.246 -0.739,-0.627 -0.91,-1.08c-1.743,-3.591 -3.22,-7.304 -4.42,-11.11c-0.7,-2.23 -1.42,-5.43 0.49,-7.53c0.807,-0.804 1.805,-1.393 2.9,-1.71c2.39,-0.85 4.28,-0.8 5.63,0.13c1.341,1.128 2.081,2.82 2,4.57c0,0.58 0,1.15 0,1.71c-0.084,1.369 0.069,2.742 0.45,4.06c0.216,0.573 0.491,1.123 0.82,1.64c0.419,0.659 0.755,1.368 1,2.11c0.263,0.921 0.597,1.821 1,2.69c0.57,1.31 1,2.25 0.55,3c-0.392,0.478 -0.994,0.736 -1.61,0.69c-0.13,0 -1,0.13 -1.77,0.25c-1.854,0.32 -3.723,0.54 -5.6,0.66Zm0.59,-21.12c-0.931,0.031 -1.851,0.216 -2.72,0.55c-0.941,0.263 -1.801,0.759 -2.5,1.44c-1.56,1.72 -0.91,4.57 -0.28,6.56c1.186,3.768 2.647,7.445 4.37,11c0.081,0.249 0.238,0.466 0.45,0.62c0.41,0.06 3.93,-0.47 5.61,-0.72c1.14,-0.17 1.7,-0.25 1.88,-0.26c0.63,0 0.77,-0.17 0.8,-0.22c0.16,-0.26 -0.25,-1.2 -0.61,-2c-0.431,-0.917 -0.789,-1.867 -1.07,-2.84c-0.214,-0.656 -0.514,-1.282 -0.89,-1.86c-0.356,-0.578 -0.657,-1.187 -0.9,-1.82c-0.414,-1.424 -0.583,-2.909 -0.5,-4.39c0,-0.55 0,-1.1 0,-1.66c0,-1 -0.32,-2.88 -1.62,-3.79c-0.594,-0.409 -1.3,-0.622 -2.02,-0.61Z" style="fill:#231f20;fill-rule:nonzero;"/><path d="M94.856,201.39c0.14,0.46 4.69,8.05 4.69,8.05c0,0 5,1.49 8.73,-1.77l-3.89,-9.67l-9.53,3.39Z" style="fill:#fff;fill-rule:nonzero;"/><path d="M102.296,210.29c-0.979,0.006 -1.954,-0.118 -2.9,-0.37c-0.117,-0.038 -0.216,-0.116 -0.28,-0.22c-1.38,-2.3 -4.6,-7.7 -4.75,-8.17c-0.079,-0.252 0.059,-0.525 0.31,-0.61l9.55,-3.43c0.252,-0.088 0.532,0.041 0.63,0.29l3.88,9.71c0.076,0.197 0.02,0.422 -0.14,0.56c-1.757,1.489 -3.998,2.286 -6.3,2.24Zm-2.44,-1.29c0.87,0.2 4.74,0.94 7.8,-1.49l-3.56,-8.92l-8.56,3.07c0.72,1.34 2.87,4.91 4.32,7.34Z" style="fill:#231f20;fill-rule:nonzero;"/><path d="M53.546,208.3l-12.18,8.8c0.07,3.5 7.58,2.56 14.49,0.9c6.91,-1.66 8.29,-3.12 8.29,-3.12l-0.17,-6l-10.43,-0.58Z" style="fill:#231f20;fill-rule:nonzero;"/><path d="M46.036,220c-1.477,0.122 -2.955,-0.228 -4.22,-1c-0.614,-0.44 -0.985,-1.145 -1,-1.9c0,-0.162 0.078,-0.315 0.21,-0.41l12.18,-8.8c0.091,-0.069 0.206,-0.101 0.32,-0.09l10.43,0.58c0.259,0.005 0.47,0.22 0.47,0.48l0.16,6c0.007,0.133 -0.04,0.263 -0.13,0.36c-0.16,0.16 -1.69,1.6 -8.54,3.25c-3.227,0.874 -6.541,1.388 -9.88,1.53Zm-4.18,-2.66c0.055,0.354 0.249,0.671 0.54,0.88c1.58,1.23 6.31,1 13.31,-0.71c5.45,-1.31 7.39,-2.49 7.9,-2.86l-0.14,-5.3l-9.8,-0.54l-11.81,8.53Z" style="fill:#231f20;fill-rule:nonzero;"/><path d="M63.606,198.59l0.37,10.29c0,0 -6.08,2.73 -10.43,-0.58l-1.89,-12.1l11.95,2.39Z" style="fill:#fff;fill-rule:nonzero;"/><path d="M58.796,210.45c-1.993,0.047 -3.946,-0.568 -5.55,-1.75c-0.102,-0.079 -0.17,-0.193 -0.19,-0.32l-1.9,-12.1c-0.026,-0.162 0.03,-0.327 0.15,-0.44c0.118,-0.117 0.287,-0.166 0.45,-0.13l11.95,2.39c0.226,0.05 0.391,0.248 0.4,0.48l0.37,10.28c0.016,0.205 -0.101,0.399 -0.29,0.48c-1.71,0.711 -3.539,1.087 -5.39,1.11Zm-4.78,-2.45c3.5,2.52 8.21,1 9.45,0.53l-0.35,-9.54l-10.86,-2.18l1.76,11.19Z" style="fill:#231f20;fill-rule:nonzero;"/><path d="M45.966,124.55l33.88,-6.7l27.12,83.53c-3.656,2.939 -8.601,3.745 -13,2.12l-28.76,-56.68l0.3,56.77c-6.18,2.9 -14,-0.41 -14,-0.41c-5.37,-16.91 -9,-78.72 -9,-78.72" style="fill:#231f20;fill-rule:nonzero;"/><path d="M59.616,205.29c-2.854,-0.037 -5.678,-0.596 -8.33,-1.65c-0.134,-0.059 -0.236,-0.172 -0.28,-0.31c-5.33,-16.78 -9,-78.22 -9.05,-78.84c-0.001,-0.01 -0.001,-0.021 -0.001,-0.031c0,-0.263 0.208,-0.484 0.471,-0.499c0.271,-0.006 0.504,0.2 0.53,0.47c0,0.62 3.67,61.39 8.93,78.38c1.24,0.47 7.78,2.75 13.09,0.46l-0.3,-56.44c-0.003,-0.231 0.156,-0.435 0.38,-0.49c0.226,-0.054 0.462,0.054 0.57,0.26l28.66,56.51c4.09,1.421 8.632,0.707 12.09,-1.9l-26.87,-82.79l-33.45,6.58c-0.032,0.006 -0.064,0.009 -0.095,0.009c-0.28,0 -0.509,-0.23 -0.509,-0.509c0,-0.243 0.174,-0.455 0.414,-0.5l33.88,-6.7c0.245,-0.053 0.493,0.091 0.57,0.33l27.12,83.54c0.062,0.195 -0.001,0.41 -0.16,0.54c-3.799,3.073 -8.942,3.943 -13.54,2.29c-0.108,-0.046 -0.196,-0.127 -0.25,-0.23l-27.8,-54.8l0.28,54.66c0.005,0.192 -0.106,0.37 -0.28,0.45c-1.91,0.845 -3.983,1.258 -6.07,1.21Z" style="fill:#231f20;fill-rule:nonzero;"/><path d="M99.536,209.44c0,0 1.23,5.52 1.75,6.14c0.52,0.62 18.57,4.59 19.57,2.47c1,-2.12 -12.56,-10.38 -12.56,-10.38c0,0 -4.95,2.47 -8.76,1.77Z" style="fill:#231f20;fill-rule:nonzero;"/><path d="M118.466,219.16c-5,0 -16.91,-2.47 -17.57,-3.26c-0.66,-0.79 -1.55,-5 -1.84,-6.35c-0.04,-0.165 0.009,-0.34 0.13,-0.46c0.113,-0.119 0.279,-0.172 0.44,-0.14c3.6,0.66 8.37,-1.7 8.42,-1.72c0.148,-0.086 0.331,-0.086 0.48,0c12.55,7.67 13.1,10.25 12.75,11c-0.27,0.59 -1,0.76 -1.61,0.83c-0.397,0.062 -0.798,0.096 -1.2,0.1Zm-18.28,-9.16c0.345,1.785 0.84,3.538 1.48,5.24c3.098,0.904 6.251,1.609 9.44,2.11c6.8,1.15 9,0.81 9.27,0.46c0.41,-0.9 -5.24,-5.36 -12.14,-9.6c-1,0.5 -4.74,2.11 -8.05,1.79Z" style="fill:#231f20;fill-rule:nonzero;"/><path d="M56.576,69.61l-11.41,4.26c0,0 -5.72,41.28 -4.08,53.45c0,0 32.91,1.85 43.23,-3.84c0,0 -5.87,-30.7 -4.81,-36.39c0.678,-4.042 1.085,-8.124 1.22,-12.22l-13.81,-5l-10.34,-0.26Z" style="fill:#ff929f;fill-rule:nonzero;"/><path d="M103.856,67.24c0.28,-1.032 0.381,-2.104 0.3,-3.17c-0.2,-1.44 0.17,-4.48 -0.2,-5.58c-0.37,-1.1 -4.4,-4.35 -4.1,-4.95c0.586,-0.738 1.598,-1 2.47,-0.64c0.88,0.43 4.19,4 4.19,4c3.32,-1.8 6.66,-3.38 9.91,-5.28c0.366,-0.232 0.759,-0.42 1.17,-0.56c0.519,-0.128 1.058,-0.162 1.59,-0.1c0.566,0.009 1.121,0.164 1.61,0.45c1.62,1.13 -1.59,4 -2.39,5.07c-1.149,1.341 -2.182,2.776 -3.09,4.29c-0.67,1.28 -1.79,4.22 -2.94,4.93c-0.585,0.379 -1.208,0.695 -1.86,0.94l-1.17,2.36l-5.49,-1.76Z" style="fill:#fff;fill-rule:nonzero;"/><path d="M109.346,69.46l-0.15,0l-5.52,-1.73c-0.208,-0.062 -0.351,-0.253 -0.351,-0.47c0,-0.047 0.007,-0.094 0.021,-0.14c0.263,-0.977 0.357,-1.991 0.28,-3c-0.063,-0.849 -0.063,-1.701 0,-2.55c0.072,-0.978 0.028,-1.962 -0.13,-2.93c-0.572,-0.844 -1.244,-1.616 -2,-2.3c-1.69,-1.7 -2.36,-2.42 -2.05,-3c0.709,-0.983 2.015,-1.346 3.13,-0.87c1.472,1.129 2.835,2.394 4.07,3.78c1.2,-0.64 2.4,-1.26 3.6,-1.87c2,-1 4,-2.07 6,-3.21c0.4,-0.255 0.83,-0.46 1.28,-0.61c0.579,-0.139 1.178,-0.176 1.77,-0.11c0.657,0.002 1.3,0.186 1.86,0.53c0.36,0.242 0.598,0.629 0.65,1.06c0.14,1.27 -1.27,2.85 -2.3,4c-0.26,0.29 -0.49,0.54 -0.63,0.72l-0.83,1.06c-0.84,0.98 -1.584,2.038 -2.22,3.16c-0.15,0.29 -0.33,0.66 -0.52,1.08c-0.7,1.52 -1.58,3.42 -2.59,4c-0.589,0.371 -1.212,0.686 -1.86,0.94l-1.05,2.18c-0.09,0.171 -0.267,0.28 -0.46,0.28Zm-4.92,-2.56l4.66,1.45l1,-2c0.056,-0.123 0.161,-0.217 0.29,-0.26c0.617,-0.232 1.207,-0.531 1.76,-0.89c0.76,-0.47 1.64,-2.37 2.22,-3.62c0.2,-0.43 0.38,-0.82 0.53,-1.12c0.668,-1.182 1.448,-2.297 2.33,-3.33c0.28,-0.34 0.55,-0.69 0.82,-1c0.209,-0.274 0.433,-0.538 0.67,-0.79c0.75,-0.84 2.15,-2.39 2,-3.21c-0.013,-0.15 -0.099,-0.285 -0.23,-0.36c-0.413,-0.233 -0.877,-0.356 -1.35,-0.36c-0.475,-0.054 -0.955,-0.027 -1.42,0.08c-0.371,0.135 -0.727,0.309 -1.06,0.52c-2,1.15 -4,2.21 -6,3.23c-1.3,0.67 -2.61,1.34 -3.91,2c-0.199,0.106 -0.446,0.065 -0.6,-0.1c-1.226,-1.388 -2.564,-2.672 -4,-3.84c-0.588,-0.217 -1.25,-0.102 -1.73,0.3c0.54,0.715 1.139,1.384 1.79,2c0.901,0.761 1.666,1.671 2.26,2.69c0.209,1.077 0.269,2.177 0.18,3.27c-0.058,0.799 -0.058,1.601 0,2.4c0.094,0.985 0.023,1.979 -0.21,2.94Z" style="fill:#231f20;fill-rule:nonzero;"/><path d="M110.026,56.43c1.923,0.273 3.779,0.904 5.47,1.86" style="fill:#fff;fill-rule:nonzero;"/><path d="M115.496,58.79c-0.096,-0.002 -0.189,-0.029 -0.27,-0.08c-1.631,-0.917 -3.418,-1.52 -5.27,-1.78c-0.272,-0.036 -0.466,-0.289 -0.43,-0.56c0.036,-0.271 0.288,-0.465 0.56,-0.43c2.001,0.278 3.932,0.933 5.69,1.93c0.226,0.152 0.289,0.462 0.14,0.69c-0.089,0.146 -0.25,0.234 -0.42,0.23Z" style="fill:#231f20;fill-rule:nonzero;"/><path d="M111.606,56.75l5.79,-4.53" style="fill:#fff;fill-rule:nonzero;"/><path d="M111.606,57.25c-0.154,-0.003 -0.298,-0.077 -0.39,-0.2c-0.167,-0.217 -0.127,-0.532 0.09,-0.7l5.78,-4.53c0.091,-0.08 0.208,-0.124 0.329,-0.124c0.274,0 0.5,0.226 0.5,0.5c0,0.166 -0.082,0.321 -0.219,0.414l-5.78,4.53c-0.089,0.07 -0.198,0.109 -0.31,0.11Z" style="fill:#231f20;fill-rule:nonzero;"/><path d="M113.966,57.5l5.64,-5.38" style="fill:#fff;fill-rule:nonzero;"/><path d="M113.966,58c-0.141,0.002 -0.276,-0.056 -0.37,-0.16c-0.094,-0.092 -0.147,-0.218 -0.147,-0.35c0,-0.132 0.053,-0.258 0.147,-0.35l5.65,-5.38c0.09,-0.097 0.217,-0.152 0.35,-0.152c0.132,0 0.259,0.055 0.35,0.152c0.094,0.094 0.148,0.222 0.148,0.355c0,0.133 -0.054,0.261 -0.148,0.355l-5.65,5.38c-0.088,0.089 -0.206,0.142 -0.33,0.15Z" style="fill:#231f20;fill-rule:nonzero;"/><path d="M106.486,56.86c0,0 2.89,3.47 2.23,6.16" style="fill:#fff;fill-rule:nonzero;"/><path d="M108.716,63.52l-0.13,0c-0.22,-0.053 -0.376,-0.251 -0.376,-0.477c0,-0.041 0.005,-0.083 0.016,-0.123c0.6,-2.42 -2.09,-5.69 -2.12,-5.72c-0.075,-0.09 -0.116,-0.203 -0.116,-0.32c0,-0.275 0.226,-0.501 0.501,-0.501c0.148,0 0.29,0.067 0.385,0.181c0.12,0.15 3,3.69 2.32,6.6c-0.062,0.213 -0.259,0.36 -0.48,0.36Z" style="fill:#231f20;fill-rule:nonzero;"/><path d="M45.166,73.87l-21.9,12.13l-10,-17.57l-11,5.23c0,0 2.92,20.6 6.28,26.48c3.36,5.88 28.58,-1.64 38.24,-9.48l-1.62,-16.79Z" style="fill:#ff929f;fill-rule:nonzero;"/><path d="M80.726,74.87l13.54,6.32l8.77,-16.48l9.76,2.54c0,0 -6.32,28.86 -13.33,28.38c-7.01,-0.48 -32.27,-8.89 -32.27,-8.89l13.53,-11.87Z" style="fill:#ff929f;fill-rule:nonzero;"/><path d="M40.926,116.54c-0.275,0 -0.5,-0.226 -0.5,-0.5c-0.13,-11 3.58,-35.56 3.62,-35.81c0.036,-0.244 0.248,-0.426 0.494,-0.426c0.025,0 0.051,0.002 0.076,0.006c0.269,0.046 0.456,0.3 0.42,0.57c0,0.25 -3.74,24.75 -3.61,35.65c0,0.276 -0.224,0.505 -0.5,0.51Z" style="fill:#231f20;fill-rule:nonzero;"/><path d="M99.466,96.13c-4.53,-0.07 -27,-7.16 -28,-7.47c-0.205,-0.064 -0.345,-0.254 -0.345,-0.468c0,-0.052 0.009,-0.103 0.025,-0.152c0.06,-0.209 0.253,-0.353 0.47,-0.353c0.051,0 0.101,0.008 0.15,0.023c0.24,0.07 23.3,7.36 27.69,7.42c0.274,0 0.5,0.226 0.5,0.5c0,0.274 -0.226,0.5 -0.5,0.5l0.01,0Z" style="fill:#231f20;fill-rule:nonzero;"/><path d="M91.346,87.46c-0.081,0 -0.16,-0.02 -0.23,-0.06c-0.165,-0.083 -0.269,-0.253 -0.269,-0.437c0,-0.081 0.02,-0.161 0.059,-0.233l10,-19.16c0.086,-0.165 0.257,-0.269 0.443,-0.269c0.083,0 0.164,0.02 0.237,0.059c0.235,0.131 0.328,0.428 0.21,0.67l-10,19.16c-0.087,0.168 -0.262,0.272 -0.45,0.27Z" style="fill:#231f20;fill-rule:nonzero;"/><path d="M1.326,76l-0.12,0c-0.267,-0.068 -0.433,-0.342 -0.37,-0.61l18.73,-74.79c0.063,-0.266 0.334,-0.432 0.6,-0.37c0.267,0.068 0.432,0.342 0.37,0.61l-18.68,74.78c-0.055,0.242 -0.284,0.406 -0.53,0.38Z" style="fill:#231f20;fill-rule:nonzero;"/><path d="M8.276,58.73c-1.45,-0.89 -3.33,0 -4.67,1c-0.418,0.296 -0.761,0.687 -1,1.14c-0.23,0.473 -0.129,1.044 0.25,1.41c0.492,0.272 1.083,0.302 1.6,0.08l3.26,-0.87c-0.769,1.006 -1.32,2.16 -1.62,3.39c-0.211,0.677 -0.211,1.403 0,2.08c0.238,0.686 0.915,1.128 1.64,1.07" style="fill:#fff;fill-rule:nonzero;"/><path d="M7.506,68.58c-0.853,-0.052 -1.598,-0.607 -1.89,-1.41c-0.235,-0.776 -0.235,-1.604 0,-2.38c0.222,-0.858 0.558,-1.682 1,-2.45l-2,0.53c-0.657,0.254 -1.396,0.191 -2,-0.17c-0.561,-0.503 -0.721,-1.323 -0.39,-2c0.273,-0.533 0.671,-0.993 1.16,-1.34c0.93,-0.72 3.29,-2.27 5.24,-1.06c0.148,0.088 0.24,0.249 0.24,0.421c0,0.096 -0.028,0.189 -0.08,0.269c-0.086,0.148 -0.245,0.24 -0.416,0.24c-0.094,0 -0.186,-0.028 -0.264,-0.08c-1.43,-0.87 -3.34,0.41 -4.1,1c-0.36,0.245 -0.658,0.57 -0.87,0.95c-0.134,0.268 -0.094,0.592 0.1,0.82c0.369,0.161 0.79,0.161 1.16,0l3.26,-0.86c0.204,-0.064 0.427,0.019 0.54,0.2c0.123,0.173 0.123,0.407 0,0.58c-0.753,0.932 -1.307,2.007 -1.63,3.16c-0.18,0.58 -0.18,1.2 0,1.78c0.15,0.464 0.592,0.775 1.08,0.76c0.028,-0.005 0.056,-0.007 0.085,-0.007c0.278,0 0.507,0.229 0.507,0.507c0,0.246 -0.18,0.459 -0.422,0.5l-0.31,0.04Z" style="fill:#231f20;fill-rule:nonzero;"/><path d="M19.396,3.3c0,0 11.91,6.84 44.15,6.54l-2.94,22.51c0,0 -23.64,1.52 -47.09,-5.54c2.715,-2.595 4.831,-5.752 6.2,-9.25c2.14,-5.68 -0.32,-14.26 -0.32,-14.26Z" style="fill:#fff;fill-rule:nonzero;"/><path d="M55.026,33c-8.44,0 -25.17,-0.73 -41.66,-5.7c-0.207,-0.066 -0.348,-0.259 -0.348,-0.476c0,-0.143 0.061,-0.279 0.168,-0.374c2.638,-2.533 4.705,-5.602 6.06,-9c2.08,-5.46 -0.31,-13.87 -0.33,-14c-0.059,-0.194 0.009,-0.406 0.17,-0.53c0.168,-0.114 0.391,-0.114 0.56,0c0.12,0.07 12.24,6.78 43.89,6.47c0.148,-0.019 0.295,0.047 0.38,0.17c0.095,0.11 0.142,0.255 0.13,0.4l-2.94,22.51c-0.034,0.237 -0.232,0.418 -0.47,0.43c-0.07,-0.04 -2.14,0.1 -5.61,0.1Zm-40.55,-6.41c21.17,6.19 42.49,5.46 45.69,5.31l2.81,-21.53c-26.84,0.18 -39.37,-4.52 -42.82,-6.11c0.59,2.51 1.79,8.87 0,13.5c-1.286,3.286 -3.218,6.282 -5.68,8.81l0,0.02Z" style="fill:#231f20;fill-rule:nonzero;"/><path d="M52.956,53.47c-0.387,-0.511 -0.981,-0.826 -1.62,-0.86c-0.285,-0.011 -0.563,0.086 -0.78,0.27c-0.239,0.259 -0.386,0.589 -0.42,0.94c-0.206,0.936 -0.206,1.904 0,2.84c0.206,0.94 0.716,1.787 1.45,2.41c0.82,0.65 1.95,0.8 2.4,-0.33c0.675,-1.808 0.276,-3.85 -1.03,-5.27Z" style="fill:#fff;fill-rule:nonzero;"/><path d="M52.856,60.07c-0.581,-0.02 -1.137,-0.235 -1.58,-0.61c-0.823,-0.69 -1.395,-1.632 -1.63,-2.68c-0.209,-0.989 -0.209,-2.011 0,-3c0.043,-0.46 0.244,-0.892 0.57,-1.22c0.309,-0.27 0.709,-0.412 1.12,-0.4c0.78,0.025 1.512,0.39 2,1c1.426,1.561 1.863,3.797 1.13,5.78c-0.184,0.532 -0.618,0.94 -1.16,1.09c-0.148,0.034 -0.299,0.048 -0.45,0.04Zm-1.54,-7c-0.162,-0.009 -0.322,0.04 -0.45,0.14c-0.149,0.19 -0.24,0.419 -0.26,0.66c-0.186,0.87 -0.186,1.77 0,2.64c0.192,0.829 0.644,1.575 1.29,2.13c0.3,0.289 0.717,0.425 1.13,0.37c0.236,-0.074 0.421,-0.262 0.49,-0.5c0.576,-1.647 0.19,-3.484 -1,-4.76c-0.29,-0.365 -0.716,-0.596 -1.18,-0.64l-0.02,-0.04Z" style="fill:#231f20;fill-rule:nonzero;"/><path d="M72.046,57.69c2,-2.24 3,-6.53 2.71,-9.27c-0.32,-3.22 -3.36,-7.85 -7.2,-6.18c-0.279,0.16 -0.59,0.256 -0.91,0.28c-0.48,0 -0.83,-0.43 -1.18,-0.77c-1.69,-1.62 -4.36,-1.68 -6.65,-1.16c-2.614,0.501 -4.981,1.877 -6.71,3.9c-1.083,1.366 -1.675,3.057 -1.68,4.8c0,1.57 0.83,2.8 1,4.33c0.27,2.48 0,6.24 2.82,7.42c3.19,1.36 7.82,-0.08 11.05,-0.69c1.89,-0.35 4.67,-0.85 6.19,-2.11c0.198,-0.17 0.386,-0.354 0.56,-0.55Z" style="fill:#fff;fill-rule:nonzero;"/><path d="M57.446,62.1c-1.159,0.032 -2.313,-0.172 -3.39,-0.6c-2.63,-1.11 -2.85,-4.15 -3,-6.59c0,-0.43 -0.07,-0.85 -0.11,-1.24c-0.09,-0.624 -0.244,-1.238 -0.46,-1.83c-0.314,-0.813 -0.496,-1.67 -0.54,-2.54c0.007,-1.858 0.637,-3.662 1.79,-5.12c1.802,-2.115 4.271,-3.554 7,-4.08c1.74,-0.39 5,-0.75 7.11,1.29l0.14,0.14c0.25,0.25 0.49,0.48 0.71,0.49c0.181,-0.027 0.357,-0.085 0.52,-0.17l0.17,-0.07c1.322,-0.602 2.86,-0.508 4.1,0.25c2.13,1.461 3.519,3.782 3.8,6.35c0.29,2.89 -0.69,7.29 -2.84,9.65c-0.189,0.212 -0.393,0.409 -0.61,0.59c-1.57,1.31 -4.27,1.82 -6.24,2.19l-0.18,0l-1.79,0.38c-2.023,0.516 -4.094,0.821 -6.18,0.91Zm3.81,-21.3c-0.784,0.01 -1.565,0.1 -2.33,0.27c-2.501,0.48 -4.765,1.796 -6.42,3.73c-1.016,1.277 -1.572,2.859 -1.58,4.49c0.043,0.765 0.209,1.517 0.49,2.23c0.235,0.648 0.406,1.318 0.51,2c0,0.4 0.07,0.83 0.1,1.28c0.17,2.28 0.36,4.87 2.42,5.74c2.48,1.06 6.06,0.28 8.93,-0.34l1.83,-0.38l0.17,0c1.87,-0.35 4.42,-0.83 5.79,-2c0.182,-0.15 0.352,-0.314 0.51,-0.49c1.93,-2.13 2.85,-6.27 2.58,-8.89c-0.247,-2.249 -1.455,-4.285 -3.31,-5.58c-0.962,-0.596 -2.162,-0.672 -3.19,-0.2l-0.15,0.07c-0.302,0.181 -0.649,0.271 -1,0.26c-0.539,-0.072 -1.029,-0.347 -1.37,-0.77l-0.13,-0.13c-1.073,-0.903 -2.45,-1.365 -3.85,-1.29Z" style="fill:#231f20;fill-rule:nonzero;"/><path d="M57.386,65.75l-1.53,7.34c0,0 2.29,4.66 7.16,3.49c4.87,-1.17 5.7,-4.9 5.7,-4.91l0.48,-7.87l0.3,-4.85c0.099,-0.49 0.129,-0.992 0.09,-1.49c-0.16,-0.5 -0.73,-0.88 -1,-1.29c-0.445,-0.63 -0.83,-1.299 -1.15,-2c-0.677,-1.365 -1.155,-2.82 -1.42,-4.32c-1.847,0.105 -3.671,-0.464 -5.13,-1.6c-0.55,0.91 1.07,1.83 0.94,2.89c-1.76,-0.32 -4,-0.94 -5.24,-2.26c-0.62,-0.08 -3.1,4.21 -3.49,5.92c-0.523,2.225 -0.628,4.527 -0.31,6.79c0.53,3.82 4.6,4.16 4.6,4.16Z" style="fill:#fff;fill-rule:nonzero;"/><path d="M61.476,77.27c-4.09,0 -6.05,-3.92 -6.08,-4c-0.03,-0.108 -0.03,-0.222 0,-0.33l1.43,-6.82c-2.304,-0.362 -4.137,-2.155 -4.55,-4.45c-0.327,-2.333 -0.215,-4.708 0.33,-7c0.25,-1.15 2.75,-6.46 4,-6.31c0.114,0.02 0.219,0.076 0.3,0.16c1.178,1.063 2.642,1.758 4.21,2c-0.088,-0.159 -0.184,-0.313 -0.29,-0.46c-0.39,-0.57 -0.88,-1.28 -0.41,-2c0.075,-0.123 0.198,-0.21 0.34,-0.24c0.141,-0.017 0.283,0.019 0.4,0.1c1.359,1.069 3.064,1.603 4.79,1.5c0.249,-0.01 0.471,0.165 0.52,0.41c0.264,1.449 0.732,2.852 1.39,4.17c0.309,0.658 0.677,1.288 1.1,1.88c0.108,0.134 0.225,0.261 0.35,0.38c0.326,0.273 0.589,0.615 0.77,1c0.089,0.425 0.089,0.865 0,1.29c-0.027,0.129 -0.047,0.259 -0.06,0.39l-0.77,12.72c0,0 -0.81,4.09 -6.08,5.36c-0.552,0.15 -1.119,0.234 -1.69,0.25Zm-5.1,-4.26c0.42,0.76 2.51,4 6.51,3.08c4.51,-1.08 5.32,-4.49 5.33,-4.52l0.77,-12.65c0.008,-0.161 0.028,-0.322 0.06,-0.48c0.051,-0.273 0.071,-0.552 0.06,-0.83c-0.131,-0.248 -0.307,-0.468 -0.52,-0.65c-0.161,-0.153 -0.311,-0.317 -0.45,-0.49c-0.46,-0.629 -0.862,-1.298 -1.2,-2c-0.63,-1.269 -1.093,-2.613 -1.38,-4c-1.404,0.02 -2.787,-0.343 -4,-1.05l0.1,0.16c0.418,0.478 0.646,1.095 0.64,1.73c-0.018,0.136 -0.09,0.259 -0.2,0.34c-0.112,0.084 -0.254,0.117 -0.39,0.09c-1.905,-0.22 -3.714,-0.957 -5.23,-2.13c-1.282,1.615 -2.276,3.438 -2.94,5.39c-0.506,2.163 -0.611,4.4 -0.31,6.6c0.52,3.34 4,3.69 4.2,3.7c0.143,0.019 0.273,0.095 0.36,0.21c0.08,0.113 0.109,0.255 0.08,0.39l-1.49,7.11Z" style="fill:#231f20;fill-rule:nonzero;"/><path d="M56.576,69.61c1.701,0.334 3.463,-0.194 4.7,-1.41c2.15,-2.07 2,-3.81 2,-3.81c-1.707,1.195 -3.812,1.682 -5.87,1.36l-0.83,3.86Z" style="fill:#231f20;fill-rule:nonzero;"/><path d="M57.566,70.21c-0.374,0.004 -0.746,-0.036 -1.11,-0.12c-0.257,-0.064 -0.42,-0.321 -0.37,-0.58l0.81,-3.86c0.042,-0.226 0.241,-0.392 0.472,-0.392c0.036,0 0.072,0.004 0.108,0.012c1.921,0.287 3.881,-0.167 5.48,-1.27c0.085,-0.06 0.188,-0.093 0.293,-0.093c0.258,0 0.478,0.196 0.507,0.453c0,0.08 0.16,2 -2.14,4.21c-1.083,1.056 -2.538,1.645 -4.05,1.64Zm-0.4,-1c1.391,0.12 2.767,-0.377 3.76,-1.36c0.751,-0.673 1.325,-1.522 1.67,-2.47c-1.478,0.796 -3.162,1.128 -4.83,0.95l-0.6,2.88Z" style="fill:#231f20;fill-rule:nonzero;"/><path d="M61.336,53.74c0,0 -2.69,3.72 -2.11,4.4c0.58,0.68 2.3,0.31 2.3,0.31" style="fill:#fff;fill-rule:nonzero;"/><path d="M60.526,59.06c-0.62,0.047 -1.231,-0.171 -1.68,-0.6c-0.56,-0.65 0.15,-2.34 2.08,-5c0.164,-0.218 0.476,-0.267 0.7,-0.11c0.131,0.091 0.21,0.242 0.21,0.403c0,0.107 -0.035,0.212 -0.1,0.297c-1.19,1.65 -2.17,3.45 -2.09,3.85c0.21,0.23 1.17,0.21 1.77,0.08c0.036,-0.008 0.074,-0.013 0.111,-0.013c0.234,0 0.438,0.165 0.489,0.393c0.05,0.27 -0.123,0.536 -0.39,0.6c-0.363,0.07 -0.731,0.103 -1.1,0.1Z" style="fill:#231f20;fill-rule:nonzero;"/><path d="M64.381,52.673c0.348,-0.017 0.649,0.368 0.673,0.858c0.024,0.491 -0.238,0.903 -0.585,0.92c-0.348,0.017 -0.649,-0.367 -0.673,-0.858c-0.024,-0.49 0.238,-0.903 0.585,-0.92Z" style="fill:#231f20;"/><path d="M57.851,53.247c0.122,-0.476 0.494,-0.793 0.831,-0.707c0.337,0.086 0.512,0.543 0.39,1.018c-0.122,0.476 -0.494,0.793 -0.831,0.707c-0.337,-0.086 -0.511,-0.542 -0.39,-1.018Z" style="fill:#231f20;"/><path d="M59.856,64.2c-0.757,0.036 -1.491,-0.269 -2,-0.83c-1.15,-1.43 -0.64,-3.71 -0.62,-3.81c0.052,-0.235 0.269,-0.401 0.51,-0.39c5.87,0.28 5.89,0.31 6.08,0.54c0.093,0.115 0.13,0.265 0.1,0.41c-0.157,0.91 -0.52,1.772 -1.06,2.52c-0.704,0.956 -1.813,1.533 -3,1.56l-0.01,0Zm-1.7,-4c-0.165,0.877 0.006,1.784 0.48,2.54c0.319,0.345 0.783,0.519 1.25,0.47c0.87,-0.033 1.678,-0.465 2.19,-1.17c0.351,-0.47 0.609,-1.003 0.76,-1.57c-0.98,-0.09 -3.06,-0.2 -4.65,-0.28l-0.03,0.01Z" style="fill:#231f20;fill-rule:nonzero;"/><path d="M67.946,57.14c-0.05,-1.6 1.58,-3.76 3.33,-2.77c0.606,0.406 1.021,1.042 1.15,1.76c0.77,3.32 -1.81,4.44 -3.56,5.22" style="fill:#fff;fill-rule:nonzero;"/><path d="M68.906,61.83c-0.201,0.006 -0.386,-0.108 -0.47,-0.29c-0.114,-0.241 -0.011,-0.534 0.23,-0.65c1.79,-0.79 3.94,-1.76 3.27,-4.64c-0.101,-0.581 -0.429,-1.099 -0.91,-1.44c-0.411,-0.263 -0.94,-0.263 -1.35,0c-0.755,0.525 -1.213,1.381 -1.23,2.3c0,0.274 -0.226,0.5 -0.5,0.5c-0.275,0 -0.5,-0.226 -0.5,-0.5c0.026,-1.253 0.666,-2.417 1.71,-3.11c0.726,-0.444 1.643,-0.444 2.37,0c0.708,0.455 1.206,1.176 1.38,2c0.87,3.69 -2,5 -3.78,5.76c-0.066,0.042 -0.142,0.067 -0.22,0.07Z" style="fill:#231f20;fill-rule:nonzero;"/><g transform="matrix(0.996141,0.0877652,-0.0877652,0.996141,-4.66075,7.58172)"><text x="32.293px" y="10.736px" style="font-family:'BrushScriptMT', 'Brush Script MT', cursive;font-style:italic;font-size:12px;fill:#ff929f;">Career</text></g></svg>