<?xml version="1.0" encoding="UTF-8" standalone="no"?>
<!DOCTYPE svg PUBLIC "-//W3C//DTD SVG 1.1//EN" "http://www.w3.org/Graphics/SVG/1.1/DTD/svg11.dtd">
<svg width="100%" height="100%" viewBox="0 0 289 285" version="1.1" xmlns="http://www.w3.org/2000/svg" xmlns:xlink="http://www.w3.org/1999/xlink" xml:space="preserve" xmlns:serif="http://www.serif.com/" style="fill-rule:evenodd;clip-rule:evenodd;stroke-linejoin:round;stroke-miterlimit:1.41421;">
    <g id="_232_designer_flatline">
    </g>
    <g transform="matrix(1.14002,0,0,1.14002,-84.6384,-27.7867)">
        <g transform="matrix(0.899418,0,0,0.899418,20.1164,24.547)">
            <path d="M338.71,244.55L61.29,244.55C61.016,244.55 60.79,244.324 60.79,244.05C60.79,243.776 61.016,243.55 61.29,243.55L338.71,243.55C338.984,243.55 339.21,243.776 339.21,244.05C339.21,244.324 338.984,244.55 338.71,244.55Z" style="fill:rgb(209,211,212);fill-rule:nonzero;"/>
        </g>
        <g transform="matrix(0.922771,0,0,0.86566,12.6902,20.9073)">
            <rect x="164.32" y="44.37" width="154.83" height="111.26" style="fill:white;"/>
        </g>
        <g transform="matrix(0.922418,0,0,0.857336,12.7094,21.8264)">
            <path d="M319.16,156.13L164.32,156.13C164.046,156.13 163.82,155.904 163.82,155.63L163.82,44.37C163.82,44.096 164.046,43.87 164.32,43.87L319.16,43.87C319.434,43.87 319.66,44.096 319.66,44.37L319.66,155.63C319.66,155.904 319.434,156.13 319.16,156.13ZM164.82,155.13L318.66,155.13L318.66,44.87L164.82,44.87L164.82,155.13Z" style="fill:rgb(209,211,212);fill-rule:nonzero;"/>
        </g>
        <g transform="matrix(0.922418,0,0,0.857336,12.7094,21.8264)">
            <path d="M213.52,154.7C213.248,154.695 213.025,154.472 213.02,154.2L213.02,44.37C213.02,44.096 213.246,43.87 213.52,43.87C213.794,43.87 214.02,44.096 214.02,44.37L214.02,154.2C214.02,154.474 213.794,154.7 213.52,154.7Z" style="fill:rgb(209,211,212);fill-rule:nonzero;"/>
            <path d="M270,154.7C269.726,154.7 269.5,154.474 269.5,154.2L269.5,44.37C269.5,44.096 269.726,43.87 270,43.87C270.274,43.87 270.5,44.096 270.5,44.37L270.5,154.2C270.5,154.474 270.274,154.7 270,154.7Z" style="fill:rgb(209,211,212);fill-rule:nonzero;"/>
            <path d="M319.16,49.88L164.32,49.88C164.048,49.875 163.825,49.652 163.82,49.38C163.82,49.106 164.046,48.88 164.32,48.88L319.16,48.88C319.434,48.88 319.66,49.106 319.66,49.38C319.66,49.654 319.434,49.88 319.16,49.88Z" style="fill:rgb(209,211,212);fill-rule:nonzero;"/>
            <path d="M319.16,56L164.32,56C164.046,56 163.82,55.774 163.82,55.5C163.82,55.226 164.046,55 164.32,55L319.16,55C319.434,55 319.66,55.226 319.66,55.5C319.66,55.774 319.434,56 319.16,56Z" style="fill:rgb(209,211,212);fill-rule:nonzero;"/>
            <path d="M319.16,62.06L164.32,62.06C164.046,62.06 163.82,61.834 163.82,61.56C163.825,61.288 164.048,61.065 164.32,61.06L319.16,61.06C319.434,61.06 319.66,61.286 319.66,61.56C319.66,61.834 319.434,62.06 319.16,62.06Z" style="fill:rgb(209,211,212);fill-rule:nonzero;"/>
            <path d="M319.16,68.16L164.32,68.16C164.048,68.155 163.825,67.932 163.82,67.66C163.82,67.386 164.046,67.16 164.32,67.16L319.16,67.16C319.434,67.16 319.66,67.386 319.66,67.66C319.66,67.934 319.434,68.16 319.16,68.16Z" style="fill:rgb(209,211,212);fill-rule:nonzero;"/>
            <path d="M319.16,151L164.32,151C164.046,151 163.82,150.774 163.82,150.5C163.825,150.228 164.048,150.005 164.32,150L319.16,150C319.434,150 319.66,150.226 319.66,150.5C319.66,150.774 319.434,151 319.16,151Z" style="fill:rgb(209,211,212);fill-rule:nonzero;"/>
        </g>
        <g transform="matrix(0.797639,0,0,0.797639,57.9634,48.6775)">
            <path d="M319.28,199.47C319.393,197.854 319.047,196.238 318.28,194.81C317.53,193.869 316.832,192.888 316.19,191.87C315.3,189.97 315.92,187.75 315.71,185.67C315.532,183.932 314.766,182.305 313.54,181.06C312.45,179.96 311.05,179.21 310.02,178.06C308.32,176.18 307.83,173.54 306.86,171.2C305.487,167.887 303.108,165.088 300.06,163.2C301.92,166.93 297.69,171.67 299.61,175.37C300.21,176.55 301.37,177.37 301.82,178.65C302.89,181.65 299.31,184.9 300.46,187.87C301.03,189.36 302.62,190.22 303.36,191.63C304.36,193.53 303.58,195.84 303.66,197.98C303.77,200.98 305.57,203.59 307.71,205.64C309.04,206.91 310.53,208.02 311.97,209.17C313.69,210.55 314.42,212 315.97,209.79C318.052,206.745 319.202,203.158 319.28,199.47Z" style="fill:rgb(35,31,32);fill-rule:nonzero;"/>
            <path d="M321.21,201.16C320.65,198.87 320.26,196.39 321.21,194.23C322.27,191.78 324.9,190.06 325.21,187.41C325.41,185.68 324.53,183.93 324.87,182.22C325.21,180.51 326.62,179.34 327.77,178.08C330.422,175.162 331.999,171.425 332.24,167.49C334.014,169.588 335.452,171.95 336.5,174.49C337.53,177.092 337.301,180.029 335.88,182.44C335.433,182.969 335.069,183.562 334.8,184.2C334.28,185.89 335.72,187.46 336.47,189.06C337.368,190.921 337.164,193.135 335.94,194.8C334.43,196.69 331.51,197.42 330.77,199.72C330.583,200.577 330.496,201.453 330.51,202.33C330.189,205.434 328,208.044 325,208.9C323.21,209.34 323.24,208.63 322.92,207.12C322.47,205.14 321.69,203.18 321.21,201.16Z" style="fill:rgb(35,31,32);fill-rule:nonzero;"/>
            <path d="M315.51,184.69C314.24,180.29 313.73,175.69 312.39,171.32C311.245,167.89 309.851,164.547 308.22,161.32L313.68,163.62C315.43,164.36 317.33,165.23 318.15,166.94C319.59,169.94 317.01,173.74 318.52,176.68C319.174,177.634 319.896,178.539 320.68,179.39C322.28,181.65 322.04,184.75 321.16,187.39C320.78,188.51 319.16,194.39 317.65,192.73C317.05,192.08 317,189.66 316.76,188.73C316.37,187.41 315.9,186.06 315.51,184.69Z" style="fill:rgb(35,31,32);fill-rule:nonzero;"/>
            <path d="M318.46,243.15C317.38,235.96 313.97,210.61 313.93,210.35L314.93,210.22C314.93,210.48 318.37,235.81 319.45,243L318.46,243.15Z" style="fill:rgb(35,31,32);fill-rule:nonzero;"/>
            <path d="M319.8,249.93L318.8,249.93C318.86,241.39 322.43,208.74 324.48,206.49L325.22,207.17C323.65,208.88 319.87,240.45 319.8,249.93Z" style="fill:rgb(35,31,32);fill-rule:nonzero;"/>
            <path d="M321.65,248.31L320.65,248.26C321.46,229.86 317.56,191.19 317.52,190.81L318.52,190.71C318.56,191.09 322.47,229.83 321.65,248.31Z" style="fill:rgb(35,31,32);fill-rule:nonzero;"/>
            <path d="M309.14,222.54L329.46,222.54L328,245.61C327.76,249.61 324.8,252.69 321.23,252.69L317.3,252.69C313.74,252.69 310.78,249.6 310.53,245.61L309.14,222.54Z" style="fill:white;fill-rule:nonzero;"/>
            <path d="M321.26,253.21L317.33,253.21C313.51,253.21 310.33,249.88 310.05,245.64L308.63,222.57C308.621,222.426 308.671,222.285 308.77,222.18C308.866,222.078 309,222.02 309.14,222.02L329.46,222.02C329.461,222.02 329.461,222.02 329.462,222.02C329.741,222.02 329.972,222.25 329.972,222.53C329.972,222.543 329.971,222.557 329.97,222.57L328.55,245.64C328.29,249.88 325.09,253.21 321.26,253.21ZM309.69,223.05L311.08,245.57C311.31,249.28 314.08,252.18 317.33,252.18L321.26,252.18C324.54,252.18 327.26,249.28 327.52,245.57L328.91,223.05L309.69,223.05Z" style="fill:rgb(35,31,32);fill-rule:nonzero;"/>
        </g>
        <path d="M139.6,171.48C138.6,173.53 140.12,175.34 143.92,175.34L154.32,175.34C155.87,175.34 159.75,170.71 157.81,168.34C155.87,165.97 140.61,169.44 139.6,171.48Z" style="fill:rgb(35,31,32);fill-rule:nonzero;"/>
        <path d="M154.32,175.84L143.92,175.84C141.6,175.84 139.92,175.19 139.18,174C138.689,173.154 138.689,172.106 139.18,171.26C140.01,169.58 147.18,167.74 151.72,167.26C155.26,166.86 157.45,167.13 158.21,168.07C158.97,169.01 159.07,170.53 158.3,172.16C157.53,173.79 155.58,175.84 154.32,175.84ZM154.51,168.04C153.607,168.05 152.706,168.111 151.81,168.22C146.43,168.83 140.53,170.73 140.05,171.7C139.738,172.248 139.738,172.922 140.05,173.47C140.59,174.34 142.05,174.84 143.94,174.84L154.34,174.84C154.96,174.84 156.58,173.43 157.4,171.69C157.74,170.96 158.21,169.6 157.4,168.69C157.15,168.32 156.24,168 154.51,168L154.51,168.04Z" style="fill:rgb(35,31,32);fill-rule:nonzero;"/>
        <path d="M167.84,162.81C164.59,163.601 161.264,164.036 157.92,164.11C155.49,164.11 153.29,163.39 150.92,163.83C148.555,164.256 146.329,165.248 144.43,166.72C144.17,166.93 143.89,167.22 143.98,167.54C144.044,167.723 144.182,167.872 144.36,167.95C145.36,168.46 146.36,167.84 147.28,167.59C148.236,167.336 149.221,167.202 150.21,167.19C152.301,167.064 154.375,167.642 156.1,168.83C156.356,168.986 156.551,169.227 156.65,169.51C156.692,169.835 156.573,170.16 156.33,170.38C156.079,170.586 155.795,170.748 155.49,170.86L152.31,172.24C152.14,172.31 151.93,172.46 152,172.64C152.07,172.82 152.14,172.78 152.23,172.82C155.38,173.97 158.72,171.82 161.73,171.17C165.021,170.431 168.364,169.95 171.73,169.73C170.504,167.674 170.127,165.219 170.68,162.89" style="fill:white;fill-rule:nonzero;"/>
        <path d="M154.17,173.61C153.444,173.617 152.723,173.496 152.04,173.25C151.812,173.183 151.625,173.018 151.53,172.8C151.41,172.49 151.53,172.06 152.09,171.8L155.27,170.42C155.524,170.331 155.761,170.199 155.97,170.03C156.1,169.922 156.17,169.758 156.16,169.59C156.16,169.44 155.94,169.29 155.79,169.18C154.144,168.056 152.17,167.511 150.18,167.63C149.228,167.637 148.28,167.765 147.36,168.01C147.152,168.063 146.949,168.13 146.75,168.21C145.926,168.631 144.959,168.675 144.1,168.33C143.816,168.194 143.599,167.949 143.5,167.65C143.37,167.2 143.58,166.76 144.11,166.35C147.236,163.773 151.343,162.701 155.33,163.42C156.192,163.54 157.06,163.613 157.93,163.64C161.24,163.558 164.532,163.123 167.75,162.34C167.78,162.334 167.81,162.331 167.84,162.331C168.089,162.331 168.294,162.536 168.294,162.785C168.294,163 168.141,163.187 167.93,163.23C164.653,164.022 161.301,164.464 157.93,164.55C157.027,164.524 156.126,164.45 155.23,164.33C153.822,164.092 152.385,164.068 150.97,164.26C148.679,164.674 146.521,165.634 144.68,167.06C144.41,167.28 144.39,167.4 144.39,167.4C144.39,167.4 144.39,167.45 144.55,167.52C145.179,167.729 145.868,167.668 146.45,167.35L147.12,167.13C148.1,166.871 149.107,166.73 150.12,166.71C152.311,166.584 154.483,167.193 156.29,168.44C156.636,168.656 156.892,168.99 157.01,169.38C157.104,169.865 156.932,170.365 156.56,170.69C156.263,170.937 155.924,171.13 155.56,171.26L152.71,172.5C154.71,173.01 156.76,172.28 158.76,171.57C159.662,171.229 160.584,170.942 161.52,170.71C164.6,170.009 167.729,169.541 170.88,169.31C169.863,167.285 169.597,164.963 170.13,162.76C170.175,162.554 170.359,162.406 170.57,162.406C170.607,162.406 170.644,162.411 170.68,162.42C170.919,162.483 171.067,162.729 171.01,162.97C170.481,165.187 170.84,167.525 172.01,169.48C172.091,169.615 172.091,169.785 172.01,169.92C171.936,170.064 171.792,170.16 171.63,170.17C168.287,170.381 164.967,170.86 161.7,171.6C160.801,171.823 159.916,172.1 159.05,172.43C157.498,173.086 155.85,173.485 154.17,173.61Z" style="fill:rgb(35,31,32);fill-rule:nonzero;"/>
        <rect x="211.78" y="199.58" width="11.71" height="9.42" style="fill:white;"/>
        <path d="M223.49,209.45L211.78,209.45C211.78,209.45 211.78,209.45 211.78,209.45C211.533,209.45 211.33,209.247 211.33,209C211.33,208.997 211.33,208.993 211.33,208.99L211.33,199.58C211.33,199.577 211.33,199.573 211.33,199.57C211.33,199.323 211.533,199.12 211.78,199.12L223.49,199.12C223.742,199.12 223.95,199.328 223.95,199.58L223.95,209C223.945,209.249 223.739,209.45 223.49,209.45ZM212.24,208.54L223,208.54L223,200L212.24,200L212.24,208.54Z" style="fill:rgb(35,31,32);fill-rule:nonzero;"/>
        <rect x="214.07" y="208.91" width="7.13" height="42.17" style="fill:rgb(35,31,32);"/>
        <path d="M221.2,251.57L214.07,251.57C213.796,251.57 213.57,251.344 213.57,251.07L213.57,208.91C213.57,208.636 213.796,208.41 214.07,208.41L221.2,208.41C221.474,208.41 221.7,208.636 221.7,208.91L221.7,251.07C221.7,251.344 221.474,251.57 221.2,251.57ZM214.57,250.57L220.7,250.57L220.7,209.41L214.57,209.41L214.57,250.57Z" style="fill:rgb(35,31,32);fill-rule:nonzero;"/>
        <path d="M239.69,254.3C225.801,249.993 210.929,249.993 197.04,254.3L239.69,254.3Z" style="fill:rgb(35,31,32);fill-rule:nonzero;"/>
        <path d="M239.69,254.8L197,254.8C196.756,254.803 196.545,254.622 196.51,254.38C196.468,254.136 196.614,253.896 196.85,253.82C210.852,249.477 225.848,249.477 239.85,253.82C240.083,253.899 240.227,254.137 240.19,254.38C240.151,254.623 239.937,254.803 239.69,254.8ZM200.59,253.8L236.14,253.8C224.477,250.829 212.253,250.829 200.59,253.8Z" style="fill:rgb(35,31,32);fill-rule:nonzero;"/>
        <path d="M149.81,243.5C149.321,244.67 148.469,245.652 147.38,246.3C146.04,246.91 130.2,250.42 130.45,252.69C130.7,254.96 132.33,255.45 136.54,255.61C142.18,255.82 160.16,254.3 160.16,254.3L160.16,244.72L149.81,243.5Z" style="fill:white;fill-rule:nonzero;"/>
        <path d="M137.81,256.09L136.52,256.09C132.24,255.92 130.28,255.4 129.99,252.75C129.8,250.99 134.8,249.3 144.1,246.75C145.6,246.35 146.89,246 147.19,245.86C148.163,245.262 148.928,244.378 149.38,243.33C149.45,243.126 149.657,242.999 149.87,243.03L160.22,244.24C160.449,244.27 160.622,244.469 160.62,244.7L160.62,254.28C160.621,254.516 160.435,254.714 160.2,254.73C159.52,254.81 144.4,256.09 137.81,256.09ZM150.09,244C149.548,245.149 148.665,246.103 147.56,246.73C147.22,246.88 146.22,247.16 144.33,247.67C135.33,250.1 130.81,251.77 130.9,252.67C131.1,254.5 132.26,255.02 136.55,255.18C141.63,255.38 156.97,254.13 159.71,253.91L159.71,245.15L150.09,244Z" style="fill:rgb(35,31,32);fill-rule:nonzero;"/>
        <path d="M192.2,245.69C192.2,245.69 175.1,251.56 174.37,252.69C173.64,253.82 174.94,255.11 179.49,255.52C184.04,255.93 203.49,254.87 203.49,254.87C203.49,254.87 203.73,249.59 202.49,246.87C201.25,244.15 192.2,245.69 192.2,245.69Z" style="fill:white;fill-rule:nonzero;"/>
        <path d="M182.74,256.07C181.35,256.07 180.2,256.07 179.45,255.97C176.33,255.69 174.45,254.97 173.87,253.88C173.638,253.416 173.684,252.859 173.99,252.44C174.75,251.27 187.99,246.65 192.05,245.26L192.13,245.26C193.13,245.11 201.64,243.83 202.96,246.74C204.21,249.49 203.96,254.69 203.96,254.91C203.945,255.144 203.754,255.33 203.52,255.34C202.88,255.36 189.72,256.07 182.74,256.07ZM192.31,246.14C184.31,248.9 175.39,252.22 174.74,252.95C174.624,253.106 174.604,253.315 174.69,253.49C174.97,254.06 176.39,254.78 179.53,255.06C183.62,255.42 200.21,254.58 203.07,254.43C203.07,253.15 203.07,249.22 202.13,247.1C201.35,245.38 195.71,245.6 192.31,246.14Z" style="fill:rgb(35,31,32);fill-rule:nonzero;"/>
        <path d="M260.19,127.06L212.45,127.06C212.45,127.06 208.88,169.8 206.6,179.82C204.32,189.84 195.08,192.76 188.26,192.59C181.44,192.42 163.9,190.5 163.26,192.59C162.62,194.68 164.4,198.75 171.86,200.7C179.32,202.65 224.68,202.33 224.68,202.33C224.68,202.33 240.55,197.33 249.32,186.41C258.09,175.49 262.63,137.36 260.19,127.06Z" style="fill:white;fill-rule:nonzero;"/>
        <path d="M217.08,202.82C203.8,202.82 177.38,202.63 171.74,201.15C166.1,199.67 164.1,197.21 163.34,195.85C162.722,194.839 162.532,193.622 162.81,192.47C163.31,190.84 168.6,190.92 181.05,191.74C183.83,191.92 186.45,192.09 188.27,192.14C195.52,192.31 204.02,189.14 206.16,179.71C208.4,169.84 211.96,127.45 211.99,127.02C212.015,126.785 212.214,126.604 212.45,126.6L260.19,126.6C260.403,126.6 260.587,126.752 260.63,126.96C263.08,137.29 258.71,175.46 249.63,186.71C240.87,197.6 224.92,202.71 224.76,202.77C224.717,202.78 224.673,202.78 224.63,202.77C224.22,202.8 221.32,202.82 217.08,202.82ZM168.56,192.08C165.9,192.08 163.92,192.25 163.68,192.74C163.477,193.652 163.643,194.609 164.14,195.4C164.83,196.64 166.76,198.91 171.97,200.27C179.16,202.15 222.56,201.89 224.59,201.88C225.7,201.52 240.65,196.47 248.95,186.14C257.56,175.43 261.95,137.97 259.82,127.52L212.87,127.52C212.49,131.98 209.18,170.52 207.05,179.92C205.57,186.45 199.85,193.31 188.24,193.05C186.41,193.05 183.78,192.83 180.99,192.65C177.55,192.42 172.36,192.08 168.56,192.08Z" style="fill:rgb(35,31,32);fill-rule:nonzero;"/>
        <path d="M241,187.48C241,187.48 254.95,152.61 253.48,135.42C252.01,118.23 240.76,117.17 236.86,116.93C232.96,116.69 212.26,113.93 204.71,123.18C197.16,132.43 199.13,177 199.13,177L241,187.48Z" style="fill:rgb(255,146,159);fill-rule:nonzero;"/>
        <path d="M192.2,179.93C192.2,179.93 177.37,177.46 171.03,183.06C164.69,188.66 148.47,244 148.47,244C148.47,244 151.88,249.36 160.89,246.68L197.43,188.46C197.43,188.46 200.09,179.73 192.2,179.93Z" style="fill:rgb(35,31,32);fill-rule:nonzero;"/>
        <path d="M156.1,247.92C150.47,247.92 148.17,244.44 148.1,244.26C148.022,244.139 148,243.989 148.04,243.85C148.71,241.58 164.38,188.32 170.75,182.68C177.12,177.04 191.19,179.25 192.28,179.43C194.55,179.38 196.28,180.04 197.28,181.43C199.28,184.1 198.02,188.43 197.97,188.63C197.958,188.674 197.938,188.714 197.91,188.75L161.38,246.96C161.311,247.06 161.213,247.137 161.1,247.18C159.478,247.667 157.794,247.917 156.1,247.92ZM149.02,243.92C149.69,244.8 153.02,248.44 160.57,246.26L196.97,188.26C197.11,187.75 198.03,184.12 196.43,182.01C195.59,180.92 194.17,180.38 192.21,180.44L192.12,180.44C191.97,180.44 177.44,178.07 171.36,183.44C165.28,188.81 150.18,240 149,243.9L149.02,243.92Z" style="fill:rgb(35,31,32);fill-rule:nonzero;"/>
        <path d="M241,187.48C241,187.48 213.72,175.54 205.44,174.33C205.44,174.33 190.09,171.4 184,182.61C177.91,193.82 192.17,245.69 192.17,245.69C195.505,247.659 199.443,248.353 203.25,247.64L208,197C208,197 242,199.41 241,187.48Z" style="fill:rgb(35,31,32);fill-rule:nonzero;"/>
        <path d="M200.32,248.42C197.362,248.429 194.457,247.631 191.92,246.11C191.82,246.041 191.749,245.938 191.72,245.82C191.13,243.7 177.48,193.62 183.59,182.37C189.79,170.97 205.4,173.81 205.59,173.83C213.82,175.04 240.14,186.53 241.26,187.02C241.43,187.093 241.546,187.255 241.56,187.44C241.722,189.242 241.051,191.023 239.74,192.27C233.35,198.74 212.04,197.78 208.43,197.57L203.8,247.69C203.781,247.909 203.617,248.09 203.4,248.13C202.385,248.327 201.354,248.425 200.32,248.42ZM192.63,245.42C195.716,247.17 199.306,247.822 202.81,247.27L207.45,197C207.486,196.734 207.722,196.537 207.99,196.55C208.23,196.55 232.48,198.17 238.99,191.55C240.016,190.573 240.579,189.206 240.54,187.79C237.62,186.53 213.06,175.93 205.39,174.79C205.21,174.79 190.3,172.07 184.46,182.79C178.73,193.41 191.7,241.93 192.63,245.37L192.63,245.42Z" style="fill:rgb(35,31,32);fill-rule:nonzero;"/>
        <path d="M204.74,123.18C204.74,123.18 199.15,133.92 195.85,139.44C192.55,144.96 185.41,152.88 185.41,152.88C185.41,152.88 160.08,161.88 159.92,162.37C159.76,162.86 162.32,171.37 162.32,171.37C162.32,171.37 188.9,169.46 193.32,167.37C197.74,165.28 206.63,155.06 206.63,155.06L204.74,123.18Z" style="fill:rgb(255,146,159);fill-rule:nonzero;"/>
        <path d="M233.1,87.92C232.392,87.239 231.452,86.85 230.47,86.83C229.498,86.866 228.718,87.676 228.718,88.649C228.718,88.676 228.719,88.703 228.72,88.73C227.035,86.431 224.341,85.078 221.49,85.1C218.679,85.142 215.905,85.758 213.34,86.91C210.781,88.058 208.141,89.014 205.44,89.77C206.052,93.911 208.265,97.651 211.6,100.18C213.177,101.286 214.85,102.246 216.6,103.05L220.23,104.87C223.94,106.73 229.02,108.33 233.07,106.33C236.61,104.59 237.26,98.33 236.79,94.95C236.46,92.235 235.147,89.734 233.1,87.92Z" style="fill:white;fill-rule:nonzero;"/>
        <path d="M228.81,107.76C225.721,107.619 222.703,106.785 219.98,105.32L216.35,103.5C214.598,102.682 212.924,101.704 211.35,100.58C207.91,97.969 205.626,94.112 204.99,89.84C204.957,89.585 205.121,89.343 205.37,89.28C207.425,88.747 209.431,88.045 211.37,87.18C211.97,86.93 212.57,86.68 213.17,86.45C215.802,85.282 218.641,84.653 221.52,84.6C224.165,84.598 226.697,85.683 228.52,87.6C228.57,87.499 228.634,87.404 228.71,87.32C229.136,86.746 229.788,86.382 230.5,86.32C231.618,86.311 232.697,86.742 233.5,87.52C235.638,89.409 237.003,92.025 237.33,94.86C237.87,98.72 236.99,104.96 233.33,106.76C231.922,107.442 230.374,107.785 228.81,107.76ZM206,90.15C206.687,93.988 208.799,97.429 211.91,99.78C213.45,100.865 215.083,101.812 216.79,102.61L220.43,104.42C223.9,106.16 228.87,107.83 232.82,105.88C235.99,104.32 236.75,98.48 236.26,95.02C235.963,92.433 234.724,90.043 232.78,88.31C232.179,87.7 231.366,87.342 230.51,87.31C230.087,87.35 229.697,87.559 229.43,87.89C229.256,88.091 229.176,88.357 229.21,88.62C229.215,88.648 229.217,88.676 229.217,88.704C229.217,88.979 228.991,89.204 228.717,89.204C228.549,89.204 228.392,89.12 228.3,88.98C226.699,86.822 224.157,85.556 221.47,85.58C218.728,85.635 216.024,86.24 213.52,87.36C212.92,87.59 212.33,87.84 211.74,88.08C209.878,88.905 207.96,89.597 206,90.15Z" style="fill:rgb(35,31,32);fill-rule:nonzero;"/>
        <path d="M216.4,115.57L216.4,124.87C217.86,127.956 221.423,129.494 224.67,128.44C230.75,126.89 231.49,122.52 231.49,122.52L231.22,105.31C231.22,105.31 226.67,102.95 227.88,93.11C222.915,95.317 217.445,96.142 212.05,95.5C206.655,94.858 209.41,106.19 210.21,110.91C211.01,115.63 216.4,115.57 216.4,115.57Z" style="fill:white;fill-rule:nonzero;"/>
        <path d="M222.48,129.23C219.688,129.199 217.146,127.578 215.94,125.06C215.931,124.997 215.931,124.933 215.94,124.87L215.94,116C214.51,115.87 210.45,115.13 209.75,110.95C208.95,106.18 211.5,95.78 211.61,95.34C211.669,95.098 211.903,94.938 212.15,94.97C217.445,95.585 222.81,94.777 227.69,92.63C227.849,92.531 228.051,92.531 228.21,92.63C228.358,92.738 228.438,92.917 228.42,93.1C227.27,102.42 231.42,104.77 231.49,104.8C231.653,104.882 231.757,105.048 231.76,105.23L232.03,122.44C232.03,122.73 231.15,127.24 224.83,128.85C224.067,129.079 223.277,129.207 222.48,129.23ZM216.9,124.76C217.22,125.42 219.32,129.28 224.54,127.95C230.21,126.51 230.97,122.6 231,122.43L230.72,105.59C229.72,104.92 226.53,102.06 227.29,93.93C222.586,95.832 217.488,96.56 212.44,96.05C211.97,98.05 210.02,106.79 210.7,110.82C211.41,115.07 216.2,115.07 216.4,115.07C216.538,115.052 216.676,115.109 216.76,115.22C216.851,115.314 216.901,115.44 216.9,115.57L216.9,124.76Z" style="fill:rgb(35,31,32);fill-rule:nonzero;"/>
        <path d="M227.64,105.05C227.847,104.205 228.325,103.449 229,102.9C229.64,102.417 230.357,102.045 231.12,101.8C231.526,101.623 231.967,101.54 232.41,101.56C232.717,101.602 233.012,101.704 233.28,101.86C233.941,102.179 234.469,102.721 234.77,103.39C234.938,103.954 234.973,104.55 234.87,105.13C234.801,105.767 234.65,106.392 234.42,106.99C233.672,108.795 231.902,109.978 229.948,109.978C229.296,109.978 228.65,109.846 228.05,109.59" style="fill:white;fill-rule:nonzero;"/>
        <path d="M229.92,110.47C229.198,110.471 228.483,110.325 227.82,110.04C227.612,109.975 227.47,109.781 227.47,109.563C227.47,109.289 227.696,109.063 227.97,109.063C228.058,109.063 228.144,109.086 228.22,109.13C228.759,109.361 229.34,109.48 229.927,109.48C231.677,109.48 233.263,108.419 233.93,106.8C234.141,106.243 234.279,105.662 234.34,105.07C234.433,104.568 234.409,104.051 234.27,103.56C234.006,103.006 233.556,102.56 233,102.3C232.789,102.172 232.554,102.087 232.31,102.05C231.946,102.052 231.585,102.126 231.25,102.27C230.532,102.489 229.856,102.827 229.25,103.27C228.67,103.75 228.262,104.407 228.09,105.14C228.039,105.374 227.829,105.542 227.59,105.542C227.309,105.542 227.078,105.311 227.078,105.03C227.078,104.993 227.082,104.956 227.09,104.92C227.311,103.971 227.839,103.121 228.59,102.5C229.272,101.974 230.04,101.572 230.86,101.31C231.335,101.104 231.853,101.011 232.37,101.04C232.723,101.097 233.062,101.219 233.37,101.4C234.141,101.768 234.753,102.404 235.09,103.19C235.299,103.835 235.344,104.523 235.22,105.19C235.153,105.876 234.992,106.549 234.74,107.19C234.196,108.506 233.147,109.55 231.83,110.09C231.222,110.331 230.574,110.46 229.92,110.47Z" style="fill:rgb(35,31,32);fill-rule:nonzero;"/>
        <path d="M219.08,101.41C219.08,101.41 215.77,106.1 216.51,106.95C217.25,107.8 219.39,107.3 219.39,107.3" style="fill:white;fill-rule:nonzero;"/>
        <path d="M218.09,108C217.358,108.076 216.628,107.831 216.09,107.33C215.26,106.33 217.01,103.46 218.62,101.17C218.713,101.037 218.867,100.957 219.029,100.957C219.134,100.957 219.235,100.989 219.32,101.05C219.541,101.212 219.595,101.524 219.44,101.75C217.91,103.92 216.7,106.23 216.86,106.75C217.25,107.18 218.62,107.04 219.23,106.9C219.266,106.892 219.303,106.888 219.34,106.888C219.621,106.888 219.852,107.119 219.852,107.4C219.852,107.639 219.684,107.849 219.45,107.9C219.001,107.976 218.545,108.009 218.09,108Z" style="fill:rgb(35,31,32);fill-rule:nonzero;"/>
        <g transform="matrix(0.998103,-0.0615712,0.0615712,0.998103,-5.8,13.91)">
            <ellipse cx="222.94" cy="101.16" rx="0.79" ry="1.11" style="fill:rgb(35,31,32);"/>
        </g>
        <g transform="matrix(0.235142,-0.971961,0.971961,0.235142,66.59,286.68)">
            <ellipse cx="215.46" cy="101.03" rx="1.11" ry="0.79" style="fill:rgb(35,31,32);"/>
        </g>
        <path d="M219.57,112.78C216.98,112.736 214.465,111.894 212.37,110.37C212.249,110.275 212.178,110.129 212.178,109.975C212.178,109.7 212.405,109.473 212.68,109.473C212.792,109.473 212.902,109.511 212.99,109.58C213.078,109.649 218.05,113.45 223.72,110.86C223.786,110.829 223.857,110.813 223.93,110.813C224.125,110.813 224.303,110.93 224.38,111.11C224.492,111.36 224.379,111.657 224.13,111.77C222.701,112.432 221.145,112.776 219.57,112.78Z" style="fill:rgb(35,31,32);fill-rule:nonzero;"/>
        <path d="M212.67,106.65C211.442,106.646 210.245,106.266 209.24,105.56C207.661,104.435 206.722,102.612 206.722,100.674C206.722,97.785 208.808,95.286 211.65,94.77C214.879,94.217 217.995,96.405 218.57,99.63C219.129,102.862 216.939,105.985 213.71,106.56C213.366,106.619 213.019,106.649 212.67,106.65ZM212.67,95.65C212.379,95.648 212.087,95.672 211.8,95.72C209.43,96.149 207.69,98.232 207.69,100.64C207.69,102.26 208.478,103.783 209.8,104.72C212.038,106.281 215.162,105.736 216.74,103.51C217.321,102.673 217.632,101.678 217.632,100.66C217.632,97.931 215.398,95.681 212.67,95.66L212.67,95.65Z" style="fill:rgb(35,31,32);fill-rule:nonzero;"/>
        <path d="M224.17,106.2C224.158,106.2 224.146,106.2 224.134,106.2C220.843,106.2 218.134,103.492 218.134,100.2C218.134,96.909 220.843,94.2 224.134,94.2C227.426,94.2 230.134,96.909 230.134,100.2C230.134,103.102 228.029,105.609 225.17,106.11C224.84,106.168 224.505,106.198 224.17,106.2ZM224.17,95.2C223.879,95.199 223.588,95.222 223.3,95.27C221.097,95.836 219.544,97.838 219.544,100.113C219.544,102.856 221.801,105.113 224.544,105.113C224.703,105.113 224.862,105.105 225.02,105.09C227.705,104.61 229.527,102.018 229.07,99.33C228.647,96.963 226.574,95.221 224.17,95.21L224.17,95.2Z" style="fill:rgb(35,31,32);fill-rule:nonzero;"/>
        <path d="M216.4,115.57C216.4,115.57 222.19,116.91 225.6,114.96C225.6,114.96 221.83,122.76 216.4,121.96L216.4,115.57Z" style="fill:rgb(35,31,32);fill-rule:nonzero;"/>
        <path d="M217.21,122.5C216.916,122.5 216.622,122.48 216.33,122.44C216.085,122.401 215.902,122.188 215.9,121.94L215.9,115.57C215.899,115.418 215.97,115.273 216.09,115.18C216.213,115.088 216.369,115.052 216.52,115.08C216.671,115.108 222.15,116.35 225.35,114.53C225.426,114.486 225.512,114.463 225.599,114.463C225.874,114.463 226.099,114.689 226.099,114.963C226.099,115.038 226.082,115.112 226.05,115.18C225.89,115.49 222.44,122.5 217.21,122.5ZM216.9,121.5C220.4,121.7 223.18,118.03 224.43,116.02C221.964,116.636 219.391,116.694 216.9,116.19L216.9,121.5Z" style="fill:rgb(35,31,32);fill-rule:nonzero;"/>
        <path d="M217.18,195.78C217.18,195.78 219.31,201.85 224.67,202.34C230.03,202.83 249.36,201.87 255.67,183.58C263.12,161.87 265.42,130.73 262.49,128.05C259.56,125.37 257.78,128.29 257.78,135.05C257.78,140.18 254.2,166.43 251.94,177.68C248.6,194.09 224.5,197.51 217.18,195.78Z" style="fill:white;fill-rule:nonzero;"/>
        <path d="M227.08,202.9C226.2,202.9 225.38,202.9 224.62,202.79C219.04,202.28 216.84,196.19 216.75,195.94C216.692,195.782 216.726,195.604 216.84,195.48C216.947,195.352 217.119,195.297 217.28,195.34C222.28,196.52 234.1,195.26 242.44,189.9C247.44,186.71 250.44,182.56 251.44,177.56C253.68,166.44 257.28,140.2 257.28,135.02C257.28,131.74 257.7,127.65 259.7,126.77C260.61,126.37 261.63,126.69 262.7,127.71C265.93,130.71 263.47,161.97 256.01,183.71C250.82,199 236,202.9 227.08,202.9ZM217.94,196.4C218.7,197.99 220.83,201.53 224.71,201.88C224.94,201.88 248.23,203.78 255.21,183.43C262.69,161.65 264.79,130.8 262.15,128.38C261.33,127.63 260.63,127.38 260.09,127.6C258.91,128.12 258.21,130.89 258.21,135.02C258.21,140.23 254.6,166.59 252.36,177.74C251.3,182.99 248.13,187.34 242.93,190.67C234.83,195.87 223.48,197.3 217.94,196.4Z" style="fill:rgb(35,31,32);fill-rule:nonzero;"/>
        <path d="M247.91,121.13C252.63,121.97 271.79,166.25 265.23,171.31C255,179.2 219.39,171.22 219.39,171.22L222.29,157.49C222.29,157.49 245.19,158.12 245.51,153.42C245.83,148.72 232.2,127 234,123.71C235.8,120.42 247.91,121.13 247.91,121.13Z" style="fill:rgb(255,146,159);fill-rule:nonzero;"/>
        <path d="M184.59,209.41C184.389,209.406 184.209,209.285 184.13,209.1C179.32,197.54 185.13,180.52 185.38,179.8C185.437,179.58 185.637,179.424 185.864,179.424C186.139,179.424 186.364,179.65 186.364,179.924C186.364,179.995 186.349,180.065 186.32,180.13C186.26,180.3 180.39,197.51 185.05,208.72C185.076,208.781 185.09,208.847 185.09,208.914C185.09,209.115 184.967,209.296 184.78,209.37C184.719,209.394 184.655,209.407 184.59,209.41Z" style="fill:white;fill-rule:nonzero;"/>
        <path d="M236.72,175.84L236.63,175.84L225.51,173.93C225.278,173.888 225.106,173.686 225.1,173.45L224.74,160.13C224.733,159.87 224.931,159.646 225.19,159.62L245.19,157.56L236.39,127.21C236.377,127.164 236.371,127.117 236.371,127.07C236.371,126.785 236.605,126.551 236.89,126.551C237.122,126.551 237.327,126.706 237.39,126.93L246.39,157.85C246.429,157.993 246.403,158.147 246.32,158.27C246.24,158.395 246.107,158.476 245.96,158.49L225.8,160.57L226.14,173.01L236.85,174.85C237.119,174.9 237.302,175.159 237.26,175.43C237.219,175.688 236.979,175.87 236.72,175.84Z" style="fill:rgb(35,31,32);fill-rule:nonzero;"/>
        <path d="M224.75,162.09C220.948,162.322 217.132,162.138 213.37,161.54C210.586,160.855 207.727,160.519 204.86,160.54C201.075,160.719 197.351,161.565 193.86,163.04C193.718,163.092 193.591,163.178 193.49,163.29C193.16,163.76 193.96,164.22 194.49,164.23C196,164.269 197.507,164.081 198.96,163.67C195.358,165.003 191.951,166.812 188.83,169.05C188.48,169.3 188.09,169.71 188.26,170.11C188.43,170.51 189.16,170.44 189.63,170.23L197.81,166.48C195.69,167.325 193.726,168.518 192,170.01C191.75,170.23 191.49,170.52 191.56,170.84C191.68,171.39 192.49,171.28 193,171.03C195.491,169.791 197.87,168.339 200.11,166.69L195.05,170.56C194.99,170.97 195.43,171.32 195.84,171.34C196.26,171.314 196.665,171.172 197.01,170.93L202.64,167.67L199.13,170.14C198.58,170.52 197.95,171.14 198.22,171.76C198.49,172.38 199.62,172.27 200.34,171.94C203.245,170.682 206.28,169.75 209.39,169.16C210.475,168.797 211.6,168.569 212.74,168.48C214.484,168.697 216.204,169.072 217.88,169.6C220.43,170.17 222.97,170.76 225.52,171.35" style="fill:white;fill-rule:nonzero;"/>
        <path d="M199.18,172.73C198.968,172.733 198.758,172.696 198.56,172.62C198.255,172.504 198.01,172.269 197.88,171.97C197.761,171.668 197.761,171.332 197.88,171.03L197.34,171.34C196.925,171.629 196.435,171.792 195.93,171.81C195.545,171.803 195.181,171.632 194.93,171.34C194.785,171.171 194.694,170.962 194.67,170.74C194.21,170.99 193.75,171.23 193.28,171.46C192.793,171.725 192.216,171.776 191.69,171.6C191.431,171.474 191.246,171.233 191.19,170.95C191.145,170.577 191.283,170.204 191.56,169.95L189.9,170.71C189.457,170.941 188.943,170.998 188.46,170.87C188.221,170.776 188.028,170.593 187.92,170.36C187.69,169.83 187.92,169.25 188.65,168.75C190.786,167.211 193.059,165.872 195.44,164.75L194.55,164.75C193.961,164.743 193.411,164.448 193.08,163.96C192.937,163.681 192.964,163.343 193.15,163.09C193.295,162.904 193.489,162.762 193.71,162.68C197.24,161.182 201.009,160.322 204.84,160.14C207.387,160.083 209.93,160.348 212.41,160.93L213.41,161.13C217.143,161.716 220.928,161.897 224.7,161.67C224.947,161.669 225.154,161.864 225.17,162.11C225.17,162.117 225.17,162.124 225.17,162.13C225.17,162.375 224.975,162.58 224.73,162.59C220.891,162.811 217.039,162.62 213.24,162.02L212.24,161.83C209.829,161.264 207.356,161.002 204.88,161.05C201.159,161.229 197.499,162.065 194.07,163.52C194.009,163.545 193.952,163.579 193.9,163.62C194.108,163.742 194.34,163.817 194.58,163.84C196.046,163.877 197.51,163.692 198.92,163.29C199.153,163.224 199.4,163.352 199.48,163.58C199.549,163.815 199.427,164.068 199.2,164.16C195.644,165.479 192.281,167.268 189.2,169.48C188.85,169.73 188.76,169.93 188.78,169.98C189.035,170.043 189.304,170.004 189.53,169.87L195.87,166.97C196.48,166.66 197.1,166.37 197.75,166.11C197.787,166.101 197.825,166.096 197.863,166.096C198.115,166.096 198.323,166.304 198.323,166.556C198.323,166.717 198.238,166.867 198.1,166.95L196.27,167.79C194.881,168.511 193.582,169.394 192.4,170.42C192.08,170.69 192.1,170.8 192.1,170.8C192.372,170.866 192.659,170.823 192.9,170.68C195.354,169.452 197.696,168.014 199.9,166.38C199.971,166.338 200.051,166.317 200.133,166.317C200.385,166.317 200.593,166.524 200.593,166.777C200.593,166.903 200.541,167.023 200.45,167.11L195.62,170.81C195.701,170.889 195.807,170.935 195.92,170.94C196.255,170.917 196.575,170.795 196.84,170.59L202.48,167.34C202.55,167.297 202.63,167.274 202.711,167.274C202.867,167.274 203.011,167.356 203.09,167.49C203.22,167.695 203.167,167.969 202.97,168.11L199.45,170.57C199,170.89 198.56,171.34 198.7,171.64C198.725,171.721 198.789,171.785 198.87,171.81C199.333,171.889 199.809,171.808 200.22,171.58C203.153,170.307 206.219,169.365 209.36,168.77C209.72,168.69 210.08,168.59 210.44,168.49C211.207,168.229 212.01,168.091 212.82,168.08C214.064,168.18 215.293,168.425 216.48,168.81C217.01,168.95 217.54,169.1 218.04,169.21C220.59,169.79 223.14,170.37 225.68,170.97C225.886,171.015 226.034,171.199 226.034,171.41C226.034,171.447 226.029,171.484 226.02,171.52C225.957,171.76 225.713,171.911 225.47,171.86C222.93,171.26 220.38,170.68 217.84,170.1C217.32,169.99 216.78,169.84 216.24,169.69C215.12,169.329 213.963,169.097 212.79,169C212.075,169.017 211.367,169.142 210.69,169.37C210.31,169.48 209.93,169.58 209.54,169.66C206.463,170.243 203.461,171.169 200.59,172.42C200.144,172.613 199.666,172.719 199.18,172.73Z" style="fill:rgb(35,31,32);fill-rule:nonzero;"/>
        <path d="M209.55,128.73C209.55,128.73 205.36,145.83 201.55,157.98" style="fill:white;fill-rule:nonzero;"/>
        <path d="M201.59,158.44L201.45,158.44C201.26,158.383 201.128,158.207 201.128,158.009C201.128,157.962 201.136,157.915 201.15,157.87C204.88,145.87 209.06,128.81 209.15,128.64C209.2,128.439 209.383,128.296 209.59,128.296C209.839,128.296 210.044,128.501 210.044,128.75C210.044,128.787 210.039,128.824 210.03,128.86C210.03,129.03 205.8,146.11 202.03,158.14C201.962,158.323 201.785,158.444 201.59,158.44Z" style="fill:rgb(35,31,32);fill-rule:nonzero;"/>
        <path d="M198.64,174.94L161.64,174.94C160.916,173.763 161.203,172.211 162.3,171.37L197.89,171.37L198.64,174.94Z" style="fill:white;fill-rule:nonzero;"/>
        <path d="M198.64,175.39L161.64,175.39C161.48,175.393 161.33,175.309 161.25,175.17C160.378,173.805 160.707,171.976 162,171C162.081,170.941 162.179,170.909 162.28,170.91L197.87,170.91C198.086,170.906 198.277,171.058 198.32,171.27L199.04,174.83C199.073,174.964 199.039,175.105 198.95,175.21C198.875,175.309 198.763,175.374 198.64,175.39ZM161.94,174.48L198.08,174.48L197.54,171.83L162.48,171.83C161.71,172.479 161.486,173.581 161.94,174.48Z" style="fill:rgb(35,31,32);fill-rule:nonzero;"/>
        <path d="M211.68,173.66C211.68,173.66 198.84,170.5 197.83,171.51C196.82,172.52 197.16,174.8 198.64,174.94C200.12,175.08 200.45,173.12 200.45,173.12L211.68,175.34L211.68,173.66Z" style="fill:white;fill-rule:nonzero;"/>
        <path d="M211.68,175.79L211.59,175.79L200.79,173.65C200.578,174.679 199.651,175.416 198.6,175.39C197.836,175.292 197.203,174.742 197,174C196.63,173.022 196.839,171.915 197.54,171.14C198.54,170.14 206.93,171.97 211.82,173.14C212.022,173.195 212.163,173.381 212.16,173.59L212.16,175.27C212.158,175.404 212.1,175.531 212,175.62C211.921,175.718 211.805,175.78 211.68,175.79ZM200.45,172.67L200.54,172.67L211.22,174.78L211.22,174C205.32,172.56 198.9,171.37 198.13,171.83C197.716,172.363 197.599,173.072 197.82,173.71C197.938,174.104 198.274,174.397 198.68,174.46C199.68,174.56 200,173.04 200,173.02C200.021,172.901 200.09,172.797 200.19,172.73C200.268,172.682 200.359,172.661 200.45,172.67Z" style="fill:rgb(35,31,32);fill-rule:nonzero;"/>
        <path d="M116.92,255.19L109.19,255.19L118.89,180.06L132.73,180.06L116.92,255.19Z" style="fill:white;fill-rule:nonzero;"/>
        <path d="M116.92,255.65L109.19,255.65C109.056,255.65 108.928,255.592 108.84,255.49C108.76,255.388 108.72,255.259 108.73,255.13L118.44,180C118.465,179.772 118.661,179.599 118.89,179.6L132.73,179.6C132.867,179.598 132.997,179.661 133.08,179.77C133.17,179.875 133.207,180.015 133.18,180.15L117.37,255.28C117.324,255.492 117.137,255.646 116.92,255.65ZM109.7,254.73L116.55,254.73L132.17,180.52L119.29,180.52L109.7,254.73Z" style="fill:rgb(35,31,32);fill-rule:nonzero;"/>
        <path d="M275.17,255.19L282.91,255.19L273.2,180.06L259.36,180.06L275.17,255.19Z" style="fill:white;fill-rule:nonzero;"/>
        <path d="M282.91,255.65L275.17,255.65C274.954,255.649 274.768,255.492 274.73,255.28L258.91,180.15C258.888,180.015 258.924,179.877 259.01,179.77C259.093,179.661 259.223,179.598 259.36,179.6L273.2,179.6C273.429,179.599 273.625,179.772 273.65,180L283.36,255.13C283.379,255.26 283.339,255.393 283.25,255.49C283.165,255.589 283.041,255.648 282.91,255.65ZM275.54,254.73L282.39,254.73L272.8,180.52L259.92,180.52L275.54,254.73Z" style="fill:rgb(35,31,32);fill-rule:nonzero;"/>
        <rect x="241.74" y="213.4" width="31.62" height="5.68" style="fill:white;"/>
        <path d="M273.37,219.54L241.74,219.54C241.49,219.535 241.285,219.33 241.28,219.08L241.28,213.4C241.285,213.15 241.49,212.945 241.74,212.94L273.37,212.94C273.619,212.945 273.82,213.151 273.82,213.4L273.82,219.08C273.82,219.329 273.619,219.535 273.37,219.54ZM242.2,218.62L272.91,218.62L272.91,213.86L242.2,213.86L242.2,218.62Z" style="fill:rgb(35,31,32);fill-rule:nonzero;"/>
        <path d="M245.78,255.19L253.51,255.19L243.81,180.06L229.97,180.06L245.78,255.19Z" style="fill:white;fill-rule:nonzero;"/>
        <path d="M253.51,255.65L245.78,255.65C245.562,255.649 245.373,255.494 245.33,255.28L229.52,180.15C229.495,180.016 229.528,179.878 229.61,179.77C229.698,179.662 229.831,179.599 229.97,179.6L243.81,179.6C244.039,179.599 244.235,179.772 244.26,180L254,255.13C254.01,255.259 253.97,255.388 253.89,255.49C253.796,255.6 253.655,255.66 253.51,255.65ZM246.15,254.73L253,254.73L243.42,180.52L230.53,180.52L246.15,254.73Z" style="fill:rgb(35,31,32);fill-rule:nonzero;"/>
        <g transform="matrix(-1,7.65714e-16,-7.65714e-16,-1,210.29,432.48)">
            <rect x="89.33" y="213.4" width="31.62" height="5.68" style="fill:white;"/>
        </g>
        <path d="M121,219.54L89.33,219.54C89.081,219.535 88.88,219.329 88.88,219.08L88.88,213.4C88.88,213.151 89.081,212.945 89.33,212.94L121,212.94C121.249,212.945 121.45,213.151 121.45,213.4L121.45,219.08C121.45,219.329 121.249,219.535 121,219.54ZM89.83,218.62L120.5,218.62L120.5,213.86L89.79,213.86L89.83,218.62Z" style="fill:rgb(35,31,32);fill-rule:nonzero;"/>
        <path d="M87.53,255.19L79.79,255.19L89.5,180.06L103.34,180.06L87.53,255.19Z" style="fill:white;fill-rule:nonzero;"/>
        <path d="M87.53,255.65L79.79,255.65C79.659,255.648 79.535,255.589 79.45,255.49C79.361,255.393 79.321,255.26 79.34,255.13L89,180C89.03,179.771 89.229,179.598 89.46,179.6L103.3,179.6C103.437,179.598 103.567,179.661 103.65,179.77C103.736,179.877 103.772,180.015 103.75,180.15L88,255.28C87.96,255.504 87.757,255.664 87.53,255.65ZM80.31,254.73L87.16,254.73L102.78,180.52L89.9,180.52L80.31,254.73Z" style="fill:rgb(35,31,32);fill-rule:nonzero;"/>
        <g transform="matrix(-1,7.65714e-16,-7.65714e-16,-1,262.02,260.64)">
            <rect x="88.05" y="98.87" width="85.91" height="62.89" style="fill:white;"/>
        </g>
        <path d="M174,162.22L88.05,162.22C88.05,162.22 88.05,162.22 88.05,162.22C87.803,162.22 87.6,162.017 87.6,161.77C87.6,161.767 87.6,161.763 87.6,161.76L87.6,98.87C87.6,98.623 87.803,98.42 88.05,98.42L174,98.42C174.249,98.42 174.455,98.621 174.46,98.87L174.46,161.76C174.46,162.012 174.252,162.22 174,162.22ZM88.54,161.31L173.54,161.31L173.54,99.31L88.54,99.31L88.54,161.31Z" style="fill:rgb(35,31,32);fill-rule:nonzero;"/>
        <path d="M139.6,135.42L139.6,161.76L125.86,161.76L139.6,135.42Z" style="fill:rgb(35,31,32);fill-rule:nonzero;"/>
        <path d="M139.6,162.22L125.86,162.22C125.7,162.223 125.55,162.139 125.47,162C125.39,161.861 125.39,161.689 125.47,161.55L139.2,135.2C139.282,135.056 139.435,134.967 139.6,134.967C139.85,134.967 140.056,135.17 140.06,135.42L140.06,161.76C140.06,161.763 140.06,161.767 140.06,161.77C140.06,162.017 139.857,162.22 139.61,162.22C139.607,162.22 139.603,162.22 139.6,162.22ZM126.6,161.31L139.14,161.31L139.14,137.31L126.6,161.31Z" style="fill:rgb(35,31,32);fill-rule:nonzero;"/>
        <path d="M121.85,135.42L139.6,135.42L129.87,173.22L147.72,173.22C148.301,173.22 148.78,173.699 148.78,174.28C148.78,174.861 148.301,175.34 147.72,175.34L113.52,175.34C112.746,175.34 112.11,174.704 112.11,173.93L112.11,173.22L121.85,135.42Z" style="fill:white;fill-rule:nonzero;"/>
        <path d="M147.72,175.79L113.52,175.79C112.498,175.79 111.655,174.952 111.65,173.93L111.65,173.22C111.645,173.18 111.645,173.14 111.65,173.1L121.39,135.3C121.441,135.099 121.623,134.958 121.83,134.96L139.6,134.96C139.742,134.957 139.877,135.024 139.96,135.14C140.049,135.249 140.083,135.393 140.05,135.53L130.46,172.76L147.72,172.76C147.801,172.747 147.883,172.74 147.966,172.74C148.8,172.74 149.486,173.426 149.486,174.26C149.486,175.094 148.8,175.78 147.966,175.78C147.883,175.78 147.801,175.773 147.72,175.76L147.72,175.79ZM112.57,173.28L112.57,173.93C112.597,174.46 113.04,174.881 113.57,174.88L147.77,174.88C148.099,174.88 148.37,174.609 148.37,174.28C148.37,173.951 148.099,173.68 147.77,173.68L129.87,173.68C129.728,173.68 129.595,173.613 129.51,173.5C129.422,173.387 129.389,173.24 129.42,173.1L139,135.87L122.2,135.87L112.57,173.28Z" style="fill:rgb(35,31,32);fill-rule:nonzero;"/>
        <g transform="matrix(-1,7.65714e-16,-7.65714e-16,-1,335.88,312.3)">
            <path d="M168.53,154.829C168.53,154.548 168.302,154.32 168.021,154.32L167.869,154.32C167.588,154.32 167.36,154.548 167.36,154.829L167.36,157.481C167.36,157.762 167.588,157.99 167.869,157.99L168.021,157.99C168.302,157.99 168.53,157.762 168.53,157.481L168.53,154.829Z" style="fill:rgb(35,31,32);"/>
        </g>
        <path d="M167.94,158.44C167.391,158.44 166.94,157.989 166.94,157.44L166.94,154.94C166.94,154.369 167.409,153.9 167.98,153.9C168.551,153.9 169.02,154.369 169.02,154.94L169.02,157.44C169.02,157.441 169.02,157.442 169.02,157.443C169.02,157.992 168.569,158.443 168.02,158.443C167.993,158.443 167.967,158.442 167.94,158.44ZM167.94,154.77C167.869,154.77 167.81,154.829 167.81,154.9L167.81,157.4C167.81,157.54 168.07,157.54 168.07,157.4L168.07,154.9C168.07,154.829 168.011,154.77 167.94,154.77Z" style="fill:rgb(35,31,32);fill-rule:nonzero;"/>
        <g transform="matrix(-1,-7.65714e-16,7.65714e-16,-1,329.78,312.3)">
            <path d="M165.47,154.829C165.47,154.548 165.242,154.32 164.961,154.32L164.809,154.32C164.528,154.32 164.3,154.548 164.3,154.829L164.3,157.481C164.3,157.762 164.528,157.99 164.809,157.99L164.961,157.99C165.242,157.99 165.47,157.762 165.47,157.481L165.47,154.829Z" style="fill:rgb(35,31,32);"/>
        </g>
        <path d="M164.89,158.44C164.341,158.44 163.89,157.989 163.89,157.44L163.89,154.94C163.89,154.369 164.359,153.9 164.93,153.9C165.501,153.9 165.97,154.369 165.97,154.94L165.97,157.44C165.97,157.441 165.97,157.442 165.97,157.443C165.97,157.992 165.519,158.443 164.97,158.443C164.943,158.443 164.917,158.442 164.89,158.44ZM164.89,154.77C164.819,154.77 164.76,154.829 164.76,154.9L164.76,157.4C164.76,157.54 165.02,157.54 165.02,157.4L165.02,154.9C165.02,154.829 164.961,154.77 164.89,154.77Z" style="fill:rgb(35,31,32);fill-rule:nonzero;"/>
        <g transform="matrix(-1,-7.65714e-16,7.65714e-16,-1,323.67,312.3)">
            <path d="M162.42,154.829C162.42,154.548 162.192,154.32 161.911,154.32L161.759,154.32C161.478,154.32 161.25,154.548 161.25,154.829L161.25,157.481C161.25,157.762 161.478,157.99 161.759,157.99L161.911,157.99C162.192,157.99 162.42,157.762 162.42,157.481L162.42,154.829Z" style="fill:rgb(35,31,32);"/>
        </g>
        <path d="M161.83,158.44C161.281,158.44 160.83,157.989 160.83,157.44L160.83,154.94C160.83,154.367 161.302,153.895 161.875,153.895C162.448,153.895 162.92,154.367 162.92,154.94L162.92,157.44C162.92,157.441 162.92,157.443 162.92,157.444C162.92,157.993 162.469,158.444 161.92,158.444C161.89,158.444 161.86,158.443 161.83,158.44ZM161.83,154.77C161.83,154.77 161.83,154.77 161.83,154.77C161.764,154.77 161.71,154.824 161.71,154.89C161.71,154.893 161.71,154.897 161.71,154.9L161.71,157.4C161.71,157.54 161.96,157.54 161.96,157.4L161.96,154.9C161.96,154.829 161.901,154.77 161.83,154.77Z" style="fill:rgb(35,31,32);fill-rule:nonzero;"/>
        <g transform="matrix(-1,7.65714e-16,-7.65714e-16,-1,317.56,312.3)">
            <path d="M159.37,154.829C159.37,154.548 159.142,154.32 158.861,154.32L158.709,154.32C158.428,154.32 158.2,154.548 158.2,154.829L158.2,157.481C158.2,157.762 158.428,157.99 158.709,157.99L158.861,157.99C159.142,157.99 159.37,157.762 159.37,157.481L159.37,154.829Z" style="fill:rgb(35,31,32);"/>
        </g>
        <path d="M158.78,158.44C158.231,158.44 157.78,157.989 157.78,157.44L157.78,154.94C157.78,154.369 158.249,153.9 158.82,153.9C159.391,153.9 159.86,154.369 159.86,154.94L159.86,157.44C159.86,157.441 159.86,157.442 159.86,157.443C159.86,157.992 159.409,158.443 158.86,158.443C158.833,158.443 158.807,158.442 158.78,158.44ZM158.78,154.77C158.78,154.77 158.78,154.77 158.78,154.77C158.714,154.77 158.66,154.824 158.66,154.89C158.66,154.893 158.66,154.897 158.66,154.9L158.66,157.4C158.66,157.54 158.91,157.54 158.91,157.4L158.91,154.9C158.91,154.829 158.851,154.77 158.78,154.77Z" style="fill:rgb(35,31,32);fill-rule:nonzero;"/>
        <g transform="matrix(-1,-7.65714e-16,7.65714e-16,-1,311.46,312.3)">
            <path d="M156.32,154.829C156.32,154.548 156.092,154.32 155.811,154.32L155.659,154.32C155.378,154.32 155.15,154.548 155.15,154.829L155.15,157.481C155.15,157.762 155.378,157.99 155.659,157.99L155.811,157.99C156.092,157.99 156.32,157.762 156.32,157.481L156.32,154.829Z" style="fill:rgb(35,31,32);"/>
        </g>
        <path d="M155.73,158.44C155.181,158.44 154.73,157.989 154.73,157.44L154.73,154.94C154.73,154.369 155.199,153.9 155.77,153.9C156.341,153.9 156.81,154.369 156.81,154.94L156.81,157.44C156.81,157.441 156.81,157.442 156.81,157.443C156.81,157.992 156.359,158.443 155.81,158.443C155.783,158.443 155.757,158.442 155.73,158.44ZM155.73,154.77C155.659,154.77 155.6,154.829 155.6,154.9L155.6,157.4C155.6,157.54 155.86,157.54 155.86,157.4L155.86,154.9C155.86,154.829 155.801,154.77 155.73,154.77Z" style="fill:rgb(35,31,32);fill-rule:nonzero;"/>
        <g transform="matrix(-1,7.65714e-16,-7.65714e-16,-1,305.35,312.3)">
            <path d="M153.26,154.829C153.26,154.548 153.032,154.32 152.751,154.32L152.599,154.32C152.318,154.32 152.09,154.548 152.09,154.829L152.09,157.481C152.09,157.762 152.318,157.99 152.599,157.99L152.751,157.99C153.032,157.99 153.26,157.762 153.26,157.481L153.26,154.829Z" style="fill:rgb(35,31,32);"/>
        </g>
        <path d="M152.68,158.44C152.131,158.44 151.68,157.989 151.68,157.44L151.68,154.94C151.68,154.369 152.149,153.9 152.72,153.9C153.291,153.9 153.76,154.369 153.76,154.94L153.76,157.44C153.76,157.441 153.76,157.442 153.76,157.443C153.76,157.992 153.309,158.443 152.76,158.443C152.733,158.443 152.707,158.442 152.68,158.44ZM152.68,154.77C152.609,154.77 152.55,154.829 152.55,154.9L152.55,157.4C152.55,157.54 152.8,157.54 152.8,157.4L152.8,154.9C152.8,154.897 152.8,154.893 152.8,154.89C152.8,154.824 152.746,154.77 152.68,154.77C152.68,154.77 152.68,154.77 152.68,154.77Z" style="fill:rgb(35,31,32);fill-rule:nonzero;"/>
        <rect x="78.38" y="175.34" width="209.15" height="7.72" style="fill:white;"/>
        <path d="M287.52,183.52L78.38,183.52C78.128,183.52 77.92,183.312 77.92,183.06L77.92,175.34C77.92,175.337 77.92,175.333 77.92,175.33C77.92,175.083 78.123,174.88 78.37,174.88C78.373,174.88 78.377,174.88 78.38,174.88L287.52,174.88C287.523,174.88 287.527,174.88 287.53,174.88C287.777,174.88 287.98,175.083 287.98,175.33C287.98,175.333 287.98,175.337 287.98,175.34L287.98,183.06C287.98,183.312 287.772,183.52 287.52,183.52ZM78.83,182.6L287.07,182.6L287.07,175.79L78.83,175.79L78.83,182.6Z" style="fill:rgb(35,31,32);fill-rule:nonzero;"/>
        <circle cx="123.98" cy="67.66" r="18.11" style="fill:white;"/>
        <path d="M124,86.27C113.791,86.27 105.39,77.869 105.39,67.66C105.39,57.451 113.791,49.05 124,49.05C134.209,49.05 142.61,57.451 142.61,67.66C142.599,77.865 134.205,86.259 124,86.27ZM124,50.05C114.339,50.05 106.39,57.999 106.39,67.66C106.39,77.321 114.339,85.27 124,85.27C133.661,85.27 141.61,77.321 141.61,67.66C141.599,58.004 133.656,50.061 124,50.05Z" style="fill:rgb(209,211,212);fill-rule:nonzero;"/>
        <path d="M124,68.16C123.93,68.169 123.86,68.169 123.79,68.16C123.611,68.077 123.498,67.897 123.5,67.7L123.5,55.77C123.5,55.496 123.726,55.27 124,55.27C124.272,55.275 124.495,55.498 124.5,55.77L124.5,66.52L129.17,62.22C129.264,62.119 129.397,62.062 129.535,62.062C129.809,62.062 130.035,62.287 130.035,62.562C130.035,62.712 129.967,62.855 129.85,62.95L124.31,68C124.229,68.088 124.119,68.145 124,68.16Z" style="fill:rgb(209,211,212);fill-rule:nonzero;"/>
    </g>
</svg>
