<?xml version="1.0" encoding="UTF-8" standalone="no"?>
<!DOCTYPE svg PUBLIC "-//W3C//DTD SVG 1.1//EN" "http://www.w3.org/Graphics/SVG/1.1/DTD/svg11.dtd">
<svg width="100%" height="100%" viewBox="0 0 289 285" version="1.1" xmlns="http://www.w3.org/2000/svg" xmlns:xlink="http://www.w3.org/1999/xlink" xml:space="preserve" xmlns:serif="http://www.serif.com/" style="fill-rule:evenodd;clip-rule:evenodd;stroke-linejoin:round;stroke-miterlimit:1.41421;">
    <rect id="Artboard1" x="0" y="0" width="288.618" height="284.379" style="fill:none;"/>
    <g transform="matrix(0.964467,0,0,0.964467,-48.3434,-2.25759)">
        <rect x="135.62" y="43.61" width="186.65" height="181.17" style="fill:white;"/>
        <path d="M322.27,43.61L322.27,224.79L135.62,224.79L135.62,43.61L322.27,43.61M322.27,42.7L135.62,42.7C135.121,42.7 134.71,43.111 134.71,43.61L134.71,224.79C134.71,225.289 135.121,225.7 135.62,225.7L322.27,225.7C322.769,225.7 323.18,225.289 323.18,224.79L323.18,43.61C323.18,43.111 322.769,42.7 322.27,42.7Z" style="fill:rgb(35,31,32);fill-rule:nonzero;"/>
        <path d="M233.37,67.26C233.37,66.636 232.864,66.13 232.24,66.13L189.83,66.13C189.206,66.13 188.7,66.636 188.7,67.26L188.7,68.27C188.7,68.894 189.206,69.4 189.83,69.4L232.24,69.4C232.864,69.4 233.37,68.894 233.37,68.27L233.37,67.26Z" style="fill:rgb(209,211,212);"/>
        <rect x="190.1" y="81.61" width="16.72" height="18.83" style="fill:rgb(209,211,212);"/>
        <path d="M299.52,85.475C299.52,84.115 298.415,83.01 297.055,83.01L217.145,83.01C215.785,83.01 214.68,84.115 214.68,85.475C214.68,86.835 215.785,87.94 217.145,87.94L297.055,87.94C298.415,87.94 299.52,86.835 299.52,85.475Z" style="fill:rgb(209,211,212);"/>
        <path d="M274.23,94.895C274.23,93.535 273.125,92.43 271.765,92.43L217.145,92.43C215.785,92.43 214.68,93.535 214.68,94.895C214.68,96.255 215.785,97.36 217.145,97.36L271.765,97.36C273.125,97.36 274.23,96.255 274.23,94.895Z" style="fill:rgb(209,211,212);"/>
        <rect x="190.1" y="160.03" width="16.72" height="18.83" style="fill:rgb(209,211,212);"/>
        <path d="M299.52,163.905C299.52,162.545 298.415,161.44 297.055,161.44L217.145,161.44C215.785,161.44 214.68,162.545 214.68,163.905C214.68,165.265 215.785,166.37 217.145,166.37L297.055,166.37C298.415,166.37 299.52,165.265 299.52,163.905Z" style="fill:rgb(209,211,212);"/>
        <path d="M274.23,173.315C274.23,171.955 273.125,170.85 271.765,170.85L217.145,170.85C215.785,170.85 214.68,171.955 214.68,173.315C214.68,174.675 215.785,175.78 217.145,175.78L271.765,175.78C273.125,175.78 274.23,174.675 274.23,173.315Z" style="fill:rgb(209,211,212);"/>
        <rect x="190.1" y="189.24" width="16.72" height="18.83" style="fill:rgb(209,211,212);"/>
        <path d="M299.52,193.115C299.52,191.755 298.415,190.65 297.055,190.65L217.145,190.65C215.785,190.65 214.68,191.755 214.68,193.115C214.68,194.475 215.785,195.58 217.145,195.58L297.055,195.58C298.415,195.58 299.52,194.475 299.52,193.115Z" style="fill:rgb(209,211,212);"/>
        <path d="M274.23,202.525C274.23,201.165 273.125,200.06 271.765,200.06L217.145,200.06C215.785,200.06 214.68,201.165 214.68,202.525C214.68,203.885 215.785,204.99 217.145,204.99L271.765,204.99C273.125,204.99 274.23,203.885 274.23,202.525Z" style="fill:rgb(209,211,212);"/>
        <circle cx="143.16" cy="49.96" r="2" style="fill:rgb(255,146,159);"/>
        <circle cx="150.16" cy="49.96" r="2" style="fill:rgb(209,211,212);"/>
        <circle cx="157.16" cy="49.96" r="2" style="fill:rgb(209,211,212);"/>
        <rect x="174.82" y="56.32" width="1" height="168.47" style="fill:rgb(209,211,212);"/>
        <rect x="135.62" y="55.82" width="186.65" height="1" style="fill:rgb(209,211,212);"/>
        <path d="M348.45,245.82L67.12,245.82C66.846,245.82 66.62,245.594 66.62,245.32C66.62,245.046 66.846,244.82 67.12,244.82L348.45,244.82C348.724,244.82 348.95,245.046 348.95,245.32C348.945,245.592 348.722,245.815 348.45,245.82Z" style="fill:rgb(209,211,212);fill-rule:nonzero;"/>
        <path d="M317.89,193.28C318.021,191.433 317.629,189.585 316.76,187.95C315.901,186.867 315.1,185.738 314.36,184.57C313.36,182.4 314.06,179.86 313.82,177.48C313.615,175.485 312.736,173.619 311.33,172.19C310.08,170.93 308.48,170.07 307.33,168.76C305.33,166.6 304.82,163.58 303.72,160.89C302.143,157.099 299.419,153.895 295.93,151.73C298.05,156 293.21,161.43 295.4,165.67C296.1,167.02 297.4,168 297.94,169.42C299.17,172.86 295.07,176.59 296.38,179.99C297.03,181.7 298.86,182.68 299.71,184.3C300.85,186.48 299.95,189.12 300.05,191.58C300.17,194.97 302.24,198 304.69,200.35C306.22,201.81 307.92,203.08 309.57,204.4C311.57,205.98 312.37,207.64 314.11,205.1C316.487,201.609 317.801,197.502 317.89,193.28Z" style="fill:rgb(35,31,32);fill-rule:nonzero;"/>
        <path d="M320.09,195.22C319.46,192.6 319.01,189.75 320.09,187.28C321.3,184.48 324.32,182.5 324.67,179.47C324.9,177.47 323.89,175.47 324.29,173.47C324.69,171.47 326.29,170.18 327.61,168.73C330.645,165.391 332.452,161.114 332.73,156.61C334.769,159.024 336.416,161.744 337.61,164.67C338.61,167.67 338.67,171.16 336.9,173.77C336.393,174.374 335.975,175.047 335.66,175.77C335.07,177.7 336.72,179.5 337.57,181.33C338.649,183.48 338.428,186.064 337,188C335.27,190.16 331.92,191 331.07,193.64C330.858,194.626 330.758,195.632 330.77,196.64C330.403,200.196 327.897,203.186 324.46,204.17C322.41,204.66 322.46,203.85 322.08,202.17C321.54,199.78 320.65,197.54 320.09,195.22Z" style="fill:rgb(35,31,32);fill-rule:nonzero;"/>
        <path d="M313.56,176.35C312.11,171.35 311.56,166.04 309.99,161.03C308.68,157.109 307.085,153.289 305.22,149.6L311.47,152.24C313.47,153.08 315.64,154.08 316.59,156.04C318.24,159.45 315.28,163.82 317.01,167.19C317.759,168.284 318.584,169.323 319.48,170.3C321.32,172.89 321.04,176.44 320.03,179.45C319.6,180.74 317.7,187.45 316.03,185.58C315.35,184.83 315.29,182.06 315.03,181.04C314.55,179.47 314,177.92 313.56,176.35Z" style="fill:rgb(35,31,32);fill-rule:nonzero;"/>
        <path d="M317,243.32C315.75,235.08 311.85,206.04 311.81,205.75L312.81,205.61C312.81,205.9 316.75,234.94 318,243.17L317,243.32Z" style="fill:rgb(35,31,32);fill-rule:nonzero;"/>
        <path d="M318.41,251.1L317.41,251.1C317.48,241.32 321.55,203.95 323.9,201.38L324.64,202.06C323.08,203.76 318.5,237.7 318.41,251.1Z" style="fill:rgb(35,31,32);fill-rule:nonzero;"/>
        <path d="M320.53,249.24L319.53,249.19C320.46,228.1 315.99,183.79 315.94,183.35L316.94,183.25C317,183.69 321.46,228.07 320.53,249.24Z" style="fill:rgb(35,31,32);fill-rule:nonzero;"/>
        <path d="M306.27,219.71L329.54,219.71L327.91,246.15C327.63,250.72 324.24,254.27 320.16,254.27L315.65,254.27C311.57,254.27 308.18,250.72 307.9,246.15L306.27,219.71Z" style="fill:white;fill-rule:nonzero;"/>
        <path d="M320.16,254.79L315.65,254.79C311.31,254.79 307.65,251 307.38,246.18L305.75,219.74C305.74,219.599 305.791,219.461 305.89,219.36C305.99,219.258 306.127,219.2 306.27,219.2L329.54,219.2C329.683,219.2 329.82,219.258 329.92,219.36C330.019,219.461 330.07,219.599 330.06,219.74L328.43,246.18C328.13,251 324.5,254.79 320.16,254.79ZM306.82,220.23L308.41,246.12C308.67,250.4 311.86,253.75 315.65,253.75L320.16,253.75C323.95,253.75 327.16,250.4 327.4,246.12L329,220.23L306.82,220.23Z" style="fill:rgb(35,31,32);fill-rule:nonzero;"/>
        <path d="M123,237.7C122.86,238.58 123.74,248.85 123.74,248.85C123.74,248.85 136.3,251.01 136.37,250.18C136.44,249.35 140.17,245.52 140.17,245.52L135.11,243.16L134.66,230.76L123,237.7Z" style="fill:white;fill-rule:nonzero;"/>
        <path d="M135.36,250.8C131.437,250.536 127.533,250.035 123.67,249.3C123.464,249.261 123.309,249.089 123.29,248.88C123.2,247.88 122.4,238.54 122.55,237.63C122.569,237.497 122.646,237.38 122.76,237.31L134.43,230.37C134.569,230.29 134.741,230.29 134.88,230.37C135.019,230.452 135.109,230.598 135.12,230.76L135.55,242.87L140.37,245.12C140.504,245.18 140.599,245.305 140.62,245.45C140.646,245.595 140.602,245.744 140.5,245.85C138.81,247.59 136.92,249.76 136.82,250.24C136.804,250.392 136.724,250.53 136.6,250.62C136.209,250.785 135.782,250.847 135.36,250.8ZM124.17,248.46C129.33,249.33 134.93,250.07 135.98,249.89C136.941,248.344 138.09,246.924 139.4,245.66L134.91,243.57C134.756,243.496 134.655,243.341 134.65,243.17L134.23,231.55L123.44,238C123.42,239.2 123.85,244.76 124.17,248.46Z" style="fill:rgb(35,31,32);fill-rule:nonzero;"/>
        <path d="M84.94,238.59L83.11,251.27L91.43,251.27L96.3,237.7L84.94,238.59Z" style="fill:white;fill-rule:nonzero;"/>
        <path d="M91.43,251.73L83.11,251.73C82.976,251.728 82.849,251.67 82.76,251.57C82.678,251.469 82.642,251.339 82.66,251.21L84.49,238.52C84.521,238.312 84.691,238.151 84.9,238.13L96.26,237.24C96.415,237.228 96.566,237.296 96.66,237.42C96.756,237.542 96.782,237.704 96.73,237.85L91.86,251.43C91.793,251.609 91.621,251.729 91.43,251.73ZM83.64,250.82L91.11,250.82L95.63,238.21L85.34,239.01L83.64,250.82Z" style="fill:rgb(35,31,32);fill-rule:nonzero;"/>
        <path d="M112.75,66.54C112.468,66.504 112.184,66.487 111.9,66.49C110.558,66.781 109.251,67.214 108,67.78C106,66.38 103.23,66.64 100.92,67.47C95.18,69.47 92.03,74.47 89.2,79.56C87.93,81.85 86.08,84.28 85.14,86.68C83.71,90.3 83.55,93.41 81.02,96.68C78.63,99.79 75.68,102.42 73.11,105.39C69.63,109.39 66.81,114.22 66.11,119.5C64.59,130.8 75.38,141.91 86.35,141.08C97.32,140.25 109.2,137.42 115.9,128.67C123.3,119.02 124.03,104.3 122.9,92.67C122.28,86.58 122.44,80.08 119.83,74.41C118.832,72.008 117.484,69.767 115.83,67.76C114.972,67.015 113.885,66.585 112.75,66.54Z" style="fill:white;fill-rule:nonzero;"/>
        <path d="M85.24,141.61C79.893,141.435 74.838,139.1 71.24,135.14C67.134,131.019 65.103,125.255 65.72,119.47C66.37,114.66 68.72,109.83 72.84,105.12C73.84,103.9 75.03,102.72 76.13,101.57C77.757,99.942 79.292,98.227 80.73,96.43C82.098,94.495 83.073,92.31 83.6,90C83.93,88.9 84.26,87.76 84.73,86.57C85.452,84.918 86.322,83.335 87.33,81.84C87.87,80.99 88.33,80.19 88.82,79.39C91.65,74.32 94.89,69.2 100.82,67.09C102.48,66.49 105.6,65.75 108.08,67.3C109.314,66.759 110.592,66.325 111.9,66L112.8,66C114.028,66.1 115.191,66.599 116.11,67.42C117.831,69.446 119.215,71.735 120.21,74.2C122.28,78.68 122.64,83.67 122.99,88.5C123.09,89.88 123.19,91.25 123.33,92.61C124.24,101.54 124.54,118.14 116.33,128.9C110.68,136.28 100.9,140.39 86.45,141.49C86,141.59 85.63,141.61 85.24,141.61ZM104.56,67.24C103.378,67.263 102.208,67.486 101.1,67.9C95.5,69.9 92.36,74.9 89.62,79.79C89.16,80.61 88.62,81.46 88.11,82.28C87.134,83.726 86.288,85.255 85.58,86.85C85.12,88.01 84.8,89.12 84.48,90.2C83.918,92.65 82.871,94.962 81.4,97C79.95,98.833 78.394,100.579 76.74,102.23C75.65,103.36 74.52,104.53 73.48,105.74C69.48,110.31 67.2,114.98 66.58,119.61C65.995,125.122 67.938,130.613 71.86,134.53C75.86,138.76 81.28,141.06 86.34,140.67C100.52,139.6 110.08,135.6 115.56,128.45C123.62,117.93 123.31,101.6 122.42,92.8C122.28,91.44 122.18,90.05 122.08,88.67C121.73,83.92 121.38,79.01 119.38,74.67C118.422,72.305 117.099,70.105 115.46,68.15C114.689,67.478 113.72,67.075 112.7,67L111.9,67C110.695,67.302 109.512,67.686 108.36,68.15C108.206,68.319 107.949,68.349 107.76,68.22C106.821,67.57 105.702,67.228 104.56,67.24Z" style="fill:rgb(35,31,32);fill-rule:nonzero;"/>
        <path d="M129.06,144.27L120.59,99.83L96.22,101.77L96.3,139.87L129.06,144.27Z" style="fill:white;fill-rule:nonzero;"/>
        <path d="M129.06,144.72L129,144.72L96.24,140.32C96.012,140.295 95.839,140.099 95.84,139.87L95.76,101.77C95.764,101.536 95.947,101.34 96.18,101.32L120.55,99.38C120.783,99.36 120.995,99.521 121.04,99.75L129.5,144.18C129.529,144.323 129.488,144.472 129.39,144.58C129.303,144.668 129.184,144.719 129.06,144.72ZM96.76,139.47L128.49,143.73L120.22,100.32L96.67,102.2L96.76,139.47Z" style="fill:rgb(35,31,32);fill-rule:nonzero;"/>
        <path d="M96.3,139.87C96.3,139.87 86.07,212.08 83.11,239.23L96.22,241.29C96.22,241.29 105.16,203.55 113.62,179.12L121.75,241.29L136.37,239.4L131.84,139.87L96.3,139.87Z" style="fill:rgb(35,31,32);fill-rule:nonzero;"/>
        <path d="M75.72,122.58L90.6,126.9L88.41,164L105.41,163.5L102,104.05L115.86,103.5C115.86,104.03 120.27,152.43 121.7,163.97L138.27,158.91L131.48,124.66L140.78,119.9C140.78,119.9 135,97 115.84,98.11C98.15,99.11 104.33,99.11 104.68,99.11C104.33,99.11 90.68,99.17 84.39,107.58C80.854,112.178 77.939,117.221 75.72,122.58Z" style="fill:rgb(255,146,159);fill-rule:nonzero;"/>
        <path d="M113.86,95.64L115.45,104.25C115.45,104.25 115.54,109.25 110,108.84C106.682,108.56 103.66,106.799 101.78,104.05C101.187,100.497 100.6,96.943 100.02,93.39C99.37,89.45 98.29,85.31 98.08,81.32C102.24,82.65 107.37,77.4 108.68,73.99C109.345,76.135 108.84,78.479 107.35,80.16C109.699,79.329 111.524,77.437 112.27,75.06C113.495,76.003 114.645,77.04 115.71,78.16C116.622,79.459 117.324,80.893 117.79,82.41C118.6,85.07 119.29,89.06 117.94,91.64C116.19,95 113.86,95.64 113.86,95.64Z" style="fill:white;fill-rule:nonzero;"/>
        <path d="M110.64,109.32L109.96,109.32C106.495,109.041 103.338,107.199 101.39,104.32C101.36,104.268 101.339,104.21 101.33,104.15L99.57,93.47C99.36,92.22 99.12,90.96 98.87,89.69C98.261,86.939 97.846,84.149 97.63,81.34C97.622,81.191 97.69,81.048 97.81,80.96C97.926,80.869 98.079,80.84 98.22,80.88C102.06,82.12 107.02,77.04 108.22,73.82C108.288,73.642 108.459,73.523 108.65,73.523C108.841,73.523 109.012,73.642 109.08,73.82C109.62,75.532 109.469,77.388 108.66,78.99C110.157,78.041 111.271,76.592 111.8,74.9C111.853,74.73 111.995,74.603 112.17,74.57C112.76,74.47 116.02,77.83 116.05,77.86C116.993,79.199 117.716,80.682 118.19,82.25C118.76,84.11 119.91,88.76 118.32,91.82C117.495,93.599 116.082,95.04 114.32,95.9C114.63,97.57 115.84,104.14 115.84,104.14C115.852,105.572 115.299,106.953 114.3,107.98C113.3,108.883 111.987,109.364 110.64,109.32ZM102.22,103.88C104.028,106.461 106.891,108.11 110.03,108.38C111.346,108.595 112.693,108.23 113.72,107.38C114.519,106.548 114.973,105.443 114.99,104.29C115.007,103.137 113.43,95.84 113.41,95.76C113.365,95.526 113.51,95.293 113.74,95.23C113.97,95.167 115.92,94.57 117.54,91.46C118.97,88.7 117.88,84.33 117.35,82.58C116.908,81.109 116.233,79.717 115.35,78.46C115.15,78.2 113.35,76.52 112.51,75.81C111.616,78.058 109.791,79.814 107.51,80.62C107.314,80.694 107.09,80.618 106.98,80.44C106.85,80.277 106.85,80.043 106.98,79.88C108.066,78.665 108.605,77.054 108.47,75.43C106.64,78.63 102.38,82.61 98.55,81.94C98.792,84.494 99.186,87.032 99.73,89.54C99.98,90.82 100.23,92.1 100.44,93.35L102.22,103.88Z" style="fill:rgb(35,31,32);fill-rule:nonzero;"/>
        <path d="M100.37,87.24C100.113,86.627 99.659,86.117 99.08,85.79C98.529,85.505 97.934,85.316 97.32,85.23C96.991,85.157 96.649,85.157 96.32,85.23C96.09,85.3 95.879,85.42 95.7,85.58C95.237,85.907 94.907,86.39 94.77,86.94C94.709,87.39 94.764,87.848 94.93,88.27C95.061,88.747 95.256,89.205 95.51,89.63C96.197,90.704 97.386,91.355 98.661,91.355C99.385,91.355 100.093,91.145 100.7,90.75" style="fill:white;fill-rule:nonzero;"/>
        <path d="M98.64,91.74C97.234,91.741 95.921,91.019 95.17,89.83C94.893,89.377 94.678,88.89 94.53,88.38C94.359,87.889 94.304,87.365 94.37,86.85C94.519,86.207 94.9,85.641 95.44,85.26C95.661,85.069 95.92,84.926 96.2,84.84C96.588,84.75 96.992,84.75 97.38,84.84C98.042,84.933 98.685,85.136 99.28,85.44C99.933,85.812 100.446,86.388 100.74,87.08C100.762,87.13 100.774,87.184 100.774,87.238C100.774,87.397 100.677,87.541 100.53,87.6C100.479,87.623 100.424,87.635 100.368,87.635C100.213,87.635 100.072,87.543 100.01,87.4C99.778,86.867 99.382,86.422 98.88,86.13C98.369,85.871 97.818,85.702 97.25,85.63C96.977,85.566 96.693,85.566 96.42,85.63C96.239,85.689 96.073,85.784 95.93,85.91C95.552,86.173 95.277,86.558 95.15,87C95.106,87.39 95.158,87.784 95.3,88.15C95.419,88.59 95.601,89.011 95.84,89.4C96.334,90.159 97.112,90.689 98,90.87C98.869,91.054 99.776,90.884 100.52,90.4C100.707,90.282 100.958,90.336 101.08,90.52C101.197,90.704 101.143,90.951 100.96,91.07C100.27,91.518 99.462,91.751 98.64,91.74Z" style="fill:rgb(35,31,32);fill-rule:nonzero;"/>
        <path d="M114.34,99.06C114.34,99.06 110.99,100.74 108.27,98.86C106.733,97.911 105.687,96.335 105.41,94.55C105.133,92.765 110.49,97.09 113.87,95.82L114.34,99.06Z" style="fill:rgb(35,31,32);fill-rule:nonzero;"/>
        <path d="M111.27,100.2C110.11,100.21 108.974,99.86 108.02,99.2C106.386,98.172 105.287,96.472 105.02,94.56C105.01,94.403 105.087,94.254 105.22,94.17C105.355,94.089 105.525,94.089 105.66,94.17C105.795,94.251 110.6,96.6 113.76,95.41C113.881,95.355 114.019,95.355 114.14,95.41C114.258,95.472 114.34,95.588 114.36,95.72L114.82,98.97C114.85,99.156 114.757,99.342 114.59,99.43C113.552,99.922 112.419,100.185 111.27,100.2ZM106,95.31C106.459,96.617 107.338,97.735 108.5,98.49C110.5,99.9 113,99.12 113.83,98.79L113.49,96.39C110.85,97.1 107.53,95.94 106,95.31Z" style="fill:rgb(35,31,32);fill-rule:nonzero;"/>
        <path d="M112.64,81.88C112.64,81.88 116.25,85.47 115.74,86.32C115.23,87.17 113.28,87.07 113.28,87.07" style="fill:white;fill-rule:nonzero;"/>
        <path d="M113.51,87.52L113.25,87.52C113.021,87.51 112.839,87.319 112.839,87.09C112.839,87.08 112.839,87.07 112.84,87.06C112.84,87.059 112.84,87.059 112.84,87.058C112.84,86.828 113.03,86.638 113.26,86.638C113.273,86.638 113.287,86.639 113.3,86.64C113.85,86.64 115.07,86.58 115.36,86.11C115.36,85.7 114,83.87 112.36,82.21C112.19,82.036 112.19,81.754 112.36,81.58C112.53,81.411 112.81,81.411 112.98,81.58C114.74,83.33 116.72,85.58 116.14,86.58C115.56,87.58 114.12,87.52 113.51,87.52Z" style="fill:rgb(35,31,32);fill-rule:nonzero;"/>
        <g transform="matrix(0.916433,-0.400189,0.400189,0.916433,-24.2,50.2)">
            <ellipse cx="108.06" cy="83.03" rx="0.7" ry="0.99" style="fill:rgb(35,31,32);"/>
        </g>
        <g transform="matrix(0.916433,-0.400189,0.400189,0.916433,-23.01,53.14)">
            <ellipse cx="115.7" cy="81.66" rx="0.7" ry="0.99" style="fill:rgb(35,31,32);"/>
        </g>
        <path d="M117.05,88.48C117.05,88.48 115.29,92.67 110.2,90" style="fill:white;fill-rule:nonzero;"/>
        <path d="M113.33,91.33C112.16,91.292 111.017,90.97 110,90.39C109.855,90.314 109.764,90.163 109.764,90C109.764,89.758 109.963,89.559 110.205,89.559C110.276,89.559 110.347,89.577 110.41,89.61C111.638,90.395 113.144,90.624 114.55,90.24C115.463,89.881 116.21,89.192 116.64,88.31C116.702,88.134 116.869,88.016 117.055,88.016C117.296,88.016 117.495,88.215 117.495,88.456C117.495,88.523 117.48,88.59 117.45,88.65C116.935,89.763 116.005,90.632 114.86,91.07C114.37,91.248 113.852,91.336 113.33,91.33Z" style="fill:rgb(35,31,32);fill-rule:nonzero;"/>
        <path d="M130.08,124.85C130.08,124.85 141.3,156.13 149.08,152.46C152.45,150.87 168.4,126.08 168.94,125.57C170.03,124.51 171.62,124.64 172.64,123.57C173.156,122.97 173.577,122.296 173.89,121.57C174.44,120.5 174.95,119.07 174.13,118.19C173.96,118.02 173.74,117.85 173.75,117.61C173.76,117.37 173.98,117.24 174.18,117.12L175.53,116.34C175.84,116.16 176.2,115.86 176.11,115.52C176.02,115.18 175.47,115.11 175.11,115.19C171.29,115.97 166.81,118.46 163.52,120.42C163.715,119.399 163.845,118.367 163.91,117.33C163.91,116.52 163.77,115.47 162.97,115.33C162.17,115.19 161.64,116.04 161.34,116.77C159.79,120.47 158.83,123.37 156.4,126.59C153.97,129.81 151.4,133.17 148.9,136.45C147.6,136.24 140.81,119.84 140.81,119.84" style="fill:white;fill-rule:nonzero;"/>
        <path d="M147.74,153.22C147.179,153.212 146.625,153.093 146.11,152.87C138.6,149.76 130,126 129.65,125C129.57,124.761 129.694,124.499 129.93,124.41C130.166,124.33 130.426,124.456 130.51,124.69C130.6,124.93 139.32,149.06 146.51,152.02C147.274,152.375 148.156,152.375 148.92,152.02C151.42,150.84 161.79,135.36 166.22,128.76C168.06,126 168.51,125.34 168.65,125.21C169.229,124.705 169.912,124.333 170.65,124.12C171.273,123.96 171.848,123.655 172.33,123.23C172.807,122.68 173.201,122.063 173.5,121.4C174.2,120.03 174.3,119.06 173.8,118.54L173.73,118.46C173.493,118.27 173.354,117.983 173.354,117.679C173.354,117.28 173.593,116.917 173.96,116.76L175.31,115.97C175.59,115.81 175.67,115.69 175.68,115.66C175.515,115.623 175.345,115.623 175.18,115.66C171.47,116.41 167.11,118.82 163.73,120.83C163.582,120.929 163.388,120.929 163.24,120.83C163.094,120.731 163.019,120.554 163.05,120.38C163.239,119.389 163.369,118.387 163.44,117.38C163.44,116.86 163.37,115.94 162.86,115.85C162.35,115.76 161.86,116.72 161.74,117.02C161.48,117.62 161.25,118.2 161.02,118.77C159.984,121.676 158.547,124.422 156.75,126.93C154.257,130.263 151.753,133.553 149.24,136.8C149.136,136.933 148.967,136.999 148.8,136.97C147.46,136.75 142.94,126.3 140.37,120.09C140.345,120.033 140.332,119.972 140.332,119.91C140.332,119.724 140.447,119.557 140.62,119.49C140.676,119.465 140.736,119.453 140.797,119.453C140.981,119.453 141.146,119.568 141.21,119.74C144.15,126.84 147.63,134.43 148.8,135.87C151.21,132.72 153.63,129.56 156.02,126.38C157.769,123.92 159.166,121.227 160.17,118.38L160.89,116.62C161.42,115.36 162.18,114.75 163.03,114.91C164.09,115.11 164.41,116.32 164.35,117.39C164.307,118.12 164.227,118.848 164.11,119.57C167.41,117.63 171.46,115.5 175,114.78C175.79,114.62 176.4,114.88 176.56,115.43C176.64,115.72 176.64,116.27 175.77,116.77L174.42,117.56C174.342,117.598 174.271,117.649 174.21,117.71C174.149,117.771 174.32,117.77 174.37,117.82L174.47,117.92C175.66,119.18 174.64,121.17 174.31,121.82C173.981,122.576 173.54,123.277 173,123.9C172.433,124.427 171.747,124.808 171,125.01C170.374,125.176 169.793,125.48 169.3,125.9C169.17,126.05 168.16,127.55 166.99,129.3C159.24,140.87 151.73,151.74 149.33,152.88C148.832,153.111 148.289,153.227 147.74,153.22Z" style="fill:rgb(35,31,32);fill-rule:nonzero;"/>
        <path d="M89.12,152.03L91.04,110.62" style="fill:none;fill-rule:nonzero;"/>
        <path d="M89.12,152.49C88.87,152.474 88.674,152.261 88.68,152.01L90.6,110.6C90.629,110.356 90.834,110.168 91.08,110.16C91.33,110.176 91.526,110.389 91.52,110.64L89.6,152.05C89.584,152.3 89.371,152.496 89.12,152.49Z" style="fill:rgb(35,31,32);fill-rule:nonzero;"/>
        <path d="M127.92,118.6L124.47,110.62" style="fill:none;fill-rule:nonzero;"/>
        <path d="M127.92,119.06C127.739,119.054 127.576,118.945 127.5,118.78L124.05,110.78C123.953,110.55 124.061,110.28 124.29,110.18C124.348,110.154 124.41,110.141 124.474,110.141C124.656,110.141 124.821,110.251 124.89,110.42L128.34,118.42C128.366,118.478 128.379,118.54 128.379,118.604C128.379,118.786 128.269,118.951 128.1,119.02C128.043,119.044 127.982,119.057 127.92,119.06Z" style="fill:rgb(35,31,32);fill-rule:nonzero;"/>
        <path d="M92.94,245.81C92.94,245.81 85.48,241.68 82.33,245.81C80.368,248.585 79.181,251.834 78.89,255.22C78.599,258.606 94.59,257.84 94.71,255.22C94.83,252.6 92.94,245.81 92.94,245.81Z" style="fill:rgb(35,31,32);fill-rule:nonzero;"/>
        <path d="M280.9,109.224C280.9,106.048 278.322,103.47 275.146,103.47L170.424,103.47C167.248,103.47 164.67,106.048 164.67,109.224L164.67,134.866C164.67,138.042 167.248,140.62 170.424,140.62L275.146,140.62C278.322,140.62 280.9,138.042 280.9,134.866L280.9,109.224Z" style="fill:white;"/>
        <path d="M275.34,141.08L170.22,141.08C166.928,141.08 164.22,138.372 164.22,135.08L164.22,109C164.22,105.708 166.928,103 170.22,103L275.34,103C278.632,103 281.34,105.708 281.34,109L281.34,135C281.34,135.027 281.341,135.053 281.341,135.08C281.341,138.372 278.632,141.08 275.341,141.08C275.34,141.08 275.34,141.08 275.34,141.08ZM170.22,103.93C167.424,103.935 165.125,106.234 165.12,109.03L165.12,135.03C165.125,137.826 167.424,140.125 170.22,140.13L275.34,140.13C278.136,140.125 280.435,137.826 280.44,135.03L280.44,109C280.435,106.204 278.136,103.905 275.34,103.9L170.22,103.93Z" style="fill:rgb(35,31,32);fill-rule:nonzero;"/>
        <rect x="174.09" y="112.63" width="16.72" height="18.83" style="fill:rgb(255,146,159);"/>
        <path d="M260.82,117.345C260.82,115.985 259.715,114.88 258.355,114.88L203.735,114.88C202.375,114.88 201.27,115.985 201.27,117.345C201.27,118.705 202.375,119.81 203.735,119.81L258.355,119.81C259.715,119.81 260.82,118.705 260.82,117.345Z" style="fill:rgb(209,211,212);"/>
        <path d="M243.07,126.755C243.07,125.395 241.965,124.29 240.605,124.29L203.735,124.29C202.375,124.29 201.27,125.395 201.27,126.755C201.27,128.115 202.375,129.22 203.735,129.22L240.605,129.22C241.965,129.22 243.07,128.115 243.07,126.755Z" style="fill:rgb(209,211,212);"/>
        <g transform="matrix(0.965473,-0.260505,0.260505,0.965473,-46.11,30.24)">
            <path d="M127.83,174.502C127.83,172.299 126.041,170.51 123.838,170.51L58.242,170.51C56.039,170.51 54.25,172.299 54.25,174.502L54.25,203.668C54.25,205.871 56.039,207.66 58.242,207.66L123.838,207.66C126.041,207.66 127.83,205.871 127.83,203.668L127.83,174.502Z" style="fill:white;"/>
        </g>
        <path d="M63.07,216.19C61.134,216.178 59.43,214.868 58.92,213L51.25,184.57C50.634,182.3 51.984,179.923 54.25,179.29L117.85,162.13C120.12,161.514 122.497,162.864 123.13,165.13L130.8,193.56C131.422,195.831 130.069,198.212 127.8,198.84L64.2,216C63.833,216.112 63.453,216.176 63.07,216.19ZM119,162.89C118.703,162.891 118.407,162.931 118.12,163.01L54.52,180.17C53.045,180.567 52.012,181.915 52.012,183.443C52.012,183.743 52.052,184.041 52.13,184.33L59.8,212.76C60.028,213.631 60.598,214.374 61.38,214.82C62.161,215.269 63.089,215.391 63.96,215.16L127.56,198C128.431,197.765 129.172,197.193 129.62,196.41C130.07,195.633 130.189,194.706 129.95,193.84L122.28,165.4C121.88,163.924 120.53,162.891 119,162.89Z" style="fill:rgb(35,31,32);fill-rule:nonzero;"/>
        <g transform="matrix(0.965473,-0.260505,0.260505,0.965473,-48.22,25.71)">
            <rect x="64.54" y="185.38" width="16.72" height="18.83" style="fill:rgb(209,211,212);"/>
        </g>
        <g transform="matrix(0.965473,-0.260505,0.260505,0.965473,-43.71,32.43)">
            <path d="M117.15,181.125C117.15,179.765 116.045,178.66 114.685,178.66L86.325,178.66C84.965,178.66 83.86,179.765 83.86,181.125C83.86,182.485 84.965,183.59 86.325,183.59L114.685,183.59C116.045,183.59 117.15,182.485 117.15,181.125Z" style="fill:rgb(209,211,212);"/>
        </g>
        <g transform="matrix(0.965473,-0.260505,0.260505,0.965473,-46.33,32.57)">
            <path d="M113.01,190.839C113.01,189.614 112.016,188.62 110.791,188.62L88.649,188.62C87.424,188.62 86.43,189.614 86.43,190.839L86.43,191.331C86.43,192.556 87.424,193.55 88.649,193.55L110.791,193.55C112.016,193.55 113.01,192.556 113.01,191.331L113.01,190.839Z" style="fill:rgb(209,211,212);"/>
        </g>
        <path d="M75.72,122.58C75.72,122.58 64.86,148.58 65.98,151.58C67.1,154.58 78.3,173.28 78.3,173.28C78.3,173.28 81.6,183.49 86.05,181.12C88.92,179.6 87.41,170.82 87.41,170.82L90.69,169.94C90.69,169.94 85.3,167.71 84.69,166.64C84.08,165.57 78.29,149.64 78.29,149.64L88.23,126.18" style="fill:white;fill-rule:nonzero;"/>
        <path d="M84.71,181.94C84.288,181.934 83.871,181.849 83.48,181.69C80.25,180.38 78.1,174.15 77.88,173.47C77.14,172.24 66.67,154.71 65.56,151.75C64.45,148.79 74.18,125.09 75.3,122.41C75.396,122.177 75.667,122.064 75.9,122.16C76.129,122.26 76.24,122.527 76.15,122.76C71.81,133.15 65.64,149.35 66.41,151.43C67.51,154.35 78.58,172.86 78.69,173.05C78.694,173.08 78.694,173.11 78.69,173.14C78.69,173.21 80.83,179.65 83.78,180.84C84.428,181.115 85.169,181.071 85.78,180.72C87.89,179.6 87.3,173.25 86.9,170.9C86.865,170.67 87.007,170.447 87.23,170.38L89.23,169.84C87.51,169.08 84.72,167.74 84.23,166.84C83.62,165.75 78.04,150.47 77.8,149.84C77.756,149.731 77.756,149.609 77.8,149.5L87.82,126C87.902,125.857 88.054,125.769 88.219,125.769C88.472,125.769 88.679,125.976 88.679,126.229C88.679,126.273 88.673,126.317 88.66,126.36L78.79,149.65C80.44,154.18 84.63,165.54 85.1,166.38C85.43,166.96 88.29,168.38 90.86,169.48C91.045,169.55 91.163,169.733 91.15,169.93C91.133,170.123 90.997,170.287 90.81,170.34L87.93,171.12C88.22,173.05 89.06,180 86.27,181.49C85.794,181.765 85.259,181.919 84.71,181.94Z" style="fill:rgb(35,31,32);fill-rule:nonzero;"/>
        <path d="M138.5,242.47L134.55,247.59L121.63,245L121.08,251.73C121.08,251.73 148.54,257.39 149.66,254.36C150.78,251.33 138.5,242.47 138.5,242.47Z" style="fill:rgb(35,31,32);fill-rule:nonzero;"/>
    </g>
</svg>
