<?xml version="1.0" encoding="UTF-8" standalone="no"?>
<!DOCTYPE svg PUBLIC "-//W3C//DTD SVG 1.1//EN" "http://www.w3.org/Graphics/SVG/1.1/DTD/svg11.dtd">
<svg width="100%" height="100%" viewBox="0 0 289 285" version="1.1" xmlns="http://www.w3.org/2000/svg" xmlns:xlink="http://www.w3.org/1999/xlink" xml:space="preserve" xmlns:serif="http://www.serif.com/" style="fill-rule:evenodd;clip-rule:evenodd;stroke-linejoin:round;stroke-miterlimit:1.41421;">
    <g transform="matrix(1.27024,0,0,1.27024,-109.55,-47.9956)">
        <path d="M288.75,48.44L287.58,56.74L260.76,245.83L130.39,245.83L157.21,56.74L158.39,48.44C159.291,42.873 164.063,38.692 169.7,38.53L280.25,38.53C280.329,38.528 280.408,38.527 280.487,38.527C285.096,38.527 288.887,42.319 288.887,46.927C288.887,47.434 288.841,47.941 288.75,48.44Z" style="fill:white;fill-rule:nonzero;"/>
        <path d="M260.76,246.33L130.39,246.33C130.245,246.331 130.106,246.269 130.01,246.16C129.916,246.049 129.872,245.904 129.89,245.76L157.89,48.37C158.828,42.552 163.81,38.178 169.7,38L280.25,38C282.89,37.933 285.43,39.031 287.19,41C288.937,43.055 289.691,45.779 289.25,48.44L288.08,56.74L261.25,245.9C261.216,246.144 261.006,246.327 260.76,246.33ZM130.96,245.33L260.32,245.33L288.26,48.33C288.659,45.958 287.993,43.527 286.44,41.69C284.877,39.922 282.609,38.932 280.25,38.99L169.7,38.99C164.31,39.153 159.75,43.149 158.88,48.47L157.71,56.77L130.96,245.33Z" style="fill:rgb(35,31,32);fill-rule:nonzero;"/>
        <path d="M214.2,136.64L157,136.64C156.856,136.634 156.72,136.573 156.62,136.47C156.529,136.358 156.49,136.213 156.51,136.07L165,76.61C165.039,76.365 165.252,76.182 165.5,76.18L222.68,76.18C222.682,76.18 222.683,76.18 222.685,76.18C222.959,76.18 223.185,76.406 223.185,76.68C223.185,76.703 223.183,76.727 223.18,76.75L214.75,136.21C214.709,136.475 214.467,136.664 214.2,136.64ZM157.59,135.64L213.77,135.64L222.06,77.18L165.88,77.18L157.59,135.64Z" style="fill:rgb(209,211,212);fill-rule:nonzero;"/>
        <path d="M268.52,77.18L238,77.18C237.726,77.18 237.5,76.954 237.5,76.68C237.5,76.406 237.726,76.18 238,76.18L268.53,76.18C268.804,76.18 269.03,76.406 269.03,76.68C269.03,76.68 269.03,76.68 269.03,76.68C269.03,76.954 268.804,77.18 268.53,77.18C268.527,77.18 268.523,77.18 268.52,77.18Z" style="fill:rgb(209,211,212);fill-rule:nonzero;"/>
        <path d="M267.4,85.09L236.87,85.09C236.596,85.09 236.37,84.864 236.37,84.59C236.37,84.316 236.596,84.09 236.87,84.09L267.4,84.09C267.674,84.09 267.9,84.316 267.9,84.59C267.9,84.864 267.674,85.09 267.4,85.09Z" style="fill:rgb(209,211,212);fill-rule:nonzero;"/>
        <path d="M266.28,93L235.74,93C235.468,92.995 235.245,92.772 235.24,92.5C235.24,92.226 235.466,92 235.74,92L266.28,92C266.554,92 266.78,92.226 266.78,92.5C266.78,92.774 266.554,93 266.28,93Z" style="fill:rgb(209,211,212);fill-rule:nonzero;"/>
        <path d="M265.16,100.92L234.62,100.92C234.346,100.92 234.12,100.694 234.12,100.42C234.12,100.146 234.346,99.92 234.62,99.92L265.16,99.92C265.434,99.92 265.66,100.146 265.66,100.42C265.66,100.694 265.434,100.92 265.16,100.92Z" style="fill:rgb(209,211,212);fill-rule:nonzero;"/>
        <path d="M264,108.83L233.5,108.83C233.226,108.83 233,108.604 233,108.33C233,108.056 233.226,107.83 233.5,107.83L264,107.83C264.274,107.83 264.5,108.056 264.5,108.33C264.5,108.604 264.274,108.83 264,108.83Z" style="fill:rgb(209,211,212);fill-rule:nonzero;"/>
        <path d="M254.08,116.75L232.37,116.75C232.098,116.745 231.875,116.522 231.87,116.25C231.87,115.976 232.096,115.75 232.37,115.75L254.08,115.75C254.354,115.75 254.58,115.976 254.58,116.25C254.58,116.524 254.354,116.75 254.08,116.75Z" style="fill:rgb(209,211,212);fill-rule:nonzero;"/>
        <path d="M258.34,136.14L231.34,136.14C231.298,136.141 231.255,136.142 231.213,136.142C228.602,136.142 226.453,133.993 226.453,131.382C226.453,131.096 226.479,130.811 226.53,130.53C227.044,127.381 229.741,125.017 232.93,124.92L259.93,124.92C259.976,124.919 260.021,124.918 260.067,124.918C262.678,124.918 264.827,127.067 264.827,129.678C264.827,129.964 264.801,130.249 264.75,130.53C264.236,133.682 261.532,136.048 258.34,136.14Z" style="fill:rgb(209,211,212);fill-rule:nonzero;"/>
        <path d="M182.25,214.33L155.25,214.33C155.204,214.331 155.157,214.332 155.111,214.332C152.505,214.332 150.361,212.188 150.361,209.582C150.361,209.293 150.388,209.004 150.44,208.72C150.954,205.571 153.651,203.207 156.84,203.11L183.84,203.11C183.886,203.109 183.933,203.108 183.979,203.108C186.585,203.108 188.729,205.252 188.729,207.858C188.729,208.147 188.702,208.436 188.65,208.72C188.14,211.871 185.44,214.237 182.25,214.33Z" style="fill:rgb(209,211,212);fill-rule:nonzero;"/>
        <path d="M243.57,214.33L216.57,214.33C216.524,214.331 216.477,214.332 216.431,214.332C213.825,214.332 211.681,212.188 211.681,209.582C211.681,209.293 211.708,209.004 211.76,208.72C212.27,205.569 214.97,203.203 218.16,203.11L245.16,203.11C245.206,203.109 245.253,203.108 245.299,203.108C247.905,203.108 250.049,205.252 250.049,207.858C250.049,208.147 250.022,208.436 249.97,208.72C249.46,211.871 246.76,214.237 243.57,214.33Z" style="fill:rgb(209,211,212);fill-rule:nonzero;"/>
        <path d="M194.22,195.94L148.6,195.94C148.454,195.935 148.316,195.87 148.22,195.76C148.125,195.654 148.084,195.51 148.11,195.37L154.11,152.82C154.149,152.575 154.362,152.392 154.61,152.39L200.22,152.39C200.366,152.387 200.505,152.45 200.6,152.56C200.698,152.669 200.742,152.816 200.72,152.96L194.72,195.51C194.681,195.755 194.468,195.938 194.22,195.94ZM149.22,194.94L193.83,194.94L199.72,153.39L155.07,153.39L149.22,194.94Z" style="fill:rgb(209,211,212);fill-rule:nonzero;"/>
        <path d="M255.54,195.94L209.92,195.94C209.773,195.937 209.635,195.872 209.54,195.76C209.446,195.653 209.403,195.511 209.42,195.37L215.42,152.82C215.454,152.576 215.664,152.393 215.91,152.39L261.53,152.39C261.676,152.387 261.815,152.45 261.91,152.56C262.008,152.669 262.052,152.816 262.03,152.96L256.03,195.51C255.996,195.754 255.786,195.937 255.54,195.94ZM210.54,194.94L255.14,194.94L261.04,153.39L216.39,153.39L210.54,194.94Z" style="fill:rgb(209,211,212);fill-rule:nonzero;"/>
        <path d="M184.05,231.49C183.439,231.5 182.853,231.24 182.45,230.78C182.046,230.309 181.871,229.683 181.97,229.07C182.173,227.785 183.28,226.823 184.58,226.8C185.189,226.791 185.773,227.047 186.18,227.5C186.584,227.971 186.756,228.599 186.65,229.21C186.456,230.497 185.351,231.466 184.05,231.49ZM184.58,227.8C183.78,227.834 183.104,228.422 182.96,229.21C182.904,229.538 182.995,229.875 183.21,230.13C183.424,230.367 183.731,230.499 184.05,230.49C184.852,230.458 185.528,229.862 185.66,229.07C185.719,228.746 185.631,228.413 185.42,228.16C185.206,227.923 184.899,227.791 184.58,227.8Z" style="fill:rgb(209,211,212);fill-rule:nonzero;"/>
        <g transform="matrix(0.731711,-0.681615,0.681615,0.731711,-104.2,193.58)">
            <ellipse cx="193.79" cy="229.14" rx="1.98" ry="1.72" style="fill:rgb(209,211,212);"/>
        </g>
        <g transform="matrix(0.73,-0.68,0.68,0.73,-101.65,200.04)">
            <ellipse cx="203.27" cy="229.14" rx="1.98" ry="1.72" style="fill:rgb(209,211,212);"/>
        </g>
        <g transform="matrix(0.731711,-0.681615,0.681615,0.731711,-99.11,206.5)">
            <ellipse cx="212.75" cy="229.14" rx="1.98" ry="1.72" style="fill:rgb(209,211,212);"/>
        </g>
        <path d="M177.21,62.69L169.66,62.69C169.386,62.69 169.16,62.464 169.16,62.19C169.16,61.916 169.386,61.69 169.66,61.69L177.21,61.69C177.484,61.69 177.71,61.916 177.71,62.19C177.71,62.464 177.484,62.69 177.21,62.69Z" style="fill:rgb(209,211,212);fill-rule:nonzero;"/>
        <path d="M176.73,66.09L169.17,66.09C168.898,66.085 168.675,65.862 168.67,65.59C168.67,65.316 168.896,65.09 169.17,65.09L176.73,65.09C177.004,65.09 177.23,65.316 177.23,65.59C177.225,65.862 177.002,66.085 176.73,66.09Z" style="fill:rgb(209,211,212);fill-rule:nonzero;"/>
        <path d="M176.24,69.48L168.69,69.48C168.416,69.48 168.19,69.254 168.19,68.98C168.195,68.708 168.418,68.485 168.69,68.48L176.24,68.48C176.514,68.48 176.74,68.706 176.74,68.98C176.74,69.254 176.514,69.48 176.24,69.48Z" style="fill:rgb(209,211,212);fill-rule:nonzero;"/>
        <path d="M288.75,48.44L287.58,56.74L157.21,56.74L158.39,48.44C159.291,42.873 164.063,38.692 169.7,38.53L280.25,38.53C280.329,38.528 280.408,38.527 280.487,38.527C285.096,38.527 288.887,42.319 288.887,46.927C288.887,47.434 288.841,47.941 288.75,48.44Z" style="fill:rgb(35,31,32);fill-rule:nonzero;"/>
        <path d="M226.69,48.14L212.33,48.14C212.056,48.14 211.83,47.914 211.83,47.64C211.83,47.366 212.056,47.14 212.33,47.14L226.69,47.14C226.964,47.14 227.19,47.366 227.19,47.64C227.19,47.914 226.964,48.14 226.69,48.14Z" style="fill:rgb(209,211,212);fill-rule:nonzero;"/>
        <path d="M234,48.14L231.46,48.14C231.188,48.135 230.965,47.912 230.96,47.64C230.96,47.366 231.186,47.14 231.46,47.14L234,47.14C234.274,47.14 234.5,47.366 234.5,47.64C234.5,47.914 234.274,48.14 234,48.14Z" style="fill:rgb(209,211,212);fill-rule:nonzero;"/>
        <path d="M155.7,113.46L165.02,123.08C165.02,123.08 181.84,104.71 182.02,102.41C182.544,98.282 183.697,94.259 185.44,90.48C185.516,90.239 185.68,90.035 185.9,89.91C186.43,89.71 186.81,90.45 186.9,91.01C187.068,92.376 187.052,93.759 186.85,95.12C188.52,92.81 190.22,90.53 191.97,88.28C192.098,88.051 192.322,87.889 192.58,87.84C192.775,87.852 192.96,87.934 193.1,88.07C194.203,89.012 195.029,90.235 195.49,91.61C195.789,92.339 195.961,93.113 196,93.9C196.07,98.32 192.11,105.5 188,107.31C188,107.31 168.86,140.11 165.42,139.73C161.98,139.35 148.42,124.04 148.42,124.04L155.7,113.46Z" style="fill:white;fill-rule:nonzero;"/>
        <path d="M165.43,140.23L165.35,140.23C161.82,139.83 149.41,125.95 148,124.37C147.857,124.189 147.857,123.931 148,123.75L155.32,113.18C155.407,113.06 155.542,112.983 155.69,112.97C155.839,112.956 155.987,113.012 156.09,113.12L165.04,122.35C171.51,115.26 181.44,103.89 181.58,102.35C182.102,98.177 183.255,94.107 185,90.28C185.126,89.916 185.392,89.616 185.74,89.45C186.025,89.339 186.346,89.365 186.61,89.52C187.077,89.874 187.366,90.415 187.4,91C187.492,91.803 187.528,92.612 187.51,93.42C188.84,91.6 190.2,89.79 191.58,88.02C191.799,87.668 192.168,87.435 192.58,87.39C192.894,87.403 193.194,87.523 193.43,87.73C194.602,88.711 195.49,89.989 196,91.43C196.316,92.214 196.499,93.046 196.54,93.89C196.61,98.32 192.8,105.63 188.38,107.7C185,113.49 169.14,140.23 165.43,140.23ZM149,124C154.43,130.09 163.1,139 165.45,139.23C167.51,139.23 178.24,122.93 187.51,107.05C187.563,106.958 187.644,106.885 187.74,106.84C191.79,105.06 195.52,98.04 195.45,93.9C195.418,93.168 195.259,92.448 194.98,91.77C194.542,90.486 193.769,89.343 192.74,88.46C192.61,88.35 192.56,88.33 192.54,88.33C192.458,88.401 192.384,88.482 192.32,88.57C190.58,90.81 188.86,93.11 187.2,95.41C187.106,95.541 186.955,95.618 186.794,95.618C186.52,95.618 186.294,95.393 186.294,95.118C186.294,95.092 186.296,95.066 186.3,95.04C186.498,93.715 186.515,92.369 186.35,91.04C186.335,90.78 186.225,90.534 186.04,90.35C185.963,90.441 185.905,90.546 185.87,90.66C184.149,94.388 183.009,98.357 182.49,102.43C182.28,104.78 168.17,120.3 165.34,123.43C165.246,123.528 165.116,123.586 164.98,123.59C164.844,123.581 164.714,123.528 164.61,123.44L155.72,114.26L149,124Z" style="fill:rgb(35,31,32);fill-rule:nonzero;"/>
        <path d="M90,251.37C90,251.37 86.75,260.27 88.19,261.13C89.63,261.99 118.33,261.13 116.6,259.41C114.87,257.69 107.23,251.95 107.23,251.95" style="fill:white;fill-rule:nonzero;"/>
        <path d="M94.77,261.94C91.1,261.94 88.34,261.81 87.92,261.56C86.36,260.63 88.26,254.67 89.52,251.2C89.622,250.945 89.91,250.812 90.17,250.9C90.424,250.997 90.554,251.285 90.46,251.54C88.86,255.95 87.91,260.23 88.46,260.71C90.46,261.6 112.91,260.55 115.97,259.49C113.86,257.54 106.97,252.4 106.97,252.35C106.844,252.256 106.77,252.107 106.77,251.95C106.77,251.676 106.996,251.45 107.27,251.45C107.378,251.45 107.483,251.485 107.57,251.55C107.88,251.78 115.27,257.33 117,259.06C117.258,259.3 117.289,259.703 117.07,259.98C116,261.29 103.06,261.94 94.77,261.94Z" style="fill:rgb(35,31,32);fill-rule:nonzero;"/>
        <path d="M119,81.45C117.64,81.39 116.28,81.16 114.71,81.02C113.14,80.88 111.36,80.35 111.33,78.89C111.33,77.63 112.81,76.59 112.48,75.38C112.364,75.053 112.187,74.752 111.96,74.49C107.639,68.69 108.679,60.402 114.3,55.85C113.89,55.99 113.45,55.58 113.41,55.15C113.407,54.711 113.576,54.287 113.88,53.97C114.983,52.758 116.414,51.893 118,51.48C122.961,49.95 128.269,49.95 133.23,51.48C137.03,52.59 141.6,55.62 141.1,60.21C140.974,61.919 139.658,63.319 137.96,63.55C137.11,68.47 134.53,71.83 131.29,75.39C129.113,77.835 126.364,79.704 123.29,80.83C121.917,81.324 120.457,81.535 119,81.45Z" style="fill:white;fill-rule:nonzero;"/>
        <path d="M119.62,82L119,82C118.19,82 117.4,81.87 116.55,81.77C115.96,81.7 115.35,81.63 114.69,81.57C112.32,81.37 110.89,80.39 110.86,78.95C110.898,78.261 111.134,77.598 111.54,77.04C111.87,76.49 112.15,76.04 112.03,75.56C111.939,75.322 111.807,75.102 111.64,74.91C107.258,69.143 108.004,60.887 113.35,56C113.121,55.775 112.976,55.479 112.94,55.16C112.917,54.587 113.126,54.027 113.52,53.61C114.679,52.348 116.174,51.442 117.83,51C122.886,49.444 128.294,49.444 133.35,51C137.81,52.3 142.08,55.67 141.57,60.27C141.411,62.067 140.121,63.575 138.37,64.01C137.37,69.07 134.51,72.57 131.64,75.73C129.413,78.236 126.599,80.15 123.45,81.3C122.224,81.753 120.928,81.99 119.62,82ZM114.25,55.36C114.447,55.358 114.63,55.461 114.73,55.63C114.856,55.837 114.818,56.106 114.64,56.27C109.239,60.66 108.239,68.632 112.39,74.22C112.66,74.529 112.865,74.889 112.99,75.28C113.122,76.079 112.907,76.898 112.4,77.53C112.104,77.935 111.917,78.411 111.86,78.91C111.86,80.24 114.3,80.51 114.78,80.56C115.44,80.56 116.07,80.69 116.67,80.76C117.49,80.86 118.27,80.95 119.05,80.98C120.432,81.065 121.817,80.867 123.12,80.4C126.112,79.31 128.786,77.492 130.9,75.11C134.46,71.2 136.67,68.05 137.45,63.52C137.487,63.287 137.685,63.111 137.92,63.1C139.365,62.872 140.473,61.669 140.58,60.21C141.08,55.62 136.09,52.89 133.07,52.01C128.206,50.515 123.004,50.515 118.14,52.01C116.659,52.387 115.323,53.195 114.3,54.33C114.078,54.547 113.945,54.84 113.93,55.15C113.947,55.252 114.005,55.342 114.09,55.4L114.25,55.36Z" style="fill:rgb(35,31,32);fill-rule:nonzero;"/>
        <path d="M98.58,111C98.58,111 88,132.54 88.82,139.14C89.64,145.74 111.5,143.14 111.5,143.14L110.35,110.42L98.58,111Z" style="fill:white;fill-rule:nonzero;"/>
        <path d="M102.48,144.16L100.48,144.16C92.82,143.92 88.73,142.26 88.34,139.24C87.47,132.57 97.71,111.71 98.14,110.83C98.224,110.668 98.388,110.561 98.57,110.55L110.34,109.98C110.473,109.973 110.603,110.02 110.7,110.11C110.802,110.198 110.86,110.326 110.86,110.46L112,143.14C112.008,143.399 111.817,143.625 111.56,143.66C108.544,143.98 105.513,144.146 102.48,144.16ZM98.9,111.5C97.7,113.97 88.54,133.09 89.32,139.08C90,144 104.75,143.4 111,142.71L109.87,111L98.9,111.5Z" style="fill:rgb(35,31,32);fill-rule:nonzero;"/>
        <path d="M140.78,247.16L141.35,261.16C141.35,261.16 167.57,261.35 166.04,259.44C164.51,257.53 152.64,249.11 152.64,249.11L150.73,238.77L140.78,247.16Z" style="fill:white;fill-rule:nonzero;"/>
        <path d="M144.72,261.65L141.35,261.65C141.083,261.65 140.861,261.437 140.85,261.17L140.28,247.17C140.274,247.018 140.337,246.871 140.45,246.77L150.45,238.35C150.586,238.237 150.772,238.203 150.94,238.26C151.104,238.324 151.225,238.467 151.26,238.64L153.14,248.78C154.64,249.85 164.99,257.24 166.47,259.09C166.648,259.306 166.687,259.606 166.57,259.86C165.81,261.36 153.76,261.65 144.72,261.65ZM141.83,260.65C152.36,260.71 163.58,260.31 165.46,259.52C163.78,257.76 156.26,252.27 152.35,249.52C152.244,249.448 152.172,249.336 152.15,249.21L150.39,239.72L141.29,247.43L141.83,260.65Z" style="fill:rgb(35,31,32);fill-rule:nonzero;"/>
        <path d="M145.53,149L155.7,251L138.86,251.38L119.73,179.32L109.13,252L89.61,251C89.61,251 93.01,210.43 94.78,195C96.55,179.57 99.29,152.86 99.29,152.86L145.53,149Z" style="fill:rgb(35,31,32);fill-rule:nonzero;"/>
        <path d="M139.26,70.72C139.26,70.72 142.77,76.51 141.95,77.65C141.13,78.79 138.6,77.91 138.6,77.91" style="fill:white;fill-rule:nonzero;"/>
        <path d="M140.43,78.73C139.749,78.718 139.074,78.6 138.43,78.38C138.257,78.297 138.146,78.121 138.146,77.929C138.146,77.655 138.372,77.429 138.646,77.429C138.681,77.429 138.716,77.433 138.75,77.44C139.47,77.68 141.08,77.98 141.53,77.35C141.98,76.72 140.58,73.88 138.82,70.98C138.749,70.891 138.711,70.782 138.711,70.668C138.711,70.394 138.937,70.168 139.211,70.168C139.41,70.168 139.591,70.287 139.67,70.47C140.78,72.29 143.26,76.67 142.35,77.94C141.874,78.496 141.159,78.79 140.43,78.73Z" style="fill:rgb(35,31,32);fill-rule:nonzero;"/>
        <path d="M138.75,63.24C141.05,65.24 140.2,69.34 140.08,72C139.9,75.74 139.64,79.48 139.3,83.22C139.08,85.58 132.93,85.4 131.87,84.65L132.48,94.06L119.75,88.61L120.58,77.8C120.58,77.8 124.64,77.98 127.23,73.24C129.82,68.5 130,61.06 130,61.06C130,61.06 136.51,61.26 138.75,63.24Z" style="fill:white;fill-rule:nonzero;"/>
        <path d="M132.48,94.56C132.414,94.575 132.346,94.575 132.28,94.56L119.56,89.11C119.364,89.024 119.24,88.824 119.25,88.61L120.08,77.8C120.101,77.533 120.333,77.328 120.6,77.34C120.75,77.34 124.39,77.43 126.79,73.04C129.29,68.46 129.5,61.16 129.5,61.04C129.502,60.906 129.56,60.779 129.66,60.69C129.754,60.594 129.887,60.546 130.02,60.56C130.29,60.56 136.73,60.79 139.08,62.87C141.18,64.72 140.9,67.97 140.68,70.59C140.68,71.09 140.6,71.59 140.58,72.02C140.4,75.75 140.14,79.53 139.8,83.26C139.676,84.069 139.107,84.743 138.33,85C136.436,85.687 134.383,85.812 132.42,85.36L133,94C133.001,94.01 133.001,94.02 133.001,94.03C133.001,94.301 132.781,94.525 132.51,94.53L132.48,94.56ZM120.28,88.29L131.92,93.29L131.38,84.69C131.358,84.497 131.458,84.31 131.63,84.22C131.791,84.116 131.999,84.116 132.16,84.22C134.039,84.804 136.057,84.762 137.91,84.1C138.47,83.85 138.77,83.53 138.8,83.1C139.15,79.39 139.41,75.62 139.58,71.91C139.58,71.45 139.64,70.91 139.68,70.43C139.89,68.04 140.14,65.07 138.42,63.55C136.68,62.01 132.01,61.61 130.48,61.55C130.39,63.34 129.92,69.32 127.67,73.45C125.42,77.58 122.26,78.15 121.04,78.25L120.28,88.29Z" style="fill:rgb(35,31,32);fill-rule:nonzero;"/>
        <path d="M158.28,114.29C158.28,114.29 143.23,98.39 137.28,92.41C131.75,86.87 115.67,81.83 108.35,89.77C108.35,89.77 96.35,106.56 94,116.32L101,120.63C99.468,132.196 98.566,143.836 98.3,155.5C111.58,166 145.53,149 145.53,149L142.46,125L147.95,130.5L158.28,114.29Z" style="fill:rgb(255,146,159);fill-rule:nonzero;"/>
        <path d="M139.32,80.42C139.32,80.42 136.32,82.09 134.92,79.03" style="fill:white;fill-rule:nonzero;"/>
        <path d="M137.53,81.38C137.191,81.378 136.855,81.327 136.53,81.23C135.586,80.891 134.831,80.162 134.46,79.23C134.43,79.164 134.414,79.093 134.414,79.02C134.414,78.745 134.64,78.519 134.915,78.519C135.11,78.519 135.288,78.633 135.37,78.81C135.631,79.477 136.162,80.003 136.83,80.26C137.587,80.443 138.385,80.339 139.07,79.97C139.312,79.843 139.615,79.932 139.75,80.17C139.794,80.244 139.817,80.329 139.817,80.415C139.817,80.593 139.718,80.757 139.56,80.84C138.937,81.181 138.24,81.366 137.53,81.38Z" style="fill:rgb(35,31,32);fill-rule:nonzero;"/>
        <path d="M132,72.85C131.931,71.909 131.602,71.005 131.05,70.24C130.714,69.593 130.279,69.003 129.76,68.49C129.234,67.966 128.498,67.708 127.76,67.79C127.12,67.929 126.567,68.332 126.24,68.9C125.93,69.468 125.746,70.095 125.7,70.74C125.473,73.594 126.781,76.363 129.13,78L128.93,77.77" style="fill:white;fill-rule:nonzero;"/>
        <path d="M129.13,78.51C129.029,78.511 128.931,78.479 128.85,78.42C126.348,76.678 124.955,73.729 125.2,70.69C125.254,69.987 125.462,69.304 125.81,68.69C126.2,67.994 126.877,67.503 127.66,67.35C128.549,67.237 129.443,67.54 130.08,68.17C130.631,68.705 131.097,69.323 131.46,70C132.059,70.846 132.406,71.845 132.46,72.88C132.46,73.154 132.234,73.38 131.96,73.38C131.686,73.38 131.46,73.154 131.46,72.88C131.392,72.03 131.087,71.216 130.58,70.53C130.268,69.93 129.867,69.38 129.39,68.9C128.973,68.488 128.394,68.279 127.81,68.33C127.313,68.438 126.887,68.756 126.64,69.2C126.365,69.698 126.205,70.252 126.17,70.82C125.974,73.312 127.019,75.746 128.96,77.32C129.087,77.333 129.205,77.394 129.29,77.49L129.49,77.72C129.655,77.908 129.655,78.192 129.49,78.38C129.392,78.469 129.262,78.516 129.13,78.51Z" style="fill:rgb(35,31,32);fill-rule:nonzero;"/>
        <path d="M131.87,84.65C130.065,83.99 128.489,82.823 127.33,81.29C126.171,79.757 127.33,87 132.14,88.84L131.87,84.65Z" style="fill:rgb(35,31,32);fill-rule:nonzero;"/>
        <path d="M132.14,89.34L131.96,89.34C126.88,87.4 126.83,81.34 126.83,81.34C126.827,81.117 126.975,80.919 127.19,80.86C127.404,80.8 127.634,80.891 127.75,81.08C128.846,82.491 130.32,83.563 132,84.17C132.188,84.237 132.318,84.411 132.33,84.61L132.6,88.81C132.608,88.977 132.533,89.138 132.4,89.24C132.325,89.299 132.235,89.334 132.14,89.34ZM128,82.88C128.361,85.04 129.682,86.924 131.59,88L131.4,85C130.152,84.496 129.002,83.778 128,82.88Z" style="fill:rgb(35,31,32);fill-rule:nonzero;"/>
        <path d="M142.88,126.69C142.745,126.69 142.615,126.636 142.52,126.54C138.703,122.597 135.101,118.451 131.73,114.12C131.571,113.899 131.615,113.588 131.83,113.42C132.049,113.255 132.365,113.301 132.53,113.52C135.875,117.82 139.45,121.936 143.24,125.85C143.334,125.942 143.387,126.068 143.387,126.2C143.387,126.332 143.334,126.458 143.24,126.55C143.146,126.646 143.014,126.697 142.88,126.69Z" style="fill:rgb(35,31,32);fill-rule:nonzero;"/>
        <path d="M119.45,177.8C119.333,177.805 119.219,177.766 119.13,177.69C118.87,177.48 112.92,172.41 112.89,164.41C112.89,164.139 113.109,163.915 113.38,163.91C113.38,163.91 113.38,163.91 113.38,163.91C113.649,163.91 113.87,164.131 113.87,164.4C113.87,164.403 113.87,164.407 113.87,164.41C113.87,171.94 119.7,176.88 119.76,176.92C119.968,177.1 119.995,177.418 119.82,177.63C119.725,177.735 119.591,177.796 119.45,177.8Z" style="fill:white;fill-rule:nonzero;"/>
        <g transform="matrix(0.204667,-0.978832,0.978832,0.204667,42.53,188.44)">
            <ellipse cx="137.22" cy="68.05" rx="1.34" ry="0.53" style="fill:rgb(35,31,32);"/>
        </g>
        <path d="M100.88,117.68L100.8,117.68C100.531,117.63 100.348,117.371 100.39,117.1C100.5,116.37 103.31,99.15 106.47,93.4C106.555,93.241 106.721,93.142 106.901,93.142C106.989,93.142 107.075,93.166 107.15,93.21C107.308,93.293 107.407,93.457 107.407,93.635C107.407,93.721 107.384,93.806 107.34,93.88C104.27,99.48 101.4,117.08 101.34,117.26C101.307,117.491 101.113,117.668 100.88,117.68Z" style="fill:rgb(35,31,32);fill-rule:nonzero;"/>
        <path d="M289.16,195C289.287,193.111 288.885,191.224 288,189.55C287.27,188.34 286.15,187.38 285.55,186.1C284.55,183.88 285.24,181.27 285,178.84C284.783,176.801 283.884,174.895 282.45,173.43C281.18,172.15 279.54,171.26 278.32,169.92C276.32,167.72 275.76,164.63 274.63,161.92C273.009,158.038 270.21,154.76 266.63,152.55C268.8,156.92 263.85,162.48 266.1,166.81C266.81,168.19 268.16,169.19 268.69,170.65C269.94,174.16 265.75,177.97 267.09,181.46C267.76,183.2 269.63,184.21 270.5,185.86C271.67,188.08 270.75,190.79 270.84,193.3C270.97,196.77 273.08,199.87 275.59,202.3C277.15,203.79 278.89,205.09 280.59,206.44C282.59,208.06 283.46,209.75 285.23,207.16C287.696,203.576 289.062,199.349 289.16,195Z" style="fill:rgb(35,31,32);fill-rule:nonzero;"/>
        <path d="M291.41,197C290.76,194.32 290.3,191.4 291.41,188.87C292.64,186.01 295.73,183.98 296.09,180.87C296.33,178.87 295.3,176.78 295.7,174.78C296.1,172.78 297.7,171.41 299.09,169.93C302.197,166.515 304.046,162.138 304.33,157.53C306.415,160.003 308.102,162.787 309.33,165.78C310.39,168.83 310.41,172.41 308.6,175.09C308.084,175.713 307.659,176.407 307.34,177.15C306.73,179.15 308.42,180.97 309.29,182.85C310.343,185.027 310.108,187.618 308.68,189.57C306.9,191.78 303.49,192.64 302.61,195.33C302.394,196.335 302.294,197.362 302.31,198.39C301.925,202.024 299.362,205.079 295.85,206.09C293.76,206.6 293.8,205.77 293.42,204C292.89,201.64 292,199.35 291.41,197Z" style="fill:rgb(35,31,32);fill-rule:nonzero;"/>
        <path d="M284.73,177.69C283.24,172.54 282.65,167.15 281.08,162.02C279.743,158.012 278.112,154.108 276.2,150.34L282.59,153.03C284.64,153.9 286.86,154.92 287.83,156.92C289.51,160.41 286.49,164.92 288.26,168.33C289.026,169.449 289.871,170.512 290.79,171.51C292.67,174.15 292.38,177.79 291.35,180.86C290.9,182.18 288.97,189.02 287.24,187.12C286.54,186.36 286.48,183.53 286.19,182.49C285.74,180.88 285.2,179.3 284.73,177.69Z" style="fill:rgb(35,31,32);fill-rule:nonzero;"/>
        <path d="M288.28,246.16C287,237.73 283,208 283,207.74L284,207.61C284,207.91 288,237.61 289.31,246.01L288.28,246.16Z" style="fill:rgb(35,31,32);fill-rule:nonzero;"/>
        <path d="M289.67,254.12L288.67,254.12C288.75,244.12 292.91,205.92 295.31,203.3L296.05,203.98C294.45,205.71 289.77,240.42 289.67,254.12Z" style="fill:rgb(35,31,32);fill-rule:nonzero;"/>
        <path d="M291.84,252.21L290.84,252.21C291.84,230.64 287.22,185.34 287.17,184.89L288.17,184.78C288.22,185.2 292.8,230.57 291.84,252.21Z" style="fill:rgb(35,31,32);fill-rule:nonzero;"/>
        <path d="M277.27,222L301.07,222L299.41,249C299.12,253.68 295.65,257.31 291.47,257.31L286.87,257.31C282.69,257.31 279.23,253.68 278.94,249L277.27,222Z" style="fill:white;fill-rule:nonzero;"/>
        <path d="M291.47,257.87L286.87,257.87C282.44,257.87 278.73,254.01 278.42,249.08L276.76,222.08C276.759,222.067 276.758,222.053 276.758,222.04C276.758,221.76 276.989,221.53 277.268,221.53C277.269,221.53 277.269,221.53 277.27,221.53L301.07,221.53C301.213,221.532 301.349,221.589 301.45,221.69C301.544,221.798 301.594,221.937 301.59,222.08L299.92,249.08C299.62,254 295.91,257.87 291.47,257.87ZM277.82,222.54L279.45,249C279.72,253.39 282.98,256.82 286.87,256.82L291.47,256.82C295.36,256.82 298.62,253.39 298.89,249L300.52,222.52L277.82,222.54Z" style="fill:rgb(35,31,32);fill-rule:nonzero;"/>
        <path d="M301.16,128.47L252.24,128.47L263.27,46.22L312.19,46.22L301.16,128.47Z" style="fill:white;fill-rule:nonzero;"/>
        <path d="M301.16,129L252.24,129C252.098,129.001 251.962,128.939 251.87,128.83C251.771,128.726 251.727,128.581 251.75,128.44L262.75,46.18C262.789,45.935 263.002,45.752 263.25,45.75L312.17,45.75C312.315,45.751 312.453,45.813 312.55,45.92C312.64,46.033 312.683,46.176 312.67,46.32L301.67,128.57C301.63,128.819 301.412,129.003 301.16,129ZM252.81,128L300.72,128L311.62,46.75L263.71,46.75L252.81,128Z" style="fill:rgb(35,31,32);fill-rule:nonzero;"/>
        <path d="M292.89,116.26L264.79,116.26C264.765,116.261 264.74,116.261 264.715,116.261C262.982,116.261 261.555,114.834 261.555,113.101C261.555,112.923 261.57,112.745 261.6,112.57L261.98,109.7C262.305,107.63 264.076,106.071 266.17,106.01L294.26,106.01C294.289,106.009 294.318,106.009 294.347,106.009C296.075,106.009 297.497,107.431 297.497,109.159C297.497,109.34 297.481,109.521 297.45,109.7L297.07,112.57C296.753,114.64 294.984,116.202 292.89,116.26Z" style="fill:rgb(255,146,159);fill-rule:nonzero;"/>
        <path d="M294.91,101.15L266.82,101.15C266.791,101.151 266.762,101.151 266.733,101.151C265.005,101.151 263.583,99.729 263.583,98.001C263.583,97.82 263.599,97.639 263.63,97.46L264.01,94.59C264.328,92.516 266.103,90.953 268.2,90.9L296.29,90.9C296.315,90.899 296.34,90.899 296.365,90.899C298.098,90.899 299.525,92.326 299.525,94.059C299.525,94.237 299.51,94.415 299.48,94.59L299.1,97.46C298.775,99.53 297.004,101.089 294.91,101.15Z" style="fill:white;fill-rule:nonzero;"/>
        <path d="M294.91,101.65L266.82,101.65C265.742,101.669 264.707,101.216 263.99,100.41C263.281,99.583 262.967,98.487 263.13,97.41L263.52,94.54C263.88,92.226 265.859,90.484 268.2,90.42L296.29,90.42C297.368,90.401 298.403,90.854 299.12,91.66C299.826,92.488 300.14,93.583 299.98,94.66L299.59,97.53C299.23,99.844 297.251,101.586 294.91,101.65ZM268.2,91.4C266.354,91.45 264.793,92.825 264.51,94.65L264.12,97.52C263.995,98.318 264.222,99.131 264.74,99.75C265.269,100.338 266.029,100.667 266.82,100.65L294.91,100.65C296.759,100.599 298.321,99.219 298.6,97.39L298.99,94.52C299.116,93.721 298.885,92.905 298.36,92.29C297.832,91.707 297.076,91.382 296.29,91.4L268.2,91.4Z" style="fill:rgb(209,211,212);fill-rule:nonzero;"/>
        <path d="M296.94,86L268.85,86C268.822,86.001 268.793,86.001 268.765,86.001C267.032,86.001 265.605,84.575 265.605,82.841C265.605,82.663 265.62,82.485 265.65,82.31L266.04,79.44C266.353,77.368 268.125,75.804 270.22,75.75L298.31,75.75C298.338,75.749 298.367,75.749 298.395,75.749C300.128,75.749 301.555,77.175 301.555,78.909C301.555,79.087 301.54,79.265 301.51,79.44L301.12,82.31C300.807,84.382 299.035,85.946 296.94,86Z" style="fill:white;fill-rule:nonzero;"/>
        <path d="M296.94,86.53L268.85,86.53C268.819,86.531 268.789,86.531 268.758,86.531C266.756,86.531 265.108,84.883 265.108,82.881C265.108,82.676 265.126,82.472 265.16,82.27L265.54,79.4C265.903,77.088 267.881,75.348 270.22,75.28L298.31,75.28C298.341,75.279 298.371,75.279 298.402,75.279C300.404,75.279 302.052,76.927 302.052,78.929C302.052,79.134 302.034,79.338 302,79.54L301.62,82.41C301.257,84.722 299.279,86.462 296.94,86.53ZM270.22,76.28C268.372,76.335 266.812,77.713 266.53,79.54L266.15,82.41C266.027,83.204 266.253,84.014 266.77,84.63C267.299,85.218 268.059,85.547 268.85,85.53L296.94,85.53C298.788,85.475 300.348,84.097 300.63,82.27L301,79.4C301.028,79.244 301.042,79.087 301.042,78.928C301.042,77.475 299.846,76.278 298.392,76.278C298.362,76.278 298.331,76.279 298.3,76.28L270.22,76.28Z" style="fill:rgb(209,211,212);fill-rule:nonzero;"/>
        <path d="M299,70.91L270.9,70.91C270.875,70.911 270.85,70.911 270.825,70.911C269.092,70.911 267.665,69.484 267.665,67.751C267.665,67.573 267.68,67.395 267.71,67.22L268.09,64.35C268.411,62.278 270.184,60.717 272.28,60.66L300.37,60.66C300.399,60.659 300.428,60.659 300.457,60.659C302.185,60.659 303.607,62.081 303.607,63.809C303.607,63.99 303.591,64.171 303.56,64.35L303.18,67.22C302.863,69.29 301.094,70.852 299,70.91Z" style="fill:white;fill-rule:nonzero;"/>
        <path d="M299,71.41L270.9,71.41C269.797,71.45 268.733,70.995 268,70.17C267.295,69.341 266.981,68.247 267.14,67.17L267.53,64.3C267.885,61.983 269.866,60.234 272.21,60.17L300.3,60.17C301.379,60.148 302.415,60.602 303.13,61.41C303.839,62.237 304.153,63.333 303.99,64.41L303.61,67.28C303.256,69.571 301.316,71.309 299,71.41ZM272.25,61.16C270.402,61.215 268.842,62.593 268.56,64.42L268.18,67.29C268.152,67.446 268.138,67.603 268.138,67.761C268.138,69.215 269.334,70.411 270.788,70.411C270.815,70.411 270.843,70.411 270.87,70.41L299,70.41C300.842,70.355 302.398,68.981 302.68,67.16L303.07,64.29C303.195,63.492 302.968,62.679 302.45,62.06C301.921,61.472 301.161,61.143 300.37,61.16L272.25,61.16Z" style="fill:rgb(209,211,212);fill-rule:nonzero;"/>
        <path d="M297.83,54.43L276.29,54.43C276.016,54.43 275.79,54.204 275.79,53.93C275.795,53.658 276.018,53.435 276.29,53.43L297.83,53.43C298.104,53.43 298.33,53.656 298.33,53.93C298.33,54.204 298.104,54.43 297.83,54.43Z" style="fill:rgb(209,211,212);fill-rule:nonzero;"/>
    </g>
</svg>
