<?xml version="1.0" encoding="UTF-8" standalone="no"?><!DOCTYPE svg PUBLIC "-//W3C//DTD SVG 1.1//EN" "http://www.w3.org/Graphics/SVG/1.1/DTD/svg11.dtd"><svg width="100%" height="100%" viewBox="0 0 289 285" version="1.1" xmlns="http://www.w3.org/2000/svg" xmlns:xlink="http://www.w3.org/1999/xlink" xml:space="preserve" xmlns:serif="http://www.serif.com/" style="fill-rule:evenodd;clip-rule:evenodd;stroke-linejoin:round;stroke-miterlimit:1.41421;"><rect id="Artboard1" x="0" y="0" width="288.618" height="284.379" style="fill:none;"/><g id="_232_designer_flatline"><path d="M240.143,217.414c0,0 32.93,-85.9 15.87,-99c-17.06,-13.1 -88.61,-7.81 -92.53,-3.13c-3.92,4.68 -27,108.08 -27,108.08l103.66,-5.95Z" style="fill:#231f20;fill-rule:nonzero;"/><path d="M136.433,223.884c-0.144,-0.002 -0.282,-0.063 -0.38,-0.17c-0.101,-0.119 -0.138,-0.279 -0.1,-0.43c0.94,-4.23 23.19,-103.58 27.15,-108.3c2.17,-2.59 21.27,-5 41.71,-5.27c12,-0.16 41.09,0.33 51.51,8.32c7.25,5.56 6.79,24 -1.36,54.92c-6,22.87 -14.27,44.42 -14.35,44.63c-0.068,0.185 -0.242,0.312 -0.44,0.32l-103.71,6l-0.03,-0.02Zm72.16,-113.2l-3.76,0c-21,0.28 -39.25,2.87 -41,4.92c-3,3.61 -18.76,71.33 -26.8,107.23l102.73,-5.92c2.11,-5.59 32,-85.78 15.92,-98.11c-6.77,-5.19 -23.84,-8.12 -47.09,-8.12Z" style="fill:#231f20;fill-rule:nonzero;"/><path d="M106.433,143.194l-14.84,49.81c0,0 30.61,3.95 30.61,2.82c0,-1.13 6,-54.81 6,-54.81l-21.77,2.18Z" style="fill:#fff;fill-rule:nonzero;"/><path d="M120.663,196.474c-5.17,0 -19.84,-1.78 -29.13,-3c-0.25,-0.036 -0.438,-0.252 -0.438,-0.505c0,-0.046 0.006,-0.091 0.018,-0.135l14.84,-49.81c0.057,-0.197 0.227,-0.34 0.43,-0.36l21.78,-2.18c0.15,-0.014 0.297,0.041 0.4,0.15c0.109,0.102 0.162,0.252 0.14,0.4c-2.07,18.5 -6,53.75 -6,54.76c-0.009,0.163 -0.08,0.317 -0.2,0.43c-0.586,0.222 -1.215,0.307 -1.84,0.25Zm-28.46,-3.89c10.64,1.36 27.16,3.25 29.48,2.92c0.38,-4.32 5.25,-47.92 5.92,-53.93l-20.82,2.09l-14.58,48.92Z" style="fill:#231f20;fill-rule:nonzero;"/><path d="M78.303,130.824c0.13,0.14 5.4,-1.27 8.12,2c2.72,3.27 -0.81,6.19 -9.4,4.5c-8.59,-1.69 1.28,-6.5 1.28,-6.5Z" style="fill:#fff;fill-rule:nonzero;"/><path d="M81.553,138.314c-1.555,-0.016 -3.105,-0.18 -4.63,-0.49c-2.48,-0.49 -3.76,-1.29 -3.91,-2.46c-0.29,-2.26 4.17,-4.55 5.07,-5c0.104,-0.035 0.217,-0.035 0.32,0l0.33,0c1.4,-0.17 5.66,-0.71 8.08,2.19c1.08,1.28 1.31,2.59 0.67,3.69c-0.83,1.31 -2.98,2.07 -5.93,2.07Zm-3.14,-7c-1.95,1 -4.52,2.76 -4.38,3.87c0,0.37 0.52,1.07 3.09,1.58c5.81,1.14 8.73,0.08 9.47,-1.17c0.362,-0.868 0.132,-1.875 -0.57,-2.5c-2.06,-2.46 -5.77,-2 -7.16,-1.82c-0.19,0.04 -0.33,0.04 -0.45,0.04Z" style="fill:#231f20;fill-rule:nonzero;"/><path d="M65.093,120.374c0,0 -1.08,-1.24 -0.4,-2.11c0.28,-0.323 0.685,-0.508 1.112,-0.508c0.521,0 1.005,0.278 1.268,0.728c0.264,0.45 -1.7,0.61 -1.98,1.89Z" style="fill:#fff;fill-rule:nonzero;"/><path d="M65.093,120.884c-0.148,0.001 -0.29,-0.061 -0.39,-0.17c-0.5,-0.58 -1.16,-1.82 -0.41,-2.76c0.34,-0.447 0.87,-0.71 1.43,-0.71c0.691,0.011 1.337,0.349 1.74,0.91c0.112,0.129 0.149,0.306 0.1,0.47c-0.042,0.162 -0.162,0.293 -0.32,0.35c-0.4,0.14 -1.47,0.7 -1.65,1.51c-0.039,0.189 -0.182,0.341 -0.37,0.39l-0.13,0.01Zm0.65,-2.61c-0.245,0.003 -0.477,0.117 -0.63,0.31c-0.115,0.222 -0.115,0.487 0,0.71c0.302,-0.37 0.668,-0.682 1.08,-0.92c-0.138,-0.061 -0.29,-0.082 -0.44,-0.06l-0.01,-0.04Z" style="fill:#231f20;fill-rule:nonzero;"/><path d="M67.453,118.434c-1.219,0.099 -2.226,1.015 -2.44,2.22l21.45,27.91c0.272,-2.744 2.401,-4.964 5.13,-5.35l-24.14,-24.78Z" style="fill:#fff;fill-rule:nonzero;"/><path d="M86.453,149.074c-0.156,-0.002 -0.304,-0.076 -0.4,-0.2l-21.45,-27.91c-0.098,-0.128 -0.131,-0.295 -0.09,-0.45c0.29,-1.422 1.494,-2.487 2.94,-2.6c0.14,0.001 0.274,0.059 0.37,0.16l24.14,24.78c0.137,0.135 0.184,0.338 0.12,0.52c-0.057,0.182 -0.211,0.317 -0.4,0.35c-2.5,0.342 -4.456,2.369 -4.71,4.88c-0.017,0.212 -0.165,0.392 -0.37,0.45l-0.15,0.02Zm-20.87,-28.52l20.61,26.81c0.59,-2.144 2.255,-3.832 4.39,-4.45l-23.32,-23.94c-0.812,0.167 -1.463,0.779 -1.68,1.58Z" style="fill:#231f20;fill-rule:nonzero;"/><path d="M86.463,148.564l7.32,3.8l0.91,-0.85l-3.1,-8.3c0,0 -5.7,-0.57 -5.13,5.35Z" style="fill:#fff;fill-rule:nonzero;"/><path d="M93.783,152.874c-0.083,0.001 -0.166,-0.02 -0.24,-0.06l-7.32,-3.8c-0.157,-0.079 -0.264,-0.235 -0.28,-0.41c-0.281,-1.611 0.195,-3.266 1.29,-4.48c1.219,-1.048 2.809,-1.564 4.41,-1.43c0.2,0.018 0.372,0.151 0.44,0.34l3.09,8.3c0.076,0.195 0.025,0.418 -0.13,0.56l-0.91,0.85c-0.097,0.084 -0.221,0.13 -0.35,0.13Zm-6.83,-4.64l6.74,3.5l0.4,-0.36l-2.86,-7.66c-1.195,-0.034 -2.363,0.371 -3.28,1.14c-0.812,0.925 -1.178,2.162 -1,3.38Z" style="fill:#231f20;fill-rule:nonzero;"/><path d="M93.783,152.364l1.4,1.5l0.66,-0.75l-1.15,-1.6l-0.91,0.85Z" style="fill:#fff;fill-rule:nonzero;"/><path d="M95.183,154.384c-0.142,0.001 -0.278,-0.062 -0.37,-0.17l-1.41,-1.5c-0.09,-0.102 -0.14,-0.234 -0.14,-0.37c0.008,-0.138 0.069,-0.267 0.17,-0.36l0.91,-0.85c0.096,-0.087 0.221,-0.135 0.35,-0.135c0.166,0 0.323,0.08 0.42,0.215l1.15,1.6c0.15,0.186 0.15,0.454 0,0.64l-0.66,0.75c-0.093,0.114 -0.232,0.18 -0.38,0.18l-0.04,0Zm-0.67,-2l0.66,0.71l-0.57,-0.79l-0.09,0.08Z" style="fill:#231f20;fill-rule:nonzero;"/><path d="M79.663,150.754c1.18,-2.39 4.14,-7.46 4.82,-9.66c1.88,-6 -9.13,-11.62 -12.69,-11.62c-3.56,0 -11,12.44 -11,19.09c0,6.65 24.65,57.57 24.65,57.57l23.65,-10.82l-29.43,-44.56Z" style="fill:#fff;fill-rule:nonzero;"/><path d="M85.473,206.654c-0.196,0 -0.375,-0.113 -0.46,-0.29c-1,-2.08 -24.71,-51.12 -24.71,-57.8c0,-6.68 7.52,-19.61 11.49,-19.61c2.74,0 9.11,2.92 12,6.8c1.298,1.513 1.76,3.578 1.23,5.5c-0.953,2.358 -2.069,4.646 -3.34,6.85c-0.53,1 -1,1.9 -1.38,2.61l29.29,44.3c0.083,0.127 0.109,0.283 0.07,0.43c-0.043,0.141 -0.145,0.258 -0.28,0.32l-23.66,10.84c-0.075,0.045 -0.163,0.062 -0.25,0.05Zm-13.68,-76.67c-3.13,0 -10.45,12 -10.45,18.58c0,6.12 21.93,51.81 24.37,56.9l22.65,-10.38l-29.13,-44c-0.088,-0.162 -0.088,-0.359 0,-0.52c0.38,-0.76 0.93,-1.79 1.53,-2.91c1.237,-2.147 2.326,-4.376 3.26,-6.67c0.429,-1.608 0.027,-3.328 -1.07,-4.58c-2.79,-3.79 -8.86,-6.42 -11.16,-6.42Z" style="fill:#231f20;fill-rule:nonzero;"/><path d="M205.493,160.834l29.15,-7.43c-1,-1.41 -12.76,-38.74 -25.16,-44.85c-10.85,-7.2 -36.58,-12 -59.31,-10.37c0,0 -6,-0.22 -16.52,3.95c-25.62,10.18 -30.56,45.63 -30.56,45.63l20,6.91c0,0 -3.82,45.85 -7.43,69.82c0,0 44.22,8.65 108.6,-2c0.05,-0.02 -18.65,-54.88 -18.77,-61.66Z" style="fill:#ff929f;fill-rule:nonzero;"/><path d="M203.093,109.584c-3.86,4 -6.87,8.8 -11.13,12.57c-9.18,8.12 -21.19,14.55 -33.78,13.77c-14.84,-0.92 -27.67,-11.06 -30.89,-25.83c-2,-9.26 0.08,-17.86 7.24,-24.4c4.95,-4.52 11.29,-7.28 17.77,-9c17.21,-4.61 36.52,-2.16 51.21,7.94c2.401,1.477 4.427,3.49 5.92,5.88c3.67,6.65 -0.55,13.49 -5.31,18.06c-0.32,0.31 -0.66,0.66 -1.03,1.01Z" style="fill:#ff929f;fill-rule:nonzero;"/><path d="M152.463,120.064c-0.15,0 -2.91,3.36 -3.05,3.41c1.57,5.92 3.23,13.63 9.93,14.39c13.59,1.55 15.65,-16.57 18.21,-25.12c-9.41,2.64 -16.05,3.7 -25.09,7.32Z" style="fill:#231f20;fill-rule:nonzero;"/><path d="M160.933,138.464c-0.548,-0.005 -1.095,-0.038 -1.64,-0.1c-6.69,-0.76 -8.58,-8 -10.11,-13.79l-0.26,-1c-0.049,-0.201 0.031,-0.412 0.2,-0.53c0.16,-0.15 0.89,-1 1.42,-1.62c1.55,-1.78 1.57,-1.79 1.73,-1.86c5.536,-2.14 11.217,-3.881 17,-5.21c2.55,-0.64 5.18,-1.3 8.1,-2.12c0.175,-0.049 0.363,0.001 0.49,0.13c0.122,0.131 0.168,0.317 0.12,0.49c-0.38,1.27 -0.75,2.77 -1.15,4.36c-2.07,8.56 -5.24,21.24 -15.9,21.25Zm-11,-14.83l0.18,0.69c1.53,5.8 3.25,12.37 9.26,13c11.13,1.27 14.24,-11.24 16.52,-20.38c0.31,-1.25 0.61,-2.45 0.91,-3.53c-2.59,0.71 -5,1.31 -7.27,1.89c-5.731,1.301 -11.359,3.019 -16.84,5.14c-0.2,0.2 -0.9,1 -1.42,1.61c-0.7,0.9 -1.09,1.34 -1.31,1.58l-0.03,0Z" style="fill:#231f20;fill-rule:nonzero;"/><path d="M165.623,50.314c-2,-0.08 -3.28,0.79 -5,1.41c-3.35,1.18 -4.91,-1.62 -7.79,-3.11c-9.313,-4.842 -20.853,-2.424 -27.44,5.75c-1.995,2.363 -3.287,5.239 -3.73,8.3c-0.42,3.46 0.55,7 -0.05,10.42c-0.744,3.988 -3.501,7.321 -7.28,8.8c3.202,0.247 6.422,-0.058 9.52,-0.9c-1.8,2.14 -4.443,3.399 -7.24,3.45c3.189,2.451 7.109,3.765 11.13,3.73l-7.05,1.65c6,3.85 13.31,5 20.38,4.68c14.08,-0.73 37.66,-6.49 37.25,-24.73c-0.23,-6.99 -4.07,-19.05 -12.7,-19.45Z" style="fill:#fff;fill-rule:nonzero;"/><path d="M138.653,95.084c-5.39,0 -12.29,-1 -18.27,-4.82c-0.167,-0.112 -0.253,-0.312 -0.22,-0.51c0.042,-0.194 0.189,-0.349 0.38,-0.4l3.92,-0.91c-2.983,-0.509 -5.798,-1.738 -8.2,-3.58c-0.125,-0.095 -0.2,-0.243 -0.2,-0.4c0,-0.275 0.226,-0.5 0.5,-0.5c2.053,-0.034 4.037,-0.756 5.63,-2.05c-2.609,0.541 -5.283,0.709 -7.94,0.5c-0.231,-0.021 -0.418,-0.201 -0.45,-0.43c-0.037,-0.233 0.098,-0.462 0.32,-0.54c3.631,-1.397 6.286,-4.586 7,-8.41c0.241,-1.798 0.261,-3.618 0.06,-5.42c-0.156,-1.663 -0.156,-3.337 0,-5c0.455,-3.156 1.786,-6.122 3.84,-8.56c6.736,-8.359 18.539,-10.828 28.06,-5.87c0.852,0.465 1.662,1.004 2.42,1.61c1.62,1.23 2.9,2.2 5,1.47c0.45,-0.16 0.87,-0.34 1.28,-0.51c1.221,-0.62 2.572,-0.939 3.94,-0.93c8.66,0.38 13,12.12 13.14,19.94c0.18,8.29 -4.35,14.82 -13.47,19.39c-9.12,4.57 -20,5.63 -24.25,5.85c-0.84,0.06 -1.65,0.08 -2.49,0.08Zm-16.7,-5c6.46,3.75 13.87,4.25 19.06,4c4.16,-0.22 14.8,-1.21 23.85,-5.75c8.75,-4.38 13.09,-10.59 12.92,-18.47c-0.17,-7.44 -4.16,-18.61 -12.18,-19c-1.219,0.008 -2.421,0.299 -3.51,0.85c-0.43,0.18 -0.87,0.37 -1.34,0.53c-2.59,0.91 -4.21,-0.32 -5.92,-1.62c-0.71,-0.57 -1.47,-1.075 -2.27,-1.51c-9.099,-4.747 -20.386,-2.386 -26.82,5.61c-1.929,2.277 -3.186,5.048 -3.63,8c-0.149,1.593 -0.149,3.197 0,4.79c0.204,1.883 0.177,3.783 -0.08,5.66c-0.638,3.463 -2.743,6.488 -5.77,8.29c2.494,-0.004 4.976,-0.34 7.38,-1c0.212,-0.062 0.441,0.024 0.56,0.21c0.125,0.176 0.125,0.413 0,0.59c-1.582,1.882 -3.791,3.132 -6.22,3.52c2.892,1.885 6.278,2.874 9.73,2.84c0.255,-0.007 0.475,0.186 0.5,0.44c0.033,0.252 -0.132,0.491 -0.38,0.55l-5.88,1.47Z" style="fill:#231f20;fill-rule:nonzero;"/><path d="M148.413,106.254l1,17.22c0,0 7.87,9 18,3.47c10.13,-5.53 9.74,-14.3 9.74,-14.3l-6.65,-32.33c0,0 -9.19,-2.12 -11.53,-20.22c-7.838,6.206 -17.209,10.183 -27.12,11.51c-9.91,1.326 0.18,20.25 3.75,28.3c3.57,8.05 12.81,6.35 12.81,6.35Z" style="fill:#fff;fill-rule:nonzero;"/><path d="M160.763,129.234c-6.88,0 -11.67,-5.35 -11.73,-5.43c-0.074,-0.083 -0.116,-0.189 -0.12,-0.3l-1,-16.69c-2.11,0.21 -9.63,0.41 -12.8,-6.74c-3.57,-8 -3.78,-27.67 -3.79,-28.5c0.002,-0.249 0.185,-0.461 0.43,-0.5c9.806,-1.337 19.079,-5.266 26.86,-11.38c0.14,-0.123 0.337,-0.157 0.51,-0.09c0.171,0.066 0.293,0.219 0.32,0.4c1.18,9.16 4.16,14.05 6.45,16.55c1.238,1.493 2.865,2.615 4.7,3.24c0.188,0.049 0.331,0.2 0.37,0.39l6.66,32.36c0,0.17 0.3,9.22 -10,14.84c-2.092,1.188 -4.453,1.824 -6.86,1.85Zm-10.87,-6c1,1.09 8.16,8.23 17.29,3.24c9.72,-5.32 9.48,-13.77 9.48,-13.85l-6.59,-32c-1.66,-0.55 -9.18,-3.87 -11.47,-19.67c-7.686,5.806 -16.71,9.589 -26.24,11c0,3 0.5,20.46 3.69,27.67c3.37,7.58 11.91,6.15 12.27,6.09c0.14,-0.028 0.286,0.005 0.4,0.09c0.111,0.093 0.179,0.226 0.19,0.37l0.98,17.06Z" style="fill:#231f20;fill-rule:nonzero;"/><path d="M166.753,89.374c2.349,0.353 4.745,-0.237 6.66,-1.64c2.629,-2.082 3.988,-5.392 3.58,-8.72c-0.061,-1.225 -0.403,-2.419 -1,-3.49c-0.59,-1.084 -1.624,-1.858 -2.83,-2.12c-1.476,-0.092 -2.943,0.297 -4.18,1.11c-1.94,1 -2,2.11 -3.06,3.75c0.12,-0.15 0.21,-0.57 0.33,-0.72" style="fill:#fff;fill-rule:nonzero;"/><path d="M168.093,89.984c-0.475,-0.002 -0.95,-0.039 -1.42,-0.11c-0.273,-0.046 -0.461,-0.306 -0.42,-0.58c0.036,-0.239 0.244,-0.418 0.485,-0.418c0.029,0 0.057,0.003 0.085,0.008c2.215,0.326 4.471,-0.239 6.27,-1.57c2.489,-1.981 3.769,-5.125 3.37,-8.28c-0.04,-1.148 -0.344,-2.27 -0.89,-3.28c-0.521,-0.947 -1.425,-1.625 -2.48,-1.86c-1.24,-0.22 -2.48,0.35 -3.86,1.06c-0.948,0.461 -1.69,1.26 -2.08,2.24c-0.21,0.38 -0.44,0.81 -0.75,1.28c-0.02,0.04 -0.047,0.077 -0.08,0.11c-0.166,0.205 -0.47,0.241 -0.68,0.08c-0.218,-0.154 -0.272,-0.461 -0.12,-0.68c0.153,-0.22 0,-0.13 0.07,-0.2c0.059,-0.181 0.143,-0.353 0.25,-0.51c0.052,-0.061 0.117,-0.109 0.19,-0.14l0.19,-0.36c0.494,-1.16 1.389,-2.104 2.52,-2.66c1.18,-0.61 2.81,-1.45 4.48,-1.16c1.374,0.272 2.56,1.136 3.24,2.36c0.614,1.143 0.956,2.413 1,3.71c0.43,3.497 -1.007,6.975 -3.78,9.15c-1.623,1.182 -3.582,1.816 -5.59,1.81Z" style="fill:#231f20;fill-rule:nonzero;"/><path d="M148.933,115.314c3.995,-0.288 7.598,-2.537 9.61,-6c3.53,-5.89 2.12,-9.66 2.12,-9.66c0,0 -4.76,6.07 -12.25,6.56l0.52,9.1Z" style="fill:#231f20;fill-rule:nonzero;"/><path d="M148.933,115.804c-0.261,0 -0.479,-0.209 -0.49,-0.47l-0.53,-9c0,-0.011 0,-0.021 0,-0.031c0,-0.263 0.208,-0.484 0.47,-0.499c7.17,-0.46 11.84,-6.3 11.89,-6.36c0.111,-0.144 0.291,-0.217 0.47,-0.19c0.178,0.03 0.326,0.152 0.39,0.32c0.06,0.16 1.45,4.06 -2.17,10.09c-2.09,3.598 -5.846,5.923 -10,6.19l-0.03,-0.05Zm0,-9.1l0.47,8.07c3.618,-0.446 6.831,-2.546 8.69,-5.68c2.39,-4 2.45,-6.92 2.27,-8.32c-2.993,3.258 -7.042,5.359 -11.43,5.93Z" style="fill:#231f20;fill-rule:nonzero;"/><path d="M147.093,78.884c0,0 -3.75,9.88 -2.05,11.06c1.7,1.18 5.29,-0.7 5.29,-0.7" style="fill:#fff;fill-rule:nonzero;"/><path d="M146.523,90.834c-0.625,0.028 -1.244,-0.14 -1.77,-0.48c-1.88,-1.3 1,-9.24 1.86,-11.65c0.098,-0.254 0.385,-0.384 0.64,-0.29c0.195,0.073 0.325,0.26 0.325,0.468c0,0.062 -0.012,0.124 -0.035,0.182c-1.74,4.59 -3,9.9 -2.22,10.46c1.19,0.82 3.85,-0.24 4.77,-0.72c0.245,-0.125 0.549,-0.032 0.68,0.21c0.123,0.244 0.024,0.546 -0.22,0.67c-1.245,0.667 -2.619,1.059 -4.03,1.15Z" style="fill:#231f20;fill-rule:nonzero;"/><path d="M153.209,74.732c0.761,-0.246 1.662,0.428 2.01,1.505c0.348,1.077 0.012,2.151 -0.749,2.397c-0.762,0.246 -1.663,-0.428 -2.011,-1.505c-0.348,-1.077 -0.012,-2.151 0.75,-2.397Z" style="fill:#231f20;"/><path d="M140.423,77.805c0.801,-0.01 1.463,0.899 1.478,2.031c0.016,1.131 -0.622,2.058 -1.422,2.069c-0.8,0.011 -1.462,-0.899 -1.477,-2.03c-0.016,-1.131 0.621,-2.059 1.421,-2.07Z" style="fill:#231f20;"/><path d="M148.283,102.634c-0.96,0.025 -1.904,-0.252 -2.7,-0.79c-3.15,-2.3 -3.38,-7.38 -3.39,-7.6c-0.005,-0.243 0.163,-0.458 0.4,-0.51c12.94,-2.83 13.08,-2.73 13.31,-2.56c0.116,0.087 0.191,0.216 0.21,0.36c0.201,2.016 -0.077,4.051 -0.81,5.94c-0.892,2.344 -2.815,4.153 -5.21,4.9c-0.588,0.17 -1.197,0.257 -1.81,0.26Zm-5.05,-8c0.12,1.21 0.66,4.75 2.92,6.39c1.089,0.668 2.422,0.815 3.63,0.4c2.111,-0.657 3.808,-2.247 4.6,-4.31c0.619,-1.59 0.879,-3.298 0.76,-5c-1.72,0.31 -7.79,1.61 -11.91,2.51l0,0.01Z" style="fill:#231f20;fill-rule:nonzero;"/><path d="M154.843,97.314c-1.92,4.64 -6.73,5.75 -9,4.14c0.51,-1.77 1.44,-3.61 3.17,-4.28c1.898,-0.648 3.966,-0.598 5.83,0.14Z" style="fill:#231f20;fill-rule:nonzero;"/><path d="M148.283,102.624c-0.959,0.026 -1.902,-0.246 -2.7,-0.78c-0.168,-0.123 -0.241,-0.341 -0.18,-0.54c0.68,-2.44 1.85,-4 3.46,-4.61c2.002,-0.68 4.18,-0.634 6.15,0.13c0.13,0.047 0.234,0.144 0.29,0.27c0.05,0.125 0.05,0.264 0,0.39c-0.897,2.339 -2.818,4.142 -5.21,4.89c-0.588,0.166 -1.198,0.25 -1.81,0.25Zm-1.82,-1.41c1.04,0.491 2.23,0.562 3.32,0.2c1.936,-0.592 3.531,-1.983 4.38,-3.82c-1.603,-0.533 -3.336,-0.533 -4.94,0c-1.23,0.5 -2.13,1.72 -2.76,3.62Z" style="fill:#231f20;fill-rule:nonzero;"/><path d="M131.383,86.864c-1.404,-0.001 -2.63,-0.988 -2.93,-2.36l-1.05,-4.77c-0.35,-1.608 0.683,-3.219 2.29,-3.57l11.15,-2.45c0.214,-0.048 0.431,-0.071 0.649,-0.071c1.406,0 2.632,0.987 2.931,2.361l1,4.77c0.335,1.585 -0.672,3.17 -2.25,3.54l-11.15,2.44c-0.208,0.061 -0.423,0.098 -0.64,0.11Zm10.11,-12.18c-0.142,-0.015 -0.287,-0.015 -0.43,0l-11.14,2.44c-1.05,0.242 -1.726,1.293 -1.51,2.35l1.05,4.84c0.247,1.042 1.29,1.711 2.34,1.5l11.15,-2.5c1.043,-0.247 1.711,-1.29 1.5,-2.34l-1,-4.77c-0.206,-0.894 -1.002,-1.537 -1.92,-1.55l-0.04,0.03Z" style="fill:#231f20;fill-rule:nonzero;"/><path d="M151.253,82.514c-0.574,-0.002 -1.137,-0.168 -1.62,-0.48c-0.667,-0.429 -1.139,-1.105 -1.31,-1.88l-1,-4.77c-0.171,-0.777 -0.027,-1.59 0.4,-2.26c0.429,-0.674 1.11,-1.15 1.89,-1.32l11.14,-2.44c0.214,-0.048 0.431,-0.071 0.649,-0.071c1.406,0 2.632,0.987 2.931,2.361l1,4.77c0.36,1.595 -0.648,3.205 -2.24,3.58l-11.14,2.44c-0.23,0.045 -0.464,0.069 -0.7,0.07Zm10.11,-12.2c-0.144,0.002 -0.288,0.018 -0.43,0.05l-11.14,2.45c-0.512,0.107 -0.959,0.418 -1.24,0.86c-0.281,0.442 -0.378,0.977 -0.27,1.49l1.05,4.77c0.247,1.042 1.29,1.711 2.34,1.5l11.15,-2.44c0.51,-0.114 0.955,-0.423 1.24,-0.86c0.279,-0.444 0.372,-0.979 0.26,-1.49l-1,-4.77c-0.205,-0.912 -1.024,-1.565 -1.96,-1.56Z" style="fill:#231f20;fill-rule:nonzero;"/><path d="M143.913,76.634c-0.091,0.002 -0.181,-0.023 -0.26,-0.07c-0.24,-0.143 -0.325,-0.456 -0.19,-0.7c0.47,-0.81 2,-2.08 4.51,-1.07c0.208,0.078 0.345,0.278 0.345,0.5c0,0.293 -0.241,0.535 -0.535,0.535c-0.064,0 -0.129,-0.012 -0.19,-0.035c-2.24,-0.9 -3.14,0.47 -3.23,0.63c-0.105,0.14 -0.274,0.219 -0.45,0.21Z" style="fill:#231f20;fill-rule:nonzero;"/><path d="M44.293,209.754l205.6,0l32.99,60.25l-271.58,0l32.99,-60.25Z" style="fill:#fff;fill-rule:nonzero;"/><path d="M282.883,270.504l-271.58,0c-0.174,-0.001 -0.337,-0.092 -0.43,-0.24c-0.085,-0.156 -0.085,-0.345 0,-0.5l33,-60.25c0.087,-0.162 0.257,-0.263 0.44,-0.26l205.57,0c0.184,-0.003 0.354,0.098 0.44,0.26l33,60.25c0.086,0.155 0.086,0.344 0,0.5c-0.094,0.151 -0.261,0.242 -0.44,0.24Zm-270.73,-1l269.88,0l-32.44,-59.25l-205,0l-32.44,59.25Z" style="fill:#d1d3d4;fill-rule:nonzero;"/><path d="M47.483,170.884l0.44,-1.9c1,-1.9 2.11,-3.18 4.69,-3.18l97.87,0c2.423,0.004 4.57,1.614 5.25,3.94l15.91,54.66c0.848,2.419 -0.348,5.114 -2.71,6.11l-1.73,0.41l-119.72,-60.04Z" style="fill:#fff;fill-rule:nonzero;"/><path d="M167.203,231.424c-0.075,-0.003 -0.15,-0.02 -0.22,-0.05l-119.72,-60.06c-0.207,-0.102 -0.316,-0.336 -0.26,-0.56l0.44,-1.9c-0.004,-0.044 -0.004,-0.087 0,-0.13c1,-1.81 2.15,-3.44 5.13,-3.44l97.87,0c2.643,0.01 4.982,1.765 5.73,4.3l15.92,54.73c0.923,2.665 -0.399,5.627 -3,6.72l-1.79,0.43l-0.1,-0.04Zm-119.11,-60.81l119.21,59.78l1.55,-0.36c2.41,-0.94 2.91,-3.51 2.34,-5.49l-15.91,-54.66c-0.624,-2.109 -2.57,-3.57 -4.77,-3.58l-97.9,0c-2.21,0 -3.16,1 -4.22,2.86l-0.3,1.45Z" style="fill:#231f20;fill-rule:nonzero;"/><path d="M167.203,230.924l-99.87,0c-1.389,-0.016 -2.613,-0.946 -3,-2.28l-16.81,-57.76c-0.038,-0.134 -0.057,-0.272 -0.057,-0.41c0,-0.817 0.671,-1.489 1.487,-1.49l102.54,0l17.37,59.73c0.048,0.159 0.072,0.324 0.072,0.49c0,0.943 -0.777,1.72 -1.72,1.72c-0.004,0 -0.008,0 -0.012,0Z" style="fill:#231f20;fill-rule:nonzero;"/><path d="M167.203,231.424l-99.87,0c-1.622,-0.008 -3.058,-1.085 -3.52,-2.64l-16.81,-57.76c-0.047,-0.173 -0.071,-0.351 -0.071,-0.53c0,-1.091 0.891,-1.99 1.981,-2l102.58,0c0.218,-0.004 0.412,0.14 0.47,0.35l17.38,59.73c0.059,0.201 0.088,0.41 0.088,0.62c0,1.222 -1.005,2.229 -2.228,2.23Zm-118.29,-61.94c-0.542,0.008 -0.984,0.457 -0.984,1c0,0.087 0.012,0.175 0.034,0.26l16.8,57.76c0.339,1.133 1.388,1.916 2.57,1.92l99.87,0c0.392,0.002 0.762,-0.18 1,-0.49c0.229,-0.31 0.3,-0.711 0.19,-1.08l-17.3,-59.37l-102.18,0Z" style="fill:#231f20;fill-rule:nonzero;"/><path d="M150.453,206.314l-6.07,25.81c-0.659,2.834 -3.209,4.856 -6.12,4.85l-63.17,0c-3.449,-0.002 -6.287,-2.841 -6.287,-6.29c0,-0.485 0.056,-0.968 0.167,-1.44l5.35,-22.93l-5.23,0l-5.12,21.75c-0.194,0.843 -0.292,1.705 -0.292,2.57c0,6.267 5.155,11.426 11.422,11.43l63.21,0c5.255,-0.004 9.859,-3.64 11.08,-8.75l6.34,-27l-5.28,0Z" style="fill:#fff;fill-rule:nonzero;"/><path d="M138.263,242.634l-63.17,0c-6.543,-0.002 -11.926,-5.387 -11.926,-11.93c0,-0.919 0.106,-1.836 0.316,-2.73l5.11,-21.76c0.056,-0.224 0.26,-0.382 0.49,-0.38l5.28,0c0.152,0.002 0.295,0.072 0.39,0.19c0.093,0.118 0.127,0.273 0.09,0.42l-5.39,22.93c-0.101,0.432 -0.152,0.875 -0.152,1.32c0,3.179 2.614,5.795 5.792,5.8l63.21,0c2.683,0.005 5.033,-1.858 5.64,-4.47l6.07,-25.81c0.052,-0.223 0.252,-0.381 0.48,-0.38l5.28,0c0.276,0.005 0.5,0.234 0.5,0.51c0,0.033 -0.003,0.067 -0.01,0.1l-6.35,27c-1.253,5.391 -6.115,9.226 -11.65,9.19Zm-68.83,-35.8l-5,21.37c-0.194,0.822 -0.292,1.665 -0.292,2.51c0,5.99 4.93,10.92 10.92,10.92c0.011,0 0.022,0 0.032,0l63.21,0c5.061,0.014 9.497,-3.5 10.64,-8.43l6.2,-26.37l-4.25,0l-6,25.42c-0.703,3.067 -3.463,5.254 -6.61,5.24l-63.19,0c0,0 -0.001,0 -0.001,0c-3.725,0 -6.79,-3.065 -6.79,-6.79c0,-0.526 0.061,-1.049 0.181,-1.56l5.24,-22.31l-4.29,0Z" style="fill:#231f20;fill-rule:nonzero;"/><path d="M231.913,153.684c0,0 8.94,39.7 1.62,49.84c-7.32,10.14 -58.44,8.54 -58.44,8.54c0,0 -8.29,9.95 -15.49,9.29c-7.2,-0.66 -3,-14.28 5.47,-19.95l-1.17,-4.73l45.07,-7.23l-6,-28.53" style="fill:#fff;fill-rule:nonzero;"/><path d="M160.263,221.884c-0.246,0 -0.496,0 -0.75,0c-1.91,-0.096 -3.528,-1.478 -3.92,-3.35c-1.13,-4.43 2.49,-12.88 8.86,-17.32l-1.08,-4.39c-0.035,-0.133 -0.013,-0.275 0.06,-0.39c0.077,-0.119 0.201,-0.199 0.34,-0.22l44.55,-7.15l-5.9,-28c-0.006,-0.033 -0.01,-0.067 -0.01,-0.1c0,-0.237 0.168,-0.443 0.4,-0.49c0.036,-0.009 0.073,-0.013 0.11,-0.013c0.232,0 0.434,0.165 0.48,0.393l6,28.53c0.03,0.135 0.001,0.277 -0.08,0.39c-0.076,0.112 -0.195,0.189 -0.33,0.21l-44.53,7.15l1,4.2c0.053,0.2 -0.028,0.414 -0.2,0.53c-6.12,4.1 -9.79,12.35 -8.74,16.45c0.277,1.45 1.526,2.528 3,2.59c6.85,0.64 15,-9 15.06,-9.11c0.099,-0.119 0.247,-0.185 0.4,-0.18c0.51,0 51,1.47 58.06,-8.34c7.06,-9.81 -1.6,-49 -1.69,-49.43c-0.007,-0.036 -0.011,-0.073 -0.011,-0.11c0,-0.281 0.231,-0.512 0.511,-0.512c0.24,0 0.449,0.168 0.5,0.402c0.37,1.63 8.9,40 1.53,50.24c-7.2,10 -54.39,8.88 -58.66,8.75c-1.13,1.32 -8.26,9.27 -14.96,9.27Z" style="fill:#231f20;fill-rule:nonzero;"/><path d="M178.283,134.024c-0.077,-0.002 -0.152,-0.022 -0.22,-0.06c-0.178,-0.081 -0.293,-0.26 -0.293,-0.456c0,-0.078 0.018,-0.155 0.053,-0.224c7.26,-15 25.9,-25.09 26.09,-25.19c0.075,-0.042 0.159,-0.064 0.245,-0.064c0.188,0 0.36,0.106 0.445,0.274c0.043,0.075 0.065,0.161 0.065,0.247c0,0.19 -0.106,0.365 -0.275,0.453c-0.18,0.1 -18.53,10 -25.64,24.73c-0.089,0.177 -0.271,0.289 -0.47,0.29Z" style="fill:#231f20;fill-rule:nonzero;"/><path d="M147.463,133.314c-0.072,0.015 -0.147,0.015 -0.22,0c-17.42,-8 -19.53,-25.58 -19.55,-25.75c-0.029,-0.283 0.178,-0.539 0.46,-0.57c0.021,-0.003 0.042,-0.004 0.064,-0.004c0.258,0 0.478,0.197 0.506,0.454c0,0.17 2.08,17.18 19,24.84c0.256,0.117 0.373,0.422 0.26,0.68c-0.078,0.217 -0.289,0.359 -0.52,0.35Z" style="fill:#231f20;fill-rule:nonzero;"/><path d="M68.093,155.984c-0.222,-0.064 -0.377,-0.269 -0.377,-0.5c0,-0.232 0.155,-0.437 0.377,-0.5c7.54,-0.23 11.2,-4.49 11.24,-4.53c0.097,-0.119 0.242,-0.187 0.395,-0.187c0.119,0 0.234,0.041 0.325,0.117c0.219,0.181 0.251,0.51 0.07,0.73c-0.16,0.19 -4,4.66 -12,4.9l-0.03,-0.03Z" style="fill:#231f20;fill-rule:nonzero;"/><path d="M202.913,161.424c-0.236,0.002 -0.444,-0.161 -0.5,-0.39c0,-0.18 -4.71,-18.61 -5.36,-29.66c0,-0.011 0,-0.021 0,-0.031c0,-0.269 0.212,-0.494 0.48,-0.509c0.282,-0.017 0.529,0.198 0.55,0.48c0.65,10.95 5.29,29.28 5.33,29.47c0.07,0.274 -0.096,0.557 -0.37,0.63l-0.13,0.01Z" style="fill:#231f20;fill-rule:nonzero;"/><path d="M122.313,164.714c-0.268,-0.015 -0.481,-0.24 -0.481,-0.51c0,-0.013 0,-0.027 0.001,-0.04l2.48,-38.85c0.015,-0.269 0.241,-0.482 0.51,-0.482c0.013,0 0.027,0.001 0.04,0.002c0.268,0.01 0.482,0.232 0.482,0.499c0,0.014 0,0.027 -0.002,0.041l-2.52,38.85c-0.01,0.272 -0.237,0.49 -0.51,0.49Z" style="fill:#231f20;fill-rule:nonzero;"/><path d="M210.853,142.984c-0.188,0.002 -0.363,-0.103 -0.45,-0.27l-4.84,-9c-0.053,-0.132 -0.053,-0.279 0,-0.41c0.047,-0.135 0.144,-0.246 0.27,-0.31l15,-7.09c0.071,-0.036 0.149,-0.054 0.229,-0.054c0.197,0 0.378,0.115 0.461,0.294c0.122,0.255 0.014,0.565 -0.24,0.69l-14.54,6.86l4.38,8.12l14.73,-4.5c0.049,-0.015 0.1,-0.022 0.15,-0.022c0.287,0 0.522,0.235 0.522,0.522c0,0.23 -0.151,0.434 -0.372,0.5l-15.15,4.68l-0.15,-0.01Z" style="fill:#231f20;fill-rule:nonzero;"/><ellipse cx="223.843" cy="249.664" rx="24.69" ry="7.43" style="fill:#fff;"/><path d="M223.843,257.594c-14.12,0 -25.19,-3.48 -25.19,-7.93c0,-4.45 11.07,-7.93 25.19,-7.93c14.12,0 25.19,3.48 25.19,7.93c0,4.45 -11.07,7.93 -25.19,7.93Zm0,-14.86c-14.47,0 -24.19,3.58 -24.19,6.93c0,3.35 9.72,6.93 24.19,6.93c14.47,0 24.19,-3.58 24.19,-6.93c0,-3.35 -9.72,-6.93 -24.19,-6.93Z" style="fill:#d1d3d4;fill-rule:nonzero;"/><path d="M205.233,228.444l-0.59,0.11c-1.784,0.266 -3.408,1.181 -4.56,2.57c-1.315,2.009 -1.373,4.603 -0.15,6.67c2.62,4.72 9,6 13.92,6.49c0.697,0.113 1.41,0.058 2.08,-0.16c0.677,-0.231 1.138,-0.866 1.15,-1.58c-0.085,-0.584 -0.463,-1.086 -1,-1.33c-0.515,-0.239 -1.065,-0.394 -1.63,-0.46c-3.06,-0.5 -6.28,-0.87 -9.08,-2.28c-1.63,-0.83 -3.91,-2.72 -2.72,-4.76c0.417,-0.646 1.016,-1.154 1.72,-1.46c2.81,-1.34 5.48,-0.32 8.25,0.5c0.202,0.074 0.416,0.104 0.63,0.09c0.546,-0.15 0.896,-0.691 0.81,-1.25c-0.09,-1.21 -1.3,-2 -2.44,-2.45c-2.035,-0.773 -4.235,-1.014 -6.39,-0.7Z" style="fill:#fff;fill-rule:nonzero;"/><path d="M214.683,244.834c-0.29,-0.001 -0.581,-0.018 -0.87,-0.05c-7.51,-0.71 -12.19,-2.91 -14.32,-6.75c-1.321,-2.238 -1.247,-5.046 0.19,-7.21c1.227,-1.485 2.957,-2.468 4.86,-2.76l0.62,-0.11c2.253,-0.336 4.554,-0.085 6.68,0.73c1,0.37 2.63,1.24 2.76,2.87c0.104,0.821 -0.434,1.598 -1.24,1.79c-0.284,0.019 -0.569,-0.019 -0.84,-0.11l-0.72,-0.22c-2.46,-0.75 -4.78,-1.45 -7.17,-0.31c-0.619,0.262 -1.145,0.704 -1.51,1.27c-0.263,0.416 -0.332,0.928 -0.19,1.4c0.549,1.181 1.509,2.123 2.7,2.65c2.484,1.08 5.117,1.775 7.81,2.06l1.13,0.18c0.622,0.068 1.227,0.24 1.79,0.51c0.779,0.292 1.297,1.041 1.297,1.872c0,0.926 -0.644,1.738 -1.547,1.948c-0.458,0.166 -0.942,0.247 -1.43,0.24Zm-9.37,-15.89l-0.57,0.1c-1.66,0.247 -3.174,1.089 -4.26,2.37c-1.201,1.855 -1.244,4.242 -0.11,6.14c1.95,3.52 6.38,5.56 13.53,6.23c0.615,0.101 1.244,0.06 1.84,-0.12c0.474,-0.16 0.806,-0.592 0.84,-1.09c-0.065,-0.404 -0.328,-0.749 -0.7,-0.92c-0.465,-0.213 -0.961,-0.348 -1.47,-0.4l-1.13,-0.18c-2.795,-0.298 -5.527,-1.026 -8.1,-2.16c-1.439,-0.642 -2.586,-1.803 -3.21,-3.25c-0.221,-0.741 -0.116,-1.542 0.29,-2.2c0.464,-0.738 1.14,-1.317 1.94,-1.66c2.74,-1.31 5.36,-0.52 7.89,0.25l0.72,0.22c0.135,0.049 0.277,0.073 0.42,0.07c0.24,0 0.39,-0.41 0.37,-0.71c-0.08,-1.12 -1.51,-1.78 -2.12,-2c-1.964,-0.751 -4.09,-0.982 -6.17,-0.67l0,-0.02Z" style="fill:#231f20;fill-rule:nonzero;"/><path d="M207.543,223.384c0,0 4.62,23.06 5,24.45c0.38,1.39 11.3,7.1 20,1.49l7.61,-23.57l-32.61,-2.37Z" style="fill:#fff;fill-rule:nonzero;"/><path d="M224.033,252.254c-2.613,-0.022 -5.202,-0.516 -7.64,-1.46c-1.92,-0.74 -4.1,-1.94 -4.34,-2.83c-0.37,-1.39 -4.81,-23.53 -5,-24.48c-0.008,-0.037 -0.013,-0.075 -0.013,-0.113c0,-0.264 0.217,-0.48 0.48,-0.48c0.018,0 0.036,0.001 0.053,0.003l32.61,2.42c0.26,0.012 0.468,0.229 0.468,0.489c0,0.055 -0.01,0.109 -0.028,0.161l-7.61,23.57c-0.037,0.108 -0.111,0.2 -0.21,0.26c-2.62,1.658 -5.669,2.513 -8.77,2.46Zm-15.87,-28.32c0.75,3.75 4.53,22.54 4.86,23.77c0.14,0.33 1.94,1.67 5.13,2.64c3,0.91 8.74,1.94 14,-1.34l7.36,-22.79l-31.35,-2.28Z" style="fill:#231f20;fill-rule:nonzero;"/><path d="M207.559,223.388c0.161,-3.905 7.611,-6.774 16.627,-6.404c9.016,0.37 16.206,3.84 16.046,7.744c-0.16,3.905 -7.61,6.774 -16.627,6.404c-9.016,-0.37 -16.206,-3.84 -16.046,-7.744Z" style="fill:#231f20;"/><path d="M225.163,231.664c-0.53,0 -1.06,0 -1.59,0c-9.45,-0.38 -16.71,-4 -16.53,-8.26c0.18,-4.26 7.71,-7.26 17.15,-6.87c9.44,0.39 16.7,4 16.52,8.26c-0.08,2.1 -2,4 -5.31,5.24c-3.287,1.154 -6.756,1.706 -10.24,1.63Zm-2.51,-14.21c-7.93,0 -14.48,2.6 -14.62,6c-0.14,3.56 7,6.87 15.58,7.22c3.896,0.227 7.798,-0.32 11.48,-1.61c2.9,-1.11 4.6,-2.7 4.67,-4.35c0.15,-3.57 -7,-6.88 -15.57,-7.23l-1.54,-0.03Z" style="fill:#231f20;fill-rule:nonzero;"/><path d="M184.763,159.314l-52.91,0c-0.274,0 -0.5,-0.226 -0.5,-0.5l0,-15.62c0.006,-0.273 0.228,-0.495 0.5,-0.5l52.91,0c0.275,0 0.5,0.225 0.5,0.5l0,15.65c-0.015,0.263 -0.236,0.47 -0.5,0.47Zm-52.41,-1l51.91,0l0,-14.62l-51.91,0l0,14.62Z" style="fill:#231f20;fill-rule:nonzero;"/><rect x="11.303" y="270.004" width="271.57" height="10.47" style="fill:#fff;"/><path d="M282.883,280.974l-271.58,0c-0.274,0 -0.5,-0.226 -0.5,-0.5l0,-10.47c0.006,-0.273 0.228,-0.495 0.5,-0.5l271.58,0c0.273,0.005 0.495,0.227 0.5,0.5l0,10.47c0,0.274 -0.225,0.5 -0.5,0.5Zm-271.08,-1l270.58,0l0,-9.47l-270.58,0l0,9.47Z" style="fill:#d1d3d4;fill-rule:nonzero;"/><path d="M240.143,172.224c-0.272,-0.011 -0.49,-0.238 -0.49,-0.51c0,-1.15 0.73,-28.26 3.72,-37.65c2.99,-9.39 8.6,-13.3 8.83,-13.45c0.083,-0.056 0.181,-0.086 0.28,-0.086c0.275,0 0.501,0.226 0.501,0.501c0,0.166 -0.083,0.322 -0.221,0.415c-0.06,0 -5.53,3.79 -8.44,12.92c-2.91,9.13 -3.66,37.09 -3.67,37.37c-0.005,0.27 -0.229,0.49 -0.499,0.49c-0.004,0 -0.007,0 -0.011,0Z" style="fill:#fff;fill-rule:nonzero;"/></g><rect x="195.005" y="16.657" width="42.46" height="28.04" style="fill:#fff;"/><path d="M237.465,45.207l-42.46,0c-0.275,0 -0.5,-0.226 -0.5,-0.5l0,-28.06c0,-0.274 0.225,-0.5 0.5,-0.5l42.46,0c0.272,0.005 0.494,0.228 0.5,0.5l0,28.06c-0.006,0.272 -0.228,0.495 -0.5,0.5Zm-42,-1l41.54,0l0,-27.05l-41.5,0l-0.04,27.05Z" style="fill:#d1d3d4;fill-rule:nonzero;"/><rect x="195.005" y="44.707" width="42.46" height="5.55" style="fill:#fff;"/><path d="M237.465,50.757l-42.46,0c-0.275,0 -0.5,-0.226 -0.5,-0.5l0,-5.55c0,-0.274 0.225,-0.5 0.5,-0.5l42.46,0c0.274,0 0.5,0.226 0.5,0.5l0,5.55c0,0.274 -0.226,0.5 -0.5,0.5Zm-42,-1l41.54,0l0,-4.55l-41.5,0l-0.04,4.55Z" style="fill:#d1d3d4;fill-rule:nonzero;"/><path d="M205.422,72.555l-16.36,0c-0.274,0 -0.5,-0.226 -0.5,-0.5l0,-13c0,-0.274 0.226,-0.5 0.5,-0.5l16.36,0c0.275,0 0.5,0.226 0.5,0.5l0,13c0,0.274 -0.225,0.5 -0.5,0.5Zm-15.86,-1l15.36,0l0,-12l-15.36,0l0,12Z" style="fill:#d1d3d4;fill-rule:nonzero;"/><path d="M197.242,61.425c-0.274,0 -0.5,-0.226 -0.5,-0.5l0,-3.11c0,-0.274 0.226,-0.5 0.5,-0.5c0.275,0 0.5,0.226 0.5,0.5l0,3.09c0.001,0.006 0.001,0.013 0.001,0.02c0,0.274 -0.226,0.5 -0.5,0.5c0,0 0,0 -0.001,0Z" style="fill:#d1d3d4;fill-rule:nonzero;"/><g><rect x="21.999" y="52.447" width="82.351" height="46.947" style="fill:#fff;"/><path d="M104.341,99.807l-82.342,0c-0.227,0 -0.413,-0.186 -0.413,-0.413l0,-46.947c0,-0.227 0.186,-0.413 0.413,-0.413l82.342,0c0.227,0 0.414,0.186 0.414,0.413l0,46.947c0,0.227 -0.187,0.413 -0.414,0.413Zm-81.929,-0.826l81.516,0l0,-46.121l-81.516,0l0,46.121Z" style="fill:#d1d3d4;fill-rule:nonzero;stroke:#d1d3d4;stroke-width:0.5px;"/><rect x="30.459" y="59.297" width="18.326" height="33.132" style="fill:#fff;"/><path d="M48.785,92.842l-18.326,0c-0.226,0 -0.413,-0.187 -0.413,-0.413l0,-33.132c0,-0.227 0.187,-0.414 0.413,-0.414l18.326,0c0.227,0 0.413,0.187 0.413,0.414l0,33.132c-0.004,0.225 -0.188,0.408 -0.413,0.413Zm-17.913,-0.826l17.5,0l0,-32.306l-17.5,0l0,32.306Z" style="fill:#e6e7e8;fill-rule:nonzero;"/><rect x="54.866" y="59.297" width="18.326" height="33.132" style="fill:#fff;"/><path d="M73.192,92.842l-18.326,0c-0.226,0 -0.413,-0.187 -0.413,-0.413l0,-33.132c0,-0.227 0.187,-0.414 0.413,-0.414l18.326,0c0.227,0 0.413,0.187 0.413,0.414l0,33.132c-0.004,0.225 -0.188,0.408 -0.413,0.413Zm-17.913,-0.826l17.5,0l0,-32.306l-17.5,0l0,32.306Z" style="fill:#e6e7e8;fill-rule:nonzero;"/><rect x="79.273" y="59.297" width="18.326" height="33.132" style="fill:#fff;"/><path d="M97.599,92.842l-18.326,0c-0.225,-0.005 -0.408,-0.188 -0.413,-0.413l0,-33.132c0,-0.227 0.187,-0.414 0.413,-0.414l18.326,0c0.227,0 0.414,0.187 0.414,0.414l0,33.132c0,0.226 -0.187,0.413 -0.414,0.413Zm-17.912,-0.826l17.499,0l0,-32.306l-17.499,0l0,32.306Z" style="fill:#e6e7e8;fill-rule:nonzero;"/><path d="M48.785,71.533l-18.326,0c-0.183,0 -0.345,-0.122 -0.396,-0.297c-0.051,-0.175 0.02,-0.364 0.173,-0.463l8.618,-5.561l-8.618,-5.568c-0.119,-0.074 -0.192,-0.205 -0.192,-0.345c0,-0.08 0.024,-0.159 0.068,-0.226c0.123,-0.19 0.38,-0.245 0.57,-0.123l8.94,5.783l8.932,-5.783c0.193,-0.123 0.453,-0.068 0.578,0.123c0.122,0.191 0.066,0.448 -0.124,0.571l-8.626,5.568l8.626,5.545c0.118,0.076 0.189,0.206 0.189,0.347c0,0.226 -0.186,0.412 -0.412,0.413l0,0.016Zm-16.921,-0.826l15.517,0l-7.759,-5.007l-7.758,5.007Z" style="fill:#e6e7e8;fill-rule:nonzero;"/><path d="M45.497,74.954l-11.824,0c-0.226,0 -0.413,-0.187 -0.413,-0.413c0,-0.227 0.187,-0.413 0.413,-0.413l11.824,0c0.226,0 0.413,0.186 0.413,0.413c0,0.226 -0.187,0.413 -0.413,0.413Z" style="fill:#e6e7e8;fill-rule:nonzero;"/><path d="M45.497,79.316l-11.824,0c-0.226,0 -0.413,-0.186 -0.413,-0.413c0,-0.226 0.187,-0.413 0.413,-0.413l11.824,0c0.226,0 0.413,0.187 0.413,0.413c0,0.227 -0.187,0.413 -0.413,0.413Z" style="fill:#e6e7e8;fill-rule:nonzero;"/><path d="M45.497,83.671l-11.824,0c-0.226,0 -0.413,-0.187 -0.413,-0.414c0,-0.226 0.187,-0.413 0.413,-0.413l11.824,0c0.226,0 0.413,0.187 0.413,0.413c0,0.227 -0.187,0.414 -0.413,0.414Z" style="fill:#e6e7e8;fill-rule:nonzero;"/><path d="M45.497,88.025l-11.824,0c-0.226,0 -0.413,-0.187 -0.413,-0.413c0,-0.227 0.187,-0.413 0.413,-0.413l11.824,0c0.226,0 0.413,0.186 0.413,0.413c0,0.226 -0.187,0.413 -0.413,0.413Z" style="fill:#e6e7e8;fill-rule:nonzero;"/><path d="M73.192,92.842l-18.326,0c-0.183,0 -0.345,-0.122 -0.396,-0.298c-0.051,-0.175 0.02,-0.364 0.173,-0.462l8.626,-5.569l-8.626,-5.561c-0.191,-0.125 -0.247,-0.385 -0.124,-0.578c0.075,-0.116 0.203,-0.187 0.341,-0.187c0.082,0 0.162,0.025 0.229,0.071l0.298,0.182c0.062,-0.154 0.214,-0.253 0.38,-0.248l17.425,0c0.181,-0.001 0.343,0.117 0.397,0.289c0.052,0.178 -0.019,0.37 -0.174,0.471l-8.626,5.561l8.626,5.569c0.154,0.098 0.225,0.287 0.174,0.462c-0.051,0.176 -0.214,0.298 -0.397,0.298Zm-16.921,-0.826l15.517,0l-7.759,-5.007l-7.758,5.007Zm0,-10.998l7.758,5.007l7.759,-5.007l-15.517,0Z" style="fill:#e6e7e8;fill-rule:nonzero;"/><path d="M68.838,63.238l-10.27,0c-0.227,0 -0.413,-0.187 -0.413,-0.413c0,-0.227 0.186,-0.414 0.413,-0.414l10.27,0c0.227,0 0.413,0.187 0.413,0.414c-0.004,0.225 -0.188,0.408 -0.413,0.413Z" style="fill:#e6e7e8;fill-rule:nonzero;"/><path d="M68.838,67.179l-10.27,0c-0.227,0 -0.413,-0.187 -0.413,-0.413c0,-0.227 0.186,-0.413 0.413,-0.413l10.27,0c0.227,0 0.413,0.186 0.413,0.413c-0.004,0.225 -0.188,0.409 -0.413,0.413Z" style="fill:#e6e7e8;fill-rule:nonzero;"/><path d="M66.549,71.12l-7.981,0c-0.227,0 -0.413,-0.186 -0.413,-0.413c0,-0.227 0.186,-0.413 0.413,-0.413l7.981,0c0.227,0 0.413,0.186 0.413,0.413c0,0.227 -0.186,0.413 -0.413,0.413Z" style="fill:#e6e7e8;fill-rule:nonzero;"/><path d="M67.698,78.482c-0.003,0 -0.006,0 -0.008,0c-1.197,0 -2.182,-0.985 -2.182,-2.181c0,-1.197 0.985,-2.182 2.182,-2.182c1.196,0 2.181,0.985 2.181,2.182c0,0.002 0,0.005 0,0.008c-0.005,1.19 -0.983,2.168 -2.173,2.173Zm0,-3.528c-0.003,0 -0.006,0 -0.008,0c-0.744,0 -1.355,0.611 -1.355,1.355c0,0.743 0.611,1.355 1.355,1.355c0.743,0 1.355,-0.612 1.355,-1.355c0,-0.74 -0.607,-1.351 -1.347,-1.355Z" style="fill:#e6e7e8;fill-rule:nonzero;"/><path d="M93.369,76.722l-9.543,0c-0.043,0.003 -0.086,0.004 -0.129,0.004c-1.111,0 -2.025,-0.914 -2.025,-2.024c0,-1.111 0.914,-2.024 2.025,-2.024c0.043,0 0.086,0.001 0.129,0.004l9.543,0c1.06,0.067 1.895,0.958 1.895,2.02c0,1.062 -0.835,1.952 -1.895,2.02Zm-9.543,-3.214c-0.033,-0.003 -0.066,-0.004 -0.099,-0.004c-0.658,0 -1.198,0.541 -1.198,1.198c0,0.657 0.54,1.198 1.198,1.198c0.033,0 0.066,-0.002 0.099,-0.004l9.543,0c0.618,-0.052 1.099,-0.574 1.099,-1.194c0,-0.62 -0.481,-1.143 -1.099,-1.194l-9.543,0Z" style="fill:#e6e7e8;fill-rule:nonzero;"/><path d="M94.972,70.6l-12.757,0c-0.227,0 -0.413,-0.187 -0.413,-0.414l0,-8.196c0,-0.227 0.186,-0.413 0.413,-0.413l12.757,0c0.227,0 0.413,0.186 0.413,0.413l0,8.196c0,0.227 -0.186,0.414 -0.413,0.414Zm-12.344,-0.827l11.931,0l0,-7.37l-11.931,0l0,7.37Z" style="fill:#e6e7e8;fill-rule:nonzero;"/><path d="M82.215,70.6c-0.14,-0.002 -0.27,-0.074 -0.347,-0.191c-0.122,-0.19 -0.066,-0.447 0.124,-0.57l12.757,-8.171c0.062,-0.036 0.133,-0.054 0.205,-0.054c0.226,0 0.413,0.186 0.413,0.413c0,0.132 -0.064,0.257 -0.172,0.335l-12.757,8.196c-0.068,0.037 -0.146,0.051 -0.223,0.042Z" style="fill:#e6e7e8;fill-rule:nonzero;"/><path d="M94.972,70.6c-0.08,0.002 -0.158,-0.021 -0.223,-0.067l-12.757,-8.196c-0.129,-0.073 -0.209,-0.211 -0.209,-0.359c0,-0.226 0.187,-0.413 0.413,-0.413c0.087,0 0.172,0.027 0.242,0.078l12.774,8.196c0.19,0.123 0.246,0.38 0.123,0.57c-0.076,0.126 -0.216,0.2 -0.363,0.191Z" style="fill:#e6e7e8;fill-rule:nonzero;"/><path d="M94.972,88.876l-12.757,0c-0.227,0 -0.413,-0.187 -0.413,-0.413l0,-8.197c0,-0.226 0.186,-0.413 0.413,-0.413l12.757,0c0.227,0 0.413,0.187 0.413,0.413l0,8.197c0,0.226 -0.186,0.413 -0.413,0.413Zm-12.344,-0.826l11.931,0l0,-7.379l-11.931,0l0,7.379Z" style="fill:#e6e7e8;fill-rule:nonzero;"/><path d="M82.215,88.876c-0.14,-0.002 -0.27,-0.073 -0.347,-0.19c-0.045,-0.068 -0.069,-0.147 -0.069,-0.229c0,-0.142 0.073,-0.274 0.193,-0.35l12.757,-8.196c0.07,-0.05 0.155,-0.078 0.241,-0.078c0.227,0 0.413,0.187 0.413,0.413c0,0.149 -0.079,0.286 -0.208,0.359l-12.757,8.197c-0.064,0.048 -0.143,0.074 -0.223,0.074Z" style="fill:#e6e7e8;fill-rule:nonzero;"/><path d="M94.972,88.876c-0.08,0.002 -0.158,-0.021 -0.223,-0.066l-12.757,-8.196c-0.108,-0.078 -0.172,-0.203 -0.172,-0.336c0,-0.226 0.187,-0.413 0.413,-0.413c0.072,0 0.143,0.019 0.205,0.054l12.774,8.188c0.19,0.123 0.246,0.38 0.123,0.571c-0.074,0.129 -0.214,0.205 -0.363,0.198Z" style="fill:#e6e7e8;fill-rule:nonzero;"/></g><g><path d="M9.398,159.666c-2.936,-1.822 -2.687,-2.261 -2.25,-4.185c0.79,-3.469 0.294,-6.816 -0.247,-10.271c-2.014,-12.802 8.539,-24.326 22.135,-18.928c9.224,3.649 13.434,12.34 9.845,21.295c-1.781,4.443 -5.032,7.692 -9.365,9.667c-2.955,1.353 -5.655,2.893 -7.806,5.377c-1.391,1.599 -1.907,2.733 -5.028,0.797c-1.13,-0.702 -2.366,-1.226 -3.552,-1.831c-1.226,-0.669 -2.544,-1.184 -3.732,-1.921Z" style="fill:#fff;fill-rule:nonzero;"/><path d="M9.318,159.796c-2.81,-1.744 -2.816,-2.254 -2.38,-4.138l0.057,-0.232c0.8,-3.511 0.263,-6.915 -0.252,-10.206c-1.056,-6.726 1.304,-13.321 6.162,-17.209c4.489,-3.587 10.252,-4.278 16.214,-1.92c4.709,1.866 8.265,5.129 10.013,9.181c1.658,3.817 1.626,8.099 -0.083,12.329c-1.75,4.364 -5.146,7.872 -9.451,9.762c-2.559,1.164 -5.477,2.708 -7.751,5.332c-0.114,0.132 -0.221,0.261 -0.329,0.389c-1.162,1.378 -1.929,2.293 -4.914,0.44c-0.778,-0.463 -1.58,-0.885 -2.402,-1.263c-0.383,-0.186 -0.763,-0.37 -1.142,-0.562c-0.424,-0.215 -0.85,-0.42 -1.282,-0.624c-0.843,-0.379 -1.665,-0.806 -2.46,-1.279Zm22.971,-31.734c-1.048,-0.648 -2.152,-1.199 -3.299,-1.649c-5.843,-2.311 -11.481,-1.648 -15.893,1.861c-4.76,3.818 -7.075,10.284 -6.037,16.891c0.52,3.323 1.061,6.758 0.244,10.334l-0.053,0.233c-0.391,1.69 -0.482,2.092 2.228,3.773c0.788,0.468 1.602,0.892 2.438,1.27c0.431,0.204 0.865,0.409 1.292,0.627c0.375,0.192 0.754,0.376 1.136,0.557c0.831,0.384 1.642,0.811 2.428,1.28c2.735,1.697 3.316,1.006 4.478,-0.372c0.106,-0.126 0.218,-0.263 0.334,-0.391c2.311,-2.672 5.272,-4.241 7.865,-5.42c4.415,-2.012 7.534,-5.235 9.278,-9.579c1.661,-4.147 1.688,-8.325 0.075,-12.074c-1.367,-3.057 -3.642,-5.62 -6.514,-7.341Z" style="fill:#d1d3d4;fill-rule:nonzero;"/><path d="M5.9,160.138c-0.509,0.995 -0.115,2.217 0.88,2.726l9.088,4.651c0.995,0.509 2.217,0.114 2.726,-0.881c0.509,-0.995 0.115,-2.217 -0.881,-2.726l-9.087,-4.651c-0.995,-0.509 -2.217,-0.114 -2.726,0.881Z" style="fill:#fff;"/><path d="M5.648,162.474c-0.486,-0.302 -0.661,-0.934 -0.399,-1.443l0.994,-1.941c0.013,-0.026 0.028,-0.052 0.043,-0.077c0.303,-0.487 0.937,-0.663 1.448,-0.4l11.026,5.648c0.539,0.279 0.753,0.951 0.477,1.491l-0.993,1.941c-0.014,0.026 -0.028,0.051 -0.044,0.076c-0.302,0.488 -0.937,0.664 -1.447,0.401l-11.027,-5.648l-0.078,-0.048Zm13.009,2.113l-0.052,-0.032l-11.026,-5.648c-0.353,-0.181 -0.791,-0.059 -1,0.277c-0.011,0.018 -0.021,0.037 -0.031,0.056l-0.993,1.941c-0.19,0.374 -0.041,0.838 0.332,1.03l11.027,5.648c0.352,0.181 0.79,0.06 0.999,-0.277c0.011,-0.018 0.022,-0.036 0.031,-0.055l0.991,-1.943c0.179,-0.352 0.058,-0.788 -0.278,-0.997Z" style="fill:#d1d3d4;fill-rule:nonzero;"/><path d="M4.058,163.743c-0.51,0.995 -0.115,2.217 0.88,2.726l9.087,4.651c0.996,0.509 2.217,0.115 2.727,-0.88c0.509,-0.996 0.114,-2.217 -0.881,-2.727l-9.087,-4.65c-0.995,-0.51 -2.217,-0.115 -2.726,0.88Z" style="fill:#fff;"/><path d="M3.804,166.081c-0.486,-0.301 -0.661,-0.934 -0.399,-1.442l0.995,-1.944c0.013,-0.026 0.028,-0.052 0.043,-0.077c0.303,-0.487 0.937,-0.661 1.446,-0.397l11.027,5.647c0.026,0.014 0.052,0.028 0.077,0.044c0.487,0.303 0.663,0.937 0.4,1.447l-0.995,1.944c-0.014,0.026 -0.028,0.052 -0.044,0.077c-0.303,0.488 -0.937,0.663 -1.447,0.4l-11.027,-5.648l-0.078,-0.048l0.002,-0.003Zm13.009,2.114l-0.055,-0.034l-11.027,-5.648c-0.373,-0.19 -0.837,-0.039 -1.027,0.334l-0.996,1.944c-0.189,0.374 -0.039,0.838 0.335,1.028l11.026,5.648c0.351,0.18 0.787,0.059 0.995,-0.276c0.012,-0.019 0.023,-0.038 0.033,-0.058l0.995,-1.944c0.176,-0.352 0.054,-0.785 -0.279,-0.994Z" style="fill:#d1d3d4;fill-rule:nonzero;"/><path d="M11.03,158.257c-0.073,-0.052 -0.094,-0.152 -0.047,-0.228c0.003,-0.004 0.005,-0.008 0.008,-0.011c2.084,-2.843 3.805,-5.933 5.124,-9.201c-0.665,-0.651 -1.249,-1.38 -1.74,-2.171c-0.889,-1.338 -1.372,-2.906 -1.39,-4.512c0.036,-1.722 0.859,-3.311 2.12,-4.162c0.407,-0.316 0.948,-0.407 1.436,-0.24c0.999,0.373 1.453,1.779 1.567,2.199c0.716,2.62 -0.419,5.656 -1.33,8.094l-0.124,0.322l-0.151,0.396c1.232,1.167 2.688,2.07 4.28,2.656c0.477,-0.697 0.998,-1.364 1.558,-1.997c1.821,-2.056 3.481,-3.396 4.927,-3.961c0.914,-0.281 1.907,-0.153 2.72,0.351c0.743,0.461 1.274,1.198 1.475,2.049c0.131,1.21 -0.369,2.406 -1.321,3.163c-0.926,0.721 -2.029,1.179 -3.193,1.325c-2.027,0.334 -4.106,0.151 -6.043,-0.531c-1.823,2.705 -3.085,5.785 -4.314,8.787l-0.153,0.375c-0.036,0.085 -0.135,0.127 -0.222,0.094c-0.084,-0.036 -0.125,-0.135 -0.09,-0.22l0.153,-0.375c1.224,-2.993 2.485,-6.066 4.296,-8.778c-1.563,-0.583 -2.998,-1.467 -4.222,-2.601c-1.322,3.248 -3.039,6.321 -5.112,9.149c-0.055,0.057 -0.144,0.069 -0.212,0.028Zm5.596,-20.11c-0.069,-0.041 -0.14,-0.076 -0.214,-0.104c-0.386,-0.125 -0.81,-0.048 -1.127,0.204c-1.241,0.905 -1.975,2.353 -1.971,3.888c0.022,1.542 0.488,3.045 1.341,4.33c0.452,0.724 0.984,1.396 1.585,2.003c0.032,-0.084 0.063,-0.172 0.095,-0.256l0.124,-0.321c0.892,-2.394 2.005,-5.368 1.311,-7.89c-0.188,-0.686 -0.581,-1.504 -1.144,-1.854Zm13.202,7.906l-0.106,-0.066c-0.696,-0.429 -1.547,-0.526 -2.321,-0.265c-1.396,0.548 -3.009,1.85 -4.794,3.873c-0.529,0.602 -1.024,1.234 -1.481,1.893c1.857,0.634 3.842,0.8 5.779,0.483c1.104,-0.139 2.152,-0.572 3.032,-1.253c0.856,-0.681 1.309,-1.752 1.201,-2.84c-0.155,-0.767 -0.633,-1.432 -1.31,-1.825Z" style="fill:#d1d3d4;fill-rule:nonzero;"/></g><g><path d="M240.017,71.161l2.593,0c0.435,0 0.79,-0.355 0.79,-0.791l0,-0.822l2.703,0c0.262,0 0.474,-0.212 0.474,-0.474c0,-0.262 -0.212,-0.474 -0.474,-0.474l-2.703,0l0,-0.822c0,-0.436 -0.355,-0.791 -0.79,-0.791l-2.593,0c-0.436,0 -0.79,0.355 -0.79,0.791l0,2.592c0,0.436 0.354,0.791 0.79,0.791Zm0.158,-3.225l2.276,0l0,2.276l-2.276,0l0,-2.276Z" style="fill:#d1d3d4;fill-rule:nonzero;"/><path d="M270.811,66.987l-2.592,0c-0.436,0 -0.791,0.355 -0.791,0.791l0,0.822l-9.982,0c-0.216,-0.923 -1.045,-1.613 -2.032,-1.613c-0.987,0 -1.816,0.69 -2.032,1.613l-5.073,0c-0.262,0 -0.474,0.212 -0.474,0.474c0,0.262 0.212,0.474 0.474,0.474l1.935,0c-1.914,0.729 -3.673,1.858 -5.136,3.321c-2.228,2.228 -3.682,5.143 -4.124,8.245c-0.994,0.159 -1.757,1.022 -1.757,2.061c0,1.15 0.936,2.087 2.086,2.087c1.151,0 2.087,-0.937 2.087,-2.087c0,-0.935 -0.618,-1.728 -1.467,-1.993c0.867,-5.887 5.601,-10.621 11.488,-11.488c0.265,0.849 1.058,1.467 1.993,1.467c0.935,0 1.728,-0.618 1.993,-1.467c2.728,0.398 5.234,1.598 7.272,3.489c0.088,0.098 0.434,0.212 0.67,-0.026c0.178,-0.192 0.167,-0.492 -0.025,-0.67c-1.392,-1.291 -2.988,-2.28 -4.719,-2.939l6.823,0l0,0.822c0,0.436 0.355,0.791 0.791,0.791l2.592,0c0.436,0 0.79,-0.355 0.79,-0.791l0,-2.592c0,-0.436 -0.354,-0.791 -0.79,-0.791Zm-28.36,16.188c0,0.627 -0.51,1.138 -1.138,1.138c-0.627,0 -1.138,-0.511 -1.138,-1.138c0,-0.628 0.511,-1.138 1.138,-1.138c0.628,0 1.138,0.51 1.138,1.138Zm12.963,-12.963c-0.628,0 -1.138,-0.51 -1.138,-1.138c0,-0.627 0.51,-1.138 1.138,-1.138c0.628,0 1.138,0.511 1.138,1.138c0,0.628 -0.51,1.138 -1.138,1.138Zm15.239,0l-2.276,0l0,-2.276l2.276,0l0,2.276Z" style="fill:#d1d3d4;fill-rule:nonzero;"/><path d="M269.844,81.114c-0.359,-2.532 -1.381,-4.926 -2.969,-6.945c-0.163,-0.206 -0.461,-0.241 -0.666,-0.079c-0.206,0.162 -0.242,0.46 -0.08,0.666c1.472,1.87 2.423,4.083 2.767,6.426c-0.85,0.264 -1.468,1.058 -1.468,1.993c0,1.15 0.936,2.087 2.087,2.087c1.15,0 2.086,-0.937 2.086,-2.087c0,-1.039 -0.762,-1.902 -1.757,-2.061Zm-0.329,3.199c-0.628,0 -1.138,-0.511 -1.138,-1.138c0,-0.628 0.51,-1.138 1.138,-1.138c0.627,0 1.138,0.51 1.138,1.138c0,0.627 -0.511,1.138 -1.138,1.138Z" style="fill:#d1d3d4;fill-rule:nonzero;"/><path d="M261.799,84.91c0.318,-0.347 0.381,-0.859 0.155,-1.274l-5.211,-9.598c0.061,-0.157 0.094,-0.328 0.094,-0.506c0,-0.785 -0.638,-1.423 -1.423,-1.423c-0.784,0 -1.423,0.638 -1.423,1.423c0,0.178 0.034,0.349 0.094,0.506l-5.211,9.598c-0.225,0.415 -0.163,0.927 0.156,1.274c0.377,0.411 1.1,1.274 1.701,2.431c0.112,0.169 0.344,0.344 0.64,0.202c0.232,-0.12 0.323,-0.407 0.202,-0.639c-0.652,-1.255 -1.435,-2.189 -1.844,-2.635c-0.045,-0.049 -0.054,-0.121 -0.021,-0.181l5.047,-9.296c0.059,0.031 0.121,0.058 0.185,0.081l0,7.146c-1.073,0.22 -1.882,1.172 -1.882,2.309c0,1.299 1.057,2.356 2.356,2.356c1.299,0 2.357,-1.057 2.357,-2.356c0,-1.137 -0.81,-2.089 -1.883,-2.309l0,-7.146c0.064,-0.023 0.126,-0.05 0.186,-0.081l5.047,9.296c0.032,0.06 0.024,0.132 -0.021,0.181c-0.888,0.969 -2.953,3.579 -2.953,6.895l0,1.072l-0.972,0c-0.262,0 -0.474,0.212 -0.474,0.474c0,0.262 0.212,0.474 0.474,0.474l3.361,0c0.192,0 0.348,0.156 0.348,0.348l0,0.569c0,0.192 -0.156,0.348 -0.348,0.348l-10.244,0c-0.192,0 -0.348,-0.156 -0.348,-0.348l0,-0.569c0,-0.192 0.156,-0.348 0.348,-0.348l4.691,0c0.262,0 0.475,-0.212 0.475,-0.474c0,-0.262 -0.213,-0.474 -0.475,-0.474l-2.299,0l0,-1.072c0,-0.694 -0.093,-1.402 -0.275,-2.107c-0.065,-0.254 -0.324,-0.406 -0.578,-0.34c-0.253,0.065 -0.406,0.324 -0.34,0.577c0.162,0.627 0.244,1.256 0.244,1.87l0,1.072l-1.443,0c-0.715,0 -1.296,0.581 -1.296,1.296l0,0.569c0,0.571 0.372,1.056 0.885,1.228l0,2.927c0,0.61 0.497,1.106 1.107,1.106l8.852,0c0.61,0 1.107,-0.496 1.107,-1.106l0,-2.927c0.514,-0.172 0.885,-0.657 0.885,-1.228l0,-0.569c0,-0.715 -0.581,-1.296 -1.296,-1.296l-1.441,0l0,-1.072c0,-2.983 1.891,-5.367 2.704,-6.254Zm-6.385,-11.852c0.262,0 0.474,0.212 0.474,0.474c0,0.262 -0.212,0.474 -0.474,0.474c-0.261,0 -0.474,-0.212 -0.474,-0.474c0,-0.262 0.213,-0.474 0.474,-0.474Zm1.408,11.27c0,0.776 -0.632,1.408 -1.408,1.408c-0.776,0 -1.408,-0.632 -1.408,-1.408c0,-0.776 0.632,-1.408 1.408,-1.408c0.776,0 1.408,0.632 1.408,1.408Zm3.018,14.086l-8.852,0c-0.087,0 -0.158,-0.071 -0.158,-0.158l0,-0.876l3.899,0c0.262,0 0.474,-0.213 0.474,-0.475c0,-0.261 -0.212,-0.474 -0.474,-0.474l-3.899,0l0,-1.034l9.168,0l0,1.034l-1.313,0c-0.262,0 -0.475,0.213 -0.475,0.474c0,0.262 0.213,0.475 0.475,0.475l1.313,0l0,0.876c0,0.087 -0.071,0.158 -0.158,0.158Z" style="fill:#d1d3d4;fill-rule:nonzero;"/></g><text x="199.943px" y="35.647px" style="font-family:'BloggerSans', 'Blogger Sans';font-weight:200;font-size:11.086px;fill:#d1d3d4;">&lt;html&gt;</text><g><path d="M124.728,27.9c-0.427,-0.337 -0.962,-0.523 -1.506,-0.523c-0.74,0 -1.429,0.329 -1.891,0.902c-0.404,0.502 -0.586,1.13 -0.514,1.768c0.072,0.64 0.391,1.213 0.898,1.613c0.427,0.338 0.962,0.523 1.506,0.523c0.74,0 1.43,-0.329 1.891,-0.903c0.403,-0.501 0.586,-1.128 0.514,-1.766c-0.072,-0.64 -0.391,-1.213 -0.898,-1.614Zm-0.475,2.689c-0.251,0.313 -0.627,0.492 -1.032,0.492c-0.302,0 -0.586,-0.099 -0.822,-0.285c-0.275,-0.218 -0.448,-0.527 -0.487,-0.872c-0.039,-0.344 0.06,-0.683 0.278,-0.954c0.251,-0.312 0.627,-0.491 1.032,-0.491c0.301,0 0.586,0.099 0.822,0.286c0.275,0.217 0.447,0.527 0.486,0.872c0.039,0.344 -0.06,0.682 -0.277,0.952Z" style="fill:#d1d3d4;fill-rule:nonzero;"/><path d="M134.42,22.254c0.364,0 0.716,-0.079 1.046,-0.237c0.585,-0.28 1.024,-0.769 1.236,-1.377c0.211,-0.605 0.173,-1.256 -0.107,-1.833c-0.401,-0.826 -1.257,-1.36 -2.18,-1.36c-0.365,0 -0.717,0.08 -1.048,0.238c-0.584,0.279 -1.023,0.767 -1.236,1.376c-0.212,0.606 -0.174,1.257 0.107,1.833c0.402,0.826 1.259,1.36 2.182,1.36Zm-1.248,-2.829c0.115,-0.329 0.353,-0.594 0.67,-0.745c0.181,-0.086 0.374,-0.13 0.572,-0.13c0.505,0 0.972,0.29 1.19,0.739c0.151,0.311 0.171,0.661 0.057,0.987c-0.115,0.33 -0.353,0.595 -0.67,0.746c-0.18,0.086 -0.372,0.13 -0.571,0.13c-0.505,0 -0.972,-0.291 -1.191,-0.74c-0.151,-0.31 -0.171,-0.661 -0.057,-0.987Z" style="fill:#d1d3d4;fill-rule:nonzero;"/><path d="M128.422,18.359c0.177,0.04 0.359,0.06 0.539,0.06c1.135,0 2.104,-0.767 2.358,-1.867c0.142,-0.624 0.033,-1.266 -0.308,-1.808c-0.344,-0.547 -0.882,-0.927 -1.514,-1.07c-0.178,-0.04 -0.36,-0.061 -0.541,-0.061c-1.134,0 -2.103,0.768 -2.356,1.868c-0.143,0.623 -0.034,1.266 0.307,1.808c0.344,0.548 0.882,0.928 1.515,1.07Zm-0.747,-2.63c0.137,-0.597 0.664,-1.013 1.281,-1.013c0.099,0 0.199,0.011 0.297,0.033c0.345,0.078 0.638,0.285 0.825,0.582c0.184,0.293 0.243,0.639 0.166,0.974c-0.135,0.587 -0.674,1.012 -1.283,1.012c-0.099,0 -0.198,-0.011 -0.296,-0.033c-0.345,-0.078 -0.638,-0.284 -0.825,-0.582c-0.184,-0.292 -0.243,-0.638 -0.165,-0.973Z" style="fill:#d1d3d4;fill-rule:nonzero;"/><path d="M124.042,19.734c0.507,-0.401 0.825,-0.975 0.897,-1.614c0.072,-0.638 -0.11,-1.265 -0.514,-1.767c-0.462,-0.573 -1.152,-0.902 -1.892,-0.902c-0.544,0 -1.078,0.185 -1.505,0.522c-0.506,0.4 -0.825,0.972 -0.897,1.612c-0.073,0.638 0.11,1.266 0.514,1.769c0.462,0.574 1.152,0.903 1.893,0.903c0.544,0 1.078,-0.186 1.504,-0.523Zm-2.538,-1.071c-0.218,-0.271 -0.317,-0.61 -0.278,-0.955c0.039,-0.345 0.212,-0.654 0.485,-0.87c0.237,-0.186 0.521,-0.285 0.823,-0.285c0.404,0 0.781,0.179 1.033,0.491c0.217,0.27 0.315,0.609 0.277,0.952c-0.039,0.346 -0.212,0.656 -0.486,0.874c-0.236,0.186 -0.519,0.285 -0.82,0.285c-0.406,0 -0.782,-0.18 -1.034,-0.492Z" style="fill:#d1d3d4;fill-rule:nonzero;"/><path d="M146.585,14.34c-0.096,-0.096 -0.266,-0.21 -0.534,-0.21c-0.314,0 -1.149,0 -6.223,4.317c-0.102,0.086 -0.204,0.174 -0.308,0.263c-0.906,-2.365 -2.499,-4.473 -4.551,-5.998c-2.353,-1.748 -5.155,-2.672 -8.102,-2.673c-0.001,0 -0.002,0 -0.003,0c-1.989,0 -4.407,0.695 -6.311,1.814c-2.333,1.372 -3.618,3.206 -3.617,5.166c0,2.365 1.335,3.354 2.406,4.149c0.875,0.648 1.565,1.16 1.565,2.282c0.001,1.122 -0.689,1.634 -1.563,2.282c-1.072,0.794 -2.405,1.783 -2.405,4.148c0.001,1.959 1.287,3.794 3.62,5.167c1.905,1.121 4.325,1.817 6.314,1.818c0.002,0 0.003,0 0.004,0c3.611,0 7.005,-1.394 9.558,-3.924c2.52,-2.499 3.922,-5.811 3.959,-9.34c0.856,-0.973 1.685,-1.941 2.442,-2.854c1.295,-1.56 2.29,-2.848 2.959,-3.826c0.886,-1.297 1.275,-2.092 0.79,-2.581Zm-10.926,17.818c-2.345,2.325 -5.464,3.605 -8.782,3.605c-0.001,0 -0.002,0 -0.003,0c-3.556,-0.001 -8.831,-2.472 -8.832,-5.883c-0.001,-1.81 0.951,-2.516 1.959,-3.263c0.941,-0.698 2.009,-1.49 2.009,-3.167c-0.001,-1.677 -1.069,-2.469 -2.011,-3.167c-1.008,-0.748 -1.96,-1.454 -1.961,-3.265c0,-2.094 1.926,-3.54 3.074,-4.215c1.718,-1.01 3.975,-1.662 5.752,-1.662c0.001,0 0.002,0 0.002,0c2.709,0.001 5.284,0.85 7.446,2.456c1.993,1.482 3.515,3.561 4.317,5.884c-2.391,2.088 -4.98,4.495 -6.908,6.429c-3.202,0.414 -3.639,2.549 -3.958,4.116c-0.271,1.335 -0.447,1.981 -1.478,2.063c-0.254,0.021 -0.461,0.212 -0.5,0.464c-0.04,0.252 0.098,0.498 0.333,0.595c0.067,0.028 1.643,0.671 3.484,0.672c0,0 0.001,0 0.001,0c1.283,0 2.384,-0.311 3.271,-0.925c1.094,-0.756 1.836,-1.954 2.208,-3.561c1.26,-1.275 2.699,-2.812 4.123,-4.395c-0.328,2.726 -1.558,5.248 -3.546,7.219Zm-1.684,-2.929c-0.584,2.315 -2.054,3.488 -4.372,3.488c0,0 -0.001,0 -0.001,0c-0.611,0 -1.197,-0.083 -1.689,-0.187c0.588,-0.6 0.772,-1.502 0.931,-2.284c0.303,-1.489 0.589,-2.898 2.932,-3.233l2.199,2.216Zm7.611,-8.705c-2.185,2.603 -4.829,5.527 -7.007,7.749l-0.337,-0.339l-1.487,-1.499c1.974,-1.965 4.506,-4.308 6.869,-6.359c0.276,-0.239 0.549,-0.475 0.819,-0.705c2.742,-2.338 4.179,-3.356 4.912,-3.799c-0.438,0.738 -1.446,2.186 -3.769,4.952Z" style="fill:#d1d3d4;fill-rule:nonzero;"/></g><path d="M7.315,170.945c-2.33,-1.446 -3.589,-3.422 -2.912,-4.743c0.043,-0.082 0.145,-0.114 0.228,-0.073l9.837,5.048c0.082,0.044 0.114,0.146 0.073,0.229c-0.748,1.463 -3.566,1.472 -6.406,0.008c-0.284,-0.15 -0.558,-0.306 -0.82,-0.469Zm-2.671,-4.446c-0.205,0.582 0.005,1.334 0.604,2.147c0.82,1.036 1.863,1.874 3.051,2.452c2.525,1.292 5.089,1.397 5.868,0.275l-9.523,-4.874Z" style="fill:#d1d3d4;fill-rule:nonzero;"/></svg>