<?xml version="1.0" encoding="UTF-8" standalone="no"?><!DOCTYPE svg PUBLIC "-//W3C//DTD SVG 1.1//EN" "http://www.w3.org/Graphics/SVG/1.1/DTD/svg11.dtd"><svg width="100%" height="100%" viewBox="0 0 1130 800" version="1.1" xmlns="http://www.w3.org/2000/svg" xmlns:xlink="http://www.w3.org/1999/xlink" xml:space="preserve" xmlns:serif="http://www.serif.com/" style="fill-rule:evenodd;clip-rule:evenodd;stroke-miterlimit:10;"><rect id="Artboard1" x="0" y="0" width="1130" height="799.21" style="fill:none;"/><clipPath id="_clip1"><rect id="Artboard11" serif:id="Artboard1" x="0" y="0" width="1130" height="799.21"/></clipPath><g clip-path="url(#_clip1)"><path d="M1108.14,197.65c-11.55,-22.437 -26.694,-42.833 -44.83,-60.38l-621.86,-5.18l512,-60.79c-33.501,-11.209 -68.555,-17.088 -103.88,-17.42c-49.29,-33.65 -112.64,-53.88 -181.74,-53.88c-62,0 -119.33,16.29 -166.07,43.93c-39.76,-17.33 -85.02,-27.12 -133.11,-27.12c-138.17,0 -253.3,80.9 -279.13,188.19l1018.62,-7.35Z" style="fill:#6b6b6b;fill-opacity:0.1;fill-rule:nonzero;"/><path d="M1130,287.6c-0.043,-29.397 -6.665,-58.415 -19.38,-84.92l-1077.76,95.67c-10.938,16.678 -19.44,34.831 -25.25,53.91l333.75,42.06l-341.36,30.67c10.27,121.45 133.43,217.36 283.88,217.36c75.73,0 144.54,-24.31 195.53,-63.94c51.15,40.38 120.59,65.19 197.17,65.19c113.57,0 211.6,-54.67 257.25,-133.72c91.58,-24.57 162.72,-86.28 187.07,-163.46l-422.07,-55.32l431.17,0c0,-1.15 0,-2.31 0,-3.5Z" style="fill:#6b6b6b;fill-opacity:0.1;fill-rule:nonzero;"/><path d="M283.42,553.07c0,0 -46.22,-66.69 -38.37,-129.63c3.456,-26.373 -1.739,-53.169 -14.8,-76.34c-6.286,-10.956 -13.563,-21.313 -21.74,-30.94" style="fill:none;stroke:#535461;stroke-width:2px;"/><path d="M213.22,276.47c3,9.05 -4.71,40.74 -4.71,40.74c0,0 -25.09,-20.83 -28.09,-29.89c-0.579,-1.75 -0.874,-3.582 -0.874,-5.425c0,-9.476 7.798,-17.274 17.274,-17.274c7.431,0 14.066,4.794 16.4,11.849Z" style="fill:#6ad8a8;fill-rule:nonzero;"/><path d="M256.92,317.66c-2.4,9.23 -26.09,31.64 -26.09,31.64c0,0 -9.74,-31.12 -7.33,-40.35c1.888,-7.699 8.846,-13.157 16.773,-13.157c9.474,0 17.27,7.796 17.27,17.27c0,1.553 -0.209,3.1 -0.623,4.597Z" style="fill:#6ad8a8;fill-rule:nonzero;"/><path d="M284.11,403.77c-6.74,6.76 -38.5,14.14 -38.5,14.14c0,0 7.31,-31.78 14,-38.53c3.239,-3.248 7.643,-5.076 12.23,-5.076c9.475,0 17.271,7.796 17.271,17.271c0,4.57 -1.814,8.959 -5.041,12.195l0.04,0Z" style="fill:#6ad8a8;fill-rule:nonzero;"/><path d="M290,473.6c-5.5,7.79 -35.56,20.44 -35.56,20.44c0,0 1.83,-32.56 7.33,-40.35c3.233,-4.584 8.505,-7.317 14.115,-7.317c9.475,0 17.272,7.797 17.272,17.272c0,3.564 -1.103,7.042 -3.157,9.955Z" style="fill:#6ad8a8;fill-rule:nonzero;"/><path d="M197,362.45c8.58,4.16 41,0.68 41,0.68c0,0 -17.36,-27.6 -26,-31.77c-2.194,-0.967 -4.565,-1.466 -6.963,-1.466c-9.474,0 -17.27,7.796 -17.27,17.27c0,6.405 3.564,12.305 9.233,15.286Z" style="fill:#6ad8a8;fill-rule:nonzero;"/><path d="M204.91,443.98c9.44,1.4 39.34,-11.62 39.34,-11.62c0,0 -24.83,-21.15 -34.25,-22.55c-0.841,-0.125 -1.69,-0.188 -2.54,-0.188c-9.476,0 -17.273,7.797 -17.273,17.273c0,8.521 6.305,15.832 14.733,17.085l-0.01,0Z" style="fill:#6ad8a8;fill-rule:nonzero;"/><path d="M223.49,522.16c9.07,3 40.74,-4.8 40.74,-4.8c0,0 -20.9,-25 -30,-28c-1.74,-0.571 -3.559,-0.863 -5.39,-0.863c-9.475,0 -17.273,7.798 -17.273,17.273c0,7.443 4.812,14.087 11.883,16.41l0.04,-0.02Z" style="fill:#6ad8a8;fill-rule:nonzero;"/><path d="M213.22,276.47c3,9.05 -4.71,40.74 -4.71,40.74c0,0 -25.09,-20.83 -28.09,-29.89c-0.579,-1.75 -0.874,-3.582 -0.874,-5.425c0,-9.476 7.798,-17.274 17.274,-17.274c7.431,0 14.066,4.794 16.4,11.849Z" style="fill-opacity:0.25;fill-rule:nonzero;"/><path d="M256.92,317.66c-2.4,9.23 -26.09,31.64 -26.09,31.64c0,0 -9.74,-31.12 -7.33,-40.35c1.888,-7.699 8.846,-13.157 16.773,-13.157c9.474,0 17.27,7.796 17.27,17.27c0,1.553 -0.209,3.1 -0.623,4.597Z" style="fill-opacity:0.25;fill-rule:nonzero;"/><path d="M284.11,403.77c-6.74,6.76 -38.5,14.14 -38.5,14.14c0,0 7.31,-31.78 14,-38.53c3.239,-3.248 7.643,-5.076 12.23,-5.076c9.475,0 17.271,7.796 17.271,17.271c0,4.57 -1.814,8.959 -5.041,12.195l0.04,0Z" style="fill-opacity:0.25;fill-rule:nonzero;"/><path d="M290,473.6c-5.5,7.79 -35.56,20.44 -35.56,20.44c0,0 1.83,-32.56 7.33,-40.35c3.233,-4.584 8.505,-7.317 14.115,-7.317c9.475,0 17.272,7.797 17.272,17.272c0,3.564 -1.103,7.042 -3.157,9.955Z" style="fill-opacity:0.25;fill-rule:nonzero;"/><path d="M197,362.45c8.58,4.16 41,0.68 41,0.68c0,0 -17.36,-27.6 -26,-31.77c-2.194,-0.967 -4.565,-1.466 -6.963,-1.466c-9.474,0 -17.27,7.796 -17.27,17.27c0,6.405 3.564,12.305 9.233,15.286Z" style="fill-opacity:0.25;fill-rule:nonzero;"/><path d="M204.91,443.98c9.44,1.4 39.34,-11.62 39.34,-11.62c0,0 -24.83,-21.15 -34.25,-22.55c-0.841,-0.125 -1.69,-0.188 -2.54,-0.188c-9.476,0 -17.273,7.797 -17.273,17.273c0,8.521 6.305,15.832 14.733,17.085l-0.01,0Z" style="fill-opacity:0.25;fill-rule:nonzero;"/><path d="M223.49,522.16c9.07,3 40.74,-4.8 40.74,-4.8c0,0 -20.9,-25 -30,-28c-1.74,-0.571 -3.559,-0.863 -5.39,-0.863c-9.475,0 -17.273,7.798 -17.273,17.273c0,7.443 4.812,14.087 11.883,16.41l0.04,-0.02Z" style="fill-opacity:0.25;fill-rule:nonzero;"/><path d="M283.16,550.39c0,0 -69.28,-42.24 -87.62,-103c-7.531,-25.507 -23.136,-47.896 -44.46,-63.79c-10.186,-7.467 -21.035,-13.984 -32.41,-19.47" style="fill:none;stroke:#535461;stroke-width:2px;"/><path d="M106.89,325.97c6.41,7.06 12.2,39.15 12.2,39.15c0,0 -31.37,-8.88 -37.78,-15.94c-2.882,-3.177 -4.48,-7.316 -4.48,-11.605c0,-9.474 7.796,-17.27 17.27,-17.27c4.869,0 9.518,2.059 12.79,5.665Z" style="fill:#6ad8a8;fill-rule:nonzero;"/><path d="M163.54,345.91c1.54,9.42 -11,39.51 -11,39.51c0,0 -21.54,-24.51 -23.09,-33.93c-0.151,-0.922 -0.227,-1.855 -0.227,-2.79c0,-9.475 7.797,-17.272 17.272,-17.272c8.426,0 15.684,6.166 17.045,14.482Z" style="fill:#6ad8a8;fill-rule:nonzero;"/><path d="M223.29,413.6c-3.43,8.91 -29.47,28.53 -29.47,28.53c0,0 -6.2,-32 -2.78,-40.92c2.559,-6.66 8.991,-11.079 16.125,-11.079c9.476,0 17.274,7.798 17.274,17.274c0,2.118 -0.389,4.218 -1.149,6.195Z" style="fill:#6ad8a8;fill-rule:nonzero;"/><path d="M257,475.03c-1.87,9.36 -24.23,33.1 -24.23,33.1c0,0 -11.52,-30.51 -9.65,-39.86c1.606,-8.047 8.734,-13.894 16.94,-13.894c9.476,0 17.274,7.798 17.274,17.274c0,1.135 -0.112,2.267 -0.334,3.38Z" style="fill:#6ad8a8;fill-rule:nonzero;"/><path d="M126.88,411.15c9.54,0.33 37.77,-16 37.77,-16c0,0 -27.05,-18.2 -36.59,-18.55c-0.197,-0.007 -0.393,-0.01 -0.59,-0.01c-9.474,0 -17.27,7.796 -17.27,17.27c0,9.252 7.434,16.944 16.68,17.26l0,0.03Z" style="fill:#6ad8a8;fill-rule:nonzero;"/><path d="M167.17,482.47c9.2,-2.54 31.26,-26.56 31.26,-26.56c0,0 -31.27,-9.31 -40.43,-6.73c-7.553,1.997 -12.855,8.883 -12.855,16.696c0,9.474 7.796,17.27 17.27,17.27c1.619,0 3.23,-0.227 4.785,-0.676l-0.03,0Z" style="fill:#6ad8a8;fill-rule:nonzero;"/><path d="M215.84,546.42c9.5,-1 35.3,-20.9 35.3,-20.9c0,0 -29.25,-14.42 -38.74,-13.47c-8.783,0.879 -15.551,8.358 -15.551,17.185c0,9.475 7.796,17.271 17.271,17.271c0.574,0 1.148,-0.029 1.72,-0.086Z" style="fill:#6ad8a8;fill-rule:nonzero;"/><ellipse cx="565.71" cy="734.08" rx="179" ry="10.62" style="fill:#6b6b6b;fill-opacity:0.1;"/><path d="M648,715.41l0,6.41l-189.62,0l0,-5.22c24.391,-9.038 40.674,-32.435 40.674,-58.447c0,-24.338 -14.255,-46.542 -36.384,-56.673l184.08,0c-22.116,10.149 -36.357,32.353 -36.357,56.686c0,24.826 14.822,47.388 37.607,57.244Z" style="fill:#c8cad7;fill-rule:nonzero;"/><path d="M646.75,601.49c-17.128,7.86 -29.808,23.068 -34.46,41.33l-115.16,0c-4.652,-18.262 -17.332,-33.47 -34.46,-41.33l184.08,0Z" style="fill-opacity:0.1;fill-rule:nonzero;"/><path d="M241.21,568.82l0,36c0,19.88 14.55,36 32.5,36l558,0c17.95,0 32.5,-16.12 32.5,-36l0,-36l-623,0Z" style="fill:#c8cad7;fill-rule:nonzero;"/><path d="M648,715.41l0,6.41l-189.62,0l0,-5.22c5.198,-1.93 10.115,-4.547 14.62,-7.78l163.4,0c3.62,2.604 7.509,4.814 11.6,6.59Z" style="fill-opacity:0.1;fill-rule:nonzero;"/><path d="M710.71,720.32c0,-5.243 -4.257,-9.5 -9.5,-9.5l-296,0c-5.243,0 -9.5,4.257 -9.5,9.5c0,5.243 4.257,9.5 9.5,9.5l296,0c5.243,0 9.5,-4.257 9.5,-9.5Z" style="fill:#c8cad7;"/><path d="M864.21,174.32c0,-17.829 -14.671,-32.5 -32.5,-32.5l-558,0c-17.829,0 -32.5,14.671 -32.5,32.5l0,401.5l623,0l0,-401.5Z" style="fill:#474157;fill-rule:nonzero;"/><path d="M847.21,188.82c0,-8.831 -7.169,-16 -16,-16l-557,0c-8.831,0 -16,7.169 -16,16l0,345c0,8.831 7.169,16 16,16l557,0c8.831,0 16,-7.169 16,-16l0,-345Z" style="fill:#ededf4;"/><circle cx="552.71" cy="157.32" r="7.5" style="fill:#fff;"/><circle cx="552.71" cy="606.32" r="18.5" style="fill:#fff;"/><path d="M847.21,188.82l-589,0c0,-8.777 7.223,-16 16,-16l557,0c8.777,0 16,7.223 16,16Z" style="fill:#c8cad7;fill-rule:nonzero;"/><circle cx="274.21" cy="180.82" r="4" style="fill:#ededf4;"/><circle cx="286.21" cy="180.82" r="4" style="fill:#ededf4;"/><circle cx="298.21" cy="180.82" r="4" style="fill:#ededf4;"/><rect x="280.21" y="202.32" width="151" height="9" style="fill:#d8d8dd;"/><rect x="280.21" y="465.32" width="151" height="9" style="fill:#d8d8dd;"/><rect x="280.21" y="485.32" width="280" height="9" style="fill:#838383;fill-opacity:0.2;"/><rect x="280.21" y="498.33" width="280" height="9" style="fill:#838383;fill-opacity:0.2;"/><rect x="280.21" y="511.33" width="280" height="9" style="fill:#838383;fill-opacity:0.2;"/><rect x="280.21" y="226.32" width="278" height="151" style="fill:#838383;fill-opacity:0.2;"/><rect x="283.21" y="391.32" width="65" height="60" style="fill:#838383;fill-opacity:0.2;"/><rect x="493.21" y="391.32" width="65" height="60" style="fill:#838383;fill-opacity:0.2;"/><rect x="386.71" y="391.32" width="65" height="60" style="fill:#838383;fill-opacity:0.2;"/><rect x="617.55" y="270.24" width="191.33" height="140.83" style="fill:#838383;fill-opacity:0.2;"/><rect x="637.71" y="354.82" width="151" height="9" style="fill:#ededf4;"/><rect x="637.71" y="373.49" width="151" height="9" style="fill:#ededf4;"/><rect x="640.88" y="427.07" width="144.67" height="25.33" style="fill:#d8d8dd;"/><rect x="633.15" y="511.47" width="97.01" height="16.99" style="fill:#d8d8dd;"/><ellipse cx="258.43" cy="775.37" rx="28.6" ry="2.9" style="fill:#6c63ff;fill-opacity:0.1;"/><ellipse cx="843.87" cy="733.9" rx="17.14" ry="1.74" style="fill:#6c63ff;fill-opacity:0.1;"/><path d="M268.42,727.6c0,0 -37.3,19.27 -18,42c0,0 1.81,5 7.06,4.58c0,0 -1.05,-1.91 3,-3.43c1.412,-0.556 2.754,-1.274 4,-2.14c1.694,-1.172 2.962,-2.864 3.61,-4.82c0.648,-1.956 7.63,-10.21 1.72,-29.1c0,0 0.76,-5.34 0.09,-6.2l-4.58,6.11c0,0 4.69,3.14 5.22,7.76c0,0 -4.88,-7.75 -5.94,-6.87c-0.21,0.18 -2.25,3.4 -2.25,3.4c0,0 8.12,5.51 8.73,12.66c0,0 -4.58,-10 -9.52,-11.45l-2.79,5.05c0,0 8.88,5.4 9.88,13.52c0,0 -5.15,-10.3 -10.41,-12.38l-2.08,5.33c0,0 8.55,5.44 9.34,12.2c0,0 -7.15,-11.3 -9.73,-11c0,0 -1.61,5 -1.4,6.55c0,0 6.05,4 6.16,8c0,0 -5.58,-7.05 -6.44,-6.58c0,0 -0.36,7.08 1.36,10.77c0,0 -2.94,-5.26 -2.47,-10.77c-1.737,1.543 -2.983,3.564 -3.58,5.81c-0.597,2.246 -1.61,-3.9 3.69,-7.48c0,0 0.5,-5.51 1.11,-6.19c0,0 -5.73,2.79 -8.16,6.23c0,0 0.89,-5.12 8.66,-7.66l2,-5.4c0,0 -7.76,3.29 -10.15,6.19c0,0 1.72,-5.08 10.76,-7.51l2.68,-5c0,0 -6.9,2.32 -10.26,5c0,0 2.61,-4.36 11.09,-6.37l2.18,-3.11c0,0 -5,1.79 -6.4,2.43c-1.4,0.64 -1.68,0.32 -1.68,0.32c2.564,-2.166 5.681,-3.575 9,-4.07c3.319,-0.495 4.85,-6.09 4.5,-6.38Z" style="fill:#6ad8a8;fill-rule:nonzero;"/><ellipse cx="169.3" cy="731.19" rx="21.92" ry="2.22" style="fill:#6c63ff;fill-opacity:0.1;"/><path d="M177,694.6c0,0 -28.58,14.76 -13.82,32.16c0.851,2.212 3.043,3.634 5.41,3.51c2.367,-0.124 -0.8,-1.46 2.27,-2.63c1.085,-0.429 2.118,-0.979 3.08,-1.64c1.299,-0.901 2.271,-2.2 2.77,-3.7c0.499,-1.5 5.84,-7.82 1.31,-22.29c0,0 0.59,-4.1 0.07,-4.76l-3.47,4.77c0,0 3.59,2.41 4,5.94c0,0 -3.74,-5.93 -4.55,-5.26c-0.16,0.14 -1.72,2.61 -1.72,2.61c0,0 6.22,4.22 6.69,9.7c0,0 -3.51,-7.68 -7.3,-8.77l-2.13,3.86c0,0 6.79,4.14 7.56,10.36c0,0 -3.95,-7.89 -8,-9.48l-1.59,4.08c0,0 6.56,4.17 7.16,9.35c0,0 -5.48,-8.66 -7.46,-8.39c0,0 -1.23,3.84 -1.07,5c0,0 4.64,3.1 4.72,6.14c0,0 -4.28,-5.4 -4.94,-5c0,0 -0.27,5.42 1.05,8.25c-1.34,-2.538 -1.995,-5.382 -1.9,-8.25c-1.321,1.173 -2.273,2.706 -2.74,4.41c-0.467,1.704 -1.23,-3 2.83,-5.73c0,0 0.38,-4.22 0.85,-4.74c0,0 -4.39,2.14 -6.25,4.77c0,0 0.68,-3.92 6.63,-5.87l1.51,-4.14c0,0 -5.95,2.52 -7.79,4.75c0,0 1.32,-3.9 8.25,-5.76l2.06,-3.81c0,0 -5.29,1.78 -7.87,3.81c0,0 2,-3.35 8.5,-4.88l1.67,-2.39c0,0 -3.83,1.37 -4.9,1.87c-1.07,0.5 -1.29,0.24 -1.29,0.24c1.961,-1.656 4.343,-2.736 6.88,-3.12c2.537,-0.384 3.74,-4.77 3.52,-4.97Z" style="fill:#6ad8a8;fill-rule:nonzero;"/><path d="M851.74,705.01c0,0 -22.35,11.59 -10.81,25.15c0.667,1.728 2.38,2.838 4.23,2.74c1.85,-0.098 -0.63,-1.14 1.78,-2.06c0.851,-0.33 1.66,-0.76 2.41,-1.28c1.013,-0.705 1.771,-1.719 2.16,-2.89c0.389,-1.171 4.57,-6.12 1,-17.43c0,0 0.45,-3.2 0.05,-3.72l-2.71,3.72c0,0 2.81,1.89 3.13,4.66c0,0 -2.93,-4.65 -3.56,-4.12c-0.13,0.11 -1.35,2 -1.35,2c0,0 4.87,3.3 5.23,7.58c0,0 -2.74,-6 -5.7,-6.85l-1.6,3.09c0,0 5.31,3.23 5.91,8.1c0,0 -3.08,-6.17 -6.24,-7.42l-1.24,3.2c0,0 5.12,3.25 5.6,7.31c0,0 -4.29,-6.78 -5.83,-6.56c-0.44,1.267 -0.722,2.584 -0.84,3.92c-0.118,1.336 3.62,2.42 3.69,4.8c0,0 -3.35,-4.22 -3.86,-3.94c0,0 -0.22,4.24 0.81,6.45c-1.041,-1.986 -1.551,-4.208 -1.48,-6.45c-1.033,0.918 -1.777,2.117 -2.14,3.45c-0.363,1.333 -1,-2.34 2.21,-4.48c0,0 0.3,-3.3 0.66,-3.71c0,0 -3.43,1.67 -4.88,3.73c0,0 0.53,-3.07 5.18,-4.59l1.18,-3.23c0,0 -4.65,2 -6.09,3.7c0,0 1,-3 6.46,-4.5l1.6,-3c-2.17,0.732 -4.237,1.74 -6.15,3c-1.913,1.26 1.57,-2.61 6.65,-3.81l1.3,-1.87c0,0 -3,1.08 -3.83,1.46c-0.83,0.38 -1,0.19 -1,0.19c1.532,-1.297 3.395,-2.141 5.38,-2.44c1.985,-0.299 2.89,-3.7 2.69,-3.9Z" style="fill:#6ad8a8;fill-rule:nonzero;"/><ellipse cx="936.04" cy="795.71" rx="41.75" ry="3.49" style="fill:#6c63ff;fill-opacity:0.1;"/><ellipse cx="822.805" cy="784.116" rx="71.985" ry="15.084" style="fill:#6b6b6b;fill-opacity:0.1;"/><path d="M969.47,685.6c-0.957,1.32 -1.725,2.767 -2.28,4.3c-0.14,0.37 -0.27,0.8 -0.41,1.21c-0.257,-0.119 -0.525,-0.212 -0.8,-0.28c-1.162,-0.293 -2.365,-0.395 -3.56,-0.3c0,-0.47 0.05,-0.95 0.07,-1.47c0.14,-5.27 -0.48,-12.62 -5.51,-9.5c-4.82,3 -1.38,8 1.73,11.2c0.27,0.28 0.54,0.54 0.8,0.79c-2.83,2 -3.38,6.73 -3.85,11.64c-0.47,4.91 -4.64,10.28 -7.4,13.33l-0.79,0.85c-2.25,-1.796 -5.162,-2.55 -8,-2.07c-0.12,-0.43 -0.24,-0.88 -0.38,-1.35c-2.23,-8.09 -6.88,-22.1 -12.82,-25.17c0.26,-0.31 0.52,-0.64 0.79,-1c2.52,-3.3 5.35,-8.19 1.16,-9.44c-4.19,-1.25 -4.56,4.24 -4.33,8.36c0,0.52 0.04,1.01 0.12,1.47c-1.695,0.077 -3.285,0.852 -4.39,2.14l-0.64,-0.77c-3.4,-4 -9.64,-10.37 -11.52,-5.56c-1.76,4.48 3.72,10.3 7.58,13.67l0.25,0.21c-2.6,10.51 8.71,19.08 14.8,22.83l0.79,0.48c-8.4,9.9 -13.58,28.46 -13.58,28.46l23.52,4.2c0,0 15.59,-13.46 13.6,-26.1l0.16,0c15.58,-3.12 19.13,-19.74 16.7,-29.61l0.27,-0.11c2.84,-1.161 5.329,-3.043 7.22,-5.46c4.32,-6.08 -4.77,-12.95 -9.3,-6.95Z" style="fill:#6ad8a8;fill-rule:nonzero;"/><path d="M969.47,685.6c-0.957,1.32 -1.725,2.767 -2.28,4.3c-0.14,0.37 -0.27,0.8 -0.41,1.21c-0.257,-0.119 -0.525,-0.212 -0.8,-0.28c-1.162,-0.293 -2.365,-0.395 -3.56,-0.3c0,-0.47 0.05,-0.95 0.07,-1.47c0.14,-5.27 -0.48,-12.62 -5.51,-9.5c-4.82,3 -1.38,8 1.73,11.2c0.27,0.28 0.54,0.54 0.8,0.79c-2.83,2 -3.38,6.73 -3.85,11.64c-0.47,4.91 -4.64,10.28 -7.4,13.33l-0.79,0.85c-2.25,-1.796 -5.162,-2.55 -8,-2.07c-0.12,-0.43 -0.24,-0.88 -0.38,-1.35c-2.23,-8.09 -6.88,-22.1 -12.82,-25.17c0.26,-0.31 0.52,-0.64 0.79,-1c2.52,-3.3 5.35,-8.19 1.16,-9.44c-4.19,-1.25 -4.56,4.24 -4.33,8.36c0,0.52 0.04,1.01 0.12,1.47c-1.695,0.077 -3.285,0.852 -4.39,2.14l-0.64,-0.77c-3.4,-4 -9.64,-10.37 -11.52,-5.56c-1.76,4.48 3.72,10.3 7.58,13.67l0.25,0.21c-2.6,10.51 8.71,19.08 14.8,22.83l0.79,0.48c-8.4,9.9 -13.58,28.46 -13.58,28.46l23.52,4.2c0,0 15.59,-13.46 13.6,-26.1l0.16,0c15.58,-3.12 19.13,-19.74 16.7,-29.61l0.27,-0.11c2.84,-1.161 5.329,-3.043 7.22,-5.46c4.32,-6.08 -4.77,-12.95 -9.3,-6.95Z" style="fill-opacity:0.1;fill-rule:nonzero;"/><path d="M922.65,692.36l-2.75,8c0,0 -1.53,-1.08 -3.46,-2.78c-3.85,-3.37 -9.34,-9.19 -7.58,-13.67c1.88,-4.81 8.12,1.54 11.52,5.56c1.36,1.65 2.27,2.89 2.27,2.89Z" style="fill:#6ad8a8;fill-rule:nonzero;"/><path d="M928.46,687.76c-0.839,1.098 -1.733,2.153 -2.68,3.16c-0.241,-1.403 -0.404,-2.819 -0.49,-4.24c-0.23,-4.12 0.2,-9.59 4.33,-8.36c4.13,1.23 1.38,6.14 -1.16,9.44Z" style="fill:#6ad8a8;fill-rule:nonzero;"/><path d="M963.93,689.03c-0.09,2.65 -0.35,4.77 -0.35,4.77c-1.21,-0.947 -2.355,-1.972 -3.43,-3.07c-3.11,-3.23 -6.55,-8.21 -1.73,-11.2c5.03,-3.12 5.65,4.23 5.51,9.5Z" style="fill:#6ad8a8;fill-rule:nonzero;"/><path d="M980.17,692.5c-1.889,2.414 -4.374,4.296 -7.21,5.46c-0.789,0.339 -1.597,0.633 -2.42,0.88l-3.24,-4.55c0.337,-1.503 0.782,-2.98 1.33,-4.42c0.555,-1.533 1.323,-2.98 2.28,-4.3c4.48,-5.97 13.62,0.9 9.26,6.93Z" style="fill:#6ad8a8;fill-rule:nonzero;"/><path d="M920.38,689.52c1.36,1.6 2.27,2.84 2.27,2.84l-2.75,8c0,0 -1.53,-1.08 -3.46,-2.78c0.433,-2.576 1.498,-5.006 3.1,-7.07c0.263,-0.344 0.544,-0.674 0.84,-0.99Z" style="fill-opacity:0.1;fill-rule:nonzero;"/><path d="M928.46,687.76c-0.839,1.098 -1.733,2.153 -2.68,3.16c-0.241,-1.403 -0.404,-2.819 -0.49,-4.24c1.143,0.025 2.25,0.402 3.17,1.08Z" style="fill-opacity:0.1;fill-rule:nonzero;"/><path d="M942,719.72l-6.84,3c0,0 -1.5,-0.72 -3.65,-2.06c-7.18,-4.42 -21.64,-15.55 -12,-28.67c9.64,-13.12 17.77,10.41 21,21.92c0.95,3.45 1.49,5.81 1.49,5.81Z" style="fill:#6ad8a8;fill-rule:nonzero;"/><path d="M960.15,690.73c0.996,-1.029 2.349,-1.638 3.78,-1.7c-0.09,2.65 -0.35,4.77 -0.35,4.77c-1.21,-0.947 -2.355,-1.972 -3.43,-3.07Z" style="fill-opacity:0.1;fill-rule:nonzero;"/><path d="M973,697.96c-0.789,0.339 -1.597,0.633 -2.42,0.88l-3.24,-4.55c0.337,-1.503 0.782,-2.98 1.33,-4.42c2.05,1.22 3.59,4.26 4.33,8.09Z" style="fill-opacity:0.1;fill-rule:nonzero;"/><path d="M956,727.68c-0.38,0.08 -0.77,0.15 -1.16,0.2c-22.92,3.49 -7.56,-8.88 -7.56,-8.88c0,0 1,-0.95 2.44,-2.51c2.76,-3 6.92,-8.39 7.4,-13.33c0.72,-7.43 1.55,-14.4 10.32,-12.36c8.77,2.04 10.24,32.53 -11.44,36.88Z" style="fill:#6ad8a8;fill-rule:nonzero;"/><rect x="911.74" y="784.77" width="43.81" height="11.52" style="fill:#d4dfec;"/><rect x="904.77" y="747.33" width="57.24" height="40.2" style="fill:#d4dfec;"/><rect x="911.74" y="784.77" width="43.81" height="11.52" style="fill-opacity:0.1;"/><rect x="904.77" y="747.33" width="57.24" height="40.2" style="fill-opacity:0.1;"/><rect x="914.62" y="784.77" width="43.81" height="11.52" style="fill:#d4dfec;"/><path d="M940.49,713.92c1,3.44 1.49,5.8 1.49,5.8l-6.84,3c0,0 -1.5,-0.72 -3.65,-2.06c2.68,-3.39 5.71,-5.95 9,-6.74Z" style="fill-opacity:0.1;fill-rule:nonzero;"/><path d="M956,727.68c-0.38,0.08 -0.77,0.15 -1.16,0.2c-22.92,3.49 -7.56,-8.88 -7.56,-8.88c0,0 1,-0.95 2.44,-2.51c4.28,3.43 6.03,7.29 6.28,11.19Z" style="fill-opacity:0.1;fill-rule:nonzero;"/><path d="M918.7,749.6c0,0 12.84,-46 30.84,-31.81c18,14.19 -7.32,36 -7.32,36l-23.52,-4.19Z" style="fill:#6ad8a8;fill-rule:nonzero;"/><circle cx="925.18" cy="699.21" r="1.44" style="fill-opacity:0.1;"/><circle cx="925.06" cy="705.93" r="1.44" style="fill-opacity:0.1;"/><circle cx="966.82" cy="700.53" r="1.44" style="fill-opacity:0.1;"/><circle cx="933.22" cy="734.97" r="1.44" style="fill-opacity:0.1;"/><circle cx="963.82" cy="711.69" r="1.44" style="fill-opacity:0.1;"/><circle cx="948.94" cy="726.57" r="1.44" style="fill-opacity:0.1;"/><circle cx="930.1" cy="702.09" r="1.44" style="fill-opacity:0.1;"/><circle cx="962.86" cy="704.85" r="1.44" style="fill-opacity:0.1;"/><circle cx="957.94" cy="716.01" r="1.44" style="fill-opacity:0.1;"/><circle cx="942.82" cy="733.89" r="1.44" style="fill-opacity:0.1;"/><circle cx="939.7" cy="726.81" r="1.44" style="fill-opacity:0.1;"/><circle cx="932.26" cy="710.85" r="1.44" style="fill-opacity:0.1;"/><rect x="914.62" y="784.77" width="43.81" height="4.21" style="fill-opacity:0.1;"/><rect x="907.66" y="747.33" width="57.24" height="40.2" style="fill:#d4dfec;"/><circle cx="944.74" cy="740.37" r="1.44" style="fill-opacity:0.1;"/><circle cx="936.1" cy="742.17" r="1.44" style="fill-opacity:0.1;"/><g><path d="M850.498,291.911l-22.226,0.862l-1.108,-28.576l22.225,-0.861l1.109,28.575Z" style="fill:#6c63ff;"/><path d="M749.13,363.414c0,0 -30.779,-14.705 -30.287,-2.005c0.493,12.7 31.026,21.056 31.026,21.056l-0.739,-19.051Z" style="fill:#ffb9b9;fill-rule:nonzero;"/><path d="M766.016,470.875c0,0 -14.521,35.541 -19.886,61.188c-5.365,25.647 -13.536,60.943 -3.026,85.974c10.511,25.031 40.392,98.599 40.7,106.537c0.308,7.938 -2.559,15.999 3.791,15.752c6.35,-0.246 40.906,-11.125 42.309,-15.95c1.403,-4.824 -11.79,-17.032 -11.79,-17.032l-32.577,-102.082l33.989,-66.505l24.517,99.215l4.802,123.828c0,0 23.567,-7.273 26.988,-1.046c0,0 10.559,-14.719 11.9,-21.131c1.341,-6.412 -4.986,-128.591 -4.986,-128.591c0,0 21.632,-139.163 4.169,-138.486c-17.463,0.678 -85.864,-41.188 -120.9,-1.671Z" style="fill:#2f2e41;fill-rule:nonzero;"/><path d="M787.348,733.976c0,0 -16.108,35.603 -17.634,37.252c-1.526,1.65 -12.023,17.956 -4.086,17.648c7.938,-0.308 26.681,-8.984 40.476,-22.239c13.796,-13.254 31.984,-36.218 30.335,-37.744c-1.649,-1.526 -12.946,-5.858 -12.946,-5.858l-36.145,10.941Z" style="fill:#2f2e41;fill-rule:nonzero;"/><path d="M851.712,753.739c0,0 -0.972,15.937 -3.901,22.411c-2.929,6.473 -2.559,15.998 5.379,15.69c7.937,-0.307 28.452,-4.283 28.452,-4.283c0,0 1.218,-9.587 -0.431,-11.113c-1.649,-1.526 -8.676,-18.742 -5.686,-23.628c2.991,-4.886 -23.813,0.923 -23.813,0.923Z" style="fill:#2f2e41;fill-rule:nonzero;"/><path d="M863.455,236.556c0,0 16.922,26.373 23.519,32.477c6.596,6.104 -11.962,19.543 -11.962,19.543l-33.215,4.468c0,0 0.418,-30.225 -1.293,-33.339c-1.711,-3.113 22.951,-23.149 22.951,-23.149Z" style="fill:#ffb9b9;fill-rule:nonzero;"/><path d="M834.585,271.064c0,0 6.842,12.455 13.193,12.208c6.35,-0.246 39.196,-14.239 40.599,-19.063c1.403,-4.825 10.879,34.556 10.879,34.556l-80.371,141.441l-19.605,-13.549l9.499,-83.045l7.802,-44.821l18.004,-27.727Z" style="fill:#2e2e2e;fill-rule:nonzero;"/><path d="M891.341,397.648c-3.206,6.707 -5.208,13.7 -4.931,20.86c0.013,0.318 0.025,0.635 0.053,0.952c0.761,14.693 6.174,31.687 8.116,44.045c1.409,8.864 1.008,15.335 -4.18,16.856c-12.577,3.667 1.834,6.289 -46.826,22.485c-48.66,16.196 -57.152,2.216 -57.275,-0.959c-0.123,-3.175 6.891,-27.296 5.242,-28.822c-1.649,-1.526 -23.074,19.974 -29.548,17.045c-6.473,-2.929 -0.738,-19.05 -0.738,-19.05c0,0 14.582,-33.954 14.275,-41.892c-0.308,-7.938 22.089,-45.375 22.089,-45.375l15.234,-99.166c0,0 5.857,-12.947 13.734,-14.842c7.876,-1.896 14.411,2.621 14.411,2.621l-13.18,29.13l-13.906,51.417l2.327,18.989c0,0 16.17,-34.016 26.79,-47.147c10.62,-13.132 33.264,-44.218 33.264,-44.218c0,0 5.286,-17.838 1.296,-23.168c-3.992,-5.347 16.646,-6.147 25.446,15.771c4.664,11.616 12.236,28.939 16.979,45.068c4.227,14.288 6.223,27.646 2.036,35.281c-6.4,11.664 -22.5,26.995 -30.708,44.119Z" style="fill:#f57181;fill-rule:nonzero;"/><path d="M922.049,353.529c-6.4,11.664 -22.5,26.995 -30.708,44.119c-2.144,-7.724 -4.759,-15.715 -4.759,-15.715c0,0 -10.031,-53.669 19.64,-67.539c4.915,-0.475 9.834,0.9 13.791,3.854c4.227,14.288 6.224,27.646 2.036,35.281Z" style="fill-opacity:0.1;fill-rule:nonzero;"/><path d="M804.263,350.147l-25.155,7.335l-34.926,1.354l-3.593,30.348l57.398,4.134c0,0 14.337,-40.304 6.276,-43.171Z" style="fill:#f57181;fill-rule:nonzero;"/><path d="M845.281,452.186c0,0 -33.652,5.584 -25.971,15.71c7.68,10.127 37.492,-0.52 37.492,-0.52l-11.521,-15.19Z" style="fill:#ffb9b9;fill-rule:nonzero;"/><path d="M886.463,419.46c0.761,14.693 6.174,31.687 8.116,44.045c-10.721,10.146 -20.915,19.095 -24.757,19.244c-7.937,0.308 -20.699,-0.787 -25.4,0.985c-4.701,1.772 -7.459,-28.33 -7.459,-28.33c0,0 2.806,-9.648 15.322,-14.903c8.448,-3.556 24.641,-13.198 34.178,-21.041Z" style="fill-opacity:0.1;fill-rule:nonzero;"/><path d="M905.853,304.869c0,0 26.865,-4.221 25.413,40.353c-1.451,44.574 2.832,73.027 -7.973,81.396c-10.805,8.368 -45.902,46.298 -53.84,46.605c-7.938,0.308 -20.7,-0.787 -25.401,0.985c-4.701,1.773 -7.458,-28.329 -7.458,-28.329c0,0 2.806,-9.648 15.321,-14.904c12.516,-5.255 42.002,-23.887 41.756,-30.238c-0.246,-6.35 -7.458,-28.329 -7.458,-28.329c0,0 -10.031,-53.669 19.64,-67.539Z" style="fill:#f57181;fill-rule:nonzero;"/><circle cx="839.765" cy="240.655" r="34.952" style="fill:#ffb9b9;"/><path d="M816.231,190.558c-0.843,0.726 -1.853,1.233 -2.939,1.475c-1.127,0.201 -2.222,-0.557 -2.43,-1.684c-0.8,1.659 -1.702,3.426 -3.335,4.277c-1.632,0.851 -4.157,0.138 -4.392,-1.688c-0.239,1.386 -0.852,2.681 -1.774,3.744c-1.013,0.965 -2.85,1.209 -3.734,0.124c0.715,3.908 0.273,7.926 0.498,11.892c0.224,3.966 1.282,8.171 4.278,10.779c4.37,3.803 10.941,2.864 16.69,2.144c0.869,-0.183 1.771,-0.133 2.615,0.143c2.152,0.917 2.055,3.913 2.084,6.252c0.361,8.441 6.829,15.455 15.212,16.498c2.281,0.352 4.61,-0.217 6.472,-1.58c1.632,-1.383 2.466,-3.638 4.336,-4.677c3.042,-1.69 6.732,0.775 8.956,3.451c2.224,2.677 4.416,5.97 7.862,6.46c4.557,0.648 8.027,-3.996 9.73,-8.272c4.744,-12.104 4.398,-25.625 -0.958,-37.47c-9.515,-20.741 -42.018,-24.022 -59.171,-11.868Z" style="fill:#2f2e41;fill-rule:nonzero;"/></g><text x="337.073px" y="316.167px" style="font-family:'ArialMT', 'Arial', sans-serif;font-size:47.872px;fill:#fff;">&lt;html&gt;</text><text x="655.235px" y="332.986px" style="font-family:'ArialMT', 'Arial', sans-serif;font-size:66.846px;fill:#fff;">&lt;/&gt;</text></g></svg>